<svg width="34" height="34" viewBox="0 0 34 34" fill="none" xmlns="http://www.w3.org/2000/svg">
<path d="M17 34C26.3888 34 34 26.3888 34 17C34 7.61116 26.3888 0 17 0C7.61116 0 0 7.61116 0 17C0 26.3888 7.61116 34 17 34Z" fill="#C8C8C8"/>
<path fill-rule="evenodd" clip-rule="evenodd" d="M21.4091 18.8079L23.9734 21.3649L17.0025 28.3285L10.0389 21.3649L12.6032 18.8079L17.0025 23.2071L21.4091 18.8079ZM17.0025 14.4013L19.6037 17.0025L17.0025 19.6037L14.4086 17.0099V17.0025L14.8655 16.5457L15.0866 16.3246L17.0025 14.4013ZM8.2335 14.4382L10.7979 17.0025L8.2335 19.5595L5.66913 16.9952L8.2335 14.4382ZM25.7714 14.4382L28.3358 17.0025L25.7714 19.5595L23.2071 16.9952L25.7714 14.4382ZM17.0025 5.66919L23.9661 12.6328L21.4017 15.1971L17.0025 10.7906L12.6032 15.1898L10.0389 12.6328L17.0025 5.66919Z" fill="white"/>
</svg>
