<svg width="35" height="35" viewBox="0 0 35 35" fill="none" xmlns="http://www.w3.org/2000/svg">
<circle cx="17.5" cy="17.5" r="17.5" fill="#FF281F"/>
<path d="M25.2665 23.7865C24.7647 23.7865 24.3389 24.1261 24.2325 24.5986L20.241 24.414C20.2562 24.3402 20.2638 24.2664 20.2638 24.1926C20.2638 24.0597 20.241 23.9268 20.2029 23.7939L21.6551 22.9818C22.0124 23.41 22.6587 23.4986 23.1225 23.1737C23.5862 22.8489 23.7079 22.2287 23.3962 21.7636C23.0844 21.2985 22.4534 21.1509 21.9592 21.424C21.465 21.6972 21.275 22.3026 21.5335 22.7972L20.1269 23.5872C19.7924 22.9006 18.9637 22.5905 18.2414 22.8784C17.5191 23.1664 17.1542 23.9563 17.4127 24.6724L14.7973 25.2852C14.7821 24.9382 14.63 24.6134 14.3791 24.3624L14.8505 23.7274C15.3827 23.9046 15.9681 23.6462 16.181 23.1368C16.3939 22.6274 16.1582 22.0442 15.6488 21.8153C15.1394 21.5791 14.5236 21.7784 14.2575 22.2583C13.9914 22.7382 14.1587 23.3435 14.6376 23.6315L14.2043 24.2147C13.9002 23.9932 13.5124 23.8972 13.1323 23.9415L12.6837 21.4536C13.2463 21.3354 13.6797 20.9072 13.8013 20.3683C13.923 19.822 13.7101 19.2609 13.2539 18.9287C12.7977 18.5891 12.1819 18.5448 11.6801 18.8032L10.5473 16.6548C10.7906 16.5367 10.9883 16.3521 11.1327 16.1306L12.0755 16.3742C12.0679 16.4259 12.0603 16.4702 12.0603 16.5219C12.0603 17.0534 12.4784 17.5038 13.0258 17.5555C13.5732 17.6072 14.075 17.2454 14.1739 16.7138C14.2727 16.1823 13.9458 15.6729 13.4136 15.5326C12.8814 15.3849 12.3264 15.6581 12.1287 16.1601L11.2392 15.9313C11.3608 15.6507 11.3836 15.3406 11.3076 15.0453L13.9306 13.8715C14.4172 14.4621 15.2991 14.5876 15.9377 14.1446C16.5764 13.7017 16.7436 12.8527 16.3179 12.2177L17.9905 10.6305C18.1958 10.756 18.4315 10.8372 18.6672 10.8519V11.5533C18.1122 11.6124 17.694 12.0849 17.7244 12.6312C17.7548 13.1775 18.2186 13.6057 18.7812 13.6057C19.3438 13.6057 19.8076 13.1775 19.838 12.6312C19.8684 12.0849 19.4579 11.6124 18.8953 11.5533V10.8519C19.1081 10.8372 19.3058 10.7781 19.4883 10.6821L21.3206 12.7124C20.8948 13.2587 20.9252 14.0191 21.389 14.5285C21.8604 15.038 22.6359 15.1561 23.2441 14.8017C23.8523 14.4473 24.1108 13.7312 23.8751 13.0889L24.4454 12.7788C24.8103 13.1923 25.4413 13.2661 25.8899 12.9339C26.3385 12.609 26.4449 11.9963 26.1332 11.5459C25.8215 11.0956 25.198 10.9553 24.7191 11.2358C24.2401 11.5164 24.0652 12.107 24.3237 12.5943L23.7839 12.8896C23.5634 12.4983 23.1681 12.2325 22.7195 12.1661C22.2709 12.0996 21.8072 12.2399 21.4802 12.55L19.686 10.564C19.8608 10.4311 20.0053 10.2539 20.1041 10.062L21.6779 10.313C21.7996 10.8446 22.3318 11.1915 22.8792 11.0956C23.4342 11.007 23.8143 10.5123 23.7535 9.97339C23.6927 9.43445 23.2061 9.0284 22.6511 9.05793C22.0885 9.08746 21.6551 9.53043 21.6475 10.0768L20.1877 9.8405C20.393 9.16129 20.0585 8.43778 19.397 8.13509C18.7356 7.8324 17.9525 8.05388 17.5495 8.6445C17.1466 9.23512 17.253 10.0251 17.8004 10.4976L16.1734 12.0406C15.9225 11.76 15.5652 11.5828 15.185 11.5533V10.4754C15.7401 10.4164 16.1582 9.94386 16.1278 9.39754C16.0974 8.85122 15.6412 8.4304 15.0786 8.4304C14.516 8.4304 14.0522 8.8586 14.0218 9.40492C13.9914 9.95124 14.4019 10.4237 14.9646 10.4828V11.5533C14.4628 11.5902 14.0142 11.8781 13.7785 12.3063C13.5428 12.7419 13.5504 13.2587 13.8013 13.6869L11.2468 14.8239C11.1555 14.6098 11.0111 14.4252 10.8286 14.2775L11.8246 12.5352C11.9158 12.5574 11.9994 12.5721 12.0907 12.5721C12.6305 12.5721 13.079 12.1808 13.1475 11.664C13.2159 11.1472 12.8662 10.6674 12.3492 10.5419C11.8246 10.4164 11.2924 10.6895 11.1023 11.1768C10.9122 11.664 11.1327 12.2104 11.6041 12.454L10.6385 14.152C10.0531 13.8124 9.31562 13.9084 8.83664 14.3809C8.36526 14.8534 8.28163 15.5695 8.63897 16.1306C8.9963 16.6917 9.69577 16.9427 10.342 16.7434L11.49 18.9213C11.2011 19.128 10.9959 19.4381 10.9274 19.7777L10.0911 19.5414C10.1139 19.4602 10.1215 19.3716 10.1215 19.2904C10.1215 18.7662 9.71857 18.3307 9.18637 18.2716C8.65417 18.2125 8.15998 18.5448 8.03074 19.0542C7.90149 19.5636 8.1904 20.0804 8.69979 20.2576C9.20158 20.4347 9.76419 20.2206 10.0075 19.7555L10.897 20.0065C10.897 20.0287 10.897 20.0508 10.897 20.073C10.897 20.5602 11.1479 21.0106 11.5737 21.269L11.0035 21.9925C10.5853 21.6307 9.94666 21.6529 9.55131 22.0442C9.15596 22.4355 9.14076 23.0482 9.5209 23.4543C9.90104 23.8603 10.5321 23.9046 10.973 23.5576C11.414 23.2107 11.49 22.5979 11.1631 22.1549L11.779 21.3724C11.9614 21.4536 12.1667 21.4905 12.372 21.4905C12.4024 21.4905 12.4328 21.4905 12.4632 21.4831L12.9194 23.9858C12.3112 24.163 11.8854 24.702 11.8626 25.3147C11.8474 25.9349 12.2427 26.4886 12.8434 26.6953C13.444 26.902 14.113 26.7101 14.5008 26.2154L16.6296 27.1383C16.6144 27.2121 16.5992 27.2933 16.5992 27.3671C16.5992 27.8913 17.0021 28.3343 17.5419 28.3933C18.0817 28.4524 18.5759 28.1128 18.6976 27.6034C18.8192 27.094 18.5227 26.5772 18.0133 26.4C17.5039 26.2228 16.9413 26.4517 16.7056 26.9242L14.63 26.0235C14.7213 25.8611 14.7821 25.6839 14.7973 25.4993L17.5039 24.857C17.7092 25.2261 18.0741 25.4845 18.4999 25.5731C18.9257 25.6543 19.3666 25.551 19.7012 25.2926L20.7123 26.1416C20.4767 26.6436 20.6819 27.2342 21.1837 27.4853C21.6855 27.7437 22.3013 27.5739 22.5903 27.1014C22.8792 26.6289 22.7423 26.0235 22.2785 25.7134C21.8072 25.4033 21.1761 25.5067 20.834 25.9423L19.8684 25.1376C20.0129 24.9899 20.1193 24.8053 20.1877 24.6134L24.2097 24.8053C24.2173 25.3738 24.6886 25.8241 25.2741 25.8241C25.8595 25.8241 26.3309 25.359 26.3233 24.7979C26.3233 24.2442 25.8519 23.7865 25.2665 23.7865Z" fill="white"/>
</svg>
