<svg width="34" height="34" viewBox="0 0 34 34" fill="none" xmlns="http://www.w3.org/2000/svg">
<path d="M17 34C26.3888 34 34 26.3888 34 17C34 7.61116 26.3888 0 17 0C7.61116 0 0 7.61116 0 17C0 26.3888 7.61116 34 17 34Z" fill="#627EEA"/>
<path d="M17.5294 4.25012V13.6743L25.4947 17.2338L17.5294 4.25012Z" fill="#BDCBFF"/>
<path d="M17.5293 4.25012L9.56262 17.2338L17.5293 13.6743V4.25012Z" fill="white"/>
<path d="M17.5294 23.341V29.7448L25.5003 18.7168L17.5294 23.341Z" fill="#BDCBFF"/>
<path d="M17.5293 29.7448V23.3401L9.56262 18.7168L17.5293 29.7448Z" fill="white"/>
<path d="M17.5294 21.859L25.4947 17.2338L17.5294 13.6766V21.859Z" fill="#9AABEC"/>
<path d="M9.56262 17.2338L17.5293 21.859V13.6766L9.56262 17.2338Z" fill="#D5DEFF"/>
</svg>
