<svg width="34" height="34" viewBox="0 0 34 34" fill="none" xmlns="http://www.w3.org/2000/svg">
<path d="M16.9933 0C26.3865 0 34 7.61204 34 17.0033C34 26.3946 26.3865 34 17 34C7.60685 34 4.40586e-06 26.388 4.40586e-06 17.0033C-0.00668587 7.61204 7.60685 0 16.9933 0Z" fill="#CBCBCB"/>
<path d="M22.5663 13.2977C22.1582 13.0636 21.6363 13.0636 21.1747 13.2977L17.9232 15.2241L15.7154 16.4482L12.5242 18.3679C12.1161 18.602 11.5942 18.602 11.1326 18.3679L8.63712 16.8495C8.22902 16.6154 7.94134 16.1472 7.94134 15.6254V12.709C7.94134 12.2408 8.17549 11.7793 8.63712 11.485L11.1326 10.0268C11.5407 9.79265 12.0625 9.79265 12.5242 10.0268L15.0196 11.5452C15.4278 11.7793 15.7154 12.2475 15.7154 12.7692V14.6957L17.9232 13.4114V11.4314C17.9232 10.9632 17.6891 10.5017 17.2274 10.2074L12.5844 7.46489C12.1763 7.23078 11.6544 7.23078 11.1928 7.46489L6.43602 10.2676C5.97439 10.5017 5.74023 10.9699 5.74023 11.4314V16.9097C5.74023 17.3779 5.97439 17.8395 6.43602 18.1338L11.1393 20.8763C11.5474 21.1104 12.0692 21.1104 12.5309 20.8763L15.7221 19.01L17.9299 17.7258L21.1212 15.8595C21.5293 15.6254 22.0511 15.6254 22.5128 15.8595L25.0082 17.3177C25.4163 17.5518 25.704 18.0201 25.704 18.5418V21.4582C25.704 21.9264 25.4699 22.388 25.0082 22.6823L22.573 24.1405C22.1649 24.3746 21.643 24.3746 21.1814 24.1405L18.6792 22.6823C18.2711 22.4482 17.9834 21.9799 17.9834 21.4582V19.592L15.7757 20.8763V22.8027C15.7757 23.2709 16.0098 23.7325 16.4714 24.0268L21.1747 26.7692C21.5828 27.0034 22.1047 27.0034 22.5663 26.7692L27.2696 24.0268C27.6777 23.7927 27.9653 23.3244 27.9653 22.8027V17.2642C27.9653 16.796 27.7312 16.3345 27.2696 16.0401L22.5663 13.2977Z" fill="white"/>
</svg>
