<svg width="27" height="27" viewBox="0 0 27 27" fill="none" xmlns="http://www.w3.org/2000/svg">
<g clip-path="url(#clip0_3340_6432)">
<path d="M6.75 11.3179V22.7812C6.75 23.005 6.83889 23.2196 6.99713 23.3779C7.15536 23.5361 7.36997 23.625 7.59375 23.625H19.4062C19.63 23.625 19.8446 23.5361 20.0029 23.3779C20.1611 23.2196 20.25 23.005 20.25 22.7812V11.3179C20.2501 11.0944 20.3389 10.8801 20.4968 10.722L21.6907 9.52805C21.8486 9.36994 21.9374 9.15563 21.9375 8.93215V4.21875C21.9375 3.99497 21.8486 3.78036 21.6904 3.62213C21.5321 3.46389 21.3175 3.375 21.0938 3.375H19.4062C19.1825 3.375 18.9679 3.46389 18.8096 3.62213C18.6514 3.78036 18.5625 3.99497 18.5625 4.21875V5.90625C18.5625 6.13003 18.4736 6.34464 18.3154 6.50287C18.1571 6.66111 17.9425 6.75 17.7188 6.75H16.0312C15.8075 6.75 15.5929 6.66111 15.4346 6.50287C15.2764 6.34464 15.1875 6.13003 15.1875 5.90625V4.21875C15.1875 3.99497 15.0986 3.78036 14.9404 3.62213C14.7821 3.46389 14.5675 3.375 14.3438 3.375H12.6562C12.4325 3.375 12.2179 3.46389 12.0596 3.62213C11.9014 3.78036 11.8125 3.99497 11.8125 4.21875V5.90625C11.8125 6.13003 11.7236 6.34464 11.5654 6.50287C11.4071 6.66111 11.1925 6.75 10.9688 6.75H9.28125C9.05747 6.75 8.84286 6.66111 8.68463 6.50287C8.52639 6.34464 8.4375 6.13003 8.4375 5.90625V4.21875C8.4375 3.99497 8.34861 3.78036 8.19037 3.62213C8.03214 3.46389 7.81753 3.375 7.59375 3.375H5.90625C5.68247 3.375 5.46786 3.46389 5.30963 3.62213C5.15139 3.78036 5.0625 3.99497 5.0625 4.21875V8.93215C5.0626 9.15563 5.15136 9.36994 5.3093 9.52805L6.5032 10.722C6.66114 10.8801 6.7499 11.0944 6.75 11.3179Z" stroke="#F6851B" stroke-width="1.7" stroke-linecap="round" stroke-linejoin="round"/>
<path d="M10.9688 23.625V16.0312C10.9688 15.3599 11.2354 14.7161 11.7101 14.2414C12.1848 13.7667 12.8287 13.5 13.5 13.5C14.1713 13.5 14.8152 13.7667 15.2899 14.2414C15.7646 14.7161 16.0312 15.3599 16.0312 16.0312V23.625" stroke="#F6851B" stroke-width="1.7" stroke-linecap="round" stroke-linejoin="round"/>
</g>
<defs>
<clipPath id="clip0_3340_6432">
<rect width="27" height="27" fill="white"/>
</clipPath>
</defs>
</svg>
