<svg width="838" height="314" viewBox="0 0 838 314" fill="none" xmlns="http://www.w3.org/2000/svg">
<g clip-path="url(#clip0_54_88)">
<g clip-path="url(#clip1_54_88)">
<path d="M564.564 102.423H550.272C548.613 102.423 547.268 101.078 547.268 99.4194V64.0037C547.268 62.3446 545.924 61 544.264 61H524.171C522.512 61 521.167 62.3446 521.167 64.0037V99.4085C521.167 101.068 519.823 102.412 518.164 102.412H513.034C511.375 102.412 510.031 103.757 510.031 105.416V123.764C510.031 125.423 511.375 126.767 513.034 126.767H518.164C519.823 126.767 521.167 128.112 521.167 129.771V212.4C521.167 214.059 522.512 215.404 524.171 215.404H544.264C545.924 215.404 547.268 214.059 547.268 212.4V129.793C547.268 128.134 548.613 126.789 550.272 126.789H564.564C566.223 126.789 567.568 125.444 567.568 123.785V105.438C567.568 103.779 566.223 102.434 564.564 102.434V102.423Z" fill="white"/>
<path d="M656.746 104.613C650.132 101.067 643.767 99.2891 637.651 99.2891C632.467 99.2891 627.978 100.254 624.194 102.184C621.83 103.366 619.26 105.188 616.462 107.65C614.499 109.374 611.43 108.029 611.43 105.427C611.43 103.768 610.086 102.423 608.427 102.423H588.333C586.674 102.423 585.33 103.768 585.33 105.427V212.422C585.33 214.081 586.674 215.426 588.333 215.426H608.427C610.086 215.426 611.43 214.081 611.43 212.422V156.837C611.43 135.334 618.544 124.588 632.782 124.588C636.631 124.588 640.568 125.769 644.569 128.144C646.065 129.033 648.006 128.48 648.787 126.919L657.961 108.571C658.677 107.14 658.167 105.372 656.757 104.613H656.746Z" fill="white"/>
<path d="M791.653 197.349L782.111 184.673V105.427C782.111 103.768 780.766 102.423 779.107 102.423H758.894C757.235 102.423 755.891 103.768 755.891 105.427V108.604C755.891 111.141 752.919 112.562 750.989 110.924C741.794 103.16 731.633 99.2783 720.508 99.2783C705.272 99.2783 692.585 104.928 682.457 116.216C672.318 127.505 667.254 141.623 667.254 158.561C667.254 175.499 672.318 190.192 682.457 201.719C692.672 213.007 705.587 218.657 721.212 218.657C731.763 218.657 741.729 215.003 751.098 207.694C753.05 206.176 755.901 207.618 755.901 210.101V212.411C755.901 214.07 757.246 215.415 758.905 215.415H779.118C779.476 215.415 779.823 215.339 780.148 215.22H782.447C783.575 215.22 784.605 214.591 785.115 213.593L791.979 200.581C792.521 199.529 792.402 198.26 791.664 197.338L791.653 197.349ZM748.571 185.378C742.618 192.036 734.8 195.354 725.138 195.354C716.083 195.354 708.579 191.916 702.626 185.031C696.825 178.221 693.93 169.405 693.93 158.572C693.93 148.444 696.912 139.932 702.865 133.046C708.894 126.236 716.398 122.831 725.376 122.831C734.886 122.831 742.629 126.192 748.582 132.926C754.535 139.812 757.517 148.552 757.517 159.147C757.517 169.741 754.535 178.481 748.582 185.367L748.571 185.378Z" fill="white"/>
<path d="M401.246 102.423H378.572C377.433 102.423 376.382 103.073 375.883 104.093L347.06 162.161C345.976 164.351 342.864 164.395 341.714 162.237L310.734 104.017C310.213 103.041 309.194 102.423 308.077 102.423H284.698C282.41 102.423 280.957 104.884 282.063 106.88L330.361 194.324C330.404 194.389 330.437 194.465 330.48 194.53L340.229 209.277L326.706 234.576C325.633 236.582 327.086 239 329.363 239H352.33C353.458 239 354.488 238.371 354.998 237.373L366.622 214.851C367.164 213.799 367.045 212.53 366.308 211.608L356.353 198.997L403.914 106.804C404.944 104.798 403.491 102.423 401.246 102.423Z" fill="white"/>
<path d="M227.508 99.2892C214.821 99.2892 204.508 103.865 196.582 113.017C195.356 114.438 193.144 114.405 191.984 112.931C184.805 103.833 175.458 99.2892 163.92 99.2892C158.195 99.2892 153.434 100.254 149.65 102.184C147.351 103.388 144.738 105.297 141.821 107.932C139.88 109.677 136.778 108.344 136.778 105.73V105.427C136.778 103.768 135.434 102.423 133.775 102.423H129.426C129.274 102.401 129.133 102.358 128.982 102.358H106.015C103.748 102.358 102.295 104.776 103.358 106.782L110.667 130.15V212.422C110.667 214.081 112.011 215.426 113.67 215.426H133.764C135.423 215.426 136.767 214.081 136.767 212.422V157.065C136.767 145.234 138.448 136.57 141.81 131.072C145.171 125.585 150.528 122.831 157.88 122.831C169.483 122.831 175.284 132.883 175.284 152.998V212.411C175.284 214.07 176.629 215.415 178.288 215.415H198.501C200.16 215.415 201.505 214.07 201.505 212.411V157.054C201.505 145.061 203.153 136.364 206.439 130.953C209.724 125.542 214.962 122.831 222.162 122.831C228.354 122.831 232.8 125.108 235.5 129.673C238.124 134.163 239.447 141.818 239.447 152.651V212.411C239.447 214.07 240.792 215.415 242.451 215.415H262.663C264.322 215.415 265.667 214.07 265.667 212.411V145.57C265.667 114.709 252.947 99.2783 227.497 99.2783L227.508 99.2892Z" fill="white"/>
<path d="M489.72 160.545C484.928 155.514 475.602 150.027 461.754 144.074C451.702 139.823 446.671 135.529 446.671 131.191C446.671 128.719 447.517 126.691 449.219 125.097C450.922 123.514 452.971 122.722 455.367 122.722C459.738 122.722 463.5 125.358 466.645 130.628C467.469 132.005 469.226 132.525 470.635 131.766L486.988 123.059C488.473 122.267 489.005 120.413 488.202 118.927C481.165 105.828 470.874 99.2783 457.33 99.2783C447.506 99.2783 439.156 102.488 432.27 108.908C425.536 115.327 422.175 123.449 422.175 133.273C422.175 140.701 424.148 146.774 428.095 151.491C431.186 155.199 436.521 158.919 444.112 162.627C446.823 163.94 449.49 165.219 452.114 166.455C454.695 167.67 457.287 168.928 459.868 170.218C459.954 170.261 460.041 170.316 460.128 170.359C466.851 174.36 470.213 178.665 470.213 183.274C470.213 191.32 465.799 195.343 456.983 195.343C452.57 195.343 448.785 193.879 445.608 190.93C444.231 189.683 442.333 187.026 439.904 182.949C439.113 181.626 437.454 181.105 436.055 181.745L418.965 189.661C417.414 190.377 416.807 192.22 417.545 193.76C425.569 210.351 438.56 218.646 456.517 218.646C467.578 218.646 477.012 215.165 484.83 208.204C492.876 200.852 496.899 191.732 496.899 180.823C496.899 172.311 494.503 165.544 489.71 160.524L489.72 160.545Z" fill="white"/>
</g>
<path d="M76.3347 59.1612C76.416 58.1881 77.1881 57.416 78.1612 57.3347L117.949 54.0098C120.396 53.8054 120.393 50.2245 117.947 50.0235L78.164 46.7544C77.1897 46.6744 76.416 45.9017 76.3347 44.9275L73.0098 5.08438C72.8057 2.63777 69.2242 2.64025 69.0235 5.08713L65.7544 44.9247C65.6744 45.9002 64.9002 46.6744 63.9247 46.7544L24.0871 50.0235C21.6403 50.2242 21.6378 53.8057 24.0844 54.0098L63.9275 57.3347C64.9017 57.416 65.6744 58.1897 65.7544 59.164L69.0235 98.9466C69.2245 101.393 72.8054 101.396 73.0098 98.9493L76.3347 59.1612Z" fill="#04D7D7"/>
</g>
<defs>
<clipPath id="clip0_54_88">
<rect width="838" height="314" fill="white"/>
</clipPath>
<clipPath id="clip1_54_88">
<rect width="689.293" height="178" fill="white" transform="translate(103 61)"/>
</clipPath>
</defs>
</svg>
