<svg width="838" height="315" viewBox="0 0 838 315" fill="none" xmlns="http://www.w3.org/2000/svg">
<g clip-path="url(#clip0_54_64)">
<g clip-path="url(#clip1_54_64)">
<path d="M564.564 101.423H550.272C548.613 101.423 547.268 100.078 547.268 98.4194V63.0037C547.268 61.3446 545.924 60 544.264 60H524.171C522.512 60 521.167 61.3446 521.167 63.0037V98.4085C521.167 100.068 519.823 101.412 518.164 101.412H513.034C511.375 101.412 510.031 102.757 510.031 104.416V122.764C510.031 124.423 511.375 125.767 513.034 125.767H518.164C519.823 125.767 521.167 127.112 521.167 128.771V211.4C521.167 213.059 522.512 214.404 524.171 214.404H544.264C545.924 214.404 547.268 213.059 547.268 211.4V128.793C547.268 127.134 548.613 125.789 550.272 125.789H564.564C566.223 125.789 567.568 124.444 567.568 122.785V104.438C567.568 102.779 566.223 101.434 564.564 101.434V101.423Z" fill="black"/>
<path d="M656.746 103.613C650.132 100.067 643.767 98.2891 637.651 98.2891C632.467 98.2891 627.978 99.2542 624.194 101.184C621.83 102.366 619.26 104.188 616.462 106.65C614.499 108.374 611.43 107.029 611.43 104.427C611.43 102.768 610.086 101.423 608.427 101.423H588.333C586.674 101.423 585.33 102.768 585.33 104.427V211.422C585.33 213.081 586.674 214.426 588.333 214.426H608.427C610.086 214.426 611.43 213.081 611.43 211.422V155.837C611.43 134.334 618.544 123.588 632.782 123.588C636.631 123.588 640.568 124.769 644.569 127.144C646.065 128.033 648.006 127.48 648.787 125.919L657.961 107.571C658.677 106.14 658.167 104.372 656.757 103.613H656.746Z" fill="black"/>
<path d="M791.653 196.349L782.111 183.673V104.427C782.111 102.768 780.766 101.423 779.107 101.423H758.894C757.235 101.423 755.891 102.768 755.891 104.427V107.604C755.891 110.141 752.919 111.562 750.989 109.924C741.794 102.16 731.633 98.2783 720.508 98.2783C705.272 98.2783 692.585 103.928 682.457 115.216C672.318 126.505 667.254 140.623 667.254 157.561C667.254 174.499 672.318 189.192 682.457 200.719C692.672 212.007 705.587 217.657 721.212 217.657C731.763 217.657 741.729 214.003 751.098 206.694C753.05 205.176 755.901 206.618 755.901 209.101V211.411C755.901 213.07 757.246 214.415 758.905 214.415H779.118C779.476 214.415 779.823 214.339 780.148 214.22H782.447C783.575 214.22 784.605 213.591 785.115 212.593L791.979 199.581C792.521 198.529 792.402 197.26 791.664 196.338L791.653 196.349ZM748.571 184.378C742.618 191.036 734.8 194.354 725.138 194.354C716.083 194.354 708.579 190.916 702.626 184.031C696.825 177.221 693.93 168.405 693.93 157.572C693.93 147.444 696.912 138.932 702.865 132.046C708.894 125.236 716.398 121.831 725.376 121.831C734.886 121.831 742.629 125.192 748.582 131.926C754.535 138.812 757.517 147.552 757.517 158.147C757.517 168.741 754.535 177.481 748.582 184.367L748.571 184.378Z" fill="black"/>
<path d="M401.246 101.423H378.572C377.433 101.423 376.382 102.073 375.883 103.093L347.06 161.161C345.976 163.351 342.864 163.395 341.714 161.237L310.734 103.017C310.213 102.041 309.194 101.423 308.077 101.423H284.698C282.41 101.423 280.957 103.884 282.063 105.88L330.361 193.324C330.404 193.389 330.437 193.465 330.48 193.53L340.229 208.277L326.706 233.576C325.633 235.582 327.086 238 329.363 238H352.33C353.458 238 354.488 237.371 354.998 236.373L366.622 213.851C367.164 212.799 367.045 211.53 366.308 210.608L356.353 197.997L403.914 105.804C404.944 103.798 403.491 101.423 401.246 101.423Z" fill="black"/>
<path d="M227.508 98.2892C214.821 98.2892 204.508 102.865 196.582 112.017C195.356 113.438 193.144 113.405 191.984 111.931C184.805 102.833 175.458 98.2892 163.92 98.2892C158.195 98.2892 153.434 99.2543 149.65 101.184C147.351 102.388 144.738 104.297 141.821 106.932C139.88 108.677 136.778 107.344 136.778 104.73V104.427C136.778 102.768 135.434 101.423 133.775 101.423H129.426C129.274 101.401 129.133 101.358 128.982 101.358H106.015C103.748 101.358 102.295 103.776 103.358 105.782L110.667 129.15V211.422C110.667 213.081 112.011 214.426 113.67 214.426H133.764C135.423 214.426 136.767 213.081 136.767 211.422V156.065C136.767 144.234 138.448 135.57 141.81 130.072C145.171 124.585 150.528 121.831 157.88 121.831C169.483 121.831 175.284 131.883 175.284 151.998V211.411C175.284 213.07 176.629 214.415 178.288 214.415H198.501C200.16 214.415 201.505 213.07 201.505 211.411V156.054C201.505 144.061 203.153 135.364 206.439 129.953C209.724 124.542 214.962 121.831 222.162 121.831C228.354 121.831 232.8 124.108 235.5 128.673C238.124 133.163 239.447 140.818 239.447 151.651V211.411C239.447 213.07 240.792 214.415 242.451 214.415H262.663C264.322 214.415 265.667 213.07 265.667 211.411V144.57C265.667 113.709 252.947 98.2783 227.497 98.2783L227.508 98.2892Z" fill="black"/>
<path d="M489.72 159.545C484.928 154.514 475.602 149.027 461.754 143.074C451.702 138.823 446.671 134.529 446.671 130.191C446.671 127.719 447.517 125.691 449.219 124.097C450.922 122.514 452.971 121.722 455.367 121.722C459.738 121.722 463.5 124.358 466.645 129.628C467.469 131.005 469.226 131.525 470.635 130.766L486.988 122.059C488.473 121.267 489.005 119.413 488.202 117.927C481.165 104.828 470.874 98.2783 457.33 98.2783C447.506 98.2783 439.156 101.488 432.27 107.908C425.536 114.327 422.175 122.449 422.175 132.273C422.175 139.701 424.148 145.774 428.095 150.491C431.186 154.199 436.521 157.919 444.112 161.627C446.823 162.94 449.49 164.219 452.114 165.455C454.695 166.67 457.287 167.928 459.868 169.218C459.954 169.261 460.041 169.316 460.128 169.359C466.851 173.36 470.213 177.665 470.213 182.274C470.213 190.32 465.799 194.343 456.983 194.343C452.57 194.343 448.785 192.879 445.608 189.93C444.231 188.683 442.333 186.026 439.904 181.949C439.113 180.626 437.454 180.105 436.055 180.745L418.965 188.661C417.414 189.377 416.807 191.22 417.545 192.76C425.569 209.351 438.56 217.646 456.517 217.646C467.578 217.646 477.012 214.165 484.83 207.204C492.876 199.852 496.899 190.732 496.899 179.823C496.899 171.311 494.503 164.544 489.71 159.524L489.72 159.545Z" fill="black"/>
</g>
<path d="M76.3347 58.1612C76.416 57.1881 77.1881 56.416 78.1612 56.3347L117.949 53.0098C120.396 52.8054 120.393 49.2245 117.947 49.0235L78.164 45.7544C77.1897 45.6744 76.416 44.9017 76.3347 43.9275L73.0098 4.08438C72.8057 1.63777 69.2242 1.64025 69.0235 4.08713L65.7544 43.9247C65.6744 44.9002 64.9002 45.6744 63.9247 45.7544L24.0871 49.0234C21.6403 49.2242 21.6378 52.8057 24.0844 53.0098L63.9275 56.3347C64.9017 56.416 65.6744 57.1896 65.7544 58.164L69.0235 97.9466C69.2245 100.393 72.8054 100.396 73.0098 97.9493L76.3347 58.1612Z" fill="#04D7D7"/>
</g>
<defs>
<clipPath id="clip0_54_64">
<rect width="838" height="315" fill="white"/>
</clipPath>
<clipPath id="clip1_54_64">
<rect width="689.293" height="178" fill="white" transform="translate(103 60)"/>
</clipPath>
</defs>
</svg>
