<svg width="14" height="14" viewBox="0 0 14 14" fill="none" xmlns="http://www.w3.org/2000/svg">
<path d="M7.92373 8.16118C7.9343 8.03468 8.03468 7.9343 8.16118 7.92373L13.3338 7.49148C13.6518 7.46491 13.6515 6.99938 13.3334 6.97325L8.16154 6.54826C8.03488 6.53785 7.9343 6.4374 7.92373 6.31075L7.49149 1.13104C7.46494 0.812972 6.99935 0.813294 6.97325 1.1314L6.54827 6.31039C6.53786 6.43721 6.43721 6.53786 6.3104 6.54827L1.1314 6.97325C0.813294 6.99935 0.812972 7.46494 1.13104 7.49149L6.31075 7.92373C6.4374 7.9343 6.53785 8.03488 6.54826 8.16154L6.97325 13.3334C6.99939 13.6515 7.46491 13.6518 7.49148 13.3338L7.92373 8.16118Z" fill="#2FB88E"/>
</svg>
