<svg xmlns="http://www.w3.org/2000/svg" xmlns:xlink="http://www.w3.org/1999/xlink" viewBox="0 0 104.71 155.41"><defs><style>.cls-1{fill:url(#linear-gradient);}.cls-2{fill:url(#linear-gradient-2);}.cls-3{fill:url(#linear-gradient-3);}.cls-4{fill:url(#linear-gradient-4);}.cls-5{fill:url(#linear-gradient-5);}.cls-6{fill:url(#linear-gradient-6);}.cls-7{fill:url(#linear-gradient-7);}.cls-8{fill:url(#linear-gradient-8);}.cls-9{fill:url(#linear-gradient-9);}.cls-10{fill:url(#linear-gradient-10);}.cls-11{fill:url(#linear-gradient-11);}.cls-12{fill:url(#linear-gradient-12);}.cls-13{fill:url(#linear-gradient-13);}.cls-14{fill:url(#linear-gradient-14);}.cls-15{fill:url(#linear-gradient-15);}.cls-16{fill:url(#linear-gradient-16);}.cls-17{fill:url(#linear-gradient-17);}.cls-18{fill:url(#linear-gradient-18);}.cls-19{fill:url(#linear-gradient-19);}.cls-20{fill:url(#linear-gradient-20);}.cls-21{fill:url(#linear-gradient-21);}.cls-22{fill:url(#linear-gradient-22);}.cls-23{fill:url(#linear-gradient-23);}.cls-24{fill:url(#linear-gradient-24);}.cls-25{fill:url(#linear-gradient-25);}.cls-26{fill:url(#linear-gradient-26);}.cls-27{fill:url(#linear-gradient-27);}.cls-28{fill:url(#linear-gradient-28);}.cls-29{fill:url(#linear-gradient-29);}.cls-30{fill:url(#linear-gradient-30);}.cls-31{fill:url(#linear-gradient-31);}.cls-32{fill:url(#linear-gradient-32);}.cls-33{fill:url(#linear-gradient-33);}.cls-34{fill:url(#linear-gradient-34);}.cls-35{fill:url(#linear-gradient-35);}.cls-36{fill:url(#linear-gradient-36);}.cls-37{fill:url(#linear-gradient-37);}.cls-38{fill:url(#linear-gradient-38);}.cls-39{fill:url(#linear-gradient-39);}</style><linearGradient id="linear-gradient" x1="122.93" y1="109.94" x2="-38.94" y2="109.94" gradientUnits="userSpaceOnUse"><stop offset="0" stop-color="#ff95b4"/><stop offset="1" stop-color="#f70099"/></linearGradient><linearGradient id="linear-gradient-2" x1="122.92" y1="120.22" x2="-38.93" y2="120.22" xlink:href="#linear-gradient"/><linearGradient id="linear-gradient-3" x1="122.93" y1="130.5" x2="-38.94" y2="130.5" xlink:href="#linear-gradient"/><linearGradient id="linear-gradient-4" x1="122.92" y1="99.41" x2="-38.94" y2="99.41" xlink:href="#linear-gradient"/><linearGradient id="linear-gradient-5" x1="122.93" y1="109.69" x2="-38.95" y2="109.69" xlink:href="#linear-gradient"/><linearGradient id="linear-gradient-6" x1="122.92" y1="119.97" x2="-38.94" y2="119.97" xlink:href="#linear-gradient"/><linearGradient id="linear-gradient-7" x1="122.92" y1="130.36" x2="-38.94" y2="130.36" xlink:href="#linear-gradient"/><linearGradient id="linear-gradient-8" x1="122.93" y1="140.64" x2="-38.94" y2="140.64" xlink:href="#linear-gradient"/><linearGradient id="linear-gradient-9" x1="122.93" y1="150.92" x2="-38.94" y2="150.92" xlink:href="#linear-gradient"/><linearGradient id="linear-gradient-10" x1="122.94" y1="119.83" x2="-38.95" y2="119.83" xlink:href="#linear-gradient"/><linearGradient id="linear-gradient-11" x1="122.93" y1="130.11" x2="-38.95" y2="130.11" xlink:href="#linear-gradient"/><linearGradient id="linear-gradient-12" x1="122.93" y1="140.39" x2="-38.94" y2="140.39" xlink:href="#linear-gradient"/><linearGradient id="linear-gradient-13" x1="122.92" y1="88.89" x2="-38.93" y2="88.89" xlink:href="#linear-gradient"/><linearGradient id="linear-gradient-14" x1="122.93" y1="99.17" x2="-38.94" y2="99.17" xlink:href="#linear-gradient"/><linearGradient id="linear-gradient-15" x1="122.93" y1="109.44" x2="-38.94" y2="109.44" xlink:href="#linear-gradient"/><linearGradient id="linear-gradient-16" x1="122.93" y1="78.36" x2="-38.94" y2="78.36" xlink:href="#linear-gradient"/><linearGradient id="linear-gradient-17" x1="122.93" y1="88.63" x2="-38.94" y2="88.63" xlink:href="#linear-gradient"/><linearGradient id="linear-gradient-18" x1="122.93" y1="98.91" x2="-38.94" y2="98.91" xlink:href="#linear-gradient"/><linearGradient id="linear-gradient-19" x1="122.92" y1="67.83" x2="-38.93" y2="67.83" xlink:href="#linear-gradient"/><linearGradient id="linear-gradient-20" x1="122.93" y1="78.11" x2="-38.94" y2="78.11" xlink:href="#linear-gradient"/><linearGradient id="linear-gradient-21" x1="122.93" y1="88.38" x2="-38.94" y2="88.38" xlink:href="#linear-gradient"/><linearGradient id="linear-gradient-22" x1="122.92" y1="57.3" x2="-38.93" y2="57.3" xlink:href="#linear-gradient"/><linearGradient id="linear-gradient-23" x1="122.93" y1="67.58" x2="-38.94" y2="67.58" xlink:href="#linear-gradient"/><linearGradient id="linear-gradient-24" x1="122.93" y1="77.86" x2="-38.95" y2="77.86" xlink:href="#linear-gradient"/><linearGradient id="linear-gradient-25" x1="122.92" y1="25.71" x2="-38.94" y2="25.71" xlink:href="#linear-gradient"/><linearGradient id="linear-gradient-26" x1="122.93" y1="36.01" x2="-38.94" y2="36.01" xlink:href="#linear-gradient"/><linearGradient id="linear-gradient-27" x1="122.92" y1="46.31" x2="-38.94" y2="46.31" xlink:href="#linear-gradient"/><linearGradient id="linear-gradient-28" x1="122.92" y1="36.66" x2="-38.94" y2="36.66" xlink:href="#linear-gradient"/><linearGradient id="linear-gradient-29" x1="122.94" y1="46.96" x2="-38.95" y2="46.96" xlink:href="#linear-gradient"/><linearGradient id="linear-gradient-30" x1="122.93" y1="57.26" x2="-38.94" y2="57.26" xlink:href="#linear-gradient"/><linearGradient id="linear-gradient-31" x1="122.92" y1="4.49" x2="-38.93" y2="4.49" xlink:href="#linear-gradient"/><linearGradient id="linear-gradient-32" x1="122.93" y1="14.79" x2="-38.94" y2="14.79" xlink:href="#linear-gradient"/><linearGradient id="linear-gradient-33" x1="122.92" y1="25.09" x2="-38.93" y2="25.09" xlink:href="#linear-gradient"/><linearGradient id="linear-gradient-34" x1="122.93" y1="15.44" x2="-38.94" y2="15.44" xlink:href="#linear-gradient"/><linearGradient id="linear-gradient-35" x1="122.93" y1="25.74" x2="-38.94" y2="25.74" xlink:href="#linear-gradient"/><linearGradient id="linear-gradient-36" x1="122.93" y1="36.04" x2="-38.94" y2="36.04" xlink:href="#linear-gradient"/><linearGradient id="linear-gradient-37" x1="122.92" y1="47.6" x2="-38.94" y2="47.6" xlink:href="#linear-gradient"/><linearGradient id="linear-gradient-38" x1="122.93" y1="57.49" x2="-38.94" y2="57.49" xlink:href="#linear-gradient"/><linearGradient id="linear-gradient-39" x1="122.92" y1="68.34" x2="-38.94" y2="68.34" xlink:href="#linear-gradient"/></defs><g id="Layer_2" data-name="Layer 2"><g id="Layer_1-2" data-name="Layer 1"><g id="E"><path class="cls-1" d="M28.82,113.18a4.49,4.49,0,1,1,.13-6.35A4.49,4.49,0,0,1,28.82,113.18Z"/><path class="cls-2" d="M38.71,123.46a4.49,4.49,0,1,1,.13-6.35A4.5,4.5,0,0,1,38.71,123.46Z"/><path class="cls-3" d="M48.6,133.74a4.49,4.49,0,1,1,.13-6.35A4.49,4.49,0,0,1,48.6,133.74Z"/><path class="cls-4" d="M39.77,102.65a4.49,4.49,0,1,1,.12-6.35A4.5,4.5,0,0,1,39.77,102.65Z"/><path class="cls-5" d="M49.66,112.93a4.49,4.49,0,1,1,.12-6.35A4.5,4.5,0,0,1,49.66,112.93Z"/><path class="cls-6" d="M59.55,123.21a4.49,4.49,0,1,1,.12-6.35A4.49,4.49,0,0,1,59.55,123.21Z"/><path class="cls-7" d="M7.6,133.6a4.49,4.49,0,1,1,.12-6.35A4.49,4.49,0,0,1,7.6,133.6Z"/><path class="cls-8" d="M17.49,143.88a4.49,4.49,0,1,1,.13-6.35A4.5,4.5,0,0,1,17.49,143.88Z"/><path class="cls-9" d="M27.38,154.15a4.49,4.49,0,1,1,.12-6.34A4.49,4.49,0,0,1,27.38,154.15Z"/><path class="cls-10" d="M18.55,123.07a4.49,4.49,0,1,1,.12-6.35A4.5,4.5,0,0,1,18.55,123.07Z"/><path class="cls-11" d="M28.44,133.35a4.49,4.49,0,1,1,.12-6.35A4.49,4.49,0,0,1,28.44,133.35Z"/><path class="cls-12" d="M38.33,143.63a4.49,4.49,0,1,1,.11-6.35A4.49,4.49,0,0,1,38.33,143.63Z"/><path class="cls-13" d="M50.72,92.12a4.49,4.49,0,1,1,.12-6.35A4.5,4.5,0,0,1,50.72,92.12Z"/><path class="cls-14" d="M60.6,102.4a4.49,4.49,0,1,1,.13-6.35A4.48,4.48,0,0,1,60.6,102.4Z"/><path class="cls-15" d="M70.49,112.68a4.49,4.49,0,1,1,.13-6.35A4.49,4.49,0,0,1,70.49,112.68Z"/><path class="cls-16" d="M61.66,81.59a4.49,4.49,0,1,1,.13-6.35A4.48,4.48,0,0,1,61.66,81.59Z"/><path class="cls-17" d="M71.55,91.87a4.49,4.49,0,1,1,.13-6.35A4.49,4.49,0,0,1,71.55,91.87Z"/><path class="cls-18" d="M81.44,102.15a4.49,4.49,0,1,1,.12-6.35A4.49,4.49,0,0,1,81.44,102.15Z"/><path class="cls-19" d="M72.61,71.06a4.49,4.49,0,1,1,.12-6.35A4.49,4.49,0,0,1,72.61,71.06Z"/><path class="cls-20" d="M82.5,81.34A4.49,4.49,0,1,1,82.62,75,4.49,4.49,0,0,1,82.5,81.34Z"/><path class="cls-21" d="M92.38,91.62a4.49,4.49,0,1,1,.13-6.35A4.49,4.49,0,0,1,92.38,91.62Z"/><path class="cls-22" d="M83.55,60.54a4.49,4.49,0,1,1,.12-6.36A4.5,4.5,0,0,1,83.55,60.54Z"/><path class="cls-23" d="M93.44,70.81a4.49,4.49,0,1,1,.12-6.35A4.49,4.49,0,0,1,93.44,70.81Z"/><path class="cls-24" d="M103.33,81.09a4.49,4.49,0,1,1,.12-6.35A4.49,4.49,0,0,1,103.33,81.09Z"/><path class="cls-25" d="M45.17,28.83a4.49,4.49,0,1,1,6.35.12A4.5,4.5,0,0,1,45.17,28.83Z"/><path class="cls-26" d="M34.46,39.13a4.49,4.49,0,1,1,6.35.12A4.5,4.5,0,0,1,34.46,39.13Z"/><path class="cls-27" d="M23.76,49.43a4.49,4.49,0,1,1,6.34.12A4.5,4.5,0,0,1,23.76,49.43Z"/><path class="cls-28" d="M55.7,39.77a4.49,4.49,0,1,1,6.35.13A4.48,4.48,0,0,1,55.7,39.77Z"/><path class="cls-29" d="M45,50.07a4.49,4.49,0,1,1,6.35.13A4.5,4.5,0,0,1,45,50.07Z"/><path class="cls-30" d="M34.29,60.37a4.49,4.49,0,1,1,6.34.13A4.49,4.49,0,0,1,34.29,60.37Z"/><path class="cls-31" d="M24.75,7.6a4.49,4.49,0,1,1,6.35.13A4.5,4.5,0,0,1,24.75,7.6Z"/><path class="cls-32" d="M14.05,17.9A4.49,4.49,0,1,1,20.4,18,4.48,4.48,0,0,1,14.05,17.9Z"/><path class="cls-33" d="M3.34,28.21a4.49,4.49,0,1,1,6.35.12A4.5,4.5,0,0,1,3.34,28.21Z"/><path class="cls-34" d="M35.28,18.55a4.49,4.49,0,1,1,6.35.12A4.49,4.49,0,0,1,35.28,18.55Z"/><path class="cls-35" d="M24.58,28.85a4.49,4.49,0,1,1,6.35.12A4.49,4.49,0,0,1,24.58,28.85Z"/><path class="cls-36" d="M13.87,39.15a4.49,4.49,0,1,1,6.35.12A4.49,4.49,0,0,1,13.87,39.15Z"/><path class="cls-37" d="M66.23,50.72a4.49,4.49,0,1,1,6.35.12A4.5,4.5,0,0,1,66.23,50.72Z"/><path class="cls-38" d="M56,60.61a4.49,4.49,0,1,1,6.35.12A4.49,4.49,0,0,1,56,60.61Z"/><path class="cls-39" d="M44.67,71.46a4.49,4.49,0,1,1,6.35.12A4.49,4.49,0,0,1,44.67,71.46Z"/></g></g></g></svg>