<svg width="88" height="24" viewBox="0 0 88 24" fill="none" xmlns="http://www.w3.org/2000/svg">
<path d="M31.1349 19.5387C26.5574 19.5387 23.688 16.2991 23.688 11.9487C23.688 7.64045 26.5826 4.35876 31.1601 4.35876C34.8541 4.35876 37.0083 6.26888 37.9086 9.12142H35.4432C34.6606 7.35436 33.39 6.454 31.1517 6.454C28.0299 6.454 26.1619 8.89423 26.1619 11.9571C26.1619 15.02 28.0299 17.4603 31.1517 17.4603C33.5499 17.4603 34.8457 16.3916 35.4432 14.7928H37.9086C37.2271 17.5108 34.8121 19.5387 31.1349 19.5387Z" fill="white"/>
<path d="M48.334 19.2778H45.9106C45.8349 18.8066 45.8012 18.3354 45.8097 17.8642V17.5529H45.7928C45.4226 18.5205 44.4633 19.5471 42.427 19.5471C40.0457 19.5471 38.6909 18.0661 38.6909 16.3832C38.6909 13.3035 42.3008 13.2193 43.8238 12.9753C45.2206 12.7481 45.7928 12.5462 45.7928 11.6626C45.7928 10.7791 45.0355 10.2069 43.7397 10.2069C42.5869 10.2069 41.7707 10.8464 41.7118 11.9067H39.3893C39.4903 10.1648 40.8703 8.35571 43.6976 8.35571C47.2233 8.35571 48.1321 10.4678 48.1321 12.7481V16.8292C48.1321 17.637 48.1657 18.7225 48.334 19.2778ZM45.8517 13.2782C45.6077 13.9178 45.0103 14.4058 43.2685 14.7171C41.8127 14.9864 41.0554 15.3903 41.0554 16.3412C41.0554 17.1826 41.7959 17.7969 43.0244 17.7969C44.4802 17.7969 45.8601 16.7535 45.8601 14.389L45.8517 13.2782Z" fill="white"/>
<path d="M53.5426 10.1818C52.617 10.1818 51.8176 10.7372 51.8176 11.4945C51.8176 12.5211 53.0461 12.8072 54.83 13.2195C56.6981 13.6318 58.0528 14.5153 58.0528 16.2151C58.0528 18.3271 56.0165 19.5641 53.6772 19.5641C51.4979 19.5641 49.4531 18.5796 49.2007 16.0299H51.5568C51.7587 17.1996 52.4824 17.7297 53.7109 17.7297C54.7206 17.7297 55.6631 17.3174 55.6631 16.3329C55.6631 15.2895 54.6197 15.1212 52.9115 14.7089C51.2118 14.3218 49.5036 13.5224 49.5036 11.587C49.5036 9.65169 51.3885 8.36426 53.5678 8.36426C55.865 8.36426 57.59 9.53389 57.834 11.8311H55.5873C55.4359 10.6783 54.5103 10.1818 53.5426 10.1818Z" fill="white"/>
<path d="M69.9849 13.9345C69.9849 17.2414 67.9739 19.5807 65.1634 19.5807C63.3374 19.5807 62.1425 18.613 61.7134 17.3424H61.6966V23.3588H59.2563V8.66696H61.7218V10.5939C62.1089 9.4411 63.3458 8.38086 65.1718 8.38086C67.9739 8.38086 69.9849 10.6528 69.9849 13.9345ZM67.5868 13.9345C67.5868 11.9234 66.434 10.3246 64.5744 10.3246C62.7484 10.3246 61.6208 11.7383 61.5367 13.7073V13.9345C61.5367 16.0297 62.5044 17.6117 64.5744 17.6117C66.4761 17.6117 67.5868 15.9876 67.5868 13.9345Z" fill="white"/>
<path d="M81.151 14.6161H72.9804C73.1487 16.543 74.3772 17.6537 76.0349 17.6537C77.2466 17.6537 78.2479 17.1993 78.6434 16.1391H80.9995C80.36 18.2932 78.534 19.5638 76.0349 19.5638C72.8542 19.5638 70.6748 17.2835 70.6748 13.9429C70.6748 10.7201 72.9299 8.38086 76.0349 8.38086C79.6448 8.38086 81.1257 11.1745 81.1425 14.1701L81.151 14.6161ZM78.7949 12.8911C78.6266 11.225 77.6673 10.2237 76.0265 10.2237C74.3856 10.2237 73.2749 11.2671 73.0309 12.8911H78.7949Z" fill="white"/>
<path d="M84.8027 14.246V19.2779H82.4214V8.66715H84.7606V10.9223H84.8027C85.215 9.48337 86.2416 8.54093 87.9245 8.45679V10.8381C85.9134 10.8634 84.8027 12.1508 84.8027 14.246Z" fill="white"/>
<path d="M20.0191 18.0661C19.4637 18.0661 18.9925 18.4532 18.8747 18.9917L14.457 18.7814C14.4738 18.6972 14.4823 18.6131 14.4823 18.5289C14.4823 18.3775 14.457 18.226 14.4149 18.0745L16.0221 17.1489C16.4176 17.637 17.1329 17.738 17.6461 17.3677C18.1594 16.9975 18.2941 16.2906 17.9491 15.7605C17.6041 15.2304 16.9057 15.0621 16.3587 15.3735C15.8118 15.6848 15.6014 16.3748 15.8875 16.9386L14.3308 17.8389C13.9606 17.0564 13.0434 16.703 12.244 17.0311C11.4446 17.3593 11.0407 18.2597 11.3268 19.0759L8.43218 19.7743C8.41535 19.3788 8.24705 19.0086 7.96937 18.7225L8.49108 17.9988C9.0801 18.2008 9.72802 17.9062 9.96363 17.3256C10.1992 16.745 9.93839 16.0803 9.37461 15.8194C8.81083 15.5502 8.12925 15.7774 7.83474 16.3243C7.54023 16.8713 7.72535 17.5613 8.25547 17.8894L7.77584 18.5542C7.43925 18.3017 7.01011 18.1923 6.58938 18.2428L6.09292 15.4071C6.7156 15.2725 7.19523 14.7844 7.32986 14.1702C7.4645 13.5475 7.22889 12.908 6.72401 12.5293C6.21914 12.1423 5.53756 12.0918 4.9822 12.3863L3.72842 9.93764C3.99769 9.80301 4.21647 9.59264 4.37635 9.3402L5.41975 9.61789C5.41134 9.67679 5.40293 9.72728 5.40293 9.78618C5.40293 10.392 5.86573 10.9053 6.47158 10.9642C7.07743 11.0231 7.63279 10.6108 7.74218 10.005C7.85157 9.39911 7.48974 8.8185 6.90072 8.65862C6.3117 8.49033 5.69744 8.80167 5.47866 9.37386L4.49415 9.11301C4.62878 8.79326 4.65403 8.43984 4.56988 8.10326L7.47291 6.76534C8.01145 7.43851 8.98754 7.58156 9.69436 7.07668C10.4012 6.57181 10.5863 5.60413 10.1151 4.88048L11.9663 3.07134C12.1935 3.21439 12.4543 3.30695 12.7152 3.32378V4.12316C12.1009 4.19048 11.6381 4.72901 11.6718 5.35169C11.7054 5.97437 12.2187 6.46242 12.8414 6.46242C13.4641 6.46242 13.9774 5.97437 14.011 5.35169C14.0447 4.72901 13.5903 4.19048 12.9676 4.12316V3.32378C13.2032 3.30695 13.422 3.23963 13.624 3.13024L15.6519 5.44425C15.1807 6.06693 15.2143 6.93363 15.7276 7.51424C16.2493 8.09485 17.1076 8.22948 17.7808 7.82558C18.4539 7.42168 18.74 6.60547 18.4792 5.8734L19.1103 5.51998C19.5142 5.9912 20.2126 6.07535 20.7091 5.69669C21.2055 5.32645 21.3233 4.62804 20.9783 4.11475C20.6333 3.60146 19.9433 3.44158 19.4132 3.76134C18.8831 4.08109 18.6896 4.75426 18.9756 5.30962L18.3782 5.6462C18.1342 5.20023 17.6966 4.89731 17.2002 4.82157C16.7037 4.74584 16.1904 4.90572 15.8286 5.25913L13.8428 2.99561C14.0363 2.84415 14.1962 2.6422 14.3056 2.42342L16.0474 2.70951C16.182 3.31536 16.771 3.71085 17.3769 3.60146C17.9911 3.50048 18.4119 2.93671 18.3446 2.32244C18.2772 1.70818 17.7387 1.24538 17.1244 1.27903C16.5018 1.31269 16.0221 1.81757 16.0137 2.44025L14.3981 2.17098C14.6253 1.39684 14.2551 0.57221 13.523 0.227212C12.7909 -0.117786 11.9242 0.134652 11.4783 0.807818C11.0323 1.48098 11.1501 2.38135 11.7559 2.91988L9.95521 4.67853C9.67753 4.35877 9.28205 4.15682 8.86132 4.12316V2.89463C9.47558 2.82732 9.93839 2.28878 9.90473 1.66611C9.87107 1.04343 9.36619 0.563795 8.74351 0.563795C8.12084 0.563795 7.60755 1.05184 7.57389 1.67452C7.54023 2.2972 7.99462 2.83573 8.6173 2.90305V4.12316C8.06193 4.16524 7.56547 4.49341 7.30462 4.98145C7.04377 5.47791 7.05218 6.06693 7.32986 6.55498L4.50256 7.85082C4.40159 7.6068 4.24171 7.39644 4.03976 7.22814L5.14207 5.2423C5.24305 5.26755 5.33561 5.28438 5.43658 5.28438C6.03402 5.28438 6.53048 4.8384 6.60621 4.24938C6.68194 3.66036 6.29487 3.11341 5.72268 2.97037C5.14207 2.82732 4.55305 3.13866 4.34269 3.69402C4.13232 4.24938 4.37635 4.87206 4.89805 5.14974L3.8294 7.0851C3.18148 6.69803 2.36526 6.80742 1.83514 7.34595C1.31344 7.88448 1.22088 8.7007 1.61636 9.3402C2.01185 9.97971 2.78599 10.2658 3.50123 10.0386L4.77183 12.5209C4.45208 12.7565 4.22488 13.1099 4.14915 13.497L3.22355 13.2277C3.24879 13.1352 3.25721 13.0342 3.25721 12.9416C3.25721 12.3442 2.81123 11.8477 2.22221 11.7804C1.63319 11.7131 1.08624 12.0918 0.943196 12.6724C0.800148 13.253 1.1199 13.842 1.68368 14.044C2.23904 14.2459 2.86172 14.0019 3.13099 13.4718L4.11549 13.7579C4.11549 13.7831 4.11549 13.8083 4.11549 13.8336C4.11549 14.389 4.39318 14.9022 4.86439 15.1968L4.2333 16.0214C3.7705 15.6091 3.06367 15.6343 2.62611 16.0803C2.18855 16.5263 2.17173 17.2247 2.59245 17.6875C3.01318 18.1503 3.71159 18.2008 4.19964 17.8053C4.68769 17.4098 4.77183 16.7114 4.41 16.2065L5.09159 15.3146C5.29354 15.4071 5.52073 15.4492 5.74792 15.4492C5.78158 15.4492 5.81524 15.4492 5.8489 15.4408L6.35377 18.2933C5.68061 18.4953 5.20939 19.1095 5.18415 19.8079C5.16732 20.5148 5.60488 21.1459 6.26963 21.3815C6.93438 21.6171 7.67486 21.3983 8.10401 20.8345L10.4601 21.8863C10.4433 21.9705 10.4264 22.0631 10.4264 22.1472C10.4264 22.7446 10.8724 23.2495 11.4698 23.3168C12.0673 23.3841 12.6142 22.9971 12.7489 22.4165C12.8835 21.8359 12.5553 21.2468 11.9915 21.0449C11.4278 20.8429 10.8051 21.1038 10.5442 21.6423L8.24705 20.6157C8.34803 20.4306 8.41535 20.2287 8.43218 20.0183L11.4278 19.2862C11.655 19.707 12.0589 20.0015 12.5301 20.1025C13.0013 20.195 13.4893 20.0772 13.8596 19.7827L14.9787 20.7504C14.7179 21.3226 14.9451 21.9957 15.5004 22.2818C16.0558 22.5763 16.7374 22.3828 17.0571 21.8443C17.3769 21.3057 17.2254 20.6157 16.7121 20.2623C16.1904 19.9089 15.492 20.0267 15.1134 20.5232L14.0447 19.606C14.2046 19.4377 14.3224 19.2273 14.3981 19.0086L18.8494 19.2273C18.8578 19.8753 19.3795 20.3885 20.0275 20.3885C20.6754 20.3885 21.1971 19.8584 21.1887 19.2189C21.1887 18.5878 20.667 18.0661 20.0191 18.0661Z" fill="#FF473E"/>
</svg>
