<svg width="109" height="28" viewBox="0 0 109 28" fill="none" xmlns="http://www.w3.org/2000/svg">
<path d="M1.0441 24.4937V14.1938H3.5838V24.4937H1.0441ZM3.30161 24.4937V22.349H7.64732V24.4937H3.30161ZM3.30161 20.3314V18.1867H7.35102V20.3314H3.30161ZM3.30161 16.3384V14.1938H7.56266V16.3384H3.30161ZM12.6438 24.7758C11.9666 24.7758 11.3787 24.6677 10.8801 24.4513C10.3816 24.2256 9.96303 23.9246 9.62441 23.5483C9.29519 23.1721 9.04592 22.7441 8.87661 22.2644C8.7167 21.7846 8.63674 21.2861 8.63674 20.7688V20.4866C8.63674 19.941 8.7214 19.4237 8.89071 18.9345C9.06943 18.4454 9.32811 18.0127 9.66673 17.6365C10.0054 17.2602 10.4239 16.9639 10.9225 16.7476C11.421 16.5312 11.9948 16.423 12.6438 16.423C13.3587 16.423 13.9889 16.5641 14.5345 16.8463C15.0801 17.1285 15.5127 17.5189 15.8326 18.0174C16.1618 18.5065 16.3452 19.0709 16.3828 19.7106H13.8713C13.8431 19.4001 13.7256 19.1368 13.5186 18.9204C13.3211 18.7041 13.0295 18.5959 12.6438 18.5959C12.3146 18.5959 12.0418 18.6806 11.8255 18.8499C11.6185 19.0192 11.4633 19.2543 11.3599 19.5553C11.2564 19.8563 11.2047 20.2138 11.2047 20.6277C11.2047 21.0133 11.247 21.3567 11.3316 21.6577C11.4257 21.9587 11.5762 22.1938 11.7832 22.3631C11.9995 22.523 12.2864 22.603 12.6438 22.603C12.9072 22.603 13.1283 22.556 13.307 22.4619C13.4857 22.3678 13.6268 22.2361 13.7303 22.0668C13.8337 21.8881 13.8996 21.6812 13.9278 21.446H16.4393C16.4016 22.1045 16.2135 22.6829 15.8749 23.1815C15.5457 23.68 15.1036 24.0704 14.5486 24.3526C13.9936 24.6347 13.3587 24.7758 12.6438 24.7758ZM21.6214 24.7758C20.9347 24.7758 20.3233 24.6724 19.7872 24.4654C19.251 24.2585 18.7948 23.9716 18.4186 23.6048C18.0517 23.2379 17.7695 22.8146 17.572 22.3349C17.3839 21.8552 17.2898 21.3425 17.2898 20.797V20.4584C17.2898 19.894 17.3886 19.3672 17.5861 18.8781C17.793 18.389 18.0846 17.961 18.4609 17.5941C18.8371 17.2273 19.2933 16.9404 19.8295 16.7335C20.3657 16.5265 20.963 16.423 21.6214 16.423C22.2892 16.423 22.8865 16.5265 23.4133 16.7335C23.9495 16.9404 24.4057 17.2273 24.7819 17.5941C25.1582 17.961 25.4451 18.389 25.6426 18.8781C25.8495 19.3672 25.953 19.894 25.953 20.4584V20.797C25.953 21.3425 25.8542 21.8552 25.6567 22.3349C25.4686 22.8146 25.1864 23.2379 24.8101 23.6048C24.4433 23.9716 23.9918 24.2585 23.4556 24.4654C22.9195 24.6724 22.3081 24.7758 21.6214 24.7758ZM21.6214 22.6312C22.0165 22.6312 22.341 22.5465 22.595 22.3772C22.8583 22.2079 23.0559 21.9728 23.1876 21.6718C23.3192 21.3614 23.3851 21.0133 23.3851 20.6277C23.3851 20.2232 23.3145 19.8705 23.1734 19.5695C23.0418 19.259 22.8442 19.0145 22.5808 18.8358C22.3175 18.657 21.9977 18.5677 21.6214 18.5677C21.2452 18.5677 20.9253 18.657 20.662 18.8358C20.3986 19.0145 20.1963 19.259 20.0553 19.5695C19.9236 19.8705 19.8577 20.2232 19.8577 20.6277C19.8577 21.0133 19.9236 21.3614 20.0553 21.6718C20.1869 21.9728 20.3845 22.2079 20.6479 22.3772C20.9112 22.5465 21.2357 22.6312 21.6214 22.6312ZM26.9356 21.6294V19.3437H33.1155V21.6294H26.9356ZM34.7207 24.4937V16.7335C34.7207 15.821 34.9841 15.1438 35.5108 14.7017C36.0376 14.2502 36.8183 14.0244 37.853 14.0244H38.8548V15.9151H37.7966C37.5708 15.9151 37.3968 15.9762 37.2745 16.0985C37.1522 16.2208 37.0911 16.3948 37.0911 16.6206V24.4937H34.7207ZM33.8459 18.737V16.8746H38.9676V18.737H33.8459ZM39.9251 24.4937V16.7052H41.9569V20.0915H41.9286C41.9286 19.0004 42.1544 18.1444 42.6059 17.5236C43.0668 16.9028 43.7252 16.5924 44.5812 16.5924H44.8916V18.7934H44.299C43.7252 18.7934 43.2784 18.9486 42.9586 19.259C42.6482 19.5695 42.493 20.0163 42.493 20.5994V24.4937H39.9251ZM46.2719 24.4937V16.7052H48.8398V24.4937H46.2719ZM45.2843 18.5677V16.7052H48.8398V18.5677H45.2843ZM47.3301 16.0844C46.8598 16.0844 46.5118 15.9668 46.286 15.7317C46.0697 15.4871 45.9615 15.1767 45.9615 14.8005C45.9615 14.4242 46.0697 14.1185 46.286 13.8833C46.5118 13.6388 46.8551 13.5165 47.316 13.5165C47.7863 13.5165 48.1297 13.6388 48.346 13.8833C48.5624 14.1185 48.6705 14.4242 48.6705 14.8005C48.6705 15.1767 48.5624 15.4871 48.346 15.7317C48.1297 15.9668 47.791 16.0844 47.3301 16.0844ZM54.382 24.7758C53.7236 24.7758 53.1404 24.663 52.6324 24.4372C52.1245 24.2115 51.6965 23.9058 51.3485 23.5201C51.0004 23.1344 50.7323 22.7018 50.5442 22.222C50.3655 21.7423 50.2761 21.2485 50.2761 20.7405V20.4584C50.2761 19.9316 50.3655 19.4284 50.5442 18.9486C50.7323 18.4595 50.9957 18.0268 51.3344 17.6506C51.6824 17.2743 52.1057 16.978 52.6042 16.7617C53.1027 16.5359 53.6671 16.423 54.2973 16.423C55.1345 16.423 55.8447 16.6112 56.4279 16.9874C57.0111 17.3637 57.4579 17.8622 57.7683 18.483C58.0787 19.0944 58.2339 19.7623 58.2339 20.4866V21.3049H51.3485V19.9222H56.7524L55.8635 20.543C55.8635 20.1009 55.8023 19.7294 55.6801 19.4284C55.5672 19.118 55.3932 18.8828 55.158 18.7229C54.9323 18.563 54.6454 18.483 54.2973 18.483C53.9587 18.483 53.6624 18.563 53.4084 18.7229C53.1639 18.8734 52.9757 19.1085 52.8441 19.4284C52.7124 19.7388 52.6465 20.1338 52.6465 20.6136C52.6465 21.0462 52.7077 21.4225 52.83 21.7423C52.9522 22.0527 53.1404 22.2926 53.3943 22.4619C53.6483 22.6312 53.9775 22.7159 54.382 22.7159C54.7394 22.7159 55.031 22.6547 55.2568 22.5324C55.4919 22.4102 55.6565 22.2455 55.7506 22.0386H58.0928C57.9799 22.5654 57.7541 23.0357 57.4155 23.4496C57.0863 23.8634 56.663 24.1879 56.1457 24.4231C55.6377 24.6583 55.0498 24.7758 54.382 24.7758ZM59.5874 24.4937V16.7052H61.6191V20.0492H61.5063C61.5063 19.2402 61.6097 18.5724 61.8167 18.0456C62.0236 17.5095 62.3293 17.1097 62.7338 16.8463C63.1477 16.583 63.6462 16.4513 64.2294 16.4513H64.3423C65.2265 16.4513 65.9084 16.7476 66.3881 17.3402C66.8773 17.9234 67.1218 18.8217 67.1218 20.0351V24.4937H64.5539V19.9645C64.5539 19.6071 64.4457 19.3155 64.2294 19.0897C64.0225 18.8546 63.7356 18.737 63.3687 18.737C63.0019 18.737 62.7056 18.8546 62.4798 19.0897C62.2635 19.3155 62.1553 19.6165 62.1553 19.9927V24.4937H59.5874ZM72.0495 24.7476C71.504 24.7476 71.0055 24.6489 70.5539 24.4513C70.1119 24.2538 69.7262 23.981 69.397 23.633C69.0772 23.2755 68.8279 22.857 68.6492 22.3772C68.4799 21.8975 68.3952 21.3755 68.3952 20.8111V20.4725C68.3952 19.9081 68.4752 19.386 68.6351 18.9063C68.8044 18.4172 69.0442 17.9939 69.3546 17.6365C69.6651 17.2696 70.0413 16.9874 70.4834 16.7899C70.9255 16.583 71.4193 16.4795 71.9649 16.4795C72.5951 16.4795 73.1313 16.6206 73.5734 16.9028C74.0249 17.1756 74.3682 17.5753 74.6034 18.1021C74.8479 18.6288 74.9796 19.2685 74.9984 20.021L74.4058 19.5836V14.1938H76.9737V24.4937H74.942V21.3331H75.2242C75.2054 22.0292 75.0643 22.6359 74.8009 23.1533C74.5375 23.6612 74.1707 24.0563 73.7004 24.3384C73.2394 24.6112 72.6892 24.7476 72.0495 24.7476ZM72.7409 22.6312C73.0513 22.6312 73.3335 22.5607 73.5875 22.4196C73.8509 22.2785 74.0625 22.0715 74.2224 21.7987C74.3823 21.526 74.4623 21.1967 74.4623 20.8111V20.3314C74.4623 19.9551 74.3776 19.64 74.2083 19.386C74.0484 19.1321 73.8367 18.9392 73.5734 18.8075C73.3194 18.6665 73.0419 18.5959 72.7409 18.5959C72.4023 18.5959 72.0966 18.6853 71.8238 18.864C71.5604 19.0333 71.3488 19.2732 71.1889 19.5836C71.0384 19.8846 70.9631 20.2373 70.9631 20.6418C70.9631 21.0462 71.0384 21.399 71.1889 21.7C71.3488 21.9916 71.5604 22.222 71.8238 22.3913C72.0966 22.5513 72.4023 22.6312 72.7409 22.6312ZM78.9492 24.4937V14.1938H81.5171V24.4937H78.9492ZM78.0744 16.0562V14.1938H81.5171V16.0562H78.0744ZM83.4673 27.5977V25.4531H85.2592C85.4755 25.4531 85.659 25.4249 85.8095 25.3684C85.96 25.312 86.0822 25.2179 86.1763 25.0862C86.2704 24.964 86.3409 24.79 86.3879 24.5642L88.1375 16.7052H90.5643L88.5185 25.058C88.368 25.6977 88.1563 26.2009 87.8835 26.5677C87.6202 26.944 87.2533 27.2074 86.783 27.3579C86.3221 27.5178 85.7201 27.5977 84.977 27.5977H83.4673ZM85.9364 24.3243V22.349H87.5731V24.3243H85.9364ZM84.7513 24.3243L82.4796 16.7052H85.0475L87.1781 24.3243H84.7513Z" fill="#2FB88E"/>
<g clip-path="url(#clip0_692_18589)">
<path d="M84.2552 0.941406C84.2552 0.941406 81.7529 13.9667 91.9677 13.9667C91.9677 13.9667 91.6224 9.62569 88.6599 7.72296C88.6599 7.72296 91.612 7.91844 92.8397 13.578C92.8397 13.578 95.0965 2.06338 84.4973 0.941406" fill="#2FB88E"/>
<path d="M94.0846 17.2538C94.0846 17.2538 95.5039 10.684 101.376 8.47125C101.376 8.47125 95.5681 9.57703 93.5029 14.1956C93.5029 14.1956 91.2449 3.33217 108.021 5.6085C108.021 5.6085 102.149 18.6187 94.0835 17.2527L94.0846 17.2538Z" fill="#2FB88E"/>
</g>
<defs>
<clipPath id="clip0_692_18589">
<rect width="24.0335" height="16.4132" fill="white" transform="matrix(-1 0 0 1 108.021 0.942383)"/>
</clipPath>
</defs>
</svg>
