<svg width="51" height="49" viewBox="0 0 51 49" fill="none" xmlns="http://www.w3.org/2000/svg">
<path d="M15.584 31.3056H40.9173C41.3372 31.3056 41.74 31.1431 42.0369 30.8538C42.3338 30.5645 42.5006 30.1722 42.5006 29.763V9.70934C42.5006 9.30022 42.3338 8.90786 42.0369 8.61856C41.74 8.32927 41.3372 8.16675 40.9173 8.16675H18.7507C18.3307 8.16675 17.928 8.32927 17.6311 8.61856C17.3341 8.90786 17.1673 9.30022 17.1673 9.70934V11.2519" stroke="white" stroke-width="1.4" stroke-linecap="round" stroke-linejoin="round"/>
<path d="M21.2507 25.8611L15.584 30.625L21.2507 35.3889" stroke="white"  stroke-width="1.4" stroke-linecap="round" stroke-linejoin="round"/>
<path d="M35.4167 19.0557H10.0833C9.66341 19.0557 9.26068 19.2086 8.96375 19.4809C8.66682 19.7532 8.5 20.1225 8.5 20.5075V39.3816C8.5 39.7666 8.66682 40.1359 8.96375 40.4082C9.26068 40.6805 9.66341 40.8334 10.0833 40.8334H32.25C32.6699 40.8334 33.0727 40.6805 33.3696 40.4082C33.6665 40.1359 33.8333 39.7666 33.8333 39.3816V37.9297" stroke="white"  stroke-width="1.4" stroke-linecap="round" stroke-linejoin="round"/>
<path d="M29.75 23.1389L35.4167 18.375L29.75 13.6111" stroke="white"  stroke-width="1.4" stroke-linecap="round" stroke-linejoin="round"/>
</svg>
