<svg width="48" height="49" viewBox="0 0 48 49" fill="none" xmlns="http://www.w3.org/2000/svg">
<g clip-path="url(#clip0_2243_4436)">
<path d="M24 13.7756V16.8369" stroke="#54E2B7" stroke-width="1.4" stroke-linecap="round" stroke-linejoin="round"/>
<path d="M24 32.1428V35.204" stroke="#54E2B7" stroke-width="1.4" stroke-linecap="round" stroke-linejoin="round"/>
<path d="M24 42.8573C33.9411 42.8573 42 34.6339 42 24.4899C42 14.3459 33.9411 6.12256 24 6.12256C14.0589 6.12256 6 14.3459 6 24.4899C6 34.6339 14.0589 42.8573 24 42.8573Z" stroke="#54E2B7" stroke-width="1.4" stroke-linecap="round" stroke-linejoin="round"/>
<path d="M19.5 32.1428H26.25C27.2446 32.1428 28.1984 31.7396 28.9017 31.022C29.6049 30.3044 30 29.3311 30 28.3163C30 27.3014 29.6049 26.3281 28.9017 25.6105C28.1984 24.8929 27.2446 24.4897 26.25 24.4897H21.75C20.7554 24.4897 19.8016 24.0866 19.0983 23.369C18.3951 22.6514 18 21.6781 18 20.6632C18 19.6483 18.3951 18.675 19.0983 17.9574C19.8016 17.2398 20.7554 16.8367 21.75 16.8367H28.5" stroke="#54E2B7" stroke-width="1.4" stroke-linecap="round" stroke-linejoin="round"/>
</g>
<defs>
<clipPath id="clip0_2243_4436">
<rect width="48" height="48.9796" fill="white"/>
</clipPath>
</defs>
</svg>
