<svg width="47" height="43" viewBox="0 0 47 43" fill="none" xmlns="http://www.w3.org/2000/svg">
<g clip-path="url(#clip0_2255_4261)">
<path d="M13.1416 24.1875L5.875 29.5625V8.0625C5.875 7.70612 6.02974 7.36433 6.30519 7.11233C6.58063 6.86032 6.95421 6.71875 7.34375 6.71875H30.8438C31.2333 6.71875 31.6069 6.86032 31.8823 7.11233C32.1578 7.36433 32.3125 7.70612 32.3125 8.0625V22.8438C32.3125 23.2001 32.1578 23.5419 31.8823 23.7939C31.6069 24.0459 31.2333 24.1875 30.8438 24.1875H13.1416Z" stroke="#F9F9F9" stroke-width="1.4" stroke-linecap="round" stroke-linejoin="round"/>
<path d="M14.6875 24.1875V30.9062C14.6875 31.2626 14.8422 31.6044 15.1177 31.8564C15.3931 32.1084 15.7667 32.25 16.1562 32.25H33.8584L41.125 37.625V16.125C41.125 15.7686 40.9703 15.4268 40.6948 15.1748C40.4194 14.9228 40.0458 14.7812 39.6562 14.7812H32.3125" stroke="#F9F9F9" stroke-width="1.4" stroke-linecap="round" stroke-linejoin="round"/>
</g>
<defs>
<clipPath id="clip0_2255_4261">
<rect width="47" height="43" fill="white"/>
</clipPath>
</defs>
</svg>
