<svg width="38" height="38" viewBox="0 0 38 38" fill="none" xmlns="http://www.w3.org/2000/svg">
<g clip-path="url(#clip0_2722_17311)">
<path d="M9.5 15.9288V32.0625C9.5 32.3774 9.62511 32.6795 9.84781 32.9022C10.0705 33.1249 10.3726 33.25 10.6875 33.25H27.3125C27.6274 33.25 27.9295 33.1249 28.1522 32.9022C28.3749 32.6795 28.5 32.3774 28.5 32.0625V15.9288C28.5001 15.6143 28.6251 15.3127 28.8473 15.0902L30.5277 13.4098C30.7499 13.1873 30.8749 12.8857 30.875 12.5712V5.9375C30.875 5.62256 30.7499 5.32051 30.5272 5.09781C30.3045 4.87511 30.0024 4.75 29.6875 4.75H27.3125C26.9976 4.75 26.6955 4.87511 26.4728 5.09781C26.2501 5.32051 26.125 5.62256 26.125 5.9375V8.3125C26.125 8.62744 25.9999 8.92949 25.7772 9.15219C25.5545 9.37489 25.2524 9.5 24.9375 9.5H22.5625C22.2476 9.5 21.9455 9.37489 21.7228 9.15219C21.5001 8.92949 21.375 8.62744 21.375 8.3125V5.9375C21.375 5.62256 21.2499 5.32051 21.0272 5.09781C20.8045 4.87511 20.5024 4.75 20.1875 4.75H17.8125C17.4976 4.75 17.1955 4.87511 16.9728 5.09781C16.7501 5.32051 16.625 5.62256 16.625 5.9375V8.3125C16.625 8.62744 16.4999 8.92949 16.2772 9.15219C16.0545 9.37489 15.7524 9.5 15.4375 9.5H13.0625C12.7476 9.5 12.4455 9.37489 12.2228 9.15219C12.0001 8.92949 11.875 8.62744 11.875 8.3125V5.9375C11.875 5.62256 11.7499 5.32051 11.5272 5.09781C11.3045 4.87511 11.0024 4.75 10.6875 4.75H8.3125C7.99756 4.75 7.69551 4.87511 7.47281 5.09781C7.25011 5.32051 7.125 5.62256 7.125 5.9375V12.5712C7.12515 12.8857 7.25006 13.1873 7.47234 13.4098L9.15266 15.0902C9.37494 15.3127 9.49985 15.6143 9.5 15.9288Z" stroke="#54E2B7" stroke-width="1.2" stroke-linecap="round" stroke-linejoin="round"/>
<path d="M15.4375 33.25V22.5625C15.4375 21.6177 15.8128 20.7115 16.4809 20.0434C17.149 19.3753 18.0552 19 19 19C19.9448 19 20.851 19.3753 21.5191 20.0434C22.1872 20.7115 22.5625 21.6177 22.5625 22.5625V33.25" stroke="#54E2B7" stroke-width="1.2" stroke-linecap="round" stroke-linejoin="round"/>
</g>
<defs>
<clipPath id="clip0_2722_17311">
<rect width="38" height="38" fill="white"/>
</clipPath>
</defs>
</svg>
