<svg width="39" height="39" viewBox="0 0 39 39" fill="none" xmlns="http://www.w3.org/2000/svg">
<path d="M33.3341 30.1469C33.3341 31.7028 32.0729 32.964 30.5171 32.964C28.9612 32.964 27.7 31.7028 27.7 30.1469C27.7 28.5911 28.9612 27.3299 30.5171 27.3299C32.0729 27.3299 33.3341 28.5911 33.3341 30.1469Z" stroke="#54E2B7" stroke-width="1.4"/>
<path d="M11.3341 30.1469C11.3341 31.7028 10.0729 32.964 8.51706 32.964C6.96124 32.964 5.7 31.7028 5.7 30.1469C5.7 28.5911 6.96124 27.3299 8.51706 27.3299C10.0729 27.3299 11.3341 28.5911 11.3341 30.1469Z" stroke="#54E2B7" stroke-width="1.4"/>
<path fill-rule="evenodd" clip-rule="evenodd" d="M8.00005 6.30029H7.30005V7.00029V23.0003H8.70005V7.70029H30.3V20.1307L25.251 15.0817L24.2611 16.0716L30.5566 22.3672C30.6941 22.5046 30.8825 22.5787 31.0768 22.5717C31.271 22.5648 31.4537 22.4773 31.5809 22.3303L37.0294 16.0348L35.9708 15.1187L31.7001 20.0533V7.00029V6.30029H31H8.00005Z" fill="#54E2B7"/>
</svg>
