<svg width="38" height="38" viewBox="0 0 38 38" fill="none" xmlns="http://www.w3.org/2000/svg">
<path d="M30.875 8.3125H7.125C5.81332 8.3125 4.75 9.37582 4.75 10.6875V27.3125C4.75 28.6242 5.81332 29.6875 7.125 29.6875H30.875C32.1867 29.6875 33.25 28.6242 33.25 27.3125V10.6875C33.25 9.37582 32.1867 8.3125 30.875 8.3125Z" stroke="#54E2B7" stroke-width="1.2" stroke-linecap="round" stroke-linejoin="round"/>
<path d="M4.75 17.8125H13.1827C13.4562 17.8128 13.7213 17.9075 13.933 18.0806C14.1448 18.2536 14.2903 18.4945 14.345 18.7625C14.563 19.8363 15.1456 20.8017 15.994 21.4951C16.8423 22.1885 17.9043 22.5673 19 22.5673C20.0957 22.5673 21.1577 22.1885 22.006 21.4951C22.8544 20.8017 23.437 19.8363 23.655 18.7625C23.7097 18.4945 23.8552 18.2536 24.067 18.0806C24.2787 17.9075 24.5438 17.8128 24.8173 17.8125H33.25" stroke="#54E2B7" stroke-width="1.2" stroke-linecap="round" stroke-linejoin="round"/>
<path d="M4.75 13.0625H33.25" stroke="#54E2B7" stroke-width="1.2" stroke-linecap="round" stroke-linejoin="round"/>
</svg>
