<svg width="125" height="141" viewBox="0 0 125 141" fill="none" xmlns="http://www.w3.org/2000/svg">
<path d="M117.79 109.113C114.367 109.113 111.462 111.46 110.736 114.726L83.5065 113.45C83.6103 112.94 83.6621 112.429 83.6621 111.919C83.6621 111.001 83.5065 110.082 83.2472 109.164L93.1536 103.551C95.5913 106.51 99.9999 107.123 103.164 104.877C106.328 102.632 107.157 98.3458 105.031 95.131C102.904 91.9163 98.5996 90.8957 95.2283 92.7837C91.857 94.6718 90.5603 98.856 92.3238 102.275L82.7286 107.735C80.4464 102.989 74.793 100.846 69.8658 102.836C64.9385 104.826 62.4489 110.286 64.2124 115.236L46.3705 119.471C46.2667 117.073 45.2294 114.828 43.5178 113.093L46.7335 108.704C50.3641 109.929 54.3578 108.143 55.8101 104.622C57.2623 101.101 55.6545 97.0701 52.1795 95.4882C48.7044 93.8553 44.5033 95.2331 42.688 98.5499C40.8727 101.867 42.0137 106.051 45.2813 108.041L42.3249 112.072C40.2503 110.541 37.6051 109.878 35.0118 110.184L31.9517 92.9878C35.7898 92.1714 38.7461 89.2118 39.576 85.4868C40.4059 81.7107 38.9536 77.8326 35.8416 75.5363C32.7297 73.1891 28.5285 72.8829 25.1054 74.6689L17.3773 59.8198C19.037 59.0033 20.3856 57.7276 21.371 56.1968L27.8024 57.8807C27.7505 58.2379 27.6987 58.5441 27.6987 58.9013C27.6987 62.5753 30.5513 65.688 34.2857 66.0452C38.02 66.4024 41.4432 63.902 42.1174 60.228C42.7917 56.554 40.5615 53.0331 36.9308 52.0636C33.3002 51.043 29.514 52.931 28.1655 56.4009L22.0971 54.8191C22.927 52.88 23.0826 50.7368 22.5639 48.6957L40.4577 40.5823C43.7772 44.6645 49.7936 45.532 54.1504 42.4703C58.5071 39.4087 59.6482 33.5405 56.7437 29.1521L68.1542 18.1811C69.5546 19.0486 71.1624 19.6099 72.7703 19.7119V24.5596C68.9841 24.9678 66.1314 28.2336 66.3389 32.0096C66.5463 35.7857 69.7102 38.7453 73.5483 38.7453C77.3864 38.7453 80.5502 35.7857 80.7576 32.0096C80.9651 28.2336 78.1643 24.9678 74.3263 24.5596V19.7119C75.7785 19.6099 77.127 19.2017 78.3718 18.5383L90.8715 32.5709C87.967 36.347 88.1745 41.6029 91.3383 45.1238C94.554 48.6447 99.8444 49.4611 103.994 47.0118C108.143 44.5625 109.906 39.6128 108.299 35.1734L112.188 33.0302C114.678 35.8877 118.983 36.398 122.043 34.1018C125.103 31.8565 125.829 27.6212 123.703 24.5085C121.576 21.3959 117.323 20.4263 114.056 22.3654C110.788 24.3044 109.595 28.3867 111.359 31.7545L107.676 33.7956C106.172 31.0911 103.475 29.2541 100.415 28.7949C97.3548 28.3356 94.191 29.3052 91.9607 31.4483L79.7203 17.7218C80.9132 16.8033 81.8987 15.5787 82.573 14.252L93.3092 15.9869C94.1391 19.6609 97.7697 22.0592 101.504 21.3959C105.29 20.7835 107.884 17.3647 107.469 13.6396C107.054 9.9146 103.734 7.10807 99.9481 7.31218C96.11 7.51629 93.1536 10.578 93.1018 14.354L83.1435 12.7211C84.5439 8.02657 82.2618 3.02584 77.7494 0.933705C73.2371 -1.15843 67.8949 0.372399 65.146 4.45462C62.3971 8.53685 63.1232 13.9968 66.8575 17.2626L55.7582 27.9274C54.0466 25.9884 51.6089 24.7637 49.0156 24.5596V17.1095C52.8018 16.7013 55.6545 13.4355 55.447 9.65946C55.2396 5.8834 52.1276 2.97482 48.2895 2.97482C44.4514 2.97482 41.2876 5.93443 41.0801 9.71049C40.8727 13.4865 43.6734 16.7523 47.5115 17.1605V24.5596C44.0883 24.8147 41.0283 26.8048 39.4204 29.7644C37.8126 32.775 37.8644 36.347 39.576 39.3066L22.149 47.1649C21.5266 45.6851 20.5412 44.4094 19.2964 43.3888L26.0908 31.3463C26.7132 31.4994 27.2837 31.6014 27.9061 31.6014C31.5886 31.6014 34.6487 28.8969 35.1155 25.325C35.5823 21.753 33.1965 18.4362 29.6696 17.5688C26.0908 16.7013 22.4602 18.5893 21.1636 21.9572C19.8669 25.325 21.371 29.101 24.5867 30.785L17.9997 42.5214C14.006 40.1741 8.97503 40.8374 5.70747 44.1032C2.49178 47.369 1.92125 52.3187 4.35896 56.1968C6.79666 60.0749 11.5683 61.8099 15.9769 60.4321L23.8087 75.4853C21.8378 76.9141 20.4374 79.0572 19.9706 81.4045L14.2654 79.7716C14.421 79.2103 14.4728 78.598 14.4728 78.0367C14.4728 74.4137 11.7239 71.4031 8.09331 70.9949C4.46269 70.5866 1.09139 72.8829 0.209672 76.4038C-0.672051 79.9247 1.29886 83.4967 4.77388 84.7213C8.19704 85.946 12.0351 84.4662 13.6948 81.2515L19.7632 82.9864C19.7632 83.1395 19.7632 83.2926 19.7632 83.4456C19.7632 86.8135 21.4748 89.9262 24.3793 91.7121L20.4893 96.7129C17.6367 94.2125 13.2799 94.3656 10.5829 97.0701C7.88585 99.7745 7.78211 104.01 10.3754 106.816C12.9687 109.623 17.2736 109.929 20.2818 107.531C23.2901 105.132 23.8087 100.897 21.5785 97.8355L25.7796 92.4265C27.0244 92.9878 28.4248 93.243 29.8252 93.243C30.0327 93.243 30.2401 93.243 30.4476 93.192L33.5595 110.49C29.4103 111.715 26.5058 115.44 26.3502 119.675C26.2464 123.962 28.9435 127.789 33.0409 129.218C37.1383 130.646 41.7025 129.32 44.3477 125.901L58.8702 132.279C58.7664 132.79 58.6627 133.351 58.6627 133.861C58.6627 137.484 61.4116 140.546 65.0941 140.954C68.7766 141.362 72.1479 139.015 72.9777 135.494C73.8076 131.973 71.7848 128.401 68.3098 127.176C64.8348 125.952 60.9967 127.534 59.3888 130.799L45.2294 124.574C45.8518 123.451 46.2667 122.227 46.3705 120.951L64.8348 116.512C66.2352 119.063 68.7247 120.849 71.6292 121.461C74.5337 122.023 77.5419 121.308 79.8241 119.522L86.7222 125.39C85.1144 128.86 86.5148 132.943 89.9379 134.678C93.3611 136.464 97.5622 135.29 99.5332 132.024C101.504 128.758 100.57 124.574 97.4066 122.431C94.191 120.288 89.8861 121.002 87.5521 124.013L80.9651 118.451C81.9506 117.43 82.6767 116.154 83.1435 114.828L110.581 116.154C110.632 120.084 113.848 123.196 117.842 123.196C121.836 123.196 125.051 119.982 124.999 116.103C124.999 112.276 121.784 109.113 117.79 109.113Z" fill="white"/>
</svg>
