<svg width="64" height="17" viewBox="0 0 64 17" fill="none" xmlns="http://www.w3.org/2000/svg">
<g clip-path="url(#clip0_1856_6867)">
<path d="M22.2107 14.106C18.8469 14.106 16.7383 11.7671 16.7383 8.62626C16.7383 5.51579 18.8654 3.14648 22.2293 3.14648C24.9439 3.14648 26.5269 4.52554 27.1885 6.58501H25.3767C24.8017 5.30923 23.8679 4.65919 22.2231 4.65919C19.929 4.65919 18.5563 6.42099 18.5563 8.63234C18.5563 10.8437 19.929 12.6055 22.2231 12.6055C23.9854 12.6055 24.9377 11.8339 25.3767 10.6797H27.1885C26.6876 12.6419 24.913 14.106 22.2107 14.106Z" fill="black"/>
<path d="M34.8481 13.9178H33.0672C33.0116 13.5776 32.9868 13.2373 32.993 12.8971V12.6724H32.9807C32.7086 13.371 32.0037 14.1122 30.5072 14.1122C28.7573 14.1122 27.7617 13.0429 27.7617 11.8279C27.7617 9.60441 30.4145 9.54366 31.5337 9.36748C32.5602 9.20345 32.9807 9.05765 32.9807 8.41976C32.9807 7.78187 32.4241 7.36876 31.4719 7.36876C30.6247 7.36876 30.0249 7.83047 29.9816 8.59594H28.275C28.3492 7.33838 29.3633 6.03223 31.4409 6.03223C34.0319 6.03223 34.6997 7.55709 34.6997 9.20345V12.1499C34.6997 12.7331 34.7244 13.5168 34.8481 13.9178ZM33.0239 9.58618C32.8446 10.0479 32.4056 10.4003 31.1256 10.625C30.0558 10.8194 29.4993 11.111 29.4993 11.7975C29.4993 12.405 30.0435 12.8485 30.9463 12.8485C32.016 12.8485 33.0301 12.0952 33.0301 10.3881L33.0239 9.58618Z" fill="black"/>
<path d="M38.679 7.35032C37.9988 7.35032 37.4114 7.75128 37.4114 8.29804C37.4114 9.0392 38.3142 9.24576 39.6251 9.54344C40.9978 9.84112 41.9934 10.479 41.9934 11.7062C41.9934 13.2311 40.497 14.1241 38.7779 14.1241C37.1764 14.1241 35.6738 13.4133 35.4883 11.5725H37.2197C37.3681 12.417 37.8999 12.7997 38.8027 12.7997C39.5447 12.7997 40.2373 12.502 40.2373 11.7912C40.2373 11.0379 39.4705 10.9164 38.2152 10.6187C36.9662 10.3393 35.7109 9.76215 35.7109 8.36486C35.7109 6.96758 37.096 6.03809 38.6976 6.03809C40.3857 6.03809 41.6533 6.88253 41.8326 8.54104H40.1816C40.0703 7.70875 39.3901 7.35032 38.679 7.35032Z" fill="black"/>
<path d="M50.7591 10.0604C50.7591 12.4479 49.2812 14.1368 47.2159 14.1368C45.874 14.1368 44.996 13.4382 44.6806 12.5208H44.6682V16.8645H42.875V6.25734H44.6868V7.64854C44.9712 6.81625 45.8802 6.05078 47.2221 6.05078C49.2812 6.05078 50.7591 7.69107 50.7591 10.0604ZM48.9967 10.0604C48.9967 8.60842 48.1496 7.45414 46.783 7.45414C45.4412 7.45414 44.6126 8.47476 44.5507 9.89634V10.0604C44.5507 11.5731 45.2619 12.7152 46.783 12.7152C48.1805 12.7152 48.9967 11.5427 48.9967 10.0604Z" fill="black"/>
<path d="M58.9642 10.5525H52.9599C53.0836 11.9437 53.9864 12.7456 55.2046 12.7456C56.095 12.7456 56.8308 12.4175 57.1215 11.6521H58.8529C58.3829 13.2073 57.0411 14.1246 55.2046 14.1246C52.8672 14.1246 51.2656 12.4783 51.2656 10.0664C51.2656 7.73967 52.9228 6.05078 55.2046 6.05078C57.8573 6.05078 58.9456 8.06773 58.958 10.2305L58.9642 10.5525ZM57.2328 9.30706C57.1091 8.10418 56.4042 7.38124 55.1984 7.38124C53.9926 7.38124 53.1763 8.13455 52.997 9.30706H57.2328Z" fill="black"/>
<path d="M61.6484 10.2847V13.9176H59.8984V6.25686H61.6175V7.885H61.6484C61.9514 6.84615 62.7058 6.16573 63.9425 6.10498V7.82425C62.4646 7.84247 61.6484 8.77197 61.6484 10.2847Z" fill="black"/>
<path d="M14.0432 13.0432C13.635 13.0432 13.2888 13.3226 13.2022 13.7115L9.95582 13.5596C9.96819 13.4988 9.97437 13.4381 9.97437 13.3773C9.97437 13.268 9.95582 13.1586 9.9249 13.0493L11.106 12.381C11.3966 12.7334 11.9222 12.8063 12.2994 12.539C12.6766 12.2717 12.7755 11.7613 12.522 11.3786C12.2685 10.9959 11.7552 10.8744 11.3533 11.0991C10.9514 11.3239 10.7968 11.8221 11.007 12.2291L9.86306 12.8792C9.59099 12.3142 8.91698 12.059 8.32954 12.296C7.7421 12.5329 7.44529 13.1829 7.65553 13.7722L5.52838 14.2764C5.51601 13.9909 5.39234 13.7236 5.18828 13.5171L5.57166 12.9946C6.00451 13.1404 6.48065 12.9278 6.65379 12.5086C6.82693 12.0894 6.63524 11.6095 6.22094 11.4211C5.80664 11.2267 5.30577 11.3908 5.08934 11.7856C4.87292 12.1805 5.00896 12.6787 5.39852 12.9156L5.04606 13.3956C4.79872 13.2133 4.48335 13.1343 4.17418 13.1708L3.80935 11.1235C4.26693 11.0262 4.61939 10.6739 4.71833 10.2304C4.81727 9.78084 4.64413 9.31913 4.27311 9.04575C3.9021 8.76629 3.40123 8.72984 2.99311 8.94247L2.07176 7.17461C2.26963 7.07741 2.43041 6.92553 2.5479 6.74327L3.31466 6.94375C3.30848 6.98628 3.30229 7.02273 3.30229 7.06526C3.30229 7.50267 3.64239 7.87325 4.08761 7.91578C4.53282 7.9583 4.94094 7.66062 5.02133 7.22321C5.10171 6.7858 4.83582 6.36662 4.40297 6.25119C3.97012 6.12968 3.51872 6.35447 3.35794 6.76757L2.63447 6.57925C2.7334 6.34839 2.75195 6.09323 2.69012 5.85023L4.82345 4.88428C5.2192 5.37029 5.93649 5.47357 6.45591 5.10906C6.97534 4.74455 7.11137 4.04591 6.76509 3.52345L8.12548 2.21729C8.29244 2.32057 8.48413 2.3874 8.67582 2.39955V2.97669C8.22442 3.02529 7.88432 3.4141 7.90905 3.86366C7.93379 4.31322 8.31099 4.66558 8.76857 4.66558C9.22616 4.66558 9.60335 4.31322 9.62809 3.86366C9.65282 3.4141 9.31891 3.02529 8.86133 2.97669V2.39955C9.03447 2.3874 9.19524 2.3388 9.34364 2.25982L10.8339 3.93048C10.4876 4.38004 10.5123 5.00578 10.8895 5.42497C11.2729 5.84415 11.9036 5.94136 12.3983 5.64975C12.893 5.35814 13.1033 4.76885 12.9116 4.24032L13.3753 3.98516C13.6721 4.32537 14.1854 4.38612 14.5502 4.11274C14.915 3.84543 15.0016 3.3412 14.7481 2.97061C14.4946 2.60003 13.9875 2.4846 13.5979 2.71546C13.2084 2.94631 13.0662 3.43232 13.2764 3.83328L12.8374 4.07629C12.658 3.7543 12.3365 3.5356 11.9717 3.48092C11.6068 3.42625 11.2296 3.54168 10.9637 3.79683L9.50442 2.16262C9.64664 2.05327 9.76413 1.90746 9.84451 1.74951L11.1245 1.95606C11.2235 2.39347 11.6563 2.67901 12.1015 2.60003C12.5529 2.52713 12.8621 2.12009 12.8126 1.67661C12.7632 1.23312 12.3674 0.898989 11.916 0.92329C11.4584 0.94759 11.106 1.3121 11.0998 1.76166L9.91253 1.56725C10.0795 1.00834 9.80741 0.412978 9.26944 0.163897C8.73147 -0.0851836 8.09456 0.0970706 7.76683 0.583082C7.4391 1.06909 7.52567 1.71913 7.97089 2.10794L6.64761 3.37765C6.44355 3.14679 6.15292 3.00099 5.84374 2.97669V2.08972C6.29514 2.04112 6.63524 1.65231 6.6105 1.20275C6.58577 0.753186 6.21476 0.406903 5.75717 0.406903C5.29959 0.406903 4.92239 0.759261 4.89765 1.20882C4.87292 1.65838 5.20683 2.04719 5.66442 2.09579V2.97669C5.2563 3.00706 4.89147 3.24399 4.69978 3.59635C4.50809 3.95478 4.51427 4.38004 4.71833 4.7324L2.64065 5.66797C2.56645 5.4918 2.44896 5.33992 2.30055 5.21841L3.1106 3.78468C3.1848 3.80291 3.25282 3.81506 3.32703 3.81506C3.76606 3.81506 4.13089 3.49307 4.18654 3.06781C4.2422 2.64255 3.95775 2.24767 3.53727 2.14439C3.1106 2.04112 2.67775 2.2659 2.52316 2.66686C2.36857 3.06781 2.5479 3.51737 2.93128 3.71785L2.14596 5.11514C1.66983 4.83568 1.07002 4.91466 0.680456 5.30347C0.297075 5.69228 0.229055 6.28156 0.519683 6.74327C0.810311 7.20498 1.3792 7.41154 1.9048 7.24751L2.83852 9.03968C2.60355 9.20978 2.43659 9.46494 2.38094 9.74439L1.70075 9.54999C1.7193 9.48316 1.72548 9.41026 1.72548 9.34343C1.72548 8.9121 1.39775 8.55367 0.964901 8.50506C0.532051 8.45646 0.130118 8.72985 0.0249975 9.14903C-0.0801233 9.56821 0.154853 9.99347 0.569152 10.1393C0.977268 10.2851 1.43485 10.1089 1.63273 9.72617L2.3562 9.93272C2.3562 9.95095 2.3562 9.96917 2.3562 9.9874C2.3562 10.3884 2.56026 10.7589 2.90654 10.9716L2.44278 11.5669C2.10268 11.2693 1.58326 11.2875 1.26171 11.6095C0.940166 11.9314 0.927799 12.4357 1.23698 12.7698C1.54616 13.1039 2.05939 13.1404 2.41804 12.8549C2.77669 12.5693 2.83852 12.0651 2.57263 11.7006L3.0735 11.0566C3.22191 11.1234 3.38886 11.1538 3.55582 11.1538C3.58055 11.1538 3.60529 11.1538 3.63002 11.1477L4.00104 13.2072C3.50635 13.353 3.16007 13.7965 3.14152 14.3007C3.12915 14.8111 3.4507 15.2667 3.9392 15.4368C4.4277 15.6069 4.97186 15.4489 5.28722 15.0419L7.01862 15.8013C7.00625 15.8621 6.99389 15.9289 6.99389 15.9896C6.99389 16.421 7.32162 16.7855 7.76065 16.8341C8.19968 16.8827 8.60161 16.6032 8.70055 16.184C8.79949 15.7649 8.55833 15.3396 8.14403 15.1938C7.72973 15.048 7.27215 15.2363 7.08046 15.6251L5.39234 14.884C5.46654 14.7503 5.51601 14.6045 5.52838 14.4526L7.72973 13.9241C7.89669 14.2278 8.1935 14.4405 8.53978 14.5134C8.88606 14.5802 9.24471 14.4952 9.51678 14.2825L10.3392 14.9812C10.1475 15.3943 10.3145 15.8803 10.7226 16.0868C11.1307 16.2995 11.6316 16.1597 11.8665 15.7709C12.1015 15.3821 11.9902 14.884 11.613 14.6288C11.2296 14.3736 10.7164 14.4587 10.4381 14.8171L9.65282 14.1549C9.77031 14.0334 9.85688 13.8816 9.91253 13.7236L13.1836 13.8816C13.1898 14.3493 13.5732 14.7199 14.0493 14.7199C14.5255 14.7199 14.9089 14.3372 14.9027 13.8755C14.9027 13.4199 14.5193 13.0432 14.0432 13.0432Z" fill="#FF473E"/>
</g>
<defs>
<clipPath id="clip0_1856_6867">
<rect width="64" height="16.8889" fill="white"/>
</clipPath>
</defs>
</svg>
