<svg width="30" height="30" viewBox="0 0 30 30" fill="none" xmlns="http://www.w3.org/2000/svg">
<path d="M24.9095 5.61513C23.1281 4.75184 21.2179 4.11581 19.2207 3.75153C19.1843 3.7445 19.148 3.76207 19.1292 3.79721C18.8836 4.25871 18.6115 4.86077 18.4209 5.33399C16.2727 4.99431 14.1356 4.99431 12.0315 5.33399C11.8409 4.85025 11.5589 4.25871 11.3121 3.79721C11.2933 3.76324 11.257 3.74567 11.2206 3.75153C9.2245 4.11465 7.31429 4.75068 5.53185 5.61513C5.51642 5.62215 5.50319 5.63388 5.49441 5.64909C1.87114 11.3664 0.878577 16.9432 1.3655 22.4508C1.3677 22.4777 1.38202 22.5035 1.40185 22.5199C3.79238 24.3741 6.10802 25.4998 8.38066 26.2459C8.41703 26.2576 8.45556 26.2436 8.47871 26.2119C9.0163 25.4365 9.49552 24.6189 9.9064 23.7591C9.93065 23.7088 9.9075 23.6491 9.85794 23.6291C9.09783 23.3246 8.37404 22.9533 7.67781 22.5316C7.62274 22.4976 7.61833 22.4145 7.669 22.3746C7.81551 22.2587 7.96206 22.138 8.10196 22.0162C8.12727 21.994 8.16254 21.9893 8.1923 22.0033C12.7662 24.209 17.7181 24.209 22.238 22.0033C22.2678 21.9881 22.303 21.9928 22.3295 22.015C22.4694 22.1368 22.6159 22.2587 22.7635 22.3746C22.8142 22.4145 22.8109 22.4976 22.7558 22.5316C22.0596 22.9615 21.3358 23.3246 20.5746 23.628C20.525 23.6479 20.503 23.7088 20.5272 23.7591C20.9469 24.6177 21.4261 25.4353 21.9538 26.2108C21.9758 26.2436 22.0155 26.2576 22.0519 26.2459C24.3355 25.4998 26.6511 24.3741 29.0417 22.5199C29.0626 22.5035 29.0758 22.4789 29.078 22.452C29.6608 16.0845 28.102 10.5535 24.9458 5.65026C24.9381 5.63388 24.9249 5.62215 24.9095 5.61513ZM10.5894 19.0972C9.21238 19.0972 8.07771 17.7619 8.07771 16.122C8.07771 14.4821 9.19037 13.1468 10.5894 13.1468C11.9995 13.1468 13.1232 14.4939 13.1011 16.122C13.1011 17.7619 11.9885 19.0972 10.5894 19.0972ZM19.8761 19.0972C18.4991 19.0972 17.3644 17.7619 17.3644 16.122C17.3644 14.4821 18.4771 13.1468 19.8761 13.1468C21.2862 13.1468 22.4099 14.4939 22.3879 16.122C22.3879 17.7619 21.2862 19.0972 19.8761 19.0972Z" fill="white"/>
</svg>
