<svg width="18" height="18" viewBox="0 0 18 18" fill="none" xmlns="http://www.w3.org/2000/svg">
<g clip-path="url(#clip0_2968_6437)">
<path d="M6.46875 10.6875C6.93474 10.6875 7.3125 10.3097 7.3125 9.84375C7.3125 9.37776 6.93474 9 6.46875 9C6.00276 9 5.625 9.37776 5.625 9.84375C5.625 10.3097 6.00276 10.6875 6.46875 10.6875Z" fill="white"/>
<path d="M11.5312 10.6875C11.9972 10.6875 12.375 10.3097 12.375 9.84375C12.375 9.37776 11.9972 9 11.5312 9C11.0653 9 10.6875 9.37776 10.6875 9.84375C10.6875 10.3097 11.0653 10.6875 11.5312 10.6875Z" fill="white"/>
<path d="M10.7888 5.18126L11.1403 3.80102C11.1754 3.66215 11.2616 3.54161 11.3816 3.46343C11.5016 3.38524 11.6467 3.35515 11.7879 3.37915L14.322 3.7968C14.4314 3.81457 14.5333 3.86398 14.615 3.93895C14.6967 4.01391 14.7547 4.11115 14.7818 4.21868L16.8581 12.4009C16.8898 12.5296 16.8751 12.6653 16.8166 12.7841C16.7581 12.903 16.6595 12.9974 16.5382 13.0506L11.8273 15.1389C11.7558 15.1714 11.6784 15.1888 11.5999 15.1901C11.5214 15.1914 11.4435 15.1765 11.371 15.1465C11.2984 15.1164 11.2329 15.0718 11.1783 15.0153C11.1238 14.9589 11.0814 14.8918 11.0538 14.8183L10.3359 12.8713" stroke="white" stroke-linecap="round" stroke-linejoin="round"/>
<path d="M7.21123 5.18126L6.85966 3.80102C6.82455 3.66215 6.7384 3.54161 6.61839 3.46343C6.49837 3.38524 6.3533 3.35515 6.21208 3.37915L3.67802 3.7968C3.56857 3.81457 3.4667 3.86398 3.38499 3.93895C3.30328 4.01391 3.24529 4.11115 3.21818 4.21868L1.14185 12.3995C1.11013 12.5282 1.12483 12.6639 1.18335 12.7827C1.24188 12.9016 1.34048 12.9959 1.46177 13.0492L6.17271 15.1375C6.24419 15.17 6.32159 15.1874 6.40008 15.1887C6.47857 15.19 6.5565 15.1751 6.62902 15.1451C6.70154 15.115 6.76711 15.0704 6.82166 15.0139C6.87622 14.9575 6.91859 14.8904 6.94615 14.8169L7.66404 12.8713" stroke="white" stroke-linecap="round" stroke-linejoin="round"/>
<path d="M5.625 5.50608C6.72471 5.20599 7.8601 5.05673 9 5.06241C10.1399 5.05673 11.2753 5.20599 12.375 5.50608" stroke="white" stroke-linecap="round" stroke-linejoin="round"/>
<path d="M12.375 12.4939C11.2753 12.794 10.1399 12.9432 9 12.9376C7.8601 12.9432 6.72471 12.794 5.625 12.4939" stroke="white" stroke-linecap="round" stroke-linejoin="round"/>
</g>
<defs>
<clipPath id="clip0_2968_6437">
<rect width="18" height="18" fill="white"/>
</clipPath>
</defs>
</svg>
