<svg width="18" height="18" viewBox="0 0 18 18" fill="none" xmlns="http://www.w3.org/2000/svg">
<path d="M14.9457 3.36908C13.8769 2.8511 12.7308 2.46949 11.5324 2.25092C11.5106 2.2467 11.4888 2.25724 11.4775 2.27832C11.3301 2.55522 11.1669 2.91646 11.0525 3.20039C9.76364 2.99659 8.48135 2.99659 7.21888 3.20039C7.10452 2.91015 6.93532 2.55522 6.78725 2.27832C6.77601 2.25794 6.75421 2.2474 6.73239 2.25092C5.5347 2.46879 4.38857 2.85041 3.31911 3.36908C3.30985 3.37329 3.30192 3.38033 3.29665 3.38946C1.12269 6.81983 0.527146 10.1659 0.819298 13.4705C0.82062 13.4866 0.829213 13.5021 0.84111 13.5119C2.27543 14.6245 3.66481 15.2999 5.02839 15.7475C5.05022 15.7546 5.07334 15.7461 5.08723 15.7272C5.40978 15.2619 5.69731 14.7714 5.94384 14.2555C5.95839 14.2253 5.9445 14.1894 5.91477 14.1775C5.4587 13.9948 5.02443 13.772 4.60669 13.519C4.57365 13.4986 4.571 13.4487 4.6014 13.4248C4.6893 13.3552 4.77724 13.2828 4.86118 13.2097C4.87636 13.1964 4.89752 13.1936 4.91538 13.202C7.65974 14.5254 10.6308 14.5254 13.3428 13.202C13.3607 13.1929 13.3818 13.1957 13.3977 13.209C13.4816 13.2821 13.5695 13.3552 13.6581 13.4248C13.6885 13.4487 13.6865 13.4986 13.6535 13.519C13.2357 13.7769 12.8015 13.9948 12.3447 14.1768C12.315 14.1887 12.3018 14.2253 12.3163 14.2555C12.5682 14.7706 12.8557 15.2612 13.1723 15.7265C13.1855 15.7461 13.2093 15.7546 13.2311 15.7475C14.6013 15.2999 15.9907 14.6245 17.425 13.5119C17.4376 13.5021 17.4455 13.4873 17.4468 13.4712C17.7965 9.65072 16.8612 6.3321 14.9675 3.39016C14.9629 3.38033 14.9549 3.37329 14.9457 3.36908ZM6.35367 11.4583C5.52743 11.4583 4.84663 10.6572 4.84663 9.67322C4.84663 8.68929 5.51422 7.88811 6.35367 7.88811C7.1997 7.88811 7.87391 8.69632 7.86068 9.67322C7.86068 10.6572 7.19309 11.4583 6.35367 11.4583ZM11.9257 11.4583C11.0995 11.4583 10.4187 10.6572 10.4187 9.67322C10.4187 8.68929 11.0862 7.88811 11.9257 7.88811C12.7717 7.88811 13.4459 8.69632 13.4327 9.67322C13.4327 10.6572 12.7717 11.4583 11.9257 11.4583Z" fill="black"/>
</svg>
