<svg width="65" height="69" viewBox="0 0 65 69" fill="none" xmlns="http://www.w3.org/2000/svg">
<rect opacity="0.2" x="0.5" y="0.5" width="63" height="14" rx="1.5" stroke="url(#paint0_linear_3231_10725)"/>
<rect opacity="0.2" x="0.5" y="18.5" width="63" height="14" rx="1.5" stroke="url(#paint1_linear_3231_10725)"/>
<rect x="0.5" y="36.5" width="63" height="14" rx="1.5" stroke="url(#paint2_linear_3231_10725)"/>
<g filter="url(#filter0_b_3231_10725)">
<path d="M49.9222 64.4526C49.8549 64.6007 49.7448 64.7252 49.606 64.81C49.4671 64.8947 49.3061 64.9359 49.1436 64.9281C48.9812 64.9204 48.8248 64.864 48.6947 64.7664C48.5646 64.6688 48.4668 64.5343 48.414 64.3805L43.1053 48.1234C43.0618 47.9822 43.0577 47.8319 43.0933 47.6885C43.1289 47.5451 43.2029 47.4142 43.3073 47.3098C43.4118 47.2053 43.5427 47.1313 43.6861 47.0957C43.8294 47.0601 43.9798 47.0643 44.1209 47.1078L60.3811 52.4134C60.5349 52.4662 60.6694 52.564 60.767 52.6941C60.8646 52.8242 60.921 52.9806 60.9288 53.143C60.9365 53.3055 60.8953 53.4665 60.8106 53.6053C60.7258 53.7442 60.6013 53.8543 60.4532 53.9216L55.9062 55.899C55.7848 55.9519 55.6782 56.0338 55.5956 56.1374C55.513 56.2409 55.457 56.3631 55.4325 56.4933C55.408 56.6235 55.4156 56.7577 55.4548 56.8842C55.494 57.0108 55.5636 57.1258 55.6574 57.2193L60.702 62.2639C60.8543 62.4163 60.9398 62.6229 60.9398 62.8383C60.9398 63.0537 60.8543 63.2602 60.702 63.4126L59.4152 64.7004C59.2629 64.8527 59.0563 64.9382 58.8409 64.9382C58.6255 64.9382 58.4189 64.8527 58.2666 64.7004L53.2199 59.6568C53.1263 59.563 53.0112 59.4935 52.8847 59.4544C52.7581 59.4153 52.6238 59.4077 52.4936 59.4323C52.3635 59.457 52.2413 59.5131 52.1377 59.5957C52.0342 59.6784 51.9524 59.7852 51.8996 59.9067L49.9222 64.4526Z" fill="black" fill-opacity="0.11"/>
<path d="M49.9222 64.4526C49.8549 64.6007 49.7448 64.7252 49.606 64.81C49.4671 64.8947 49.3061 64.9359 49.1436 64.9281C48.9812 64.9204 48.8248 64.864 48.6947 64.7664C48.5646 64.6688 48.4668 64.5343 48.414 64.3805L43.1053 48.1234C43.0618 47.9822 43.0577 47.8319 43.0933 47.6885C43.1289 47.5451 43.2029 47.4142 43.3073 47.3098C43.4118 47.2053 43.5427 47.1313 43.6861 47.0957C43.8294 47.0601 43.9798 47.0643 44.1209 47.1078L60.3811 52.4134C60.5349 52.4662 60.6694 52.564 60.767 52.6941C60.8646 52.8242 60.921 52.9806 60.9288 53.143C60.9365 53.3055 60.8953 53.4665 60.8106 53.6053C60.7258 53.7442 60.6013 53.8543 60.4532 53.9216L55.9062 55.899C55.7848 55.9519 55.6782 56.0338 55.5956 56.1374C55.513 56.2409 55.457 56.3631 55.4325 56.4933C55.408 56.6235 55.4156 56.7577 55.4548 56.8842C55.494 57.0108 55.5636 57.1258 55.6574 57.2193L60.702 62.2639C60.8543 62.4163 60.9398 62.6229 60.9398 62.8383C60.9398 63.0537 60.8543 63.2602 60.702 63.4126L59.4152 64.7004C59.2629 64.8527 59.0563 64.9382 58.8409 64.9382C58.6255 64.9382 58.4189 64.8527 58.2666 64.7004L53.2199 59.6568C53.1263 59.563 53.0112 59.4935 52.8847 59.4544C52.7581 59.4153 52.6238 59.4077 52.4936 59.4323C52.3635 59.457 52.2413 59.5131 52.1377 59.5957C52.0342 59.6784 51.9524 59.7852 51.8996 59.9067L49.9222 64.4526Z" stroke="url(#paint3_linear_3231_10725)" stroke-linecap="round" stroke-linejoin="round"/>
</g>
<defs>
<filter id="filter0_b_3231_10725" x="22.5693" y="26.5718" width="58.8701" height="58.8665" filterUnits="userSpaceOnUse" color-interpolation-filters="sRGB">
<feFlood flood-opacity="0" result="BackgroundImageFix"/>
<feGaussianBlur in="BackgroundImageFix" stdDeviation="10"/>
<feComposite in2="SourceAlpha" operator="in" result="effect1_backgroundBlur_3231_10725"/>
<feBlend mode="normal" in="SourceGraphic" in2="effect1_backgroundBlur_3231_10725" result="shape"/>
</filter>
<linearGradient id="paint0_linear_3231_10725" x1="19" y1="3.62545e-06" x2="55" y2="15" gradientUnits="userSpaceOnUse">
<stop stop-color="white"/>
<stop offset="1" stop-color="white" stop-opacity="0.26"/>
</linearGradient>
<linearGradient id="paint1_linear_3231_10725" x1="19" y1="18" x2="55" y2="33" gradientUnits="userSpaceOnUse">
<stop stop-color="white"/>
<stop offset="1" stop-color="white" stop-opacity="0.26"/>
</linearGradient>
<linearGradient id="paint2_linear_3231_10725" x1="19" y1="36" x2="55" y2="51" gradientUnits="userSpaceOnUse">
<stop stop-color="white"/>
<stop offset="1" stop-color="white" stop-opacity="0.26"/>
</linearGradient>
<linearGradient id="paint3_linear_3231_10725" x1="52.0046" y1="47.0718" x2="52.0046" y2="64.9382" gradientUnits="userSpaceOnUse">
<stop stop-color="white"/>
<stop offset="1" stop-color="white" stop-opacity="0"/>
</linearGradient>
</defs>
</svg>
