<svg width="45" height="19" viewBox="0 0 45 19" fill="none" xmlns="http://www.w3.org/2000/svg">
<path d="M4.61081 9.75474C3.89518 9.77388 3.18461 9.62988 2.53288 9.33367C1.98 9.07209 1.49142 8.69203 1.10186 8.22049C0.735036 7.77602 0.452889 7.26803 0.26941 6.72173C0.0958572 6.21802 0.00488872 5.68957 0 5.15682V4.88739C0.000162501 4.32368 0.0933677 3.76388 0.275869 3.23053C0.459024 2.68903 0.745577 2.18824 1.11963 1.75596C1.51256 1.30616 1.99866 0.947232 2.54419 0.704084C3.1769 0.431635 3.86081 0.298485 4.54952 0.313667C5.29925 0.301621 6.04187 0.460519 6.72102 0.7783C7.33904 1.06687 7.86859 1.51557 8.25469 2.07784C8.64079 2.64011 8.86938 3.29546 8.91675 3.97588H7.62611C7.3776 3.97593 7.13288 3.91471 6.91367 3.79765C6.69446 3.68059 6.50751 3.51129 6.36933 3.30473C6.33835 3.25787 6.30495 3.21264 6.26929 3.16922C6.0751 2.93647 5.82776 2.75387 5.54815 2.63683C5.23 2.50623 4.88853 2.44199 4.54467 2.44807C4.21967 2.44305 3.89715 2.50569 3.59764 2.63199C3.32413 2.74808 3.08119 2.92589 2.8878 3.15148C2.68924 3.38869 2.53956 3.66284 2.44737 3.95813C2.24514 4.66126 2.24514 5.40715 2.44737 6.11028C2.54065 6.41168 2.69497 6.69066 2.90072 6.92984C3.09941 7.1574 3.34858 7.3353 3.62833 7.44932C3.9394 7.57212 4.27158 7.63243 4.60596 7.62679C5.12158 7.6434 5.62942 7.49781 6.05794 7.21056C6.23809 7.08666 6.3935 6.93017 6.51613 6.74915C6.65474 6.54831 6.84045 6.38448 7.057 6.27198C7.27355 6.15949 7.51435 6.10175 7.75837 6.10383H9.04902C8.97881 6.77228 8.74147 7.4123 8.35887 7.96491C7.97627 8.51752 7.46076 8.96493 6.85979 9.26591C6.16068 9.60828 5.38895 9.77602 4.61081 9.75474Z" fill="white"/>
<path d="M15.6129 3.8593C15.3473 3.44455 14.9578 3.12395 14.4997 2.94294C13.9371 2.72434 13.3365 2.62014 12.7332 2.63642C12.4879 2.63642 12.2201 2.63641 11.9265 2.64932C11.6329 2.66222 11.3586 2.66868 11.0892 2.68643C10.8198 2.70418 10.5875 2.71869 10.3923 2.73483V4.59336L11.3086 4.54495C11.6426 4.52882 11.962 4.51592 12.2637 4.50785C12.5654 4.49978 12.7929 4.49494 12.9477 4.49494C13.2704 4.49494 13.5075 4.57077 13.6511 4.72242C13.8038 4.9096 13.8799 5.14768 13.8641 5.38872H12.8009C12.2509 5.3799 11.7027 5.45386 11.1747 5.60813C10.7452 5.72778 10.3589 5.96795 10.0615 6.30023C9.78114 6.6462 9.63761 7.08312 9.65819 7.52797C9.64675 7.93568 9.75499 8.33782 9.96955 8.6847C10.1804 9.0087 10.4801 9.2652 10.8327 9.4236C11.228 9.60127 11.6577 9.68941 12.0911 9.68173C12.5041 9.69462 12.9141 9.60599 13.2849 9.4236C13.6076 9.25259 14.2319 9.5091 14.2319 9.5091H15.9985V5.41291C16.0197 4.86897 15.886 4.33019 15.6129 3.8593ZM13.6979 7.73123C13.6157 7.88815 13.485 8.01434 13.3252 8.09101C13.1618 8.16332 12.9845 8.1991 12.8058 8.19587C12.5528 8.21247 12.3032 8.13101 12.1088 7.9684C12.0278 7.89312 11.9639 7.80127 11.9216 7.69909C11.8793 7.59692 11.8595 7.48683 11.8636 7.37632C11.8585 7.26376 11.8778 7.15143 11.9201 7.04702C11.9624 6.9426 12.0268 6.84857 12.1088 6.77132C12.3032 6.60871 12.5528 6.52724 12.8058 6.54384H13.8706V7.02783C13.8656 7.2701 13.8066 7.50819 13.6979 7.72478V7.73123Z" fill="white"/>
<path d="M20.1665 9.73142C19.1889 9.73142 18.4188 9.52975 17.8563 9.12643C17.5817 8.93323 17.3566 8.67794 17.1994 8.38135C17.0421 8.08475 16.957 7.75521 16.9512 7.41955H18.9017C18.9235 7.52925 18.9686 7.63299 19.0341 7.72372C19.0995 7.81446 19.1836 7.89009 19.2808 7.94549C19.5623 8.10852 19.8854 8.18537 20.2101 8.16651C20.4624 8.17207 20.7134 8.12822 20.949 8.03744C21.0399 8.01049 21.1196 7.95468 21.1761 7.87843C21.2326 7.80218 21.2627 7.70963 21.2619 7.61476C21.2611 7.52932 21.2381 7.44557 21.1951 7.37174C21.1521 7.29791 21.0907 7.23654 21.0167 7.19369C20.8533 7.08613 20.5559 7.01084 20.1246 6.96782L19.6599 6.91781C18.7995 6.82962 18.1633 6.59353 17.7514 6.20957C17.5525 6.02637 17.395 5.80277 17.2895 5.55374C17.1841 5.30471 17.1331 5.03601 17.14 4.76566C17.1223 4.32636 17.2517 3.89373 17.5078 3.53632C17.7695 3.20176 18.1217 2.94925 18.5225 2.80872C18.9969 2.63871 19.4982 2.55617 20.002 2.56511C20.9065 2.56511 21.6362 2.76247 22.1912 3.15719C22.4634 3.35097 22.6853 3.60697 22.8385 3.90387C22.9917 4.20076 23.0718 4.52997 23.0721 4.86407H21.1151C21.0779 4.65399 20.959 4.46719 20.7844 4.34458C20.5462 4.18669 20.2629 4.11132 19.9777 4.13002C19.7637 4.12149 19.5511 4.16756 19.3599 4.26392C19.2881 4.29776 19.2274 4.35145 19.1851 4.41862C19.1428 4.4858 19.1206 4.56366 19.1211 4.64305C19.1176 4.72139 19.1372 4.79904 19.1773 4.86641C19.2174 4.93378 19.2764 4.98792 19.3469 5.02217C19.5769 5.12556 19.8231 5.18781 20.0746 5.20609L20.5392 5.25449C21.3996 5.34484 22.0665 5.58361 22.5397 5.9708C22.7667 6.153 22.9483 6.38536 23.0704 6.64961C23.1924 6.91386 23.2515 7.20281 23.2431 7.49376C23.2538 7.92341 23.1229 8.34465 22.8704 8.69245C22.5955 9.04463 22.2263 9.3115 21.8056 9.462C21.2805 9.65189 20.7248 9.74322 20.1665 9.73142Z" fill="white"/>
<path d="M31.5838 4.60721C31.4513 4.20912 31.2413 3.84121 30.9659 3.52469C30.6986 3.22059 30.3683 2.97835 29.9979 2.81483C29.6002 2.64375 29.1708 2.55854 28.7379 2.56477C28.2006 2.56477 27.2779 2.68415 26.8632 2.92454C26.4486 3.16492 24.3594 2.76321 24.3594 2.76321V11.9591H26.5857V9.62622C26.5857 9.55776 26.6042 9.49056 26.639 9.43164C26.6739 9.37272 26.7239 9.32425 26.7839 9.29128C26.8439 9.25831 26.9117 9.24205 26.9801 9.24421C27.0486 9.24637 27.1152 9.26687 27.173 9.30356C27.2359 9.3457 27.3011 9.38447 27.3682 9.41971C27.7972 9.63355 28.2716 9.74038 28.7508 9.73108C29.1981 9.73941 29.642 9.65196 30.0527 9.47457C30.4242 9.30866 30.7526 9.05974 31.0127 8.74697C31.2795 8.42221 31.4791 8.04765 31.5999 7.64508C31.7341 7.1994 31.7999 6.73595 31.7951 6.27053V5.97691C31.8007 5.51181 31.7294 5.04898 31.5838 4.60721ZM29.388 7.04009C29.2741 7.29473 29.0921 7.51299 28.8621 7.67088C28.6323 7.82297 28.3617 7.90173 28.0861 7.89675C27.8351 7.89508 27.588 7.83429 27.3649 7.71929C27.1278 7.60163 26.9255 7.42426 26.7777 7.20465C26.6191 6.96607 26.538 6.68437 26.5454 6.39799V5.98337C26.5363 5.68285 26.6124 5.38588 26.7648 5.1267C26.9028 4.89919 27.0995 4.71305 27.3343 4.58786C27.5662 4.46659 27.8244 4.40399 28.0861 4.40555C28.3621 4.39839 28.6342 4.47244 28.8686 4.61851C29.0936 4.767 29.2733 4.97466 29.388 5.21866C29.5215 5.50359 29.5866 5.81567 29.5784 6.13018C29.5832 6.44384 29.5182 6.75465 29.388 7.04009Z" fill="white"/>
<path d="M36.1879 9.75413C35.6674 9.76372 35.1507 9.66367 34.6714 9.4605C34.2479 9.2777 33.8684 9.00652 33.5582 8.66514C32.9612 8.00479 32.6302 7.14665 32.6289 6.25648V6.01125C32.6273 5.56257 32.7082 5.11741 32.8677 4.69802C33.0219 4.28444 33.2541 3.90434 33.5517 3.57838C33.8584 3.24577 34.2317 2.98139 34.6472 2.80238C35.1102 2.60377 35.6099 2.50536 36.1137 2.5136C36.7634 2.49179 37.4053 2.65999 37.9609 2.99759C38.4579 3.31459 38.8594 3.76071 39.1225 4.28824C39.3932 4.8294 39.5314 5.42715 39.5258 6.03222V6.74692H33.5566V5.54823H38.2352L37.4656 6.08707C37.4708 5.75731 37.4161 5.42935 37.3043 5.11909C37.2186 4.87582 37.0603 4.66468 36.8509 4.5141C36.6278 4.36884 36.3652 4.29615 36.0992 4.30598C35.8303 4.29959 35.5652 4.36952 35.3345 4.50765C35.1097 4.65494 34.9366 4.86869 34.8392 5.11909C34.7158 5.44949 34.6577 5.8007 34.6681 6.15322C34.6616 6.48308 34.7163 6.81129 34.8295 7.12121C34.9209 7.3769 35.0901 7.59751 35.3135 7.75201C35.5709 7.90862 35.8691 7.98502 36.1701 7.97142C36.4338 7.98028 36.6957 7.92491 36.9332 7.81009C37.1186 7.71897 37.2676 7.56768 37.3559 7.38095H39.3854C39.293 7.82936 39.0938 8.24886 38.8047 8.60384C38.5092 8.96789 38.1323 9.25745 37.7044 9.44921C37.2265 9.65795 36.7093 9.76192 36.1879 9.75413Z" fill="white"/>
<path d="M40.6992 9.50924V2.75917L42.4545 3.19798C42.4545 3.19798 43.9871 2.6543 44.7293 2.6543H44.9987V4.56929H44.4856C43.9871 4.56929 43.6031 4.7032 43.3289 4.97262C43.0546 5.24204 42.9191 5.62924 42.9191 6.1342V9.50924H40.6992Z" fill="white"/>
<path d="M4.30689 12.3782C3.95127 12.2403 3.57178 12.1745 3.19049 12.1846C3.02916 12.1846 2.86781 12.1846 2.68389 12.1846C2.49997 12.1846 2.32412 12.1975 2.15472 12.2088C1.98532 12.2201 1.83206 12.2282 1.71429 12.2395V13.4139C1.89014 13.4027 2.08214 13.393 2.29348 13.3833C2.50483 13.3736 2.70649 13.3655 2.89686 13.3591C3.08723 13.3526 3.2308 13.3591 3.32921 13.3591C3.40918 13.3513 3.48989 13.3599 3.56644 13.3843C3.643 13.4087 3.71379 13.4484 3.77449 13.5011C3.86977 13.62 3.91751 13.77 3.90841 13.9221H3.23725C2.88969 13.9169 2.54333 13.9637 2.20959 14.0609C1.93813 14.1363 1.694 14.2881 1.50617 14.4981C1.32862 14.7172 1.23792 14.994 1.25129 15.2757C1.24379 15.5328 1.31225 15.7865 1.44811 16.0049C1.58081 16.2097 1.7695 16.3721 1.99178 16.4728C2.2424 16.5843 2.51447 16.6394 2.78874 16.6341C3.04931 16.6429 3.30806 16.5875 3.54218 16.4728C3.74546 16.3647 4.14071 16.5276 4.14071 16.5276H5.25388V13.9463C5.26776 13.6023 5.18325 13.2615 5.01027 12.9638C4.84285 12.6998 4.59685 12.495 4.30689 12.3782ZM3.80029 15.3999C3.74816 15.499 3.6656 15.5788 3.56475 15.6274C3.46336 15.6729 3.3532 15.6955 3.24209 15.6936C3.08247 15.7047 2.9247 15.6539 2.80166 15.5516C2.74896 15.5045 2.70719 15.4464 2.67932 15.3815C2.65145 15.3166 2.63815 15.2463 2.64033 15.1757C2.63796 15.1041 2.65115 15.0328 2.67901 14.9668C2.70686 14.9008 2.74871 14.8416 2.80166 14.7933C2.9247 14.691 3.08247 14.6402 3.24209 14.6514H3.91325V14.9514C3.91134 15.1077 3.87262 15.2614 3.80029 15.3999Z" fill="white"/>
<path d="M7.31043 12.4545L6.19727 12.2625V16.5297H7.60891V14.3953C7.59436 14.2619 7.60993 14.1269 7.65448 14.0002C7.69904 13.8736 7.77144 13.7587 7.86635 13.6638C7.96125 13.5688 8.07623 13.4965 8.20283 13.4519C8.32944 13.4073 8.46442 13.3918 8.59785 13.4063H8.92051V12.2012H8.75114C8.27845 12.2012 7.31043 12.4545 7.31043 12.4545Z" fill="white"/>
<path d="M15.4908 12.3433C15.2501 12.1904 14.9691 12.1134 14.6841 12.1223H14.6228C14.3408 12.1132 14.0628 12.1903 13.8258 12.3433C13.6001 12.5065 13.4309 12.736 13.3418 12.9999C13.3409 13.0036 13.3409 13.0075 13.3418 13.0112V12.9999C13.253 12.7359 13.0837 12.5063 12.8578 12.3433C12.6184 12.1876 12.3365 12.1104 12.0512 12.1223H11.9882C11.7068 12.1133 11.4293 12.1904 11.1929 12.3433C10.9767 12.4901 10.5976 12.261 10.5976 12.261H9.48438V16.5282H10.8912V14.0776C10.8819 13.8948 10.9393 13.7148 11.0525 13.571C11.1093 13.5056 11.1802 13.4539 11.2598 13.4198C11.3394 13.3857 11.4258 13.3701 11.5123 13.3742C11.5978 13.3694 11.6831 13.3847 11.7616 13.4189C11.8401 13.4531 11.9094 13.5052 11.964 13.571C12.0722 13.7088 12.1293 13.8799 12.1254 14.055V16.5218H13.5306V14.0776C13.5222 13.8949 13.5794 13.7152 13.6919 13.571C13.7487 13.5056 13.8195 13.4539 13.8992 13.4198C13.9788 13.3857 14.0652 13.3701 14.1517 13.3742C14.2374 13.3694 14.323 13.3847 14.4017 13.4189C14.4804 13.453 14.5501 13.5051 14.6051 13.571C14.7126 13.7091 14.7696 13.88 14.7664 14.055V16.5218H16.1732V14.1018C16.1845 13.7274 16.1254 13.3542 15.9989 13.0015C15.9015 12.735 15.724 12.5051 15.4908 12.3433Z" fill="white"/>
<path d="M19.6675 12.2617L18.9786 15.3528H18.8383L17.9752 12.2617H16.5684L17.8122 16.4353H18.7399L18.7108 16.5676C18.6931 16.6711 18.6535 16.7695 18.5947 16.8564C18.5433 16.9252 18.4733 16.9778 18.393 17.0081C18.2959 17.0408 18.1938 17.0561 18.0913 17.0532H17.1104V18.2277H17.9332C18.2686 18.2377 18.6034 18.1947 18.9254 18.1003C19.1679 18.025 19.3795 17.8733 19.5288 17.6679C19.6962 17.4159 19.8129 17.1337 19.8724 16.8371L20.9937 12.2617H19.6675Z" fill="white"/>
<path d="M23.9768 14.6602H21.9102V16.7268H23.9768V14.6602Z" fill="#FF0202"/>
</svg>
