<svg width="132" height="54" viewBox="0 0 132 54" fill="none" xmlns="http://www.w3.org/2000/svg">
<path d="M13.5236 28.6904C11.4246 28.7465 9.34052 28.3242 7.429 27.4554C5.80737 26.6881 4.37437 25.5734 3.23178 24.1904C2.15587 22.8868 1.32833 21.3968 0.790184 19.7945C0.281151 18.3171 0.0143387 16.7671 0 15.2046V14.4143C0.000476619 12.761 0.273849 11.119 0.80913 9.55473C1.34633 7.96649 2.18679 6.49766 3.28388 5.2298C4.43637 3.91052 5.86212 2.85778 7.46215 2.14462C9.31791 1.34552 11.3238 0.954989 13.3438 0.999515C15.5428 0.964186 17.7209 1.43024 19.7129 2.36229C21.5255 3.20868 23.0787 4.52472 24.2112 6.17386C25.3436 7.823 26.0141 9.74516 26.153 11.7408H22.3675C21.6386 11.741 20.9209 11.5614 20.2779 11.2181C19.635 10.8748 19.0867 10.3782 18.6814 9.77238C18.5905 9.63491 18.4925 9.50226 18.3879 9.37492C17.8184 8.69226 17.0929 8.15669 16.2728 7.81341C15.3397 7.43034 14.3382 7.24192 13.3296 7.25976C12.3764 7.24505 11.4304 7.42876 10.552 7.7992C9.74973 8.13971 9.03719 8.6612 8.46999 9.32287C7.88759 10.0186 7.44858 10.8227 7.1782 11.6888C6.58503 13.7511 6.58503 15.9388 7.1782 18.0011C7.45178 18.8851 7.90441 19.7033 8.50788 20.4049C9.09062 21.0723 9.82146 21.5941 10.642 21.9285C11.5543 22.2887 12.5286 22.4656 13.5094 22.449C15.0217 22.4978 16.5112 22.0708 17.768 21.2282C18.2964 20.8648 18.7523 20.4059 19.1119 19.8749C19.5185 19.2858 20.0632 18.8053 20.6983 18.4754C21.3335 18.1454 22.0397 17.9761 22.7554 17.9822H26.5409C26.335 19.9428 25.6389 21.82 24.5167 23.4408C23.3946 25.0616 21.8826 26.3738 20.1199 27.2566C18.0694 28.2608 15.8059 28.7528 13.5236 28.6904Z" fill="#2E3745"/>
<path d="M45.7904 11.4002C45.0112 10.1837 43.8689 9.24339 42.5254 8.71247C40.8752 8.07132 39.1137 7.76569 37.344 7.81344C36.6247 7.81344 35.8393 7.81342 34.9781 7.85127C34.1169 7.88913 33.3125 7.90807 32.5223 7.96012C31.732 8.01217 31.0506 8.05476 30.4781 8.10207V13.5532L33.1657 13.4112C34.1452 13.3639 35.0822 13.326 35.9671 13.3024C36.8519 13.2787 37.5191 13.2645 37.9734 13.2645C38.9197 13.2645 39.6153 13.4869 40.0364 13.9317C40.4842 14.4807 40.7075 15.179 40.661 15.886H37.5427C35.9295 15.8601 34.3217 16.0771 32.7731 16.5295C31.5132 16.8805 30.3801 17.5849 29.508 18.5595C28.6856 19.5742 28.2647 20.8557 28.325 22.1604C28.2915 23.3563 28.6089 24.5358 29.2383 25.5532C29.8567 26.5035 30.7356 27.2558 31.7698 27.7204C32.9294 28.2415 34.1897 28.5 35.4607 28.4775C36.6723 28.5153 37.8745 28.2553 38.9623 27.7204C39.9086 27.2188 41.7399 27.9712 41.7399 27.9712H46.9213V15.957C46.9836 14.3616 46.5914 12.7813 45.7904 11.4002ZM40.1736 22.7566C39.9324 23.2169 39.549 23.587 39.0805 23.8119C38.6011 24.0239 38.0811 24.1289 37.5569 24.1194C36.8151 24.1681 36.083 23.9292 35.5127 23.4522C35.2751 23.2315 35.0879 22.962 34.9637 22.6624C34.8396 22.3627 34.7816 22.0398 34.7936 21.7156C34.7786 21.3855 34.8351 21.0561 34.9592 20.7498C35.0834 20.4436 35.2721 20.1678 35.5127 19.9412C36.083 19.4643 36.8151 19.2253 37.5569 19.274H40.68V20.6935C40.6653 21.4041 40.4923 22.1025 40.1736 22.7377V22.7566Z" fill="#2E3745"/>
<path d="M59.1485 28.6205C56.2809 28.6205 54.0222 28.029 52.3724 26.846C51.5671 26.2793 50.907 25.5306 50.4457 24.6607C49.9844 23.7907 49.735 22.8242 49.7178 21.8397H55.4386C55.5027 22.1615 55.6351 22.4657 55.8269 22.7319C56.0188 22.998 56.2656 23.2198 56.5507 23.3823C57.3762 23.8605 58.3238 24.0859 59.2762 24.0305C60.0164 24.0468 60.7525 23.9183 61.4433 23.652C61.7101 23.5729 61.944 23.4092 62.1096 23.1856C62.2752 22.962 62.3635 22.6905 62.3613 22.4123C62.3589 22.1617 62.2915 21.916 62.1654 21.6995C62.0393 21.4829 61.8589 21.3029 61.6422 21.1772C61.1627 20.8618 60.2904 20.641 59.0254 20.5148L57.6626 20.3681C55.1389 20.1094 53.2731 19.417 52.0649 18.2908C51.4814 17.7535 51.0194 17.0976 50.7101 16.3672C50.4008 15.6368 50.2513 14.8487 50.2715 14.0558C50.2197 12.7673 50.5994 11.4984 51.3504 10.4501C52.118 9.46884 53.1509 8.72822 54.3266 8.31605C55.7179 7.8174 57.1881 7.5753 58.6658 7.60153C61.3188 7.60153 63.4591 8.18039 65.0868 9.33812C65.8851 9.90648 66.5361 10.6573 66.9855 11.5281C67.4349 12.3989 67.6698 13.3645 67.6705 14.3444H61.9307C61.8216 13.7283 61.4728 13.1804 60.9607 12.8208C60.2622 12.3577 59.431 12.1366 58.5947 12.1914C57.9671 12.1664 57.3435 12.3016 56.7825 12.5842C56.5719 12.6834 56.394 12.8409 56.2699 13.0379C56.1459 13.2349 56.0808 13.4633 56.0822 13.6962C56.0721 13.926 56.1294 14.1537 56.2471 14.3513C56.3648 14.5489 56.5377 14.7077 56.7446 14.8081C57.419 15.1114 58.1413 15.294 58.8787 15.3476L60.2414 15.4895C62.7651 15.7545 64.721 16.4548 66.109 17.5905C66.7748 18.1249 67.3076 18.8064 67.6656 19.5815C68.0235 20.3565 68.1968 21.204 68.172 22.0574C68.2036 23.3175 67.8196 24.553 67.0791 25.5731C66.2728 26.6061 65.1897 27.3888 63.956 27.8302C62.4157 28.3872 60.7859 28.6551 59.1485 28.6205Z" fill="#2E3745"/>
<path d="M92.6356 13.5911C92.247 12.4235 91.631 11.3444 90.8232 10.416C90.0393 9.52407 89.0705 8.81359 87.9841 8.33398C86.8176 7.83219 85.5583 7.58227 84.2885 7.60054C82.7128 7.60054 80.0062 7.95069 78.7901 8.65574C77.5741 9.36079 71.4463 8.18255 71.4463 8.18255V35.1542H77.9762V28.3119C77.9763 28.1111 78.0303 27.914 78.1326 27.7412C78.2349 27.5684 78.3816 27.4262 78.5576 27.3295C78.7336 27.2328 78.9323 27.1851 79.133 27.1915C79.3337 27.1978 79.5291 27.2579 79.6986 27.3655C79.8833 27.4891 80.0744 27.6028 80.2712 27.7062C81.5294 28.3334 82.9208 28.6467 84.3264 28.6195C85.6384 28.6439 86.9404 28.3874 88.145 27.8671C89.2344 27.3805 90.1976 26.6504 90.9605 25.733C91.7431 24.7805 92.3285 23.6819 92.6828 22.5012C93.0764 21.194 93.2694 19.8347 93.2554 18.4696V17.6084C93.272 16.2443 93.0626 14.8868 92.6356 13.5911ZM86.1955 20.7267C85.8612 21.4736 85.3275 22.1138 84.6529 22.5769C83.9787 23.0229 83.1851 23.254 82.3768 23.2393C81.6407 23.2344 80.916 23.0561 80.2617 22.7188C79.5663 22.3737 78.9727 21.8535 78.5393 21.2094C78.0742 20.5096 77.8362 19.6834 77.8579 18.8435V17.6274C77.8314 16.7459 78.0545 15.8749 78.5015 15.1147C78.9062 14.4474 79.4832 13.9015 80.1718 13.5343C80.8521 13.1786 81.6092 12.995 82.3768 12.9996C83.1865 12.9786 83.9845 13.1958 84.6718 13.6242C85.3319 14.0597 85.859 14.6688 86.1955 15.3845C86.5868 16.2201 86.7779 17.1355 86.7538 18.0579C86.7679 18.9779 86.5772 19.8895 86.1955 20.7267Z" fill="#2E3745"/>
<path d="M106.141 28.6913C104.614 28.7195 103.099 28.426 101.693 27.8301C100.451 27.294 99.3375 26.4986 98.4278 25.4973C96.6769 23.5605 95.7059 21.0436 95.7022 18.4327V17.7134C95.6974 16.3974 95.9348 15.0918 96.4025 13.8617C96.8548 12.6486 97.5359 11.5338 98.4088 10.5778C99.3084 9.60221 100.403 8.82676 101.622 8.30173C102.98 7.71922 104.446 7.43058 105.923 7.45474C107.829 7.39076 109.711 7.8841 111.341 8.8743C112.799 9.80406 113.976 11.1125 114.748 12.6598C115.542 14.247 115.947 16.0002 115.931 17.7749V19.8711H98.423V16.3554H112.145L109.888 17.9358C109.903 16.9686 109.743 16.0067 109.415 15.0967C109.164 14.3832 108.7 13.7639 108.085 13.3222C107.431 12.8962 106.661 12.683 105.88 12.7118C105.092 12.6931 104.314 12.8982 103.638 13.3033C102.978 13.7353 102.471 14.3622 102.185 15.0967C101.823 16.0658 101.653 17.0959 101.683 18.1298C101.664 19.0973 101.825 20.06 102.156 20.9689C102.425 21.7189 102.921 22.3659 103.576 22.8191C104.331 23.2784 105.206 23.5025 106.089 23.4626C106.862 23.4886 107.63 23.3262 108.327 22.9894C108.871 22.7222 109.307 22.2785 109.566 21.7308H115.519C115.248 23.046 114.664 24.2764 113.816 25.3175C112.949 26.3853 111.844 27.2346 110.589 27.797C109.187 28.4093 107.67 28.7142 106.141 28.6913Z" fill="#2E3745"/>
<path d="M119.376 27.9709V8.17282L124.524 9.45987C124.524 9.45987 129.02 7.86523 131.196 7.86523H131.986V13.482H130.482C129.019 13.482 127.893 13.8747 127.089 14.6649C126.284 15.4551 125.887 16.5908 125.887 18.0719V27.9709H119.376Z" fill="#2E3745"/>
<path d="M12.6339 36.3853C11.5908 35.9808 10.4778 35.7877 9.35947 35.8174C8.88628 35.8174 8.41303 35.8174 7.8736 35.8174C7.33417 35.8174 6.81838 35.8553 6.32154 35.8884C5.82469 35.9215 5.37517 35.9452 5.02975 35.9783V39.4231C5.54552 39.39 6.10865 39.3616 6.72853 39.3332C7.3484 39.3048 7.93988 39.2811 8.49824 39.2622C9.0566 39.2433 9.4777 39.2622 9.76635 39.2622C10.0009 39.2394 10.2376 39.2645 10.4621 39.3361C10.6867 39.4077 10.8943 39.5242 11.0723 39.6786C11.3518 40.0274 11.4918 40.4675 11.4651 40.9136H9.4966C8.4772 40.8984 7.46132 41.0356 6.48246 41.3206C5.68627 41.5419 4.97022 41.9869 4.41932 42.6029C3.89857 43.2456 3.63254 44.0574 3.67176 44.8837C3.64975 45.6378 3.85054 46.3818 4.24904 47.0225C4.63825 47.6231 5.19166 48.0994 5.84361 48.3947C6.57869 48.7219 7.37668 48.8834 8.18113 48.8679C8.94536 48.8936 9.7043 48.7312 10.391 48.3947C10.9872 48.0777 12.1465 48.5556 12.1465 48.5556H15.4114V40.9846C15.4521 39.9756 15.2043 38.976 14.6969 38.1029C14.2059 37.3286 13.4844 36.7279 12.6339 36.3853ZM11.148 45.248C10.9951 45.5387 10.753 45.7725 10.4572 45.9152C10.1598 46.0486 9.83668 46.1148 9.51081 46.1092C9.04265 46.142 8.57991 45.9928 8.21902 45.6928C8.06444 45.5547 7.94195 45.3845 7.8602 45.194C7.77845 45.0035 7.73943 44.7975 7.74583 44.5903C7.7389 44.3803 7.77758 44.1712 7.85928 43.9776C7.94097 43.784 8.06372 43.6104 8.21902 43.4688C8.57991 43.1688 9.04265 43.0197 9.51081 43.0524H11.4793V43.9326C11.4737 44.391 11.3602 44.8416 11.148 45.248Z" fill="#2E3745"/>
<path d="M21.4407 36.6062L18.1758 36.0431V48.5589H22.3162V42.2986C22.2735 41.9073 22.3191 41.5113 22.4498 41.14C22.5805 40.7687 22.7929 40.4314 23.0712 40.1531C23.3496 39.8747 23.6868 39.6624 24.0581 39.5317C24.4295 39.401 24.8254 39.3553 25.2167 39.398H26.1631V35.8633H25.6664C24.2799 35.8633 21.4407 36.6062 21.4407 36.6062Z" fill="#2E3745"/>
<path d="M45.4352 36.2846C44.7294 35.8361 43.9051 35.6102 43.0693 35.6363H42.8894C42.0624 35.6097 41.247 35.8359 40.5519 36.2846C39.8899 36.7633 39.3937 37.4365 39.1323 38.2105C39.1295 38.2213 39.1295 38.2327 39.1323 38.2436V38.2105C38.8718 37.436 38.3754 36.7626 37.7128 36.2846C37.0106 35.828 36.1837 35.6014 35.3468 35.6363H35.1622C34.3367 35.6098 33.5229 35.836 32.8294 36.2846C32.1954 36.7152 31.0834 36.0433 31.0834 36.0433H27.8184V48.559H31.9446V41.3713C31.9175 40.8351 32.0856 40.3072 32.4178 39.8855C32.5843 39.6936 32.7921 39.5419 33.0257 39.4419C33.2593 39.3419 33.5125 39.2962 33.7663 39.3082C34.017 39.2941 34.2674 39.339 34.4975 39.4392C34.7276 39.5395 34.931 39.6923 35.0913 39.8855C35.4086 40.2897 35.5758 40.7914 35.5645 41.3051V48.5401H39.6859V41.3713C39.6613 40.8355 39.8291 40.3085 40.1591 39.8855C40.3256 39.6936 40.5335 39.5419 40.7671 39.4419C41.0007 39.3419 41.2539 39.2962 41.5077 39.3082C41.759 39.2941 42.0101 39.3389 42.2409 39.4392C42.4718 39.5394 42.6761 39.6923 42.8374 39.8855C43.153 40.2906 43.32 40.7917 43.3106 41.3051V48.5401H47.4368V41.4423C47.47 40.3441 47.2966 39.2494 46.9257 38.2152C46.6398 37.4333 46.1192 36.759 45.4352 36.2846Z" fill="#2E3745"/>
<path d="M57.6866 36.043L55.6661 45.1092H55.2544L52.7228 36.043H48.5967L52.2449 48.2843H54.9657L54.8806 48.6723C54.8285 48.9756 54.7123 49.2644 54.5399 49.5193C54.3892 49.7209 54.184 49.8753 53.9484 49.9641C53.6636 50.0602 53.364 50.105 53.0635 50.0966H50.1865V53.5414H52.5998C53.5835 53.5707 54.5655 53.4445 55.5099 53.1676C56.221 52.9467 56.8418 52.5019 57.2796 51.8994C57.7706 51.1603 58.113 50.3326 58.2875 49.4625L61.5761 36.043H57.6866Z" fill="#2E3745"/>
<path d="M70.3252 43.0801H64.2637V49.1416H70.3252V43.0801Z" fill="#FF0202"/>
</svg>
