<svg width="97" height="20" viewBox="0 0 97 20" fill="none" xmlns="http://www.w3.org/2000/svg">
<path d="M23.793 15.9087V8.55458H25.1026L27.2787 13.4607H27.4398L29.6058 8.55458H30.9255V15.9087H29.9382V9.63251L30.0087 9.65266L27.9234 14.3875H26.7145L24.6191 9.65266L24.6997 9.63251V15.9087H23.793ZM35.0752 15.9087V8.55458H36.0625V15.9087H35.0752ZM35.861 15.9087V15.0222H39.4273V15.9087H35.861ZM35.861 12.6145V11.7279H39.115V12.6145H35.861ZM35.861 9.4411V8.55458H39.3265V9.4411H35.861ZM44.5611 15.9087V9.23962H45.5484V15.9087H44.5611ZM42.3247 9.4411V8.55458H47.7848V9.4411H42.3247ZM49.7804 15.9087L52.4299 8.55458H54.1022L56.8323 15.9087H55.8148L53.3466 9.19933L53.8302 9.4411H52.6414L53.1552 9.19933L50.7676 15.9087H49.7804ZM51.362 13.7125L51.6945 12.826H54.8678L55.2003 13.7125H51.362ZM60.1956 15.9087V8.55458H61.5052L63.6813 13.4607H63.8424L66.0084 8.55458H67.3281V15.9087H66.3408V9.63251L66.4113 9.65266L64.326 14.3875H63.1171L61.0217 9.65266L61.1023 9.63251V15.9087H60.1956ZM70.6921 15.9087L73.3416 8.55458H75.0139L77.7439 15.9087H76.7265L74.2583 9.19933L74.7419 9.4411H73.5531L74.0669 9.19933L71.6793 15.9087H70.6921ZM72.2737 13.7125L72.6061 12.826H75.7795L76.1119 13.7125H72.2737ZM83.4358 16.09C82.8247 16.09 82.3042 15.9893 81.8743 15.7878C81.4445 15.5863 81.1154 15.3076 80.8871 14.9516C80.6587 14.5957 80.5445 14.1927 80.5445 13.7428H81.5318C81.5318 13.9644 81.5889 14.186 81.7031 14.4076C81.824 14.6293 82.0221 14.814 82.2974 14.9617C82.5795 15.1095 82.959 15.1834 83.4358 15.1834C83.8791 15.1834 84.2418 15.1196 84.5238 14.9919C84.8059 14.8576 85.0141 14.6864 85.1484 14.4782C85.2827 14.2633 85.3499 14.0315 85.3499 13.7831C85.3499 13.4808 85.2189 13.2323 84.957 13.0376C84.6951 12.8361 84.3123 12.7118 83.8086 12.6648L82.9926 12.5943C82.3411 12.5406 81.8206 12.3391 81.4311 11.9899C81.0415 11.6406 80.8468 11.1806 80.8468 10.6097C80.8468 10.1597 80.9542 9.76683 81.1691 9.43103C81.3908 9.09523 81.6964 8.8333 82.0859 8.64525C82.4754 8.45048 82.9288 8.3531 83.4459 8.3531C83.9563 8.3531 84.4063 8.44712 84.7958 8.63517C85.1854 8.82323 85.4876 9.08851 85.7025 9.43103C85.9241 9.76683 86.0349 10.1698 86.0349 10.6399H85.0477C85.0477 10.4049 84.9906 10.1832 84.8764 9.97503C84.769 9.76683 84.5977 9.59557 84.3626 9.46125C84.1276 9.32693 83.822 9.25977 83.4459 9.25977C83.0832 9.25977 82.781 9.32357 82.5392 9.45118C82.3042 9.57878 82.1262 9.74669 82.0053 9.95488C81.8911 10.1564 81.834 10.3746 81.834 10.6097C81.834 10.8783 81.9381 11.1168 82.1463 11.325C82.3545 11.5332 82.6635 11.6541 83.0732 11.6876L83.8892 11.7582C84.3929 11.7984 84.826 11.9059 85.1887 12.0805C85.5581 12.2484 85.8402 12.4768 86.0349 12.7656C86.2364 13.0476 86.3372 13.3868 86.3372 13.7831C86.3372 14.233 86.2163 14.6326 85.9745 14.9819C85.7327 15.3311 85.3936 15.6031 84.957 15.7979C84.5205 15.9926 84.0134 16.09 83.4358 16.09ZM94.6428 15.9087L91.6508 12.4734H90.5729L93.988 8.55458H95.1163L92.0135 12.1007L91.9228 11.4056L95.8719 15.9087H94.6428ZM90.0087 15.9087V8.55458H90.996V15.9087H90.0087Z" fill="black"/>
<path d="M13.7859 13.9883L12.967 17.0312L11.3594 16.548L13.7859 13.9883Z" fill="#E4761B" stroke="#E4761B" stroke-width="0.42741"/>
<path d="M11.3594 16.548L12.91 14.2133L13.7859 13.9883L11.3594 16.548Z" fill="#E4761B" stroke="#E4761B" stroke-width="0.42741"/>
<path d="M12.582 11.6937L13.7869 13.9878L12.9109 14.2128L12.582 11.6937ZM12.582 11.6937L13.3573 11.1035L13.7869 13.9878L12.582 11.6937Z" fill="#F6851B" stroke="#F6851B" stroke-width="0.42741"/>
<path d="M11.5977 9.96077L13.8262 8.95752L13.7154 9.50709L11.5977 9.96077ZM13.645 10.1673L11.5977 9.96077L13.7154 9.50709L13.645 10.1673Z" fill="#763D16" stroke="#763D16" stroke-width="0.42741"/>
<path d="M13.645 10.1673L13.3597 11.1042L11.5977 9.96077L13.645 10.1673ZM14.0913 9.18989L13.7154 9.50709L13.8262 8.95752L14.0913 9.18989ZM13.645 10.1673L13.7154 9.50709L14.0141 9.78003L13.645 10.1673Z" fill="#763D16" stroke="#763D16" stroke-width="0.42741"/>
<path d="M9.63281 15.8066L10.1899 16.0021L11.3613 16.548L9.63281 15.8066Z" fill="#E2761B" stroke="#E2761B" stroke-width="0.42741"/>
<path d="M13.3593 11.1039L13.6446 10.167L13.8896 10.3736L13.3593 11.1039ZM13.3593 11.1039L11.0469 10.2666L11.5973 9.96045L13.3593 11.1039Z" fill="#763D16" stroke="#763D16" stroke-width="0.42741"/>
<path d="M12.1477 7.08789L11.5973 9.96115L11.0469 10.2673L12.1477 7.08789Z" fill="#763D16" stroke="#763D16" stroke-width="0.42741"/>
<path d="M13.8262 8.95791L11.5977 9.96115L12.1481 7.08789L13.8262 8.95791Z" fill="#763D16" stroke="#763D16" stroke-width="0.42741"/>
<path d="M12.1445 7.08755L14.4704 6.79248L13.8226 8.95757L12.1445 7.08755Z" fill="#763D16" stroke="#763D16" stroke-width="0.42741"/>
<path d="M13.3593 11.1039L12.584 11.694L11.0469 10.2666L13.3593 11.1039Z" fill="#F6851B" stroke="#F6851B" stroke-width="0.42741"/>
<path d="M13.8715 5.24609L14.0014 7.91625L11 8.29702L13.8715 5.24609Z" fill="#763D16" stroke="#763D16" stroke-width="0.551544"/>
<path d="M14.3729 4.72314L9.72447 8.43736L9.66406 5.91819L14.3729 4.72314Z" fill="#E2761B" stroke="#E2761B" stroke-width="0.42741"/>
<path d="M6.20312 5.61621L9.66004 5.91866L9.72045 8.43784L6.20312 5.61621Z" fill="#F6851B" stroke="#F6851B" stroke-width="0.42741"/>
<path d="M11.045 10.2673L9.72266 8.43784L12.1459 7.08789L11.045 10.2673Z" fill="#763D16" stroke="#763D16" stroke-width="0.42741"/>
<path d="M11.0428 10.2666L12.5799 11.694L10.4219 11.9559L11.0428 10.2666Z" fill="#E4761B" stroke="#E4761B" stroke-width="0.42741"/>
<path d="M10.4241 11.9562L9.72266 8.4375L11.045 10.2669L10.4241 11.9562Z" fill="#E4761B" stroke="#E4761B" stroke-width="0.42741"/>
<path d="M12.1459 7.08741L9.72266 8.43736L14.371 4.72314L12.1459 7.08741Z" fill="#763D16" stroke="#763D16" stroke-width="0.42741"/>
<path d="M6.23588 16.489L7.33337 17.7467L5.83984 16.2529L6.23588 16.489Z" fill="#C0AD9E" stroke="#C0AD9E" stroke-width="0.42741"/>
<path d="M11.3594 16.5481L11.8796 14.3757L12.91 14.2134L11.3594 16.5481Z" fill="#CD6116" stroke="#CD6116" stroke-width="0.42741"/>
<path d="M2.01562 10.2143L4.46697 7.38232L2.33179 9.87638L2.01562 10.2143Z" fill="#E2761B" stroke="#E2761B" stroke-width="0.551544"/>
<path d="M12.9089 14.2139L11.8785 14.3762L12.58 11.6947L12.9089 14.2139ZM9.72045 8.43783L7.87117 8.37144L6.20312 5.61621L9.72045 8.43783Z" fill="#F6851B" stroke="#F6851B" stroke-width="0.42741"/>
<path d="M12.5827 11.6938L11.8813 14.3753L11.8242 13.0659L12.5827 11.6938Z" fill="#E4751F" stroke="#E4751F" stroke-width="0.42741"/>
<path d="M10.4219 11.9557L12.5799 11.6938L11.8214 13.0659L10.4219 11.9557Z" fill="#CD6116" stroke="#CD6116" stroke-width="0.42741"/>
<path d="M7.875 8.37158L9.72428 8.43797L10.4257 11.9567L7.875 8.37158Z" fill="#F6851B" stroke="#F6851B" stroke-width="0.42741"/>
<path d="M7.87356 8.37114L2.88284 3.2959L6.20551 5.6159L7.87356 8.37114ZM6.20215 17.2602L1.86591 18.7355L1 15.1025L6.20215 17.2602Z" fill="#E4761B" stroke="#E4761B" stroke-width="0.42741"/>
<path d="M2.84375 11.3845L4.95728 9.56152L6.72865 10.0137L2.84375 11.3845Z" fill="#763D16" stroke="#763D16" stroke-width="0.551544"/>
<path d="M6.72841 10.0142L4.95703 9.56199L5.90552 5.25928L6.72841 10.0142Z" fill="#763D16" stroke="#763D16" stroke-width="0.551544"/>
<path d="M2.32812 9.87566L4.95704 9.56152L2.84351 11.3845L2.32812 9.87566Z" fill="#763D16" stroke="#763D16" stroke-width="0.551544"/>
<path d="M11.8214 13.0663L10.9757 12.5978L10.4219 11.9561L11.8214 13.0663Z" fill="#CD6116" stroke="#CD6116" stroke-width="0.42741"/>
<path d="M2.32686 9.87634L2.14062 8.7959L4.95577 9.5622L2.32686 9.87634Z" fill="#763D16" stroke="#763D16" stroke-width="0.551544"/>
<path d="M10.8047 13.6525L10.9792 12.5977L11.825 13.0661L10.8047 13.6525Z" fill="#233447" stroke="#233447" stroke-width="0.42741"/>
<path d="M11.882 14.3763L10.8047 13.6533L11.825 13.0669L11.882 14.3763Z" fill="#F6851B" stroke="#F6851B" stroke-width="0.42741"/>
<path d="M4.06646 9.93099L1.88491 9.33716L1.70703 8.63268L4.06646 9.93099ZM4.80147 6.59668L4.06646 9.93099L1.70703 8.63268L4.80147 6.59668ZM4.80147 6.59668L7.87242 8.3708L5.43915 10.2814L4.80147 6.59668Z" fill="#763D16" stroke="#763D16" stroke-width="0.42741"/>
<path d="M5.4375 10.2822L7.87077 8.37158L8.95483 12.012L5.4375 10.2822ZM8.95483 12.012L5.59189 11.9346L5.4375 10.2822L8.95483 12.012Z" fill="#E4761B" stroke="#E4761B" stroke-width="0.42741"/>
<path d="M2.42969 11.3444L5.44022 10.2822L5.59461 11.9346L2.42969 11.3444ZM10.4242 11.9567L8.95755 12.012L7.87349 8.37158L10.4242 11.9567Z" fill="#F6851B" stroke="#F6851B" stroke-width="0.42741"/>
<path d="M10.9757 12.5978L10.8011 13.6527L10.4219 11.9561L10.9757 12.5978Z" fill="#CD6116" stroke="#CD6116" stroke-width="0.42741"/>
<path d="M2.88281 3.2959L7.87352 8.37114L4.80257 6.59702L2.88281 3.2959Z" fill="#763D16" stroke="#763D16" stroke-width="0.42741"/>
<path d="M1 15.1029L5.20871 14.9111L6.20215 17.2606L1 15.1029Z" fill="#E4761B" stroke="#E4761B" stroke-width="0.42741"/>
<path d="M6.20438 17.26L5.21094 14.9105L7.27837 14.7998L6.20438 17.26Z" fill="#CD6116" stroke="#CD6116" stroke-width="0.42741"/>
<path d="M10.8035 13.6527L11.8809 14.3756L12.4749 15.9137L10.8035 13.6527ZM5.59468 11.9339L1 15.1022L2.42975 11.3438L5.59468 11.9339ZM5.20871 14.9104L1 15.1022L5.59468 11.9339L5.20871 14.9104ZM10.4243 11.956L10.6995 13.0552L9.37043 13.14L10.4243 11.956ZM9.37043 13.14L8.95762 12.0114L10.4243 11.956L9.37043 13.14Z" fill="#F6851B" stroke="#F6851B" stroke-width="0.42741"/>
<path d="M7.33417 17.7466L6.20312 17.2598L10.1366 17.9864L7.33417 17.7466Z" fill="#C0AD9E" stroke="#C0AD9E" stroke-width="0.42741"/>
<path d="M2.84718 11.3848L2.01562 10.2139L2.33179 9.87598L2.84718 11.3848Z" fill="#763D16" stroke="#763D16" stroke-width="0.551544"/>
<path d="M10.583 17.4479L10.1366 17.9864L6.20312 17.2598L10.583 17.4479Z" fill="#D7C1B3" stroke="#D7C1B3" stroke-width="0.42741"/>
<path d="M10.7944 16.1276L6.20312 17.26L7.27712 14.7998L10.7944 16.1276Z" fill="#E4761B" stroke="#E4761B" stroke-width="0.42741"/>
<path d="M6.20312 17.2603L10.7944 16.1279L10.583 17.4484L6.20312 17.2603Z" fill="#D7C1B3" stroke="#D7C1B3" stroke-width="0.42741"/>
<path d="M1.91364 7.88672L1.71875 4.22656L5.90682 5.2594L1.91364 7.88672ZM2.32942 9.87625L1.7534 9.2337L2.14319 8.79582L2.32942 9.87625Z" fill="#763D16" stroke="#763D16" stroke-width="0.551544"/>
<path d="M8.20703 12.742L8.95882 12.0117L8.85143 13.7969L8.20703 12.742Z" fill="#CD6116" stroke="#CD6116" stroke-width="0.42741"/>
<path d="M8.9553 12.0117L8.20351 12.742L7.10938 13.3654L8.9553 12.0117Z" fill="#CD6116" stroke="#CD6116" stroke-width="0.42741"/>
<path d="M12.4761 15.9138L12.2714 15.7478L10.8047 13.6528L12.4761 15.9138Z" fill="#F6851B" stroke="#F6851B" stroke-width="0.42741"/>
<path d="M7.11076 13.3657L5.59375 11.9346L8.95669 12.012L7.11076 13.3657Z" fill="#CD6116" stroke="#CD6116" stroke-width="0.42741"/>
<path d="M8.85156 13.7969L8.95896 12.0117L9.37178 13.1404L8.85156 13.7969Z" fill="#E4751F" stroke="#E4751F" stroke-width="0.42741"/>
<path d="M1.5625 8.24845L1.91331 7.88672L2.14285 8.79581L1.5625 8.24845Z" fill="#763D16" stroke="#763D16" stroke-width="0.551544"/>
<path d="M8.8479 13.7966L7.10938 13.365L8.20351 12.7417L8.8479 13.7966Z" fill="#233447" stroke="#233447" stroke-width="0.42741"/>
<path d="M5.90682 5.25988L1.71875 4.22704L3.42949 1L5.90682 5.25988Z" fill="#763D16" stroke="#763D16" stroke-width="0.551544"/>
<path d="M10.1345 17.9868L10.3191 18.5401L7.33203 17.7471L10.1345 17.9868Z" fill="#C0AD9E" stroke="#C0AD9E" stroke-width="0.42741"/>
<path d="M7.27383 14.8L7.10938 13.3652L8.8479 13.7968L7.27383 14.8Z" fill="#F6851B" stroke="#F6851B" stroke-width="0.42741"/>
<path d="M5.59375 11.9346L7.11077 13.3657L7.27522 14.8005L5.59375 11.9346Z" fill="#E4751F" stroke="#E4751F" stroke-width="0.42741"/>
<path d="M9.37266 13.1407L10.7017 13.0558L12.2724 15.7484L9.37266 13.1407ZM5.5969 11.9346L7.27837 14.8005L5.21094 14.9111L5.5969 11.9346Z" fill="#F6851B" stroke="#F6851B" stroke-width="0.42741"/>
<path d="M9.37178 13.1406L11.023 15.9032L8.85156 13.7972L9.37178 13.1406Z" fill="#E4751F" stroke="#E4751F" stroke-width="0.42741"/>
<path d="M8.85156 13.7969L11.023 15.903L10.7948 16.1279L8.85156 13.7969Z" fill="#F6851B" stroke="#F6851B" stroke-width="0.42741"/>
<path d="M10.7947 16.1282L7.27734 14.8004L8.85142 13.7972L10.7947 16.1282ZM12.2714 15.7483L11.0229 15.9032L9.37163 13.1406L12.2714 15.7483Z" fill="#F6851B" stroke="#F6851B" stroke-width="0.42741"/>
<path d="M12.6002 17.0459L12.0632 18.2299L10.3213 18.5397L12.6002 17.0459ZM10.3213 18.5397L10.1367 17.9864L10.5831 17.4479L10.3213 18.5397Z" fill="#C0AD9E" stroke="#C0AD9E" stroke-width="0.42741"/>
<path d="M10.5821 17.4479L10.911 17.3041L10.3203 18.5397L10.5821 17.4479ZM10.3203 18.5397L10.911 17.3041L12.5992 17.0459L10.3203 18.5397Z" fill="#C0AD9E" stroke="#C0AD9E" stroke-width="0.42741"/>
<path d="M12.2721 15.748L12.6849 16.0247L11.4297 16.1907L12.2721 15.748Z" fill="#161616" stroke="#161616" stroke-width="0.42741"/>
<path d="M11.4295 16.1907L11.0234 15.903L12.272 15.748L11.4295 16.1907ZM11.2852 16.4083L12.8123 16.2054L12.6009 17.0464L11.2852 16.4083Z" fill="#161616" stroke="#161616" stroke-width="0.42741"/>
<path d="M12.5991 17.0462L10.9109 17.3044L11.2835 16.4081L12.5991 17.0462ZM10.9109 17.3044L10.582 17.4483L10.7935 16.1278L10.9109 17.3044ZM10.7935 16.1278L11.0217 15.9028L11.4278 16.1905L10.7935 16.1278ZM12.683 16.0246L12.8106 16.2053L11.2835 16.4081L12.683 16.0246Z" fill="#161616" stroke="#161616" stroke-width="0.42741"/>
<path d="M11.283 16.4085L11.4273 16.1909L12.6825 16.0249L11.283 16.4085ZM10.793 16.1282L11.283 16.4085L10.9104 17.3048L10.793 16.1282Z" fill="#161616" stroke="#161616" stroke-width="0.42741"/>
<path d="M11.4273 16.1906L11.283 16.4082L10.793 16.1279L11.4273 16.1906Z" fill="#161616" stroke="#161616" stroke-width="0.42741"/>
</svg>
