<svg width="66" height="37" viewBox="0 0 66 37" fill="none" xmlns="http://www.w3.org/2000/svg">
<path d="M48.8439 20.3393C48.8566 20.1874 48.9772 20.0668 49.1291 20.0541L61.4553 19.0241C61.8373 18.9922 61.8369 18.4331 61.4549 18.4017L49.1295 17.3889C48.9774 17.3764 48.8566 17.2558 48.8439 17.1036L47.8139 4.76033C47.782 4.37834 47.2228 4.37873 47.1915 4.76076L46.1787 17.1032C46.1662 17.2555 46.0453 17.3764 45.893 17.3889L33.5506 18.4017C33.1685 18.433 33.1681 18.9922 33.5501 19.0241L45.8934 20.0541C46.0455 20.0668 46.1662 20.1876 46.1787 20.3397L47.1915 32.6651C47.2229 33.0471 47.782 33.0475 47.8139 32.6655L48.8439 20.3393Z" fill="url(#paint0_linear_2966_6164)"/>
<path d="M9.92333 9.41871C9.93602 9.26678 10.0566 9.14623 10.2085 9.13353L14.0347 8.81379C14.4167 8.78188 14.4163 8.22279 14.0343 8.1914L10.2089 7.87706C10.0568 7.86456 9.93602 7.74392 9.92333 7.59181L9.60359 3.76033C9.57172 3.37834 9.01254 3.37872 8.98119 3.76076L8.66686 7.59138C8.65436 7.74368 8.53348 7.86457 8.38118 7.87706L4.55055 8.1914C4.16852 8.22275 4.16813 8.78192 4.55013 8.8138L8.38161 9.13353C8.53372 9.14622 8.65436 9.26702 8.66686 9.41914L8.9812 13.2445C9.01259 13.6265 9.57167 13.6269 9.60359 13.2449L9.92333 9.41871Z" fill="url(#paint1_linear_2966_6164)"/>
<defs>
<linearGradient id="paint0_linear_2966_6164" x1="46.2835" y1="16.4941" x2="51.2816" y2="25.4906" gradientUnits="userSpaceOnUse">
<stop stop-color="white"/>
<stop offset="1" stop-color="white"/>
</linearGradient>
<linearGradient id="paint1_linear_2966_6164" x1="8.70589" y1="7.43633" x2="11.1047" y2="11.7542" gradientUnits="userSpaceOnUse">
<stop stop-color="white"/>
<stop offset="1" stop-color="white"/>
</linearGradient>
</defs>
</svg>
