<svg width="18" height="18" viewBox="0 0 18 18" fill="none" xmlns="http://www.w3.org/2000/svg">
<g clip-path="url(#clip0_2968_6432)">
<path d="M6.18744 9.48295L12.5338 15.0468C12.6069 15.1113 12.6956 15.1557 12.791 15.1756C12.8864 15.1955 12.9854 15.1903 13.0782 15.1605C13.171 15.1306 13.2545 15.0772 13.3204 15.0053C13.3863 14.9335 13.4324 14.8458 13.4542 14.7508L16.3124 2.33569C16.3152 2.32324 16.3146 2.31027 16.3106 2.29816C16.3065 2.28605 16.2993 2.27526 16.2896 2.26696C16.2799 2.25865 16.2682 2.25313 16.2556 2.25099C16.243 2.24886 16.2301 2.25018 16.2182 2.25483L1.96869 7.83131C1.88023 7.86536 1.8052 7.92718 1.75486 8.0075C1.70453 8.08781 1.6816 8.18229 1.68952 8.27675C1.69745 8.3712 1.73579 8.46054 1.79881 8.53134C1.86182 8.60215 1.9461 8.65061 2.039 8.66944L6.18744 9.48295Z" stroke="white" stroke-linecap="round" stroke-linejoin="round"/>
<path d="M6.1875 9.48307L16.271 2.25635" stroke="white" stroke-linecap="round" stroke-linejoin="round"/>
<path d="M9.30727 12.219L7.155 14.4521C7.07723 14.5328 6.97713 14.5884 6.86755 14.6119C6.75796 14.6353 6.64387 14.6254 6.53992 14.5836C6.43596 14.5417 6.34688 14.4698 6.28409 14.377C6.2213 14.2841 6.18767 14.1747 6.1875 14.0626V9.48315" stroke="white" stroke-linecap="round" stroke-linejoin="round"/>
</g>
<defs>
<clipPath id="clip0_2968_6432">
<rect width="18" height="18" fill="white"/>
</clipPath>
</defs>
</svg>
