<svg width="28" height="28" viewBox="0 0 28 28" fill="none" xmlns="http://www.w3.org/2000/svg">
<path fill-rule="evenodd" clip-rule="evenodd" d="M28 14C28 21.732 21.732 28 14 28C6.26801 28 0 21.732 0 14C0 6.26801 6.26801 0 14 0C21.732 0 28 6.26801 28 14ZM14.5017 10.3354C13.14 10.9018 10.4185 12.074 6.33719 13.8522C5.67445 14.1157 5.32728 14.3736 5.29567 14.6257C5.24226 15.0517 5.77581 15.2195 6.50236 15.448C6.60119 15.479 6.70359 15.5112 6.80857 15.5454C7.52339 15.7777 8.48494 16.0496 8.98481 16.0604C9.43825 16.0702 9.94433 15.8832 10.5031 15.4995C14.3163 12.9255 16.2848 11.6244 16.4083 11.5964C16.4955 11.5766 16.6163 11.5517 16.6982 11.6245C16.7801 11.6972 16.772 11.835 16.7633 11.872C16.7105 12.0973 14.6161 14.0444 13.5323 15.0521C13.1944 15.3662 12.9547 15.589 12.9057 15.6399C12.796 15.7539 12.6841 15.8617 12.5766 15.9654C11.9125 16.6055 11.4145 17.0856 12.6042 17.8696C13.1759 18.2463 13.6334 18.5579 14.0898 18.8687C14.5882 19.2081 15.0853 19.5466 15.7285 19.9683C15.8924 20.0757 16.0489 20.1873 16.2013 20.2959C16.7814 20.7095 17.3025 21.081 17.9463 21.0217C18.3204 20.9873 18.7069 20.6355 18.9031 19.5864C19.3669 17.107 20.2785 11.7348 20.4892 9.52112C20.5077 9.32717 20.4845 9.07895 20.4658 8.96999C20.4472 8.86103 20.4082 8.70578 20.2666 8.59085C20.0988 8.45475 19.8399 8.42604 19.7241 8.42808C19.1975 8.43736 18.3896 8.71827 14.5017 10.3354Z" fill="white"/>
</svg>
