<svg width="22" height="22" viewBox="0 0 22 22" fill="none" xmlns="http://www.w3.org/2000/svg">
<path d="M2.75 5.5H4.58333H19.25" stroke="#FF0202" stroke-width="1.6" stroke-linecap="round" stroke-linejoin="round"/>
<path d="M17.4163 5.50016V18.3335C17.4163 18.8197 17.2232 19.286 16.8794 19.6299C16.5356 19.9737 16.0692 20.1668 15.583 20.1668H6.41634C5.93011 20.1668 5.4638 19.9737 5.11998 19.6299C4.77616 19.286 4.58301 18.8197 4.58301 18.3335V5.50016M7.33301 5.50016V3.66683C7.33301 3.1806 7.52616 2.71428 7.86998 2.37047C8.2138 2.02665 8.68011 1.8335 9.16634 1.8335H12.833C13.3192 1.8335 13.7856 2.02665 14.1294 2.37047C14.4732 2.71428 14.6663 3.1806 14.6663 3.66683V5.50016" stroke="#FF0202" stroke-width="1.6" stroke-linecap="round" stroke-linejoin="round"/>
<path d="M9.16699 10.0835V15.5835" stroke="#FF0202" stroke-width="1.6" stroke-linecap="round" stroke-linejoin="round"/>
<path d="M12.833 10.0835V15.5835" stroke="#FF0202" stroke-width="1.6" stroke-linecap="round" stroke-linejoin="round"/>
</svg>
