<svg width="16" height="18" viewBox="0 0 16 18" fill="none" xmlns="http://www.w3.org/2000/svg">
<path d="M15.0771 13.9293C14.639 13.9293 14.2672 14.2289 14.1742 14.6458L10.6888 14.483C10.7021 14.4178 10.7088 14.3527 10.7088 14.2876C10.7088 14.1703 10.6888 14.053 10.6556 13.9358L11.9237 13.2192C12.2357 13.597 12.8 13.6752 13.205 13.3886C13.6099 13.102 13.7162 12.5548 13.444 12.1444C13.1718 11.734 12.6207 11.6037 12.1892 11.8447C11.7577 12.0858 11.5917 12.6199 11.8174 13.0564L10.5893 13.7534C10.2971 13.1476 9.57351 12.874 8.94282 13.128C8.31213 13.3821 7.99346 14.0791 8.21918 14.711L5.93542 15.2517C5.92214 14.9455 5.78936 14.6589 5.57028 14.4374L5.98189 13.8772C6.44661 14.0335 6.9578 13.8055 7.14369 13.356C7.32958 12.9065 7.12377 12.3919 6.67897 12.19C6.23417 11.9815 5.69642 12.1574 5.46406 12.5808C5.2317 13.0043 5.37775 13.5384 5.796 13.7925L5.41759 14.3071C5.15203 14.1117 4.81345 14.027 4.48151 14.0661L4.08982 11.8708C4.58109 11.7666 4.95951 11.3887 5.06573 10.9132C5.17195 10.4312 4.98606 9.93607 4.58773 9.64294C4.1894 9.34328 3.65165 9.3042 3.21349 9.5322L2.2243 7.63657C2.43674 7.53234 2.60935 7.36949 2.73549 7.17406L3.55871 7.38903C3.55207 7.43463 3.54543 7.47371 3.54543 7.51931C3.54543 7.98833 3.91057 8.3857 4.38857 8.4313C4.86656 8.4769 5.30473 8.1577 5.39103 7.68868C5.47734 7.21966 5.19187 6.77018 4.72715 6.64641C4.26243 6.51613 3.77779 6.75715 3.60518 7.20012L2.82843 6.99818C2.93466 6.75064 2.95457 6.47704 2.88818 6.21648L5.17859 5.18072C5.60348 5.70185 6.37358 5.8126 6.93125 5.42174C7.48891 5.03089 7.63496 4.28176 7.26319 3.72154L8.72374 2.32099C8.90299 2.43173 9.10879 2.50339 9.3146 2.51642V3.13526C8.82996 3.18738 8.46482 3.60429 8.49138 4.08634C8.51793 4.56839 8.9229 4.94621 9.41418 4.94621C9.90545 4.94621 10.3104 4.56839 10.337 4.08634C10.3635 3.60429 10.005 3.18738 9.51376 3.13526V2.51642C9.69965 2.50339 9.87226 2.45128 10.0316 2.36659L11.6316 4.15799C11.2598 4.64004 11.2863 5.311 11.6913 5.76048C12.1029 6.20996 12.7801 6.31419 13.3112 6.00151C13.8423 5.68883 14.068 5.05695 13.8622 4.49022L14.3601 4.21662C14.6788 4.58141 15.2298 4.64656 15.6215 4.35342C16.0132 4.06679 16.1061 3.52612 15.8339 3.12875C15.5618 2.73139 15.0174 2.60762 14.5991 2.85515C14.1809 3.10269 14.0282 3.62383 14.2539 4.05376L13.7825 4.31433C13.59 3.96908 13.2448 3.73457 12.8531 3.67594C12.4614 3.61731 12.0564 3.74108 11.771 4.01468L10.2042 2.26236C10.3569 2.14511 10.483 1.98877 10.5693 1.8194L11.9436 2.04088C12.0498 2.5099 12.5145 2.81607 12.9925 2.73139C13.4772 2.65321 13.8091 2.21676 13.756 1.74123C13.7029 1.26569 13.278 0.907413 12.7934 0.93347C12.3021 0.959526 11.9237 1.35038 11.917 1.83243L10.6424 1.62397C10.8216 1.02467 10.5295 0.386278 9.95192 0.119196C9.37434 -0.147885 8.69054 0.0475404 8.33868 0.568675C7.98682 1.08981 8.07977 1.78683 8.55777 2.20374L7.13705 3.5652C6.91797 3.31766 6.60594 3.16132 6.274 3.13526V2.18419C6.75864 2.13208 7.12377 1.71517 7.09722 1.23312C7.07066 0.751072 6.67233 0.379764 6.18106 0.379764C5.68978 0.379764 5.28481 0.757587 5.25826 1.23964C5.2317 1.72169 5.5902 2.13859 6.08147 2.19071V3.13526C5.64331 3.16784 5.25162 3.42189 5.04581 3.79971C4.84001 4.18405 4.84665 4.64004 5.06573 5.01786L2.83507 6.02105C2.75541 5.83214 2.62927 5.66928 2.46994 5.539L3.33963 4.00165C3.41929 4.02119 3.49232 4.03422 3.57199 4.03422C4.04334 4.03422 4.43504 3.68897 4.49479 3.23298C4.55454 2.77698 4.24915 2.35356 3.79771 2.24282C3.33963 2.13208 2.87491 2.37311 2.70894 2.80304C2.54296 3.23298 2.73549 3.71503 3.1471 3.93L2.30397 5.42826C1.79277 5.12861 1.1488 5.21329 0.730556 5.6302C0.318948 6.04711 0.24592 6.67898 0.557946 7.17406C0.869972 7.66914 1.48075 7.89062 2.04505 7.71474L3.04752 9.63642C2.79524 9.81882 2.61599 10.0924 2.55624 10.3921L1.82597 10.1836C1.84588 10.112 1.85252 10.0338 1.85252 9.96213C1.85252 9.49962 1.50066 9.11529 1.03594 9.06317C0.571224 9.01106 0.139698 9.3042 0.026838 9.75368C-0.0860226 10.2032 0.166254 10.6591 0.611057 10.8155C1.04922 10.9718 1.5405 10.7829 1.75294 10.3725L2.52969 10.594C2.52969 10.6136 2.52969 10.6331 2.52969 10.6526C2.52969 11.0826 2.74877 11.4799 3.12054 11.7079L2.62263 12.3463C2.25749 12.0271 1.69983 12.0467 1.35461 12.3919C1.00939 12.7372 0.996111 13.2779 1.32805 13.6361C1.66 13.9944 2.21102 14.0335 2.59607 13.7273C2.98113 13.4212 3.04752 12.8805 2.76205 12.4896L3.29979 11.7991C3.45913 11.8708 3.63837 11.9034 3.81762 11.9034C3.84418 11.9034 3.87073 11.9034 3.89729 11.8968L4.29562 14.1052C3.76451 14.2615 3.39274 14.737 3.37282 15.2777C3.35954 15.8249 3.70476 16.3135 4.22923 16.4959C4.7537 16.6783 5.33792 16.5089 5.6765 16.0724L7.53538 16.8867C7.5221 16.9519 7.50883 17.0235 7.50883 17.0887C7.50883 17.5512 7.86069 17.942 8.33204 17.9941C8.8034 18.0462 9.23493 17.7466 9.34115 17.2971C9.44737 16.8476 9.18846 16.3916 8.74365 16.2353C8.29885 16.079 7.80757 16.2809 7.60177 16.6978L5.78936 15.9031C5.86903 15.7598 5.92214 15.6034 5.93542 15.4406L8.29885 14.8738C8.4781 15.1995 8.79676 15.4275 9.16854 15.5057C9.54032 15.5774 9.92537 15.4862 10.2175 15.2582L11.1004 16.0073C10.8946 16.4503 11.0739 16.9714 11.5121 17.1929C11.9502 17.4209 12.488 17.271 12.7402 16.8541C12.9925 16.4372 12.873 15.9031 12.4681 15.6295C12.0564 15.3559 11.5054 15.4471 11.2067 15.8314L10.3635 15.1214C10.4897 14.9911 10.5826 14.8282 10.6424 14.6589L14.1543 14.8282C14.161 15.3298 14.5726 15.7272 15.0838 15.7272C15.595 15.7272 16.0066 15.3168 15.9999 14.8217C15.9999 14.3331 15.5883 13.9293 15.0771 13.9293Z" fill="#73767D"/>
</svg>
