<svg width="18" height="14" viewBox="0 0 18 14" fill="none" xmlns="http://www.w3.org/2000/svg">
<path d="M14.9447 1.36908C13.8759 0.851104 12.7298 0.469486 11.5314 0.250917C11.5096 0.246699 11.4878 0.25724 11.4766 0.278324C11.3292 0.555224 11.1659 0.916462 11.0516 1.20039C9.76266 0.996588 8.48037 0.996588 7.2179 1.20039C7.10354 0.910151 6.93434 0.555224 6.78628 0.278324C6.77503 0.257944 6.75323 0.247402 6.73141 0.250917C5.53372 0.468787 4.3876 0.850406 3.31813 1.36908C3.30887 1.37329 3.30094 1.38033 3.29567 1.38946C1.12171 4.81983 0.52617 8.1659 0.818322 11.4705C0.819643 11.4866 0.828236 11.5021 0.840134 11.5119C2.27445 12.6245 3.66383 13.2999 5.02742 13.7475C5.04924 13.7546 5.07236 13.7461 5.08625 13.7272C5.40881 13.2619 5.69634 12.7714 5.94286 12.2555C5.95741 12.2253 5.94352 12.1894 5.91379 12.1775C5.45772 11.9948 5.02345 11.772 4.60571 11.519C4.57267 11.4986 4.57002 11.4487 4.60042 11.4248C4.68833 11.3552 4.77626 11.2828 4.8602 11.2097C4.87539 11.1964 4.89655 11.1936 4.9144 11.202C7.65876 12.5254 10.6299 12.5254 13.3418 11.202C13.3597 11.1929 13.3808 11.1957 13.3967 11.209C13.4807 11.2821 13.5686 11.3552 13.6571 11.4248C13.6875 11.4487 13.6855 11.4986 13.6525 11.519C13.2348 11.7769 12.8005 11.9948 12.3438 12.1768C12.314 12.1887 12.3008 12.2253 12.3154 12.2555C12.5672 12.7706 12.8547 13.2612 13.1713 13.7265C13.1845 13.7461 13.2083 13.7546 13.2301 13.7475C14.6003 13.2999 15.9897 12.6245 17.424 11.5119C17.4366 11.5021 17.4445 11.4873 17.4459 11.4712C17.7955 7.65072 16.8602 4.3321 14.9665 1.39016C14.9619 1.38033 14.954 1.37329 14.9447 1.36908ZM6.35269 9.45833C5.52645 9.45833 4.84565 8.65715 4.84565 7.67322C4.84565 6.68929 5.51325 5.88811 6.35269 5.88811C7.19872 5.88811 7.87293 6.69632 7.85971 7.67322C7.85971 8.65715 7.19211 9.45833 6.35269 9.45833ZM11.9247 9.45833C11.0985 9.45833 10.4177 8.65715 10.4177 7.67322C10.4177 6.68929 11.0853 5.88811 11.9247 5.88811C12.7708 5.88811 13.4449 6.69632 13.4317 7.67322C13.4317 8.65715 12.7708 9.45833 11.9247 9.45833Z" fill="#73767D"/>
</svg>
