<svg width="18" height="18" viewBox="0 0 18 18" fill="none" xmlns="http://www.w3.org/2000/svg">
<path fill-rule="evenodd" clip-rule="evenodd" d="M18 9C18 13.9706 13.9706 18 9 18C4.02944 18 0 13.9706 0 9C0 4.02944 4.02944 0 9 0C13.9706 0 18 4.02944 18 9ZM9.32267 6.64426C8.44728 7.00836 6.69775 7.76196 4.07407 8.90506C3.64802 9.07448 3.42484 9.24022 3.40452 9.40229C3.37019 9.67619 3.71318 9.78404 4.18025 9.93091C4.24379 9.95088 4.30961 9.97158 4.3771 9.99352C4.83662 10.1429 5.45477 10.3176 5.77611 10.3246C6.0676 10.3309 6.39294 10.2107 6.75213 9.96407C9.20352 8.30931 10.4689 7.47292 10.5484 7.45489C10.6044 7.44217 10.6821 7.42617 10.7347 7.47295C10.7873 7.51972 10.7822 7.6083 10.7766 7.63207C10.7426 7.77692 9.39624 9.02863 8.69949 9.6764C8.48228 9.87834 8.3282 10.0216 8.29671 10.0543C8.22615 10.1276 8.15424 10.1969 8.08513 10.2635C7.65822 10.6751 7.33808 10.9837 8.10286 11.4877C8.47037 11.7298 8.76446 11.9301 9.05785 12.1299C9.37827 12.3481 9.69786 12.5658 10.1114 12.8368C10.2167 12.9059 10.3173 12.9776 10.4153 13.0475C10.7882 13.3133 11.1232 13.5521 11.5371 13.514C11.7776 13.4919 12.026 13.2658 12.1522 12.5913C12.4503 10.9974 13.0364 7.54391 13.1718 6.12079C13.1837 5.99611 13.1687 5.83654 13.1568 5.7665C13.1448 5.69645 13.1197 5.59665 13.0287 5.52276C12.9208 5.43527 12.7544 5.41682 12.6799 5.41813C12.3414 5.42409 11.8221 5.60468 9.32267 6.64426Z" fill="#73767D"/>
</svg>
