<svg width="407" height="158" viewBox="0 0 407 158" fill="none" xmlns="http://www.w3.org/2000/svg">
<path d="M5.168 135.192C3.80267 135.192 2.784 134.696 2.112 133.704C1.45067 132.712 1.12 131.283 1.12 129.416C1.12 127.549 1.45067 126.12 2.112 125.128C2.784 124.136 3.80267 123.64 5.168 123.64C5.68 123.64 6.12267 123.709 6.496 123.848C6.86933 123.987 7.18933 124.173 7.456 124.408C7.72267 124.643 7.94667 124.909 8.128 125.208C8.30933 125.496 8.46933 125.789 8.608 126.088L7.456 126.616C7.36 126.371 7.248 126.141 7.12 125.928C6.992 125.704 6.83733 125.512 6.656 125.352C6.48533 125.181 6.27733 125.048 6.032 124.952C5.79733 124.856 5.50933 124.808 5.168 124.808C4.28267 124.808 3.62133 125.144 3.184 125.816C2.75733 126.488 2.544 127.384 2.544 128.504V130.328C2.544 131.448 2.75733 132.344 3.184 133.016C3.62133 133.688 4.28267 134.024 5.168 134.024C5.50933 134.024 5.79733 133.976 6.032 133.88C6.27733 133.784 6.48533 133.656 6.656 133.496C6.83733 133.325 6.992 133.133 7.12 132.92C7.248 132.696 7.36 132.461 7.456 132.216L8.608 132.744C8.46933 133.053 8.30933 133.352 8.128 133.64C7.94667 133.928 7.72267 134.189 7.456 134.424C7.18933 134.659 6.86933 134.845 6.496 134.984C6.12267 135.123 5.68 135.192 5.168 135.192ZM18.1698 129.928H13.8178V135H12.4738V123.832H13.8178V128.76H18.1698V123.832H19.5138V135H18.1698V129.928ZM30.0835 135L29.1395 131.816H25.2195L24.2755 135H22.8835L26.3075 123.832H28.0835L31.5075 135H30.0835ZM27.2515 125.256H27.1075L25.5395 130.648H28.8195L27.2515 125.256ZM34.9252 135V133.928H37.7092V124.904H34.9252V123.832H41.8372V124.904H39.0532V133.928H41.8372V135H34.9252ZM47.383 125.544H47.271V135H46.055V123.832H47.959L51.767 133.192H51.879V123.832H53.095V135H51.191L47.383 125.544ZM74.8585 135L73.9145 131.816H69.9945L69.0505 135H67.6585L71.0825 123.832H72.8585L76.2825 135H74.8585ZM72.0265 125.256H71.8825L70.3145 130.648H73.5945L72.0265 125.256Z" fill="white"/>
<path d="M1.08 153V144.624H6.24V145.5H2.088V148.32H6.096V149.196H2.088V152.124H6.24V153H1.08ZM13.7233 151.884H13.6633C13.5913 152.044 13.5073 152.2 13.4113 152.352C13.3153 152.504 13.1913 152.64 13.0393 152.76C12.8953 152.872 12.7193 152.964 12.5113 153.036C12.3033 153.108 12.0553 153.144 11.7673 153.144C10.8553 153.144 10.1753 152.776 9.72731 152.04C9.28731 151.304 9.06731 150.248 9.06731 148.872C9.06731 147.432 9.31131 146.34 9.79931 145.596C10.2873 144.852 11.0393 144.48 12.0553 144.48C12.4473 144.48 12.7873 144.532 13.0753 144.636C13.3633 144.74 13.6073 144.88 13.8073 145.056C14.0153 145.232 14.1873 145.432 14.3233 145.656C14.4593 145.872 14.5713 146.092 14.6593 146.316L13.7953 146.712C13.7233 146.528 13.6393 146.356 13.5433 146.196C13.4553 146.028 13.3433 145.884 13.2073 145.764C13.0793 145.636 12.9233 145.536 12.7393 145.464C12.5553 145.392 12.3393 145.356 12.0913 145.356C11.4193 145.356 10.9233 145.608 10.6033 146.112C10.2913 146.616 10.1353 147.288 10.1353 148.128V149.424C10.1353 149.848 10.1673 150.236 10.2313 150.588C10.2953 150.932 10.3993 151.232 10.5433 151.488C10.6953 151.744 10.8873 151.944 11.1193 152.088C11.3593 152.224 11.6513 152.292 11.9953 152.292C12.5393 152.292 12.9633 152.128 13.2673 151.8C13.5713 151.472 13.7233 151.048 13.7233 150.528V149.664H11.9593V148.86H14.6593V153H13.7233V151.884ZM20.3906 153.108C20.0626 153.108 19.8306 153.04 19.6946 152.904C19.5666 152.768 19.5026 152.596 19.5026 152.388V152.172C19.5026 151.964 19.5666 151.792 19.6946 151.656C19.8306 151.52 20.0626 151.452 20.3906 151.452C20.7186 151.452 20.9466 151.52 21.0746 151.656C21.2106 151.792 21.2786 151.964 21.2786 152.172V152.388C21.2786 152.596 21.2106 152.768 21.0746 152.904C20.9466 153.04 20.7186 153.108 20.3906 153.108ZM34.6612 153V144.624H39.8212V145.5H35.6692V148.32H39.6772V149.196H35.6692V152.124H39.8212V153H34.6612ZM45.8766 153C45.4046 153 45.0566 152.868 44.8326 152.604C44.6166 152.34 44.5086 152 44.5086 151.584V147.624H42.4446V146.808H43.9806C44.1886 146.808 44.3326 146.768 44.4126 146.688C44.5006 146.6 44.5446 146.452 44.5446 146.244V144.624H45.4686V146.808H48.2886V147.624H45.4686V152.184H48.2886V153H45.8766ZM51.5479 144.12H52.5079V147.816H52.5559C52.6199 147.664 52.6999 147.52 52.7959 147.384C52.8919 147.24 53.0079 147.116 53.1439 147.012C53.2879 146.908 53.4559 146.824 53.6479 146.76C53.8399 146.696 54.0639 146.664 54.3199 146.664C54.9679 146.664 55.4879 146.872 55.8799 147.288C56.2719 147.696 56.4679 148.276 56.4679 149.028V153H55.5079V149.196C55.5079 148.628 55.3839 148.208 55.1359 147.936C54.8879 147.656 54.5239 147.516 54.0439 147.516C53.8519 147.516 53.6639 147.54 53.4799 147.588C53.2959 147.636 53.1319 147.708 52.9879 147.804C52.8439 147.9 52.7279 148.024 52.6399 148.176C52.5519 148.328 52.5079 148.504 52.5079 148.704V153H51.5479V144.12ZM62.4752 153.144C62.0272 153.144 61.6232 153.068 61.2632 152.916C60.9112 152.764 60.6072 152.548 60.3512 152.268C60.1032 151.98 59.9112 151.64 59.7752 151.248C59.6392 150.848 59.5712 150.404 59.5712 149.916C59.5712 149.42 59.6392 148.972 59.7752 148.572C59.9192 148.172 60.1152 147.832 60.3632 147.552C60.6112 147.264 60.9072 147.044 61.2512 146.892C61.6032 146.74 61.9912 146.664 62.4152 146.664C62.8312 146.664 63.2072 146.74 63.5432 146.892C63.8872 147.044 64.1792 147.256 64.4192 147.528C64.6592 147.792 64.8432 148.108 64.9712 148.476C65.0992 148.844 65.1632 149.248 65.1632 149.688V150.144H60.5792V150.432C60.5792 150.704 60.6232 150.956 60.7112 151.188C60.7992 151.42 60.9232 151.62 61.0832 151.788C61.2512 151.956 61.4512 152.088 61.6832 152.184C61.9232 152.272 62.1872 152.316 62.4752 152.316C62.8912 152.316 63.2512 152.22 63.5552 152.028C63.8592 151.836 64.0912 151.572 64.2512 151.236L64.9592 151.716C64.7752 152.132 64.4672 152.476 64.0352 152.748C63.6112 153.012 63.0912 153.144 62.4752 153.144ZM62.4152 147.456C62.1512 147.456 61.9072 147.504 61.6832 147.6C61.4592 147.696 61.2632 147.828 61.0952 147.996C60.9352 148.164 60.8072 148.364 60.7112 148.596C60.6232 148.82 60.5792 149.068 60.5792 149.34V149.424H64.1312V149.292C64.1312 149.02 64.0872 148.772 63.9992 148.548C63.9192 148.324 63.8032 148.132 63.6512 147.972C63.5072 147.804 63.3272 147.676 63.1112 147.588C62.9032 147.5 62.6712 147.456 62.4152 147.456ZM68.0865 152.184H69.8985V147.624H68.0865V146.808H70.8585V148.368H70.9185C71.0465 147.88 71.2865 147.5 71.6385 147.228C71.9985 146.948 72.4545 146.808 73.0065 146.808H73.8705V147.768H72.7065C72.1545 147.768 71.7065 147.928 71.3625 148.248C71.0265 148.568 70.8585 148.988 70.8585 149.508V152.184H73.2585V153H68.0865V152.184ZM79.2658 153.144C78.8178 153.144 78.4138 153.068 78.0538 152.916C77.7018 152.764 77.3978 152.548 77.1418 152.268C76.8938 151.98 76.7018 151.64 76.5658 151.248C76.4298 150.848 76.3618 150.404 76.3618 149.916C76.3618 149.42 76.4298 148.972 76.5658 148.572C76.7098 148.172 76.9058 147.832 77.1538 147.552C77.4018 147.264 77.6978 147.044 78.0418 146.892C78.3938 146.74 78.7818 146.664 79.2058 146.664C79.6218 146.664 79.9978 146.74 80.3338 146.892C80.6778 147.044 80.9698 147.256 81.2098 147.528C81.4498 147.792 81.6338 148.108 81.7618 148.476C81.8898 148.844 81.9538 149.248 81.9538 149.688V150.144H77.3698V150.432C77.3698 150.704 77.4138 150.956 77.5018 151.188C77.5898 151.42 77.7138 151.62 77.8738 151.788C78.0418 151.956 78.2418 152.088 78.4738 152.184C78.7138 152.272 78.9778 152.316 79.2658 152.316C79.6818 152.316 80.0418 152.22 80.3458 152.028C80.6498 151.836 80.8818 151.572 81.0418 151.236L81.7498 151.716C81.5658 152.132 81.2578 152.476 80.8258 152.748C80.4018 153.012 79.8818 153.144 79.2658 153.144ZM79.2058 147.456C78.9418 147.456 78.6978 147.504 78.4738 147.6C78.2498 147.696 78.0538 147.828 77.8858 147.996C77.7258 148.164 77.5978 148.364 77.5018 148.596C77.4138 148.82 77.3698 149.068 77.3698 149.34V149.424H80.9218V149.292C80.9218 149.02 80.8778 148.772 80.7898 148.548C80.7098 148.324 80.5938 148.132 80.4418 147.972C80.2978 147.804 80.1178 147.676 79.9018 147.588C79.6938 147.5 79.4618 147.456 79.2058 147.456ZM89.0171 151.992H88.9691C88.9051 152.144 88.8251 152.292 88.7291 152.436C88.6331 152.572 88.5131 152.692 88.3691 152.796C88.2331 152.9 88.0691 152.984 87.8771 153.048C87.6851 153.112 87.4611 153.144 87.2051 153.144C86.5571 153.144 86.0371 152.94 85.6451 152.532C85.2531 152.116 85.0571 151.532 85.0571 150.78V146.808H86.0171V150.612C86.0171 151.18 86.1411 151.604 86.3891 151.884C86.6371 152.156 87.0011 152.292 87.4811 152.292C87.6731 152.292 87.8611 152.268 88.0451 152.22C88.2291 152.172 88.3931 152.1 88.5371 152.004C88.6811 151.908 88.7971 151.788 88.8851 151.644C88.9731 151.492 89.0171 151.312 89.0171 151.104V146.808H89.9771V153H89.0171V151.992ZM92.9964 153V146.808H93.8844V147.528H93.9324C94.0284 147.288 94.1644 147.084 94.3404 146.916C94.5164 146.748 94.7764 146.664 95.1204 146.664C95.4804 146.664 95.7484 146.756 95.9244 146.94C96.1004 147.116 96.2084 147.348 96.2484 147.636H96.2844C96.3964 147.356 96.5564 147.124 96.7644 146.94C96.9724 146.756 97.2604 146.664 97.6284 146.664C98.1324 146.664 98.4684 146.84 98.6364 147.192C98.8124 147.544 98.9004 148.048 98.9004 148.704V153H98.0124V148.86C98.0124 148.332 97.9564 147.968 97.8444 147.768C97.7404 147.56 97.5444 147.456 97.2564 147.456C97.0004 147.456 96.7924 147.54 96.6324 147.708C96.4724 147.868 96.3924 148.116 96.3924 148.452V153H95.5044V148.86C95.5044 148.332 95.4484 147.968 95.3364 147.768C95.2324 147.56 95.0404 147.456 94.7604 147.456C94.5044 147.456 94.2924 147.54 94.1244 147.708C93.9644 147.868 93.8844 148.116 93.8844 148.452V153H92.9964Z" fill="#7C7C7C"/>
<path d="M308.08 153V144.624H313.24V145.5H309.088V148.32H313.096V149.196H309.088V152.124H313.24V153H308.08ZM320.723 151.884H320.663C320.591 152.044 320.507 152.2 320.411 152.352C320.315 152.504 320.191 152.64 320.039 152.76C319.895 152.872 319.719 152.964 319.511 153.036C319.303 153.108 319.055 153.144 318.767 153.144C317.855 153.144 317.175 152.776 316.727 152.04C316.287 151.304 316.067 150.248 316.067 148.872C316.067 147.432 316.311 146.34 316.799 145.596C317.287 144.852 318.039 144.48 319.055 144.48C319.447 144.48 319.787 144.532 320.075 144.636C320.363 144.74 320.607 144.88 320.807 145.056C321.015 145.232 321.187 145.432 321.323 145.656C321.459 145.872 321.571 146.092 321.659 146.316L320.795 146.712C320.723 146.528 320.639 146.356 320.543 146.196C320.455 146.028 320.343 145.884 320.207 145.764C320.079 145.636 319.923 145.536 319.739 145.464C319.555 145.392 319.339 145.356 319.091 145.356C318.419 145.356 317.923 145.608 317.603 146.112C317.291 146.616 317.135 147.288 317.135 148.128V149.424C317.135 149.848 317.167 150.236 317.231 150.588C317.295 150.932 317.399 151.232 317.543 151.488C317.695 151.744 317.887 151.944 318.119 152.088C318.359 152.224 318.651 152.292 318.995 152.292C319.539 152.292 319.963 152.128 320.267 151.8C320.571 151.472 320.723 151.048 320.723 150.528V149.664H318.959V148.86H321.659V153H320.723V151.884ZM327.391 153.108C327.063 153.108 326.831 153.04 326.695 152.904C326.567 152.768 326.503 152.596 326.503 152.388V152.172C326.503 151.964 326.567 151.792 326.695 151.656C326.831 151.52 327.063 151.452 327.391 151.452C327.719 151.452 327.947 151.52 328.075 151.656C328.211 151.792 328.279 151.964 328.279 152.172V152.388C328.279 152.596 328.211 152.768 328.075 152.904C327.947 153.04 327.719 153.108 327.391 153.108ZM346.353 153L345.645 150.612H342.705L341.997 153H340.953L343.521 144.624H344.853L347.421 153H346.353ZM344.229 145.692H344.121L342.945 149.736H345.405L344.229 145.692ZM349.901 152.184H351.713V147.624H349.901V146.808H352.673V148.368H352.733C352.861 147.88 353.101 147.5 353.453 147.228C353.813 146.948 354.269 146.808 354.821 146.808H355.685V147.768H354.521C353.969 147.768 353.521 147.928 353.177 148.248C352.841 148.568 352.673 148.988 352.673 149.508V152.184H355.073V153H349.901V152.184ZM358.512 144.12H359.472V147.816H359.52C359.92 147.048 360.556 146.664 361.428 146.664C362.188 146.664 362.78 146.948 363.204 147.516C363.636 148.084 363.852 148.88 363.852 149.904C363.852 150.928 363.636 151.724 363.204 152.292C362.78 152.86 362.188 153.144 361.428 153.144C360.556 153.144 359.92 152.76 359.52 151.992H359.472V153H358.512V144.12ZM361.056 152.292C361.616 152.292 362.048 152.124 362.352 151.788C362.664 151.444 362.82 150.992 362.82 150.432V149.376C362.82 148.816 362.664 148.368 362.352 148.032C362.048 147.688 361.616 147.516 361.056 147.516C360.84 147.516 360.636 147.544 360.444 147.6C360.252 147.656 360.084 147.74 359.94 147.852C359.796 147.956 359.68 148.088 359.592 148.248C359.512 148.4 359.472 148.58 359.472 148.788V151.02C359.472 151.228 359.512 151.412 359.592 151.572C359.68 151.724 359.796 151.856 359.94 151.968C360.084 152.072 360.252 152.152 360.444 152.208C360.636 152.264 360.84 152.292 361.056 152.292ZM369.751 145.44C369.471 145.44 369.275 145.384 369.163 145.272C369.051 145.152 368.995 145.004 368.995 144.828V144.636C368.995 144.46 369.051 144.316 369.163 144.204C369.275 144.084 369.471 144.024 369.751 144.024C370.031 144.024 370.227 144.084 370.339 144.204C370.451 144.316 370.507 144.46 370.507 144.636V144.828C370.507 145.004 370.451 145.152 370.339 145.272C370.227 145.384 370.031 145.44 369.751 145.44ZM367.039 152.184H369.271V147.624H367.039V146.808H370.231V152.184H372.319V153H367.039V152.184ZM378.062 153C377.59 153 377.242 152.868 377.018 152.604C376.802 152.34 376.694 152 376.694 151.584V147.624H374.63V146.808H376.166C376.374 146.808 376.518 146.768 376.598 146.688C376.686 146.6 376.73 146.452 376.73 146.244V144.624H377.654V146.808H380.474V147.624H377.654V152.184H380.474V153H378.062ZM383.482 152.184H385.294V147.624H383.482V146.808H386.254V148.368H386.314C386.442 147.88 386.682 147.5 387.034 147.228C387.394 146.948 387.85 146.808 388.402 146.808H389.266V147.768H388.102C387.55 147.768 387.102 147.928 386.758 148.248C386.422 148.568 386.254 148.988 386.254 149.508V152.184H388.654V153H383.482V152.184ZM396.017 151.992H395.969C395.905 152.144 395.825 152.292 395.729 152.436C395.633 152.572 395.513 152.692 395.369 152.796C395.233 152.9 395.069 152.984 394.877 153.048C394.685 153.112 394.461 153.144 394.205 153.144C393.557 153.144 393.037 152.94 392.645 152.532C392.253 152.116 392.057 151.532 392.057 150.78V146.808H393.017V150.612C393.017 151.18 393.141 151.604 393.389 151.884C393.637 152.156 394.001 152.292 394.481 152.292C394.673 152.292 394.861 152.268 395.045 152.22C395.229 152.172 395.393 152.1 395.537 152.004C395.681 151.908 395.797 151.788 395.885 151.644C395.973 151.492 396.017 151.312 396.017 151.104V146.808H396.977V153H396.017V151.992ZM399.996 153V146.808H400.884V147.528H400.932C401.028 147.288 401.164 147.084 401.34 146.916C401.516 146.748 401.776 146.664 402.12 146.664C402.48 146.664 402.748 146.756 402.924 146.94C403.1 147.116 403.208 147.348 403.248 147.636H403.284C403.396 147.356 403.556 147.124 403.764 146.94C403.972 146.756 404.26 146.664 404.628 146.664C405.132 146.664 405.468 146.84 405.636 147.192C405.812 147.544 405.9 148.048 405.9 148.704V153H405.012V148.86C405.012 148.332 404.956 147.968 404.844 147.768C404.74 147.56 404.544 147.456 404.256 147.456C404 147.456 403.792 147.54 403.632 147.708C403.472 147.868 403.392 148.116 403.392 148.452V153H402.504V148.86C402.504 148.332 402.448 147.968 402.336 147.768C402.232 147.56 402.04 147.456 401.76 147.456C401.504 147.456 401.292 147.54 401.124 147.708C400.964 147.868 400.884 148.116 400.884 148.452V153H399.996Z" fill="#7C7C7C"/>
<path d="M312.168 135.192C310.803 135.192 309.784 134.696 309.112 133.704C308.451 132.712 308.12 131.283 308.12 129.416C308.12 127.549 308.451 126.12 309.112 125.128C309.784 124.136 310.803 123.64 312.168 123.64C312.68 123.64 313.123 123.709 313.496 123.848C313.869 123.987 314.189 124.173 314.456 124.408C314.723 124.643 314.947 124.909 315.128 125.208C315.309 125.496 315.469 125.789 315.608 126.088L314.456 126.616C314.36 126.371 314.248 126.141 314.12 125.928C313.992 125.704 313.837 125.512 313.656 125.352C313.485 125.181 313.277 125.048 313.032 124.952C312.797 124.856 312.509 124.808 312.168 124.808C311.283 124.808 310.621 125.144 310.184 125.816C309.757 126.488 309.544 127.384 309.544 128.504V130.328C309.544 131.448 309.757 132.344 310.184 133.016C310.621 133.688 311.283 134.024 312.168 134.024C312.509 134.024 312.797 133.976 313.032 133.88C313.277 133.784 313.485 133.656 313.656 133.496C313.837 133.325 313.992 133.133 314.12 132.92C314.248 132.696 314.36 132.461 314.456 132.216L315.608 132.744C315.469 133.053 315.309 133.352 315.128 133.64C314.947 133.928 314.723 134.189 314.456 134.424C314.189 134.659 313.869 134.845 313.496 134.984C313.123 135.123 312.68 135.192 312.168 135.192ZM325.17 129.928H320.818V135H319.474V123.832H320.818V128.76H325.17V123.832H326.514V135H325.17V129.928ZM337.084 135L336.14 131.816H332.22L331.276 135H329.884L333.308 123.832H335.084L338.508 135H337.084ZM334.252 125.256H334.108L332.54 130.648H335.82L334.252 125.256ZM341.925 135V133.928H344.709V124.904H341.925V123.832H348.837V124.904H346.053V133.928H348.837V135H341.925ZM354.383 125.544H354.271V135H353.055V123.832H354.959L358.767 133.192H358.879V123.832H360.095V135H358.191L354.383 125.544ZM375.57 123.832H379.362C380.322 123.832 381.074 124.093 381.618 124.616C382.162 125.139 382.434 125.837 382.434 126.712C382.434 127.384 382.269 127.912 381.938 128.296C381.618 128.68 381.202 128.952 380.69 129.112V129.16C381.32 129.309 381.837 129.592 382.242 130.008C382.648 130.413 382.85 131.005 382.85 131.784C382.85 132.232 382.776 132.653 382.626 133.048C382.477 133.443 382.264 133.784 381.986 134.072C381.72 134.36 381.4 134.589 381.026 134.76C380.664 134.92 380.269 135 379.842 135H375.57V123.832ZM379.442 133.832C380.061 133.832 380.546 133.693 380.898 133.416C381.25 133.139 381.426 132.712 381.426 132.136V131.48C381.426 130.915 381.25 130.493 380.898 130.216C380.546 129.928 380.061 129.784 379.442 129.784H376.914V133.832H379.442ZM379.218 128.68C379.784 128.68 380.226 128.557 380.546 128.312C380.866 128.056 381.026 127.672 381.026 127.16V126.536C381.026 126.024 380.866 125.64 380.546 125.384C380.226 125.128 379.784 125 379.218 125H376.914V128.68H379.218Z" fill="white"/>
<path d="M273.014 71.5L268.014 68.6132V74.3868L273.014 71.5ZM108.986 72H109.987V71H108.986V72ZM112.988 72H114.989V71H112.988V72ZM117.99 72H119.991V71H117.99V72ZM122.993 72H124.994V71H122.993V72ZM127.995 72H129.996V71H127.995V72ZM132.997 72H134.998V71H132.997V72ZM138 72H139V71H138V72ZM139 72C139.37 72 139.736 71.9808 140.097 71.9433L139.994 70.9487C139.667 70.9826 139.336 71 139 71V72ZM143.272 71.0943C143.946 70.7938 144.583 70.4243 145.172 69.9951L144.584 69.1865C144.05 69.5751 143.474 69.9092 142.865 70.181L143.272 71.0943ZM147.495 67.6724C147.924 67.0826 148.294 66.4462 148.594 65.7721L147.681 65.3648C147.409 65.9744 147.075 66.5501 146.687 67.084L147.495 67.6724ZM149.443 62.5973C149.481 62.2365 149.5 61.8704 149.5 61.5H148.5C148.5 61.8358 148.483 62.1674 148.449 62.4939L149.443 62.5973ZM149.5 61.5V60.575H148.5V61.5H149.5ZM149.5 57.8V55.95H148.5V57.8H149.5ZM149.5 53.175V51.325H148.5V53.175H149.5ZM149.5 48.55V46.7H148.5V48.55H149.5ZM149.5 43.925V43H148.5V43.925H149.5ZM149.5 43C149.5 42.6642 149.517 42.3326 149.551 42.0061L148.557 41.9027C148.519 42.2635 148.5 42.6296 148.5 43H149.5ZM150.319 39.1352C150.591 38.5256 150.925 37.9499 151.313 37.416L150.505 36.8276C150.076 37.4174 149.706 38.0538 149.406 38.7279L150.319 39.1352ZM153.416 35.3135C153.95 34.9249 154.526 34.5908 155.135 34.319L154.728 33.4057C154.054 33.7062 153.417 34.0757 152.828 34.5049L153.416 35.3135ZM158.006 33.5513C158.333 33.5174 158.664 33.5 159 33.5V32.5C158.63 32.5 158.264 32.5192 157.903 32.5567L158.006 33.5513ZM159 33.5H160.05V32.5H159V33.5ZM163.2 33.5H165.3V32.5H163.2V33.5ZM168.45 33.5H170.55V32.5H168.45V33.5ZM173.7 33.5H174.75V32.5H173.7V33.5ZM200.5 33.5H201.567V32.5H200.5V33.5ZM204.767 33.5H206.9V32.5H204.767V33.5ZM210.1 33.5H212.233V32.5H210.1V33.5ZM215.433 33.5H216.5V32.5H215.433V33.5ZM216.5 33.5C216.836 33.5 217.167 33.5174 217.494 33.5513L217.597 32.5567C217.236 32.5192 216.87 32.5 216.5 32.5V33.5ZM220.365 34.319C220.974 34.5908 221.55 34.9249 222.084 35.3135L222.672 34.5049C222.083 34.0757 221.446 33.7062 220.772 33.4057L220.365 34.319ZM224.187 37.416C224.575 37.9499 224.909 38.5256 225.181 39.1352L226.094 38.7279C225.794 38.0538 225.424 37.4174 224.995 36.8276L224.187 37.416ZM225.949 42.0061C225.983 42.3326 226 42.6642 226 43H227C227 42.6296 226.981 42.2635 226.943 41.9027L225.949 42.0061ZM226 43V43.925H227V43H226ZM226 46.7V48.55H227V46.7H226ZM226 51.325V53.175H227V51.325H226ZM226 55.95V57.8H227V55.95H226ZM226 60.575V61.5H227V60.575H226ZM226 61.5C226 61.8704 226.019 62.2365 226.057 62.5973L227.051 62.4939C227.017 62.1674 227 61.8358 227 61.5H226ZM226.906 65.7721C227.206 66.4462 227.576 67.0826 228.005 67.6724L228.813 67.084C228.425 66.5501 228.091 65.9744 227.819 65.3648L226.906 65.7721ZM230.328 69.9951C230.917 70.4244 231.554 70.7938 232.228 71.0943L232.635 70.181C232.026 69.9092 231.45 69.5751 230.916 69.1865L230.328 69.9951ZM235.403 71.9433C235.764 71.9808 236.13 72 236.5 72V71C236.164 71 235.833 70.9826 235.506 70.9487L235.403 71.9433ZM236.5 72H237.543V71H236.5V72ZM240.673 72H242.76V71H240.673V72ZM245.889 72H247.976V71H245.889V72ZM251.105 72H253.192V71H251.105V72ZM256.322 72H258.408V71H256.322V72ZM261.538 72H263.625V71H261.538V72ZM266.754 72H268.841V71H266.754V72ZM273.014 71.5L263.014 65.7265V77.2735L273.014 71.5ZM108.986 72.5H109.987V70.5H108.986V72.5ZM112.988 72.5H114.989V70.5H112.988V72.5ZM117.99 72.5H119.991V70.5H117.99V72.5ZM122.993 72.5H124.994V70.5H122.993V72.5ZM127.995 72.5H129.996V70.5H127.995V72.5ZM132.997 72.5H134.998V70.5H132.997V72.5ZM138 72.5H139V70.5H138V72.5ZM139 72.5C139.388 72.5 139.771 72.4799 140.149 72.4406L139.942 70.4513C139.633 70.4835 139.319 70.5 139 70.5V72.5ZM143.476 71.551C144.182 71.236 144.849 70.849 145.467 70.3993L144.29 68.7823C143.784 69.1504 143.238 69.467 142.661 69.7244L143.476 71.551ZM147.899 67.9666C148.349 67.3488 148.736 66.6821 149.051 65.9757L147.224 65.1612C146.967 65.7385 146.65 66.2839 146.282 66.7897L147.899 67.9666ZM149.941 62.6489C149.98 62.271 150 61.8877 150 61.5H148C148 61.8185 147.983 62.1329 147.951 62.4422L149.941 62.6489ZM150 61.5V60.575H148V61.5H150ZM150 57.8V55.95H148V57.8H150ZM150 53.175V51.325H148V53.175H150ZM150 48.55V46.7H148V48.55H150ZM150 43.925V43H148V43.925H150ZM150 43C150 42.6815 150.017 42.3671 150.049 42.0578L148.059 41.8511C148.02 42.229 148 42.6123 148 43H150ZM150.776 39.3388C151.033 38.7615 151.35 38.2161 151.718 37.7103L150.101 36.5334C149.651 37.1512 149.264 37.8179 148.949 38.5243L150.776 39.3388ZM153.71 35.7177C154.216 35.3496 154.762 35.033 155.339 34.7756L154.524 32.949C153.818 33.264 153.151 33.651 152.533 34.1007L153.71 35.7177ZM158.058 34.0487C158.367 34.0165 158.681 34 159 34V32C158.612 32 158.229 32.0201 157.851 32.0594L158.058 34.0487ZM159 34H160.05V32H159V34ZM163.2 34H165.3V32H163.2V34ZM168.45 34H170.55V32H168.45V34ZM173.7 34H174.75V32H173.7V34ZM200.5 34H201.567V32H200.5V34ZM204.767 34H206.9V32H204.767V34ZM210.1 34H212.233V32H210.1V34ZM215.433 34H216.5V32H215.433V34ZM216.5 34C216.819 34 217.133 34.0165 217.442 34.0487L217.649 32.0594C217.271 32.0201 216.888 32 216.5 32V34ZM220.161 34.7756C220.738 35.033 221.284 35.3496 221.79 35.7177L222.967 34.1007C222.349 33.651 221.682 33.264 220.976 32.949L220.161 34.7756ZM223.782 37.7103C224.15 38.2161 224.467 38.7615 224.724 39.3388L226.551 38.5243C226.236 37.8179 225.849 37.1512 225.399 36.5334L223.782 37.7103ZM225.451 42.0578C225.483 42.3671 225.5 42.6815 225.5 43H227.5C227.5 42.6123 227.48 42.229 227.441 41.8511L225.451 42.0578ZM225.5 43V43.925H227.5V43H225.5ZM225.5 46.7V48.55H227.5V46.7H225.5ZM225.5 51.325V53.175H227.5V51.325H225.5ZM225.5 55.95V57.8H227.5V55.95H225.5ZM225.5 60.575V61.5H227.5V60.575H225.5ZM225.5 61.5C225.5 61.8877 225.52 62.271 225.559 62.6489L227.549 62.4422C227.517 62.1329 227.5 61.8185 227.5 61.5H225.5ZM226.449 65.9757C226.764 66.6821 227.151 67.3488 227.601 67.9666L229.218 66.7897C228.85 66.2839 228.533 65.7385 228.276 65.1612L226.449 65.9757ZM230.033 70.3993C230.651 70.849 231.318 71.236 232.024 71.551L232.839 69.7244C232.262 69.467 231.716 69.1504 231.21 68.7823L230.033 70.3993ZM235.351 72.4406C235.729 72.4799 236.112 72.5 236.5 72.5V70.5C236.181 70.5 235.867 70.4835 235.558 70.4513L235.351 72.4406ZM236.5 72.5H237.543V70.5H236.5V72.5ZM240.673 72.5H242.76V70.5H240.673V72.5ZM245.889 72.5H247.976V70.5H245.889V72.5ZM251.105 72.5H253.192V70.5H251.105V72.5ZM256.322 72.5H258.408V70.5H256.322V72.5ZM261.538 72.5H263.625V70.5H261.538V72.5ZM266.754 72.5H268.841V70.5H266.754V72.5Z" fill="white" fill-opacity="0.3"/>
<path d="M189.53 73.5795C189.537 73.4923 189.606 73.4231 189.694 73.4159L205.832 72.0744C206.052 72.0561 206.052 71.7349 205.832 71.717L189.694 70.3979C189.606 70.3907 189.537 70.3215 189.53 70.2342L188.18 54.1476C188.162 53.9284 187.841 53.9286 187.823 54.1478L186.496 70.2339C186.489 70.3214 186.419 70.3907 186.332 70.3979L170.171 71.717C169.951 71.7349 169.951 72.0561 170.171 72.0744L186.332 73.4159C186.419 73.4231 186.489 73.4924 186.496 73.5798L187.823 89.6435C187.841 89.8628 188.162 89.863 188.18 89.6438L189.53 73.5795Z" fill="url(#paint0_linear_3390_17787)"/>
<path d="M48.4863 24.0227L50.3245 27.3803" stroke="#515151" stroke-width="1.40652"/>
<path d="M74.0879 10.0054L75.9261 13.363" stroke="#515151" stroke-width="1.40652"/>
<path d="M75.5002 13.0519C75.5635 13.1675 75.6121 13.5072 75.1866 14.2349C74.7869 14.9184 74.0725 15.7562 73.0655 16.6936C71.0596 18.5608 68.012 20.7138 64.3971 22.6929C60.7822 24.672 57.3264 26.0795 54.6726 26.7633C53.3404 27.1066 52.2496 27.2571 51.4586 27.2255C50.6162 27.192 50.3563 26.968 50.293 26.8524C50.2297 26.7368 50.181 26.3971 50.6066 25.6694C51.0063 24.986 51.7207 24.1481 52.7277 23.2107C54.7335 21.3435 57.7812 19.1905 61.3961 17.2114C65.011 15.2324 68.4668 13.8248 71.1206 13.141C72.4528 12.7977 73.5435 12.6473 74.3346 12.6788C75.177 12.7124 75.4369 12.9363 75.5002 13.0519Z" fill="#171717" stroke="url(#paint1_linear_3390_17787)" stroke-width="1.40652"/>
<path d="M73.6623 9.69525C73.7256 9.81086 73.7742 10.1505 73.3487 10.8782C72.949 11.5617 72.2346 12.3995 71.2276 13.3369C69.2217 15.2041 66.1741 17.3571 62.5592 19.3362C58.9443 21.3153 55.4885 22.7228 52.8347 23.4066C51.5025 23.7499 50.4117 23.9004 49.6207 23.8688C48.7783 23.8353 48.5184 23.6113 48.4551 23.4957C48.3918 23.3801 48.3432 23.0404 48.7687 22.3127C49.1684 21.6293 49.8828 20.7914 50.8898 19.8541C52.8957 17.9868 55.9433 15.8338 59.5582 13.8548C63.1731 11.8757 66.6289 10.4681 69.2827 9.78432C70.6149 9.44102 71.7057 9.29057 72.4967 9.3221C73.3391 9.35568 73.599 9.57964 73.6623 9.69525Z" fill="#171717" stroke="url(#paint2_linear_3390_17787)" stroke-width="1.40652"/>
<path d="M307.129 21.929L305.144 25.2021" stroke="#515151" stroke-width="1.40652"/>
<path d="M330.158 39.8108C330.09 39.9235 329.82 40.1357 328.977 40.1321C328.186 40.1286 327.103 39.9301 325.787 39.5283C323.166 38.7279 319.776 37.1691 316.252 35.0322C312.728 32.8954 309.778 30.6099 307.857 28.6558C306.892 27.6749 306.215 26.8063 305.846 26.1059C305.453 25.3601 305.517 25.0229 305.585 24.9102C305.654 24.7975 305.923 24.5852 306.766 24.5889C307.558 24.5924 308.641 24.7909 309.957 25.1927C312.578 25.9931 315.968 27.5519 319.492 29.6887C323.016 31.8256 325.965 34.1111 327.887 36.0651C328.851 37.0461 329.528 37.9146 329.897 38.6151C330.29 39.3609 330.227 39.6981 330.158 39.8108Z" fill="#171717" stroke="url(#paint3_linear_3390_17787)" stroke-width="1.40652"/>
<path d="M332.143 36.5383C332.074 36.651 331.805 36.8633 330.962 36.8596C330.17 36.8561 329.087 36.6577 327.771 36.2558C325.15 35.4554 321.76 33.8966 318.236 31.7598C314.712 29.6229 311.763 27.3374 309.841 25.3834C308.877 24.4024 308.2 23.5339 307.831 22.8334C307.438 22.0876 307.501 21.7504 307.57 21.6377C307.638 21.525 307.908 21.3128 308.751 21.3165C309.542 21.3199 310.625 21.5184 311.941 21.9202C314.562 22.7206 317.952 24.2794 321.476 26.4163C325 28.5531 327.95 30.8386 329.871 32.7927C330.836 33.7736 331.513 34.6422 331.882 35.3426C332.275 36.0884 332.211 36.4256 332.143 36.5383Z" fill="#171717" stroke="url(#paint4_linear_3390_17787)" stroke-width="1.40652"/>
<path d="M339.389 24.0608L342.101 26.7616" stroke="#515151" stroke-width="1.40652"/>
<path d="M362.198 5.8991C362.291 5.99209 362.434 6.30413 362.232 7.1225C362.041 7.89106 361.593 8.8967 360.892 10.0806C359.496 12.4388 357.182 15.3657 354.274 18.2862C351.366 21.2067 348.45 23.534 346.097 24.9403C344.917 25.6463 343.913 26.099 343.145 26.2925C342.328 26.4985 342.015 26.3572 341.922 26.2642C341.828 26.1712 341.686 25.8591 341.888 25.0408C342.078 24.2722 342.526 23.2666 343.227 22.0827C344.623 19.7244 346.938 16.7976 349.846 13.8771C352.753 10.9566 355.67 8.6293 358.022 7.22296C359.203 6.51696 360.207 6.06422 360.974 5.87078C361.792 5.66479 362.104 5.80611 362.198 5.8991Z" fill="#171717" stroke="url(#paint5_linear_3390_17787)" stroke-width="1.40652"/>
<path d="M359.485 3.19915C359.578 3.29214 359.721 3.60418 359.519 4.42255C359.329 5.1911 358.88 6.19675 358.179 7.38062C356.783 9.73887 354.469 12.6658 351.561 15.5863C348.653 18.5068 345.737 20.834 343.385 22.2403C342.204 22.9464 341.2 23.3991 340.432 23.5925C339.615 23.7985 339.302 23.6572 339.209 23.5642C339.115 23.4712 338.973 23.1592 339.175 22.3408C339.365 21.5723 339.814 20.5666 340.514 19.3827C341.91 17.0245 344.225 14.0976 347.133 11.1771C350.04 8.25661 352.957 5.92935 355.309 4.52301C356.49 3.81701 357.494 3.36427 358.261 3.17082C359.079 2.96484 359.392 3.10615 359.485 3.19915Z" fill="#171717" stroke="url(#paint6_linear_3390_17787)" stroke-width="1.40652"/>
<rect x="4.7" y="40.7" width="71.6" height="54.6" rx="3.3" stroke="url(#paint7_linear_3390_17787)" stroke-width="1.4"/>
<rect x="309.7" y="40.7" width="71.6" height="54.6" rx="3.3" stroke="url(#paint8_linear_3390_17787)" stroke-width="1.4"/>
<path d="M17.5 40.5L57.9391 31.8959C62.0162 31.0285 66.2513 32.3389 69.126 35.3573L74.5 41" stroke="url(#paint9_linear_3390_17787)" stroke-width="1.4"/>
<path d="M322.5 40.5L362.939 31.8959C367.016 31.0285 371.251 32.3389 374.126 35.3573L379.5 41" stroke="url(#paint10_linear_3390_17787)" stroke-width="1.4"/>
<path d="M188 12V49" stroke="url(#paint11_linear_3390_17787)" stroke-width="1.4"/>
<path d="M182 23.5V42.5" stroke="url(#paint12_linear_3390_17787)" stroke-width="1.4"/>
<path d="M194 23.5V42.5" stroke="url(#paint13_linear_3390_17787)" stroke-width="1.4"/>
<defs>
<linearGradient id="paint0_linear_3390_17787" x1="186.626" y1="69.4047" x2="192.225" y2="79.5358" gradientUnits="userSpaceOnUse">
<stop stop-color="white"/>
<stop offset="1" stop-color="white"/>
</linearGradient>
<linearGradient id="paint1_linear_3390_17787" x1="61.0584" y1="16.5946" x2="64.7348" y2="23.3097" gradientUnits="userSpaceOnUse">
<stop stop-color="#F9F9ED" stop-opacity="0.182796"/>
<stop offset="0.723958" stop-color="#F5F5E4" stop-opacity="0.282082"/>
<stop offset="1" stop-color="white"/>
</linearGradient>
<linearGradient id="paint2_linear_3390_17787" x1="59.2205" y1="13.2379" x2="62.8969" y2="19.9531" gradientUnits="userSpaceOnUse">
<stop stop-color="white"/>
<stop offset="0.583333" stop-color="#8F8F8F"/>
</linearGradient>
<linearGradient id="paint3_linear_3390_17787" x1="319.857" y1="29.0874" x2="315.887" y2="35.6336" gradientUnits="userSpaceOnUse">
<stop stop-color="#F9F9ED" stop-opacity="0.182796"/>
<stop offset="0.723958" stop-color="#F5F5E4" stop-opacity="0.282082"/>
<stop offset="1" stop-color="white"/>
</linearGradient>
<linearGradient id="paint4_linear_3390_17787" x1="321.841" y1="25.8149" x2="317.871" y2="32.3611" gradientUnits="userSpaceOnUse">
<stop stop-color="white"/>
<stop offset="0.583333" stop-color="#8F8F8F"/>
</linearGradient>
<linearGradient id="paint5_linear_3390_17787" x1="349.347" y1="13.3809" x2="354.772" y2="18.7824" gradientUnits="userSpaceOnUse">
<stop stop-color="#F9F9ED" stop-opacity="0.182796"/>
<stop offset="0.723958" stop-color="#F5F5E4" stop-opacity="0.282082"/>
<stop offset="1" stop-color="white"/>
</linearGradient>
<linearGradient id="paint6_linear_3390_17787" x1="346.634" y1="10.6809" x2="352.059" y2="16.0824" gradientUnits="userSpaceOnUse">
<stop stop-color="white"/>
<stop offset="0.583333" stop-color="#8F8F8F"/>
</linearGradient>
<linearGradient id="paint7_linear_3390_17787" x1="40.5" y1="40" x2="40.5" y2="96" gradientUnits="userSpaceOnUse">
<stop stop-color="white"/>
<stop offset="0.583333" stop-color="#8F8F8F"/>
</linearGradient>
<linearGradient id="paint8_linear_3390_17787" x1="345.5" y1="40" x2="345.5" y2="96" gradientUnits="userSpaceOnUse">
<stop stop-color="white"/>
<stop offset="0.583333" stop-color="#8F8F8F"/>
</linearGradient>
<linearGradient id="paint9_linear_3390_17787" x1="20" y1="39.5" x2="77" y2="38" gradientUnits="userSpaceOnUse">
<stop stop-color="white"/>
<stop offset="0.515625" stop-color="#8F8F8F"/>
<stop offset="1" stop-color="white"/>
</linearGradient>
<linearGradient id="paint10_linear_3390_17787" x1="325" y1="39.5" x2="382" y2="38" gradientUnits="userSpaceOnUse">
<stop stop-color="white"/>
<stop offset="0.515625" stop-color="#8F8F8F"/>
<stop offset="1" stop-color="white"/>
</linearGradient>
<linearGradient id="paint11_linear_3390_17787" x1="188.044" y1="43.7143" x2="189.045" y2="43.7142" gradientUnits="userSpaceOnUse">
<stop stop-color="white"/>
<stop offset="0.515625" stop-color="#8F8F8F"/>
<stop offset="1" stop-color="white"/>
</linearGradient>
<linearGradient id="paint12_linear_3390_17787" x1="182.044" y1="38.7143" x2="183.045" y2="38.7142" gradientUnits="userSpaceOnUse">
<stop stop-color="white"/>
<stop offset="0.515625" stop-color="#8F8F8F"/>
<stop offset="1" stop-color="white"/>
</linearGradient>
<linearGradient id="paint13_linear_3390_17787" x1="194.044" y1="38.7143" x2="195.045" y2="38.7142" gradientUnits="userSpaceOnUse">
<stop stop-color="white"/>
<stop offset="0.515625" stop-color="#8F8F8F"/>
<stop offset="1" stop-color="white"/>
</linearGradient>
</defs>
</svg>
