<svg width="457" height="124" viewBox="0 0 457 124" fill="none" xmlns="http://www.w3.org/2000/svg">
<path d="M217.61 51.7157C217.615 51.6594 217.659 51.6148 217.716 51.6101L229.61 50.6162C229.751 50.6044 229.751 50.3974 229.61 50.3857L217.716 49.4084C217.66 49.4038 217.615 49.3591 217.61 49.3028L216.616 37.3922C216.604 37.2508 216.397 37.2509 216.386 37.3924L215.408 49.3026C215.404 49.359 215.359 49.4038 215.303 49.4084L203.392 50.3857C203.251 50.3974 203.251 50.6044 203.392 50.6162L215.303 51.6101C215.359 51.6148 215.404 51.6595 215.408 51.7158L216.386 63.6096C216.397 63.751 216.604 63.7512 216.616 63.6098L217.61 51.7157Z" fill="url(#paint0_linear_3456_3811)"/>
<path d="M4.128 117V112.616L0.272 105.832H1.808L3.408 108.744L4.768 111.288H4.832L6.224 108.744L7.824 105.832H9.328L5.472 112.616V117H4.128ZM15.9938 117.192C15.3111 117.192 14.7244 117.064 14.2338 116.808C13.7431 116.541 13.3378 116.163 13.0178 115.672C12.6978 115.181 12.4631 114.579 12.3138 113.864C12.1644 113.149 12.0898 112.333 12.0898 111.416C12.0898 110.509 12.1644 109.699 12.3138 108.984C12.4631 108.259 12.6978 107.651 13.0178 107.16C13.3378 106.669 13.7431 106.296 14.2338 106.04C14.7244 105.773 15.3111 105.64 15.9938 105.64C16.6764 105.64 17.2631 105.773 17.7538 106.04C18.2444 106.296 18.6498 106.669 18.9698 107.16C19.2898 107.651 19.5244 108.259 19.6738 108.984C19.8231 109.699 19.8978 110.509 19.8978 111.416C19.8978 112.333 19.8231 113.149 19.6738 113.864C19.5244 114.579 19.2898 115.181 18.9698 115.672C18.6498 116.163 18.2444 116.541 17.7538 116.808C17.2631 117.064 16.6764 117.192 15.9938 117.192ZM15.9938 116.024C16.4418 116.024 16.8204 115.939 17.1298 115.768C17.4391 115.587 17.6951 115.336 17.8978 115.016C18.1004 114.696 18.2444 114.312 18.3298 113.864C18.4258 113.405 18.4738 112.893 18.4738 112.328V110.504C18.4738 109.949 18.4258 109.443 18.3298 108.984C18.2444 108.525 18.1004 108.136 17.8978 107.816C17.6951 107.496 17.4391 107.251 17.1298 107.08C16.8204 106.899 16.4418 106.808 15.9938 106.808C15.5458 106.808 15.1671 106.899 14.8578 107.08C14.5484 107.251 14.2924 107.496 14.0898 107.816C13.8871 108.136 13.7378 108.525 13.6418 108.984C13.5564 109.443 13.5138 109.949 13.5138 110.504V112.328C13.5138 112.893 13.5564 113.405 13.6418 113.864C13.7378 114.312 13.8871 114.696 14.0898 115.016C14.2924 115.336 14.5484 115.587 14.8578 115.768C15.1671 115.939 15.5458 116.024 15.9938 116.024ZM25.0115 105.832V112.536C25.0115 113.08 25.0275 113.565 25.0595 113.992C25.0915 114.419 25.1768 114.787 25.3155 115.096C25.4542 115.395 25.6675 115.624 25.9555 115.784C26.2542 115.944 26.6648 116.024 27.1875 116.024C27.7102 116.024 28.1155 115.944 28.4035 115.784C28.7022 115.624 28.9208 115.395 29.0595 115.096C29.1982 114.787 29.2835 114.419 29.3155 113.992C29.3475 113.565 29.3635 113.08 29.3635 112.536V105.832H30.7075V112.216C30.7075 113.048 30.6648 113.773 30.5795 114.392C30.5048 115.011 30.3395 115.528 30.0835 115.944C29.8382 116.36 29.4808 116.675 29.0115 116.888C28.5528 117.091 27.9448 117.192 27.1875 117.192C26.4302 117.192 25.8168 117.091 25.3475 116.888C24.8888 116.675 24.5315 116.36 24.2755 115.944C24.0302 115.528 23.8648 115.011 23.7795 114.392C23.7048 113.773 23.6675 113.048 23.6675 112.216V105.832H25.0115ZM36.3652 117H35.0212V105.832H39.0852C40.1199 105.832 40.9092 106.115 41.4532 106.68C41.9972 107.245 42.2692 108.035 42.2692 109.048C42.2692 109.955 42.0346 110.68 41.5652 111.224C41.0959 111.768 40.4132 112.083 39.5172 112.168L42.3652 117H40.8612L38.1412 112.232H36.3652V117ZM39.0532 111.096C39.6186 111.096 40.0559 110.957 40.3652 110.68C40.6852 110.392 40.8452 109.987 40.8452 109.464V108.632C40.8452 108.109 40.6852 107.709 40.3652 107.432C40.0559 107.144 39.6186 107 39.0532 107H36.3652V111.096H39.0532ZM57.3768 105.832H61.1688C62.1288 105.832 62.8808 106.093 63.4248 106.616C63.9688 107.139 64.2408 107.837 64.2408 108.712C64.2408 109.384 64.0754 109.912 63.7448 110.296C63.4248 110.68 63.0088 110.952 62.4968 111.112V111.16C63.1261 111.309 63.6434 111.592 64.0487 112.008C64.4541 112.413 64.6568 113.005 64.6568 113.784C64.6568 114.232 64.5821 114.653 64.4328 115.048C64.2834 115.443 64.0701 115.784 63.7928 116.072C63.5261 116.36 63.2061 116.589 62.8328 116.76C62.4701 116.92 62.0754 117 61.6488 117H57.3768V105.832ZM61.2488 115.832C61.8674 115.832 62.3528 115.693 62.7048 115.416C63.0568 115.139 63.2328 114.712 63.2328 114.136V113.48C63.2328 112.915 63.0568 112.493 62.7048 112.216C62.3528 111.928 61.8674 111.784 61.2488 111.784H58.7208V115.832H61.2488ZM61.0248 110.68C61.5901 110.68 62.0328 110.557 62.3528 110.312C62.6728 110.056 62.8328 109.672 62.8328 109.16V108.536C62.8328 108.024 62.6728 107.64 62.3528 107.384C62.0328 107.128 61.5901 107 61.0248 107H58.7208V110.68H61.0248ZM74.8585 117L73.9145 113.816H69.9945L69.0505 117H67.6585L71.0825 105.832H72.8585L76.2825 117H74.8585ZM72.0265 107.256H71.8825L70.3145 112.648H73.5945L72.0265 107.256ZM80.9642 107.544H80.8522V117H79.6362V105.832H81.5402L85.3482 115.192H85.4602V105.832H86.6762V117H84.7722L80.9642 107.544ZM93.854 111.528L92.254 113.416V117H90.91V105.832H92.254V111.656H92.302L93.774 109.8L97.07 105.832H98.686L94.766 110.536L98.798 117H97.23L93.854 111.528Z" fill="white"/>
<path d="M373.168 117.192C371.803 117.192 370.784 116.696 370.112 115.704C369.451 114.712 369.12 113.283 369.12 111.416C369.12 109.549 369.451 108.12 370.112 107.128C370.784 106.136 371.803 105.64 373.168 105.64C373.68 105.64 374.123 105.709 374.496 105.848C374.869 105.987 375.189 106.173 375.456 106.408C375.723 106.643 375.947 106.909 376.128 107.208C376.309 107.496 376.469 107.789 376.608 108.088L375.456 108.616C375.36 108.371 375.248 108.141 375.12 107.928C374.992 107.704 374.837 107.512 374.656 107.352C374.485 107.181 374.277 107.048 374.032 106.952C373.797 106.856 373.509 106.808 373.168 106.808C372.283 106.808 371.621 107.144 371.184 107.816C370.757 108.488 370.544 109.384 370.544 110.504V112.328C370.544 113.448 370.757 114.344 371.184 115.016C371.621 115.688 372.283 116.024 373.168 116.024C373.509 116.024 373.797 115.976 374.032 115.88C374.277 115.784 374.485 115.656 374.656 115.496C374.837 115.325 374.992 115.133 375.12 114.92C375.248 114.696 375.36 114.461 375.456 114.216L376.608 114.744C376.469 115.053 376.309 115.352 376.128 115.64C375.947 115.928 375.723 116.189 375.456 116.424C375.189 116.659 374.869 116.845 374.496 116.984C374.123 117.123 373.68 117.192 373.168 117.192ZM381.978 117H380.634V105.832H384.698C385.732 105.832 386.522 106.115 387.066 106.68C387.61 107.245 387.882 108.035 387.882 109.048C387.882 109.955 387.647 110.68 387.178 111.224C386.708 111.768 386.026 112.083 385.13 112.168L387.978 117H386.474L383.754 112.232H381.978V117ZM384.666 111.096C385.231 111.096 385.668 110.957 385.978 110.68C386.298 110.392 386.458 109.987 386.458 109.464V108.632C386.458 108.109 386.298 107.709 385.978 107.432C385.668 107.144 385.231 107 384.666 107H381.978V111.096H384.666ZM394.516 117V112.616L390.66 105.832H392.196L393.796 108.744L395.156 111.288H395.22L396.612 108.744L398.212 105.832H399.716L395.86 112.616V117H394.516ZM403.021 117V105.832H407.085C408.12 105.832 408.909 106.115 409.453 106.68C409.997 107.245 410.269 108.035 410.269 109.048C410.269 110.061 409.997 110.851 409.453 111.416C408.909 111.981 408.12 112.264 407.085 112.264H404.365V117H403.021ZM404.365 111.096H407.053C407.619 111.096 408.056 110.957 408.365 110.68C408.685 110.392 408.845 109.987 408.845 109.464V108.632C408.845 108.109 408.685 107.709 408.365 107.432C408.056 107.144 407.619 107 407.053 107H404.365V111.096ZM418.247 107V117H416.903V107H413.175V105.832H421.975V107H418.247ZM428.769 117.192C428.086 117.192 427.499 117.064 427.009 116.808C426.518 116.541 426.113 116.163 425.793 115.672C425.473 115.181 425.238 114.579 425.089 113.864C424.939 113.149 424.865 112.333 424.865 111.416C424.865 110.509 424.939 109.699 425.089 108.984C425.238 108.259 425.473 107.651 425.793 107.16C426.113 106.669 426.518 106.296 427.009 106.04C427.499 105.773 428.086 105.64 428.769 105.64C429.451 105.64 430.038 105.773 430.529 106.04C431.019 106.296 431.425 106.669 431.745 107.16C432.065 107.651 432.299 108.259 432.449 108.984C432.598 109.699 432.673 110.509 432.673 111.416C432.673 112.333 432.598 113.149 432.449 113.864C432.299 114.579 432.065 115.181 431.745 115.672C431.425 116.163 431.019 116.541 430.529 116.808C430.038 117.064 429.451 117.192 428.769 117.192ZM428.769 116.024C429.217 116.024 429.595 115.939 429.905 115.768C430.214 115.587 430.47 115.336 430.673 115.016C430.875 114.696 431.019 114.312 431.105 113.864C431.201 113.405 431.249 112.893 431.249 112.328V110.504C431.249 109.949 431.201 109.443 431.105 108.984C431.019 108.525 430.875 108.136 430.673 107.816C430.47 107.496 430.214 107.251 429.905 107.08C429.595 106.899 429.217 106.808 428.769 106.808C428.321 106.808 427.942 106.899 427.633 107.08C427.323 107.251 427.067 107.496 426.865 107.816C426.662 108.136 426.513 108.525 426.417 108.984C426.331 109.443 426.289 109.949 426.289 110.504V112.328C426.289 112.893 426.331 113.405 426.417 113.864C426.513 114.312 426.662 114.696 426.865 115.016C427.067 115.336 427.323 115.587 427.633 115.768C427.942 115.939 428.321 116.024 428.769 116.024Z" fill="white"/>
<path opacity="0.3" d="M319.5 48.5L312.5 44.4585V52.5415L319.5 48.5ZM264 49.2H265.009V47.8H264V49.2ZM268.036 49.2H270.055V47.8H268.036V49.2ZM273.082 49.2H275.1V47.8H273.082V49.2ZM278.127 49.2H280.145V47.8H278.127V49.2ZM283.173 49.2H285.191V47.8H283.173V49.2ZM288.218 49.2H290.236V47.8H288.218V49.2ZM293.264 49.2H295.282V47.8H293.264V49.2ZM298.309 49.2H300.327V47.8H298.309V49.2ZM303.355 49.2H305.373V47.8H303.355V49.2ZM308.4 49.2H310.418V47.8H308.4V49.2ZM313.445 49.2H315.464V47.8H313.445V49.2Z" fill="url(#paint1_linear_3456_3811)"/>
<path opacity="0.3" d="M170.5 48.5L163.5 44.4585V52.5415L170.5 48.5ZM115 49.2H116.009V47.8H115V49.2ZM119.036 49.2H121.055V47.8H119.036V49.2ZM124.082 49.2H126.1V47.8H124.082V49.2ZM129.127 49.2H131.145V47.8H129.127V49.2ZM134.173 49.2H136.191V47.8H134.173V49.2ZM139.218 49.2H141.236V47.8H139.218V49.2ZM144.264 49.2H146.282V47.8H144.264V49.2ZM149.309 49.2H151.327V47.8H149.309V49.2ZM154.355 49.2H156.373V47.8H154.355V49.2ZM159.4 49.2H161.418V47.8H159.4V49.2ZM164.445 49.2H166.464V47.8H164.445V49.2Z" fill="url(#paint2_linear_3456_3811)"/>
<path d="M230.5 32.3767C236.257 36.557 240 43.3413 240 51C240 58.6586 236.257 65.4429 230.5 69.6232" stroke="white"/>
<path d="M201.5 32.3767C195.743 36.557 192 43.3413 192 51C192 58.6586 195.743 65.4429 201.5 69.6232" stroke="white"/>
<path d="M234 24.844C242.423 30.2721 248 39.7347 248 50.4999C248 61.2651 242.423 70.7277 234 76.1558" stroke="white"/>
<path d="M198 24.844C189.577 30.2721 184 39.7347 184 50.4999C184 61.2651 189.577 70.7277 198 76.1558" stroke="white"/>
<path d="M351.098 44.2046L355.606 52.4398" stroke="#515151" stroke-width="1.40652"/>
<path d="M413.891 9.82422L418.399 18.0594" stroke="#515151" stroke-width="1.40652"/>
<path d="M418.252 16.8058C418.684 17.5949 418.546 18.8703 417.468 20.7137C416.416 22.5127 414.583 24.646 412.08 26.9761C407.082 31.6288 399.532 36.9563 390.613 41.839C381.695 46.7216 373.139 50.2118 366.526 51.9157C363.215 52.7691 360.43 53.1639 358.348 53.0809C356.214 52.9959 355.065 52.4246 354.633 51.6355C354.201 50.8464 354.339 49.571 355.417 47.7276C356.469 45.9286 358.302 43.7953 360.805 41.4652C365.803 36.8125 373.353 31.485 382.272 26.6024C391.19 21.7197 399.746 18.2295 406.358 16.5256C409.67 15.6722 412.455 15.2774 414.537 15.3604C416.671 15.4455 417.82 16.0168 418.252 16.8058Z" fill="#171717" stroke="url(#paint3_linear_3456_3811)" stroke-width="1.40652"/>
<path d="M413.744 8.57292C414.176 9.36198 414.038 10.6374 412.96 12.4808C411.908 14.2798 410.075 16.4131 407.572 18.7432C402.574 23.3959 395.024 28.7234 386.105 33.6061C377.187 38.4887 368.631 41.9789 362.019 43.6828C358.707 44.5362 355.922 44.931 353.84 44.848C351.706 44.763 350.557 44.1916 350.125 43.4026C349.693 42.6135 349.831 41.3381 350.909 39.4947C351.961 37.6957 353.794 35.5624 356.297 33.2323C361.295 28.5796 368.845 23.2521 377.764 18.3694C386.682 13.4868 395.238 9.9966 401.851 8.29267C405.162 7.43932 407.947 7.04447 410.029 7.12748C412.163 7.21254 413.312 7.78385 413.744 8.57292Z" fill="#171717" stroke="url(#paint4_linear_3456_3811)" stroke-width="1.40652"/>
<path d="M373.205 51.0417L371.086 60.188" stroke="#515151" stroke-width="1.40652"/>
<path d="M442.947 67.1995L440.828 76.3457" stroke="#515151" stroke-width="1.40652"/>
<path d="M441.552 75.3117C441.349 76.188 440.398 77.0481 438.366 77.7057C436.383 78.3475 433.595 78.7187 430.176 78.7906C423.349 78.9341 414.169 77.882 404.264 75.5869C394.359 73.2918 385.651 70.199 379.583 67.0676C376.544 65.4993 374.203 63.9397 372.705 62.4913C371.169 61.0072 370.693 59.8161 370.896 58.9398C371.099 58.0634 372.051 57.2034 374.082 56.5457C376.065 55.9039 378.853 55.5327 382.272 55.4609C389.099 55.3174 398.28 56.3695 408.185 58.6646C418.09 60.9597 426.797 64.0524 432.866 67.1839C435.905 68.7522 438.245 70.3117 439.744 71.7602C441.279 73.2443 441.756 74.4353 441.552 75.3117Z" fill="#171717" stroke="url(#paint5_linear_3456_3811)" stroke-width="1.40652"/>
<path d="M443.67 66.1676C443.467 67.044 442.515 67.904 440.483 68.5617C438.5 69.2035 435.712 69.5747 432.293 69.6466C425.466 69.7901 416.286 68.7379 406.381 66.4428C396.476 64.1477 387.768 61.055 381.7 57.9235C378.661 56.3552 376.32 54.7957 374.822 53.3472C373.287 51.8631 372.81 50.6721 373.013 49.7957C373.216 48.9194 374.168 48.0593 376.2 47.4017C378.182 46.7599 380.97 46.3887 384.389 46.3168C391.216 46.1733 400.397 47.2254 410.302 49.5205C420.207 51.8156 428.915 54.9084 434.983 58.0399C438.022 59.6081 440.362 61.1677 441.861 62.6161C443.396 64.1003 443.873 65.2913 443.67 66.1676Z" fill="#171717" stroke="url(#paint6_linear_3456_3811)" stroke-width="1.40652"/>
<path d="M17 23V27" stroke="url(#paint7_linear_3456_3811)" stroke-width="1.4" stroke-linecap="round" stroke-linejoin="round"/>
<path d="M17 46V50" stroke="url(#paint8_linear_3456_3811)" stroke-width="1.4" stroke-linecap="round" stroke-linejoin="round"/>
<path d="M11 46H20C21.3261 46 22.5979 45.4996 23.5355 44.6088C24.4732 43.718 25 42.5098 25 41.25C25 39.9902 24.4732 38.782 23.5355 37.8912C22.5979 37.0004 21.3261 36.5 20 36.5H14C12.6739 36.5 11.4021 35.9996 10.4645 35.1088C9.52678 34.218 9 33.0098 9 31.75C9 30.4902 9.52678 29.282 10.4645 28.3912C11.4021 27.5004 12.6739 27 14 27H23" stroke="url(#paint9_linear_3456_3811)" stroke-width="1.4" stroke-linecap="round" stroke-linejoin="round"/>
<path d="M69.5 19V21.25" stroke="url(#paint10_linear_3456_3811)" stroke-width="1.4" stroke-linecap="round" stroke-linejoin="round"/>
<path d="M69.5 31.9375V34.1875" stroke="url(#paint11_linear_3456_3811)" stroke-width="1.4" stroke-linecap="round" stroke-linejoin="round"/>
<path d="M66.125 31.9375H71.1875C71.9334 31.9375 72.6488 31.656 73.1762 31.1549C73.7037 30.6539 74 29.9743 74 29.2656C74 28.557 73.7037 27.8774 73.1762 27.3763C72.6488 26.8753 71.9334 26.5938 71.1875 26.5938H67.8125C67.0666 26.5938 66.3512 26.3122 65.8238 25.8112C65.2963 25.3101 65 24.6305 65 23.9219C65 23.2132 65.2963 22.5336 65.8238 22.0326C66.3512 21.5315 67.0666 21.25 67.8125 21.25H72.875" stroke="url(#paint12_linear_3456_3811)" stroke-width="1.4" stroke-linecap="round" stroke-linejoin="round"/>
<path d="M45.5 42V47.75" stroke="url(#paint13_linear_3456_3811)" stroke-width="1.4" stroke-linecap="round" stroke-linejoin="round"/>
<path d="M45.5 75.0625V80.8125" stroke="url(#paint14_linear_3456_3811)" stroke-width="1.4" stroke-linecap="round" stroke-linejoin="round"/>
<path d="M36.875 75.0625H49.8125C51.7187 75.0625 53.5469 74.3431 54.8948 73.0626C56.2427 71.7821 57 70.0453 57 68.2344C57 66.4234 56.2427 64.6867 54.8948 63.4062C53.5469 62.1256 51.7187 61.4063 49.8125 61.4063H41.1875C39.2813 61.4063 37.4531 60.6869 36.1052 59.4063C34.7573 58.1258 34 56.3891 34 54.5781C34 52.7672 34.7573 51.0304 36.1052 49.7499C37.4531 48.4694 39.2813 47.75 41.1875 47.75H54.125" stroke="url(#paint15_linear_3456_3811)" stroke-width="1.4" stroke-linecap="round" stroke-linejoin="round"/>
<defs>
<linearGradient id="paint0_linear_3456_3811" x1="215.504" y1="48.6855" x2="219.596" y2="56.0513" gradientUnits="userSpaceOnUse">
<stop stop-color="white"/>
<stop offset="1" stop-color="white"/>
</linearGradient>
<linearGradient id="paint1_linear_3456_3811" x1="266.434" y1="49.4035" x2="314.372" y2="30.3153" gradientUnits="userSpaceOnUse">
<stop stop-color="white"/>
<stop offset="0.515625" stop-color="#8F8F8F"/>
<stop offset="1" stop-color="white"/>
</linearGradient>
<linearGradient id="paint2_linear_3456_3811" x1="117.434" y1="49.4035" x2="165.372" y2="30.3153" gradientUnits="userSpaceOnUse">
<stop stop-color="white"/>
<stop offset="0.515625" stop-color="#8F8F8F"/>
<stop offset="1" stop-color="white"/>
</linearGradient>
<linearGradient id="paint3_linear_3456_3811" x1="381.934" y1="25.9855" x2="390.951" y2="42.4558" gradientUnits="userSpaceOnUse">
<stop stop-color="#F9F9ED" stop-opacity="0.182796"/>
<stop offset="0.723958" stop-color="#F5F5E4" stop-opacity="0.282082"/>
<stop offset="1" stop-color="white"/>
</linearGradient>
<linearGradient id="paint4_linear_3456_3811" x1="377.426" y1="17.7526" x2="386.443" y2="34.2229" gradientUnits="userSpaceOnUse">
<stop stop-color="white"/>
<stop offset="0.583333" stop-color="#8F8F8F"/>
</linearGradient>
<linearGradient id="paint5_linear_3456_3811" x1="408.343" y1="57.9795" x2="404.105" y2="76.272" gradientUnits="userSpaceOnUse">
<stop stop-color="#F9F9ED" stop-opacity="0.182796"/>
<stop offset="0.723958" stop-color="#F5F5E4" stop-opacity="0.282082"/>
<stop offset="1" stop-color="white"/>
</linearGradient>
<linearGradient id="paint6_linear_3456_3811" x1="410.461" y1="48.8354" x2="406.222" y2="67.1279" gradientUnits="userSpaceOnUse">
<stop stop-color="white"/>
<stop offset="0.583333" stop-color="#8F8F8F"/>
</linearGradient>
<linearGradient id="paint7_linear_3456_3811" x1="17.0439" y1="26.6139" x2="18.0445" y2="26.6121" gradientUnits="userSpaceOnUse">
<stop stop-color="white"/>
<stop offset="0.515625" stop-color="#8F8F8F"/>
<stop offset="1" stop-color="white"/>
</linearGradient>
<linearGradient id="paint8_linear_3456_3811" x1="17.0439" y1="49.6139" x2="18.0445" y2="49.6121" gradientUnits="userSpaceOnUse">
<stop stop-color="white"/>
<stop offset="0.515625" stop-color="#8F8F8F"/>
<stop offset="1" stop-color="white"/>
</linearGradient>
<linearGradient id="paint9_linear_3456_3811" x1="9.70175" y1="44.166" x2="25.7122" y2="44.0693" gradientUnits="userSpaceOnUse">
<stop stop-color="white"/>
<stop offset="0.515625" stop-color="#8F8F8F"/>
<stop offset="1" stop-color="white"/>
</linearGradient>
<linearGradient id="paint10_linear_3456_3811" x1="69.5439" y1="21.0328" x2="70.5445" y2="21.0296" gradientUnits="userSpaceOnUse">
<stop stop-color="white"/>
<stop offset="0.515625" stop-color="#8F8F8F"/>
<stop offset="1" stop-color="white"/>
</linearGradient>
<linearGradient id="paint11_linear_3456_3811" x1="69.5439" y1="33.9703" x2="70.5445" y2="33.9671" gradientUnits="userSpaceOnUse">
<stop stop-color="white"/>
<stop offset="0.515625" stop-color="#8F8F8F"/>
<stop offset="1" stop-color="white"/>
</linearGradient>
<linearGradient id="paint12_linear_3456_3811" x1="65.3947" y1="30.9059" x2="74.4006" y2="30.8515" gradientUnits="userSpaceOnUse">
<stop stop-color="white"/>
<stop offset="0.515625" stop-color="#8F8F8F"/>
<stop offset="1" stop-color="white"/>
</linearGradient>
<linearGradient id="paint13_linear_3456_3811" x1="45.5439" y1="47.195" x2="46.5446" y2="47.1937" gradientUnits="userSpaceOnUse">
<stop stop-color="white"/>
<stop offset="0.515625" stop-color="#8F8F8F"/>
<stop offset="1" stop-color="white"/>
</linearGradient>
<linearGradient id="paint14_linear_3456_3811" x1="45.5439" y1="80.2575" x2="46.5446" y2="80.2562" gradientUnits="userSpaceOnUse">
<stop stop-color="white"/>
<stop offset="0.515625" stop-color="#8F8F8F"/>
<stop offset="1" stop-color="white"/>
</linearGradient>
<linearGradient id="paint15_linear_3456_3811" x1="35.0088" y1="72.4262" x2="58.0238" y2="72.2871" gradientUnits="userSpaceOnUse">
<stop stop-color="white"/>
<stop offset="0.515625" stop-color="#8F8F8F"/>
<stop offset="1" stop-color="white"/>
</linearGradient>
</defs>
</svg>
