<svg width="445" height="150" viewBox="0 0 445 150" fill="none" xmlns="http://www.w3.org/2000/svg">
<path d="M6.09766 76.2046L10.6062 84.4398" stroke="#515151" stroke-width="1.40652"/>
<path d="M68.8906 41.8242L73.3992 50.0594" stroke="#515151" stroke-width="1.40652"/>
<path d="M73.2515 48.8058C73.6835 49.5949 73.546 50.8703 72.468 52.7137C71.416 54.5127 69.583 56.646 67.0799 58.9761C62.0817 63.6288 54.5316 68.9563 45.6132 73.839C36.6949 78.7216 28.1389 82.2118 21.5263 83.9157C18.2147 84.7691 15.43 85.1639 13.3475 85.0809C11.2139 84.9959 10.0653 84.4246 9.63326 83.6355C9.20126 82.8464 9.33881 81.571 10.4167 79.7276C11.4688 77.9286 13.3017 75.7953 15.8049 73.4652C20.803 68.8125 28.3532 63.485 37.2715 58.6024C46.1899 53.7197 54.7459 50.2295 61.3585 48.5256C64.6701 47.6722 67.4548 47.2774 69.5372 47.3604C71.6709 47.4455 72.8195 48.0168 73.2515 48.8058Z" fill="#171717" stroke="url(#paint0_linear_3456_3810)" stroke-width="1.40652"/>
<path d="M68.7437 40.5729C69.1757 41.362 69.0382 42.6374 67.9602 44.4808C66.9082 46.2798 65.0752 48.4131 62.5721 50.7432C57.5739 55.3959 50.0238 60.7234 41.1054 65.6061C32.1871 70.4887 23.631 73.9789 17.0185 75.6828C13.7069 76.5362 10.9221 76.931 8.83974 76.848C6.70605 76.763 5.55744 76.1916 5.12545 75.4026C4.69345 74.6135 4.83099 73.3381 5.90892 71.4947C6.96094 69.6957 8.79394 67.5624 11.2971 65.2323C16.2952 60.5796 23.8454 55.2521 32.7637 50.3694C41.6821 45.4868 50.2381 41.9966 56.8506 40.2927C60.1623 39.4393 62.947 39.0445 65.0294 39.1275C67.1631 39.2125 68.3117 39.7839 68.7437 40.5729Z" fill="#171717" stroke="url(#paint1_linear_3456_3810)" stroke-width="1.40652"/>
<path d="M360.283 84.3313L360.07 93.7175" stroke="#515151" stroke-width="1.40652"/>
<path d="M431.854 85.9536L431.64 95.3398" stroke="#515151" stroke-width="1.40652"/>
<path d="M432.139 94.18C432.118 95.0793 431.361 96.1151 429.506 97.1725C427.696 98.2045 425.041 99.1355 421.709 99.9019C415.054 101.432 405.851 102.271 395.687 102.04C385.522 101.809 376.367 100.554 369.788 98.7234C366.494 97.8066 363.885 96.7562 362.123 95.6431C360.317 94.5026 359.608 93.4335 359.629 92.5342C359.649 91.6348 360.406 90.5991 362.261 89.5416C364.072 88.5096 366.726 87.5787 370.059 86.8123C376.714 85.282 385.916 84.4433 396.081 84.674C406.246 84.9047 415.4 86.1601 421.979 87.9907C425.274 88.9075 427.883 89.9579 429.645 91.071C431.45 92.2115 432.159 93.2806 432.139 94.18Z" fill="#171717" stroke="url(#paint2_linear_3456_3810)" stroke-width="1.40652"/>
<path d="M432.351 84.7962C432.331 85.6955 431.574 86.7313 429.719 87.7887C427.908 88.8207 425.254 89.7517 421.922 90.5181C415.267 92.0483 406.064 92.8871 395.899 92.6564C385.735 92.4257 376.58 91.1703 370.001 89.3396C366.707 88.4228 364.097 87.3724 362.336 86.2593C360.53 85.1188 359.821 84.0498 359.842 83.1504C359.862 82.2511 360.619 81.2153 362.474 80.1578C364.285 79.1258 366.939 78.1949 370.272 77.4285C376.926 75.8982 386.129 75.0595 396.294 75.2902C406.458 75.5209 415.613 76.7763 422.192 78.6069C425.487 79.5237 428.096 80.5741 429.858 81.6872C431.663 82.8277 432.372 83.8968 432.351 84.7962Z" fill="#171717" stroke="url(#paint3_linear_3456_3810)" stroke-width="1.40652"/>
<path d="M360.283 69.3313L360.07 78.7175" stroke="#515151" stroke-width="1.40652"/>
<path d="M431.854 70.9536L431.64 80.3398" stroke="#515151" stroke-width="1.40652"/>
<path d="M432.139 79.18C432.118 80.0793 431.361 81.1151 429.506 82.1725C427.696 83.2045 425.041 84.1355 421.709 84.9019C415.054 86.4321 405.851 87.2709 395.687 87.0402C385.522 86.8094 376.367 85.554 369.788 83.7234C366.494 82.8066 363.885 81.7562 362.123 80.6431C360.317 79.5026 359.608 78.4335 359.629 77.5342C359.649 76.6348 360.406 75.5991 362.261 74.5416C364.072 73.5096 366.726 72.5787 370.059 71.8123C376.714 70.282 385.916 69.4433 396.081 69.674C406.246 69.9047 415.4 71.1601 421.979 72.9907C425.274 73.9075 427.883 74.9579 429.645 76.071C431.45 77.2115 432.159 78.2806 432.139 79.18Z" fill="#171717" stroke="url(#paint4_linear_3456_3810)" stroke-width="1.40652"/>
<path d="M432.351 69.7962C432.331 70.6955 431.574 71.7313 429.719 72.7887C427.908 73.8207 425.254 74.7517 421.922 75.5181C415.267 77.0483 406.064 77.8871 395.899 77.6564C385.735 77.4257 376.58 76.1703 370.001 74.3396C366.707 73.4228 364.097 72.3724 362.336 71.2593C360.53 70.1188 359.821 69.0498 359.842 68.1504C359.862 67.2511 360.619 66.2153 362.474 65.1578C364.285 64.1258 366.939 63.1949 370.272 62.4285C376.926 60.8982 386.129 60.0595 396.294 60.2902C406.458 60.5209 415.613 61.7763 422.192 63.6069C425.487 64.5237 428.096 65.5741 429.858 66.6872C431.663 67.8277 432.372 68.8968 432.351 69.7962Z" fill="#171717" stroke="url(#paint5_linear_3456_3810)" stroke-width="1.40652"/>
<path d="M360.283 51.3313L360.07 60.7175" stroke="#515151" stroke-width="1.40652"/>
<path d="M431.854 52.9536L431.64 62.3398" stroke="#515151" stroke-width="1.40652"/>
<path d="M432.139 61.18C432.118 62.0793 431.361 63.1151 429.506 64.1725C427.696 65.2045 425.041 66.1355 421.709 66.9019C415.054 68.4321 405.851 69.2709 395.687 69.0402C385.522 68.8094 376.367 67.554 369.788 65.7234C366.494 64.8066 363.885 63.7562 362.123 62.6431C360.317 61.5026 359.608 60.4335 359.629 59.5342C359.649 58.6348 360.406 57.5991 362.261 56.5416C364.072 55.5096 366.726 54.5787 370.059 53.8123C376.714 52.282 385.916 51.4433 396.081 51.674C406.246 51.9047 415.4 53.1601 421.979 54.9907C425.274 55.9075 427.883 56.9579 429.645 58.071C431.45 59.2115 432.159 60.2806 432.139 61.18Z" fill="#171717" stroke="url(#paint6_linear_3456_3810)" stroke-width="1.40652"/>
<path d="M432.351 51.7962C432.331 52.6955 431.574 53.7313 429.719 54.7887C427.908 55.8207 425.254 56.7517 421.922 57.5181C415.267 59.0483 406.064 59.8871 395.899 59.6564C385.735 59.4257 376.58 58.1703 370.001 56.3396C366.707 55.4228 364.097 54.3724 362.336 53.2593C360.53 52.1188 359.821 51.0498 359.842 50.1504C359.862 49.2511 360.619 48.2153 362.474 47.1578C364.285 46.1258 366.939 45.1949 370.272 44.4285C376.926 42.8982 386.129 42.0595 396.294 42.2902C406.458 42.5209 415.613 43.7763 422.192 45.6069C425.487 46.5237 428.096 47.5741 429.858 48.6872C431.663 49.8277 432.372 50.8968 432.351 51.7962Z" fill="#171717" stroke="url(#paint7_linear_3456_3810)" stroke-width="1.40652"/>
<path d="M28.2051 83.0417L26.0858 92.188" stroke="#515151" stroke-width="1.40652"/>
<path d="M97.9473 99.1995L95.828 108.346" stroke="#515151" stroke-width="1.40652"/>
<path d="M96.5524 107.312C96.3494 108.188 95.3975 109.048 93.3659 109.706C91.3832 110.348 88.5952 110.719 85.1761 110.791C78.3491 110.934 69.1687 109.882 59.2636 107.587C49.3586 105.292 40.651 102.199 34.5828 99.0676C31.5438 97.4993 29.2032 95.9397 27.7048 94.4913C26.1694 93.0072 25.6928 91.8161 25.8959 90.9398C26.099 90.0634 27.0508 89.2034 29.0824 88.5457C31.0652 87.9039 33.8532 87.5327 37.2722 87.4609C44.0992 87.3174 53.2797 88.3695 63.1847 90.6646C73.0897 92.9597 81.7973 96.0524 87.8655 99.1839C90.9045 100.752 93.2452 102.312 94.7436 103.76C96.2789 105.244 96.7555 106.435 96.5524 107.312Z" fill="#171717" stroke="url(#paint8_linear_3456_3810)" stroke-width="1.40652"/>
<path d="M98.6696 98.1676C98.4666 99.044 97.5147 99.904 95.4831 100.562C93.5004 101.203 90.7124 101.575 87.2933 101.647C80.4663 101.79 71.2858 100.738 61.3808 98.4428C51.4758 96.1477 42.7682 93.055 36.7 89.9235C33.661 88.3552 31.3204 86.7957 29.8219 85.3472C28.2866 83.8631 27.81 82.6721 28.0131 81.7957C28.2161 80.9194 29.168 80.0593 31.1996 79.4017C33.1824 78.7599 35.9704 78.3887 39.3894 78.3168C46.2164 78.1733 55.3969 79.2254 65.3019 81.5205C75.2069 83.8156 83.9145 86.9084 89.9827 90.0399C93.0217 91.6081 95.3623 93.1677 96.8608 94.6161C98.3961 96.1003 98.8727 97.2913 98.6696 98.1676Z" fill="#171717" stroke="url(#paint9_linear_3456_3810)" stroke-width="1.40652"/>
<path d="M202.529 63V82" stroke="url(#paint10_linear_3456_3810)" stroke-width="1.4"/>
<path d="M251.471 63V82" stroke="url(#paint11_linear_3456_3810)" stroke-width="1.4"/>
<path d="M175 67V78" stroke="url(#paint12_linear_3456_3810)" stroke-width="1.4"/>
<path d="M279 67V78" stroke="url(#paint13_linear_3456_3810)" stroke-width="1.4"/>
<path opacity="0.3" d="M121 55.5L129.068 55.9988L125.466 48.7627L121 55.5ZM129.722 51.1586L129.41 50.5319L129.722 51.1586ZM124.801 54.3901L126.545 53.5218L125.921 52.2685L124.177 53.1368L124.801 54.3901ZM129.162 52.2194L130.034 51.7852L129.41 50.5319L128.538 50.966L129.162 52.2194ZM130.034 51.7852C130.334 51.6358 130.634 51.4872 130.935 51.3393L130.317 50.0831C130.014 50.232 129.712 50.3816 129.41 50.5319L130.034 51.7852ZM133.647 50.0279C134.251 49.7409 134.857 49.4568 135.463 49.1757L134.874 47.9056C134.264 48.1886 133.655 48.4745 133.046 48.7633L133.647 50.0279ZM138.204 47.9269C138.816 47.6535 139.428 47.3832 140.041 47.1158L139.481 45.8326C138.864 46.1017 138.248 46.3738 137.633 46.6488L138.204 47.9269ZM142.807 45.9316C143.425 45.6722 144.044 45.4158 144.663 45.1623L144.133 43.8666C143.51 44.1216 142.887 44.3797 142.265 44.6408L142.807 45.9316ZM147.457 44.0419C148.08 43.797 148.704 43.5551 149.329 43.3162L148.828 42.0086C148.2 42.249 147.572 42.4925 146.945 42.739L147.457 44.0419ZM152.149 42.2596C152.777 42.0293 153.406 41.8019 154.036 41.5776L153.566 40.2588C152.932 40.4846 152.299 40.7134 151.667 40.9452L152.149 42.2596ZM156.88 40.5861C157.514 40.3702 158.148 40.1573 158.783 39.9473L158.344 38.6181C157.705 38.8294 157.066 39.0437 156.429 39.261L156.88 40.5861ZM161.648 39.0224C162.286 38.821 162.926 38.6226 163.566 38.4272L163.157 37.0882C162.513 37.2848 161.87 37.4845 161.227 37.6872L161.648 39.0224ZM166.451 37.5685C167.094 37.3819 167.737 37.1984 168.382 37.0179L168.004 35.6698C167.356 35.8515 166.708 36.0362 166.061 36.2239L166.451 37.5685ZM171.287 36.2254C171.934 36.0539 172.581 35.8853 173.229 35.7198L172.882 34.3634C172.23 34.53 171.579 34.6996 170.928 34.8722L171.287 36.2254ZM176.152 34.9943C176.803 34.8376 177.454 34.684 178.106 34.5334L177.791 33.1693C177.135 33.3209 176.479 33.4755 175.824 33.6332L176.152 34.9943ZM181.044 33.8757C181.698 33.734 182.353 33.5953 183.008 33.4597L182.725 32.0888C182.065 32.2253 181.406 32.3648 180.747 32.5075L181.044 33.8757ZM185.96 32.87C186.617 32.7434 187.275 32.6198 187.934 32.4993L187.681 31.1222C187.019 31.2435 186.357 31.3678 185.695 31.4953L185.96 32.87ZM190.899 31.9775C191.559 31.8662 192.219 31.7579 192.879 31.6526L192.659 30.2701C191.994 30.376 191.33 30.485 190.666 30.5971L190.899 31.9775ZM195.857 31.1991C196.519 31.1029 197.182 31.0098 197.845 30.9198L197.656 29.5325C196.989 29.6231 196.322 29.7169 195.656 29.8137L195.857 31.1991ZM200.831 30.535C201.495 30.4541 202.16 30.3762 202.825 30.3014L202.669 28.9102C201.999 28.9855 201.33 29.0638 200.662 29.1453L200.831 30.535ZM205.819 29.9856C206.485 29.9199 207.151 29.8573 207.818 29.7979L207.694 28.4034C207.023 28.4633 206.352 28.5262 205.682 28.5923L205.819 29.9856ZM210.819 29.5509C211.486 29.5006 212.154 29.4534 212.821 29.4093L212.729 28.0123C212.057 28.0567 211.385 28.1042 210.714 28.1548L210.819 29.5509ZM215.827 29.2313C216.495 29.1964 217.164 29.1646 217.832 29.1358L217.772 27.7371C217.099 27.766 216.427 27.7981 215.754 27.8332L215.827 29.2313ZM220.841 29.027C221.51 29.0075 222.179 28.991 222.848 28.9776L222.82 27.5779C222.147 27.5914 221.474 27.608 220.801 27.6276L220.841 29.027ZM225.859 28.9381C226.528 28.9339 227.197 28.9328 227.866 28.9348L227.871 27.5348C227.197 27.5328 226.524 27.5339 225.85 27.5381L225.859 28.9381ZM230.877 28.9645C231.547 28.9757 232.215 28.99 232.884 29.0073L232.921 27.6078C232.248 27.5903 231.574 27.5759 230.901 27.5647L230.877 28.9645ZM235.894 29.1062C236.562 29.1328 237.231 29.1625 237.899 29.1952L237.968 27.7969C237.295 27.7639 236.622 27.7341 235.95 27.7073L235.894 29.1062ZM240.906 29.3633C241.573 29.4052 242.241 29.4502 242.909 29.4983L243.009 28.1019C242.337 28.0535 241.666 28.0082 240.993 27.966L240.906 29.3633ZM245.91 29.7355C246.577 29.7927 247.243 29.8531 247.909 29.9165L248.042 28.5228C247.372 28.459 246.701 28.3982 246.03 28.3406L245.91 29.7355ZM250.905 30.2226C251.57 30.2952 252.235 30.3709 252.9 30.4496L253.064 29.0593C252.396 28.9801 251.727 28.904 251.057 28.8309L250.905 30.2226ZM255.887 30.8245C256.551 30.9124 257.214 31.0033 257.877 31.0974L258.073 29.7112C257.406 29.6166 256.739 29.5251 256.071 29.4366L255.887 30.8245ZM260.854 31.5408C261.515 31.6439 262.176 31.7501 262.836 31.8593L263.065 30.4781C262.4 30.3681 261.735 30.2613 261.07 30.1575L260.854 31.5408ZM265.804 32.3712C266.462 32.4894 267.12 32.6108 267.778 32.7351L268.038 31.3595C267.376 31.2344 266.714 31.1123 266.051 30.9932L265.804 32.3712ZM270.733 33.3154C271.388 33.4487 272.043 33.5851 272.698 33.7245L272.989 32.3553C272.331 32.215 271.672 32.0777 271.012 31.9435L270.733 33.3154ZM275.638 34.3725C276.291 34.521 276.943 34.6725 277.594 34.8271L277.917 33.4649C277.262 33.3093 276.606 33.1568 275.949 33.0074L275.638 34.3725ZM280.518 35.5422C281.167 35.7057 281.815 35.8722 282.463 36.0418L282.817 34.6874C282.166 34.5168 281.513 34.3492 280.86 34.1847L280.518 35.5422ZM285.37 36.8242C286.015 37.0025 286.659 37.1838 287.302 37.3682L287.688 36.0223C287.04 35.8368 286.392 35.6543 285.743 35.4749L285.37 36.8242ZM290.192 38.2178C290.832 38.4109 291.472 38.6069 292.11 38.8059L292.527 37.4693C291.884 37.269 291.241 37.0717 290.596 36.8775L290.192 38.2178ZM294.979 39.7217C295.615 39.9295 296.25 40.1404 296.885 40.3542L297.332 39.0275C296.694 38.8123 296.054 38.6001 295.414 38.3909L294.979 39.7217ZM299.73 41.3353C300.362 41.5578 300.992 41.7833 301.622 42.0118L302.099 40.6958C301.466 40.4659 300.831 40.2389 300.196 40.015L299.73 41.3353ZM304.444 43.0583C305.069 43.2951 305.694 43.5349 306.318 43.7777L306.826 42.4731C306.198 42.2287 305.569 41.9874 304.94 41.749L304.444 43.0583ZM309.118 44.8897C309.737 45.1408 310.356 45.3947 310.973 45.6516L311.511 44.359C310.889 44.1004 310.267 43.8448 309.643 43.5922L309.118 44.8897ZM313.746 46.8277C314.36 47.0931 314.973 47.3614 315.585 47.6327L316.153 46.3528C315.537 46.0798 314.92 45.8097 314.302 45.5426L313.746 46.8277ZM318.328 48.8714C318.937 49.1511 319.544 49.4336 320.15 49.7192L320.746 48.4527C320.136 48.1653 319.525 47.8809 318.913 47.5994L318.328 48.8714ZM322.863 51.0204C323.465 51.3138 324.065 51.61 324.663 51.9092L325.289 50.6567C324.686 50.3556 324.082 50.0575 323.478 49.7623L322.863 51.0204ZM327.349 53.2739C327.943 53.5806 328.535 53.8903 329.127 54.2029L329.781 52.9651C329.186 52.6505 328.589 52.3389 327.992 52.0302L327.349 53.2739ZM331.781 55.6288C332.075 55.7894 332.368 55.9507 332.662 56.1128L333.338 54.8872C333.043 54.7242 332.748 54.5618 332.452 54.4002L331.781 55.6288Z" fill="url(#paint14_linear_3456_3810)"/>
<path opacity="0.3" d="M333 92L328.425 98.6637L324.942 91.37L333 92ZM314.406 100.881L314.708 101.512L314.406 100.881ZM121.277 91.357L122.214 91.7607L121.661 93.0466L120.723 92.643L121.277 91.357ZM125.027 92.9716L126.902 93.7789L126.349 95.0648L124.474 94.2575L125.027 92.9716ZM129.715 94.9898L131.591 95.7971L131.037 97.083L129.162 96.2757L129.715 94.9898ZM134.403 97.008L136.279 97.8153L135.725 99.1012L133.85 98.2939L134.403 97.008ZM139.092 99.0262L140.967 99.8334L140.413 101.119L138.538 100.312L139.092 99.0262ZM143.78 101.044L145.655 101.852L145.101 103.138L143.226 102.33L143.78 101.044ZM148.468 103.063L149.405 103.466L148.852 104.752L147.914 104.348L148.468 103.063ZM149.405 103.466C149.712 103.598 150.018 103.729 150.325 103.859L149.778 105.148C149.469 105.017 149.16 104.885 148.852 104.752L149.405 103.466ZM153.092 105.01C153.709 105.261 154.327 105.509 154.946 105.753L154.431 107.055C153.808 106.809 153.186 106.559 152.565 106.307L153.092 105.01ZM157.742 106.835C158.365 107.07 158.989 107.302 159.613 107.531L159.131 108.846C158.502 108.615 157.874 108.381 157.247 108.144L157.742 106.835ZM162.436 108.542C163.064 108.762 163.693 108.978 164.324 109.192L163.875 110.518C163.24 110.303 162.606 110.085 161.974 109.864L162.436 108.542ZM167.171 110.132C167.804 110.336 168.439 110.536 169.075 110.734L168.659 112.071C168.019 111.872 167.38 111.67 166.742 111.464L167.171 110.132ZM171.944 111.602C172.583 111.79 173.222 111.975 173.863 112.156L173.481 113.503C172.836 113.32 172.192 113.134 171.549 112.945L171.944 111.602ZM176.752 112.952C177.396 113.124 178.04 113.293 178.685 113.458L178.337 114.814C177.687 114.647 177.039 114.478 176.391 114.304L176.752 112.952ZM181.593 114.181C182.241 114.337 182.889 114.489 183.538 114.638L183.224 116.003C182.571 115.853 181.918 115.699 181.266 115.542L181.593 114.181ZM186.463 115.288C187.115 115.428 187.767 115.564 188.419 115.697L188.14 117.069C187.483 116.935 186.826 116.798 186.17 116.657L186.463 115.288ZM191.36 116.273C192.014 116.396 192.67 116.516 193.325 116.633L193.08 118.011C192.42 117.894 191.76 117.773 191.101 117.649L191.36 116.273ZM196.279 117.135C196.937 117.241 197.595 117.345 198.253 117.445L198.043 118.829C197.38 118.728 196.717 118.624 196.055 118.517L196.279 117.135ZM201.219 117.873C201.879 117.963 202.539 118.05 203.2 118.134L203.024 119.522C202.359 119.438 201.694 119.351 201.029 119.26L201.219 117.873ZM206.176 118.487C206.838 118.561 207.5 118.631 208.163 118.698L208.022 120.091C207.355 120.023 206.688 119.953 206.021 119.878L206.176 118.487ZM211.146 118.977C211.81 119.034 212.474 119.087 213.138 119.138L213.032 120.534C212.363 120.483 211.695 120.429 211.026 120.372L211.146 118.977ZM216.127 119.342C216.792 119.382 217.457 119.419 218.122 119.453L218.051 120.851C217.382 120.817 216.712 120.78 216.042 120.739L216.127 119.342ZM221.116 119.582C221.782 119.606 222.447 119.626 223.113 119.643L223.077 121.043C222.407 121.026 221.737 121.005 221.066 120.981L221.116 119.582ZM226.109 119.697C226.775 119.704 227.441 119.708 228.107 119.708L228.107 121.108C227.436 121.108 226.765 121.104 226.095 121.097L226.109 119.697ZM231.104 119.687C231.77 119.678 232.436 119.665 233.102 119.648L233.136 121.048C232.465 121.064 231.795 121.077 231.124 121.087L231.104 119.687ZM236.097 119.552C236.762 119.526 237.428 119.496 238.093 119.463L238.162 120.861C237.492 120.895 236.822 120.924 236.152 120.951L236.097 119.552ZM241.085 119.292C241.749 119.249 242.414 119.203 243.078 119.153L243.182 120.549C242.513 120.599 241.844 120.646 241.175 120.689L241.085 119.292ZM246.064 118.907C246.728 118.847 247.391 118.785 248.053 118.718L248.193 120.111C247.525 120.178 246.858 120.241 246.19 120.302L246.064 118.907ZM251.033 118.398C251.694 118.321 252.356 118.242 253.017 118.159L253.191 119.548C252.525 119.631 251.859 119.712 251.193 119.788L251.033 118.398ZM255.987 117.764C256.646 117.671 257.306 117.575 257.964 117.475L258.173 118.86C257.51 118.96 256.846 119.057 256.182 119.15L255.987 117.764ZM260.924 117.006C261.581 116.897 262.237 116.784 262.893 116.668L263.137 118.047C262.476 118.164 261.815 118.277 261.153 118.387L260.924 117.006ZM265.84 116.125C266.494 115.999 267.147 115.87 267.8 115.738L268.078 117.11C267.421 117.243 266.763 117.373 266.104 117.5L265.84 116.125ZM270.732 115.12C271.383 114.978 272.033 114.833 272.682 114.684L272.995 116.049C272.341 116.199 271.686 116.345 271.031 116.488L270.732 115.12ZM275.598 113.994C276.245 113.836 276.891 113.674 277.536 113.509L277.883 114.866C277.233 115.032 276.582 115.194 275.931 115.354L275.598 113.994ZM280.434 112.746C281.077 112.571 281.719 112.394 282.36 112.213L282.74 113.56C282.094 113.742 281.448 113.921 280.801 114.097L280.434 112.746ZM285.238 111.377C285.876 111.186 286.513 110.992 287.149 110.795L287.563 112.133C286.922 112.331 286.281 112.526 285.638 112.718L285.238 111.377ZM290.005 109.887C290.638 109.681 291.27 109.471 291.901 109.259L292.348 110.585C291.713 110.799 291.077 111.011 290.439 111.218L290.005 109.887ZM294.734 108.279C295.361 108.057 295.988 107.832 296.613 107.603L297.094 108.918C296.464 109.148 295.833 109.375 295.202 109.599L294.734 108.279ZM299.421 106.553C300.043 106.315 300.663 106.074 301.282 105.83L301.796 107.132C301.172 107.378 300.547 107.621 299.922 107.86L299.421 106.553ZM304.063 104.71C304.678 104.456 305.293 104.2 305.906 103.94L306.452 105.23C305.834 105.491 305.216 105.749 304.596 106.004L304.063 104.71ZM308.657 102.751C309.266 102.482 309.874 102.21 310.481 101.935L311.058 103.211C310.448 103.488 309.836 103.761 309.223 104.032L308.657 102.751ZM313.201 100.678C313.502 100.536 313.804 100.393 314.105 100.249L314.708 101.512C314.405 101.657 314.102 101.801 313.798 101.944L313.201 100.678ZM314.105 100.249L315.034 99.8049L315.638 101.068L314.708 101.512L314.105 100.249ZM317.823 98.4728L319.683 97.5848L320.286 98.8481L318.427 99.7361L317.823 98.4728ZM322.472 96.2527L324.331 95.3646L324.935 96.6279L323.075 97.516L322.472 96.2527ZM327.12 94.0325L328.98 93.1445L329.583 94.4078L327.724 95.2958L327.12 94.0325Z" fill="url(#paint15_linear_3456_3810)"/>
<path d="M229.606 72.7694C229.613 72.6821 229.682 72.6129 229.769 72.6056L240.844 71.6802C241.063 71.6618 241.063 71.3408 240.844 71.3228L229.77 70.4128C229.682 70.4056 229.613 70.3364 229.606 70.249L228.68 59.1591C228.662 58.9398 228.341 58.94 228.323 59.1593L227.413 70.2488C227.406 70.3362 227.336 70.4057 227.249 70.4128L216.159 71.3228C215.94 71.3408 215.94 71.6619 216.159 71.6802L227.249 72.6056C227.336 72.6129 227.406 72.6823 227.413 72.7696L228.323 83.8437C228.341 84.063 228.662 84.0632 228.68 83.8439L229.606 72.7694Z" fill="url(#paint16_linear_3456_3810)"/>
<path d="M12.168 143.192C10.8027 143.192 9.784 142.696 9.112 141.704C8.45067 140.712 8.12 139.283 8.12 137.416C8.12 135.549 8.45067 134.12 9.112 133.128C9.784 132.136 10.8027 131.64 12.168 131.64C12.68 131.64 13.1227 131.709 13.496 131.848C13.8693 131.987 14.1893 132.173 14.456 132.408C14.7227 132.643 14.9467 132.909 15.128 133.208C15.3093 133.496 15.4693 133.789 15.608 134.088L14.456 134.616C14.36 134.371 14.248 134.141 14.12 133.928C13.992 133.704 13.8373 133.512 13.656 133.352C13.4853 133.181 13.2773 133.048 13.032 132.952C12.7973 132.856 12.5093 132.808 12.168 132.808C11.2827 132.808 10.6213 133.144 10.184 133.816C9.75733 134.488 9.544 135.384 9.544 136.504V138.328C9.544 139.448 9.75733 140.344 10.184 141.016C10.6213 141.688 11.2827 142.024 12.168 142.024C12.5093 142.024 12.7973 141.976 13.032 141.88C13.2773 141.784 13.4853 141.656 13.656 141.496C13.8373 141.325 13.992 141.133 14.12 140.92C14.248 140.696 14.36 140.461 14.456 140.216L15.608 140.744C15.4693 141.053 15.3093 141.352 15.128 141.64C14.9467 141.928 14.7227 142.189 14.456 142.424C14.1893 142.659 13.8693 142.845 13.496 142.984C13.1227 143.123 12.68 143.192 12.168 143.192ZM22.9938 143.192C22.3111 143.192 21.7244 143.064 21.2338 142.808C20.7431 142.541 20.3378 142.163 20.0178 141.672C19.6978 141.181 19.4631 140.579 19.3138 139.864C19.1644 139.149 19.0898 138.333 19.0898 137.416C19.0898 136.509 19.1644 135.699 19.3138 134.984C19.4631 134.259 19.6978 133.651 20.0178 133.16C20.3378 132.669 20.7431 132.296 21.2338 132.04C21.7244 131.773 22.3111 131.64 22.9938 131.64C23.6764 131.64 24.2631 131.773 24.7538 132.04C25.2444 132.296 25.6498 132.669 25.9698 133.16C26.2898 133.651 26.5244 134.259 26.6738 134.984C26.8231 135.699 26.8978 136.509 26.8978 137.416C26.8978 138.333 26.8231 139.149 26.6738 139.864C26.5244 140.579 26.2898 141.181 25.9698 141.672C25.6498 142.163 25.2444 142.541 24.7538 142.808C24.2631 143.064 23.6764 143.192 22.9938 143.192ZM22.9938 142.024C23.4418 142.024 23.8204 141.939 24.1298 141.768C24.4391 141.587 24.6951 141.336 24.8978 141.016C25.1004 140.696 25.2444 140.312 25.3298 139.864C25.4258 139.405 25.4738 138.893 25.4738 138.328V136.504C25.4738 135.949 25.4258 135.443 25.3298 134.984C25.2444 134.525 25.1004 134.136 24.8978 133.816C24.6951 133.496 24.4391 133.251 24.1298 133.08C23.8204 132.899 23.4418 132.808 22.9938 132.808C22.5458 132.808 22.1671 132.899 21.8578 133.08C21.5484 133.251 21.2924 133.496 21.0898 133.816C20.8871 134.136 20.7378 134.525 20.6418 134.984C20.5564 135.443 20.5138 135.949 20.5138 136.504V138.328C20.5138 138.893 20.5564 139.405 20.6418 139.864C20.7378 140.312 20.8871 140.696 21.0898 141.016C21.2924 141.336 21.5484 141.587 21.8578 141.768C22.1671 141.939 22.5458 142.024 22.9938 142.024ZM30.7315 143V141.928H33.5155V132.904H30.7315V131.832H37.6435V132.904H34.8595V141.928H37.6435V143H30.7315ZM43.1892 133.544H43.0772V143H41.8612V131.832H43.7652L47.5732 141.192H47.6852V131.832H48.9012V143H46.9972L43.1892 133.544ZM70.6648 143L69.7208 139.816H65.8008L64.8568 143H63.4648L66.8888 131.832H68.6648L72.0888 143H70.6648ZM67.8328 133.256H67.6888L66.1208 138.648H69.4008L67.8328 133.256Z" fill="white"/>
<path d="M368.168 143.192C366.803 143.192 365.784 142.696 365.112 141.704C364.451 140.712 364.12 139.283 364.12 137.416C364.12 135.549 364.451 134.12 365.112 133.128C365.784 132.136 366.803 131.64 368.168 131.64C368.68 131.64 369.123 131.709 369.496 131.848C369.869 131.987 370.189 132.173 370.456 132.408C370.723 132.643 370.947 132.909 371.128 133.208C371.309 133.496 371.469 133.789 371.608 134.088L370.456 134.616C370.36 134.371 370.248 134.141 370.12 133.928C369.992 133.704 369.837 133.512 369.656 133.352C369.485 133.181 369.277 133.048 369.032 132.952C368.797 132.856 368.509 132.808 368.168 132.808C367.283 132.808 366.621 133.144 366.184 133.816C365.757 134.488 365.544 135.384 365.544 136.504V138.328C365.544 139.448 365.757 140.344 366.184 141.016C366.621 141.688 367.283 142.024 368.168 142.024C368.509 142.024 368.797 141.976 369.032 141.88C369.277 141.784 369.485 141.656 369.656 141.496C369.837 141.325 369.992 141.133 370.12 140.92C370.248 140.696 370.36 140.461 370.456 140.216L371.608 140.744C371.469 141.053 371.309 141.352 371.128 141.64C370.947 141.928 370.723 142.189 370.456 142.424C370.189 142.659 369.869 142.845 369.496 142.984C369.123 143.123 368.68 143.192 368.168 143.192ZM378.994 143.192C378.311 143.192 377.724 143.064 377.234 142.808C376.743 142.541 376.338 142.163 376.018 141.672C375.698 141.181 375.463 140.579 375.314 139.864C375.164 139.149 375.09 138.333 375.09 137.416C375.09 136.509 375.164 135.699 375.314 134.984C375.463 134.259 375.698 133.651 376.018 133.16C376.338 132.669 376.743 132.296 377.234 132.04C377.724 131.773 378.311 131.64 378.994 131.64C379.676 131.64 380.263 131.773 380.754 132.04C381.244 132.296 381.65 132.669 381.97 133.16C382.29 133.651 382.524 134.259 382.674 134.984C382.823 135.699 382.898 136.509 382.898 137.416C382.898 138.333 382.823 139.149 382.674 139.864C382.524 140.579 382.29 141.181 381.97 141.672C381.65 142.163 381.244 142.541 380.754 142.808C380.263 143.064 379.676 143.192 378.994 143.192ZM378.994 142.024C379.442 142.024 379.82 141.939 380.13 141.768C380.439 141.587 380.695 141.336 380.898 141.016C381.1 140.696 381.244 140.312 381.33 139.864C381.426 139.405 381.474 138.893 381.474 138.328V136.504C381.474 135.949 381.426 135.443 381.33 134.984C381.244 134.525 381.1 134.136 380.898 133.816C380.695 133.496 380.439 133.251 380.13 133.08C379.82 132.899 379.442 132.808 378.994 132.808C378.546 132.808 378.167 132.899 377.858 133.08C377.548 133.251 377.292 133.496 377.09 133.816C376.887 134.136 376.738 134.525 376.642 134.984C376.556 135.443 376.514 135.949 376.514 136.504V138.328C376.514 138.893 376.556 139.405 376.642 139.864C376.738 140.312 376.887 140.696 377.09 141.016C377.292 141.336 377.548 141.587 377.858 141.768C378.167 141.939 378.546 142.024 378.994 142.024ZM386.732 143V141.928H389.516V132.904H386.732V131.832H393.644V132.904H390.86V141.928H393.644V143H386.732ZM399.189 133.544H399.077V143H397.861V131.832H399.765L403.573 141.192H403.685V131.832H404.901V143H402.997L399.189 133.544ZM420.377 131.832H424.169C425.129 131.832 425.881 132.093 426.425 132.616C426.969 133.139 427.241 133.837 427.241 134.712C427.241 135.384 427.075 135.912 426.745 136.296C426.425 136.68 426.009 136.952 425.497 137.112V137.16C426.126 137.309 426.643 137.592 427.049 138.008C427.454 138.413 427.657 139.005 427.657 139.784C427.657 140.232 427.582 140.653 427.433 141.048C427.283 141.443 427.07 141.784 426.793 142.072C426.526 142.36 426.206 142.589 425.833 142.76C425.47 142.92 425.075 143 424.649 143H420.377V131.832ZM424.249 141.832C424.867 141.832 425.353 141.693 425.705 141.416C426.057 141.139 426.233 140.712 426.233 140.136V139.48C426.233 138.915 426.057 138.493 425.705 138.216C425.353 137.928 424.867 137.784 424.249 137.784H421.721V141.832H424.249ZM424.025 136.68C424.59 136.68 425.033 136.557 425.353 136.312C425.673 136.056 425.833 135.672 425.833 135.16V134.536C425.833 134.024 425.673 133.64 425.353 133.384C425.033 133.128 424.59 133 424.025 133H421.721V136.68H424.025Z" fill="white"/>
<defs>
<linearGradient id="paint0_linear_3456_3810" x1="36.9338" y1="57.9855" x2="45.951" y2="74.4558" gradientUnits="userSpaceOnUse">
<stop stop-color="#F9F9ED" stop-opacity="0.182796"/>
<stop offset="0.723958" stop-color="#F5F5E4" stop-opacity="0.282082"/>
<stop offset="1" stop-color="white"/>
</linearGradient>
<linearGradient id="paint1_linear_3456_3810" x1="32.426" y1="49.7526" x2="41.4432" y2="66.2229" gradientUnits="userSpaceOnUse">
<stop stop-color="white"/>
<stop offset="0.583333" stop-color="#8F8F8F"/>
</linearGradient>
<linearGradient id="paint2_linear_3456_3810" x1="396.097" y1="83.9709" x2="395.671" y2="102.743" gradientUnits="userSpaceOnUse">
<stop stop-color="#F9F9ED" stop-opacity="0.182796"/>
<stop offset="0.723958" stop-color="#F5F5E4" stop-opacity="0.282082"/>
<stop offset="1" stop-color="white"/>
</linearGradient>
<linearGradient id="paint3_linear_3456_3810" x1="396.31" y1="74.5871" x2="395.883" y2="93.3594" gradientUnits="userSpaceOnUse">
<stop stop-color="white"/>
<stop offset="0.583333" stop-color="#8F8F8F"/>
</linearGradient>
<linearGradient id="paint4_linear_3456_3810" x1="396.097" y1="68.9709" x2="395.671" y2="87.7432" gradientUnits="userSpaceOnUse">
<stop stop-color="#F9F9ED" stop-opacity="0.182796"/>
<stop offset="0.723958" stop-color="#F5F5E4" stop-opacity="0.282082"/>
<stop offset="1" stop-color="white"/>
</linearGradient>
<linearGradient id="paint5_linear_3456_3810" x1="396.31" y1="59.5871" x2="395.883" y2="78.3594" gradientUnits="userSpaceOnUse">
<stop stop-color="white"/>
<stop offset="0.583333" stop-color="#8F8F8F"/>
</linearGradient>
<linearGradient id="paint6_linear_3456_3810" x1="396.097" y1="50.9709" x2="395.671" y2="69.7432" gradientUnits="userSpaceOnUse">
<stop stop-color="#F9F9ED" stop-opacity="0.182796"/>
<stop offset="0.723958" stop-color="#F5F5E4" stop-opacity="0.282082"/>
<stop offset="1" stop-color="white"/>
</linearGradient>
<linearGradient id="paint7_linear_3456_3810" x1="396.31" y1="41.5871" x2="395.883" y2="60.3594" gradientUnits="userSpaceOnUse">
<stop stop-color="white"/>
<stop offset="0.583333" stop-color="#8F8F8F"/>
</linearGradient>
<linearGradient id="paint8_linear_3456_3810" x1="63.3435" y1="89.9795" x2="59.1049" y2="108.272" gradientUnits="userSpaceOnUse">
<stop stop-color="#F9F9ED" stop-opacity="0.182796"/>
<stop offset="0.723958" stop-color="#F5F5E4" stop-opacity="0.282082"/>
<stop offset="1" stop-color="white"/>
</linearGradient>
<linearGradient id="paint9_linear_3456_3810" x1="65.4606" y1="80.8354" x2="61.2221" y2="99.1279" gradientUnits="userSpaceOnUse">
<stop stop-color="white"/>
<stop offset="0.583333" stop-color="#8F8F8F"/>
</linearGradient>
<linearGradient id="paint10_linear_3456_3810" x1="202.573" y1="78.2143" x2="203.574" y2="78.2142" gradientUnits="userSpaceOnUse">
<stop stop-color="white"/>
<stop offset="0.515625" stop-color="#8F8F8F"/>
<stop offset="1" stop-color="white"/>
</linearGradient>
<linearGradient id="paint11_linear_3456_3810" x1="251.427" y1="78.2143" x2="250.426" y2="78.2142" gradientUnits="userSpaceOnUse">
<stop stop-color="white"/>
<stop offset="0.515625" stop-color="#8F8F8F"/>
<stop offset="1" stop-color="white"/>
</linearGradient>
<linearGradient id="paint12_linear_3456_3810" x1="175.044" y1="74.2143" x2="176.045" y2="74.2142" gradientUnits="userSpaceOnUse">
<stop stop-color="white"/>
<stop offset="0.515625" stop-color="#8F8F8F"/>
<stop offset="1" stop-color="white"/>
</linearGradient>
<linearGradient id="paint13_linear_3456_3810" x1="278.956" y1="74.2143" x2="277.955" y2="74.2142" gradientUnits="userSpaceOnUse">
<stop stop-color="white"/>
<stop offset="0.515625" stop-color="#8F8F8F"/>
<stop offset="1" stop-color="white"/>
</linearGradient>
<linearGradient id="paint14_linear_3456_3810" x1="130.298" y1="50.1429" x2="342.286" y2="44.3333" gradientUnits="userSpaceOnUse">
<stop stop-color="white"/>
<stop offset="0.515625" stop-color="#8F8F8F"/>
<stop offset="1" stop-color="white"/>
</linearGradient>
<linearGradient id="paint15_linear_3456_3810" x1="130.298" y1="97.3571" x2="342.286" y2="103.167" gradientUnits="userSpaceOnUse">
<stop stop-color="white"/>
<stop offset="0.515625" stop-color="#8F8F8F"/>
<stop offset="1" stop-color="white"/>
</linearGradient>
<linearGradient id="paint16_linear_3456_3810" x1="227.504" y1="69.6855" x2="231.596" y2="77.0513" gradientUnits="userSpaceOnUse">
<stop stop-color="white"/>
<stop offset="1" stop-color="white"/>
</linearGradient>
</defs>
</svg>
