<svg width="452" height="127" viewBox="0 0 452 127" fill="none" xmlns="http://www.w3.org/2000/svg">
<path d="M6.08977 78.6795V36.373L43.8868 44.1432V90.1304L6.08977 78.6795Z" stroke="url(#paint0_linear_3392_17929)" stroke-width="1.41"/>
<path d="M75.2213 28.0601L34.7891 20V63.6943L75.2213 75.5723" stroke="url(#paint1_linear_3392_17929)" stroke-width="1.41"/>
<path d="M5 36.552L20.3152 28.5131L35.6305 20.4742" stroke="url(#paint2_linear_3392_17929)" stroke-width="1.41"/>
<path d="M5.20703 79.2339L20.5223 71.195L35.8375 63.1561" stroke="url(#paint3_linear_3392_17929)" stroke-width="1.41"/>
<path d="M44.5898 90.2344L59.9051 82.1955L75.2203 74.1566" stroke="url(#paint4_linear_3392_17929)" stroke-width="1.41"/>
<path d="M44.5898 44.5396L59.9051 36.5006L75.2203 28.4617" stroke="url(#paint5_linear_3392_17929)" stroke-width="1.41"/>
<path d="M5 36.552L20.3152 28.5131L35.6305 20.4742" stroke="url(#paint6_linear_3392_17929)" stroke-width="1.41"/>
<path d="M5.20703 79.2339L20.5223 71.195L35.8375 63.1561" stroke="url(#paint7_linear_3392_17929)" stroke-width="1.41"/>
<path d="M44.5898 90.2344L59.9051 82.1955L75.2203 74.1566" stroke="url(#paint8_linear_3392_17929)" stroke-width="1.41"/>
<path d="M44.5898 44.5396L59.9051 36.5006L75.2203 28.4617" stroke="url(#paint9_linear_3392_17929)" stroke-width="1.41"/>
<path d="M5 36.5522L20.3152 28.5133L35.6305 20.4744" stroke="url(#paint10_linear_3392_17929)" stroke-width="1.41"/>
<path d="M5.20703 79.2344L20.5223 71.1955L35.8375 63.1566" stroke="url(#paint11_linear_3392_17929)" stroke-width="1.41"/>
<path d="M44.5898 90.2349L59.9051 82.196L75.2203 74.157" stroke="url(#paint12_linear_3392_17929)" stroke-width="1.41"/>
<path d="M44.5898 44.5403L59.9051 36.5014L75.2203 28.4625" stroke="url(#paint13_linear_3392_17929)" stroke-width="1.41"/>
<path d="M237.61 54.7157C237.615 54.6594 237.659 54.6148 237.716 54.6101L249.61 53.6162C249.751 53.6044 249.751 53.3974 249.61 53.3857L237.716 52.4084C237.66 52.4038 237.615 52.3591 237.61 52.3028L236.616 40.3922C236.604 40.2508 236.397 40.2509 236.386 40.3924L235.408 52.3026C235.404 52.359 235.359 52.4038 235.303 52.4084L223.392 53.3857C223.251 53.3974 223.251 53.6044 223.392 53.6162L235.303 54.6101C235.359 54.6148 235.404 54.6595 235.408 54.7158L236.386 66.6096C236.397 66.751 236.604 66.7512 236.616 66.6098L237.61 54.7157Z" fill="url(#paint14_linear_3392_17929)"/>
<path d="M1.408 108.832H5.2C6.16 108.832 6.912 109.093 7.456 109.616C8 110.139 8.272 110.837 8.272 111.712C8.272 112.384 8.10667 112.912 7.776 113.296C7.456 113.68 7.04 113.952 6.528 114.112V114.16C7.15733 114.309 7.67467 114.592 8.08 115.008C8.48533 115.413 8.688 116.005 8.688 116.784C8.688 117.232 8.61333 117.653 8.464 118.048C8.31467 118.443 8.10133 118.784 7.824 119.072C7.55733 119.36 7.23733 119.589 6.864 119.76C6.50133 119.92 6.10667 120 5.68 120H1.408V108.832ZM5.28 118.832C5.89867 118.832 6.384 118.693 6.736 118.416C7.088 118.139 7.264 117.712 7.264 117.136V116.48C7.264 115.915 7.088 115.493 6.736 115.216C6.384 114.928 5.89867 114.784 5.28 114.784H2.752V118.832H5.28ZM5.056 113.68C5.62133 113.68 6.064 113.557 6.384 113.312C6.704 113.056 6.864 112.672 6.864 112.16V111.536C6.864 111.024 6.704 110.64 6.384 110.384C6.064 110.128 5.62133 110 5.056 110H2.752V113.68H5.056ZM13.1138 120V108.832H14.4578V118.832H19.7538V120H13.1138ZM27.1875 120.192C26.5048 120.192 25.9182 120.064 25.4275 119.808C24.9368 119.541 24.5315 119.163 24.2115 118.672C23.8915 118.181 23.6568 117.579 23.5075 116.864C23.3582 116.149 23.2835 115.333 23.2835 114.416C23.2835 113.509 23.3582 112.699 23.5075 111.984C23.6568 111.259 23.8915 110.651 24.2115 110.16C24.5315 109.669 24.9368 109.296 25.4275 109.04C25.9182 108.773 26.5048 108.64 27.1875 108.64C27.8702 108.64 28.4568 108.773 28.9475 109.04C29.4382 109.296 29.8435 109.669 30.1635 110.16C30.4835 110.651 30.7182 111.259 30.8675 111.984C31.0168 112.699 31.0915 113.509 31.0915 114.416C31.0915 115.333 31.0168 116.149 30.8675 116.864C30.7182 117.579 30.4835 118.181 30.1635 118.672C29.8435 119.163 29.4382 119.541 28.9475 119.808C28.4568 120.064 27.8702 120.192 27.1875 120.192ZM27.1875 119.024C27.6355 119.024 28.0142 118.939 28.3235 118.768C28.6328 118.587 28.8888 118.336 29.0915 118.016C29.2942 117.696 29.4382 117.312 29.5235 116.864C29.6195 116.405 29.6675 115.893 29.6675 115.328V113.504C29.6675 112.949 29.6195 112.443 29.5235 111.984C29.4382 111.525 29.2942 111.136 29.0915 110.816C28.8888 110.496 28.6328 110.251 28.3235 110.08C28.0142 109.899 27.6355 109.808 27.1875 109.808C26.7395 109.808 26.3608 109.899 26.0515 110.08C25.7422 110.251 25.4862 110.496 25.2835 110.816C25.0808 111.136 24.9315 111.525 24.8355 111.984C24.7502 112.443 24.7075 112.949 24.7075 113.504V115.328C24.7075 115.893 24.7502 116.405 24.8355 116.864C24.9315 117.312 25.0808 117.696 25.2835 118.016C25.4862 118.336 25.7422 118.587 26.0515 118.768C26.3608 118.939 26.7395 119.024 27.1875 119.024ZM38.7492 120.192C37.3839 120.192 36.3652 119.696 35.6932 118.704C35.0319 117.712 34.7012 116.283 34.7012 114.416C34.7012 112.549 35.0319 111.12 35.6932 110.128C36.3652 109.136 37.3839 108.64 38.7492 108.64C39.2612 108.64 39.7039 108.709 40.0772 108.848C40.4506 108.987 40.7706 109.173 41.0372 109.408C41.3039 109.643 41.5279 109.909 41.7092 110.208C41.8906 110.496 42.0506 110.789 42.1892 111.088L41.0372 111.616C40.9412 111.371 40.8292 111.141 40.7012 110.928C40.5732 110.704 40.4186 110.512 40.2372 110.352C40.0666 110.181 39.8586 110.048 39.6132 109.952C39.3786 109.856 39.0906 109.808 38.7492 109.808C37.8639 109.808 37.2026 110.144 36.7652 110.816C36.3386 111.488 36.1252 112.384 36.1252 113.504V115.328C36.1252 116.448 36.3386 117.344 36.7652 118.016C37.2026 118.688 37.8639 119.024 38.7492 119.024C39.0906 119.024 39.3786 118.976 39.6132 118.88C39.8586 118.784 40.0666 118.656 40.2372 118.496C40.4186 118.325 40.5732 118.133 40.7012 117.92C40.8292 117.696 40.9412 117.461 41.0372 117.216L42.1892 117.744C42.0506 118.053 41.8906 118.352 41.7092 118.64C41.5279 118.928 41.3039 119.189 41.0372 119.424C40.7706 119.659 40.4506 119.845 40.0772 119.984C39.7039 120.123 39.2612 120.192 38.7492 120.192ZM49.079 114.528L47.479 116.416V120H46.135V108.832H47.479V114.656H47.527L48.999 112.8L52.295 108.832H53.911L49.991 113.536L54.023 120H52.455L49.079 114.528ZM61.1368 120.192C59.7714 120.192 58.7528 119.696 58.0807 118.704C57.4194 117.712 57.0888 116.283 57.0888 114.416C57.0888 112.549 57.4194 111.12 58.0807 110.128C58.7528 109.136 59.7714 108.64 61.1368 108.64C61.6488 108.64 62.0914 108.709 62.4648 108.848C62.8381 108.987 63.1581 109.173 63.4248 109.408C63.6914 109.643 63.9154 109.909 64.0968 110.208C64.2781 110.496 64.4381 110.789 64.5768 111.088L63.4248 111.616C63.3288 111.371 63.2168 111.141 63.0888 110.928C62.9608 110.704 62.8061 110.512 62.6248 110.352C62.4541 110.181 62.2461 110.048 62.0008 109.952C61.7661 109.856 61.4781 109.808 61.1368 109.808C60.2514 109.808 59.5901 110.144 59.1528 110.816C58.7261 111.488 58.5128 112.384 58.5128 113.504V115.328C58.5128 116.448 58.7261 117.344 59.1528 118.016C59.5901 118.688 60.2514 119.024 61.1368 119.024C61.4781 119.024 61.7661 118.976 62.0008 118.88C62.2461 118.784 62.4541 118.656 62.6248 118.496C62.8061 118.325 62.9608 118.133 63.0888 117.92C63.2168 117.696 63.3288 117.461 63.4248 117.216L64.5768 117.744C64.4381 118.053 64.2781 118.352 64.0968 118.64C63.9154 118.928 63.6914 119.189 63.4248 119.424C63.1581 119.659 62.8381 119.845 62.4648 119.984C62.0914 120.123 61.6488 120.192 61.1368 120.192ZM74.1385 114.928H69.7865V120H68.4425V108.832H69.7865V113.76H74.1385V108.832H75.4825V120H74.1385V114.928ZM86.0522 120L85.1082 116.816H81.1882L80.2442 120H78.8522L82.2762 108.832H84.0522L87.4762 120H86.0522ZM83.2202 110.256H83.0762L81.5082 115.648H84.7882L83.2202 110.256ZM90.894 120V118.928H93.678V109.904H90.894V108.832H97.806V109.904H95.022V118.928H97.806V120H90.894ZM103.352 110.544H103.24V120H102.024V108.832H103.928L107.736 118.192H107.848V108.832H109.064V120H107.16L103.352 110.544Z" fill="white"/>
<path d="M383.52 108.832H386.64C388.005 108.832 389.024 109.301 389.696 110.24C390.368 111.179 390.704 112.571 390.704 114.416C390.704 116.261 390.368 117.653 389.696 118.592C389.024 119.531 388.005 120 386.64 120H383.52V108.832ZM386.576 118.832C387.472 118.832 388.144 118.523 388.592 117.904C389.051 117.285 389.28 116.411 389.28 115.28V113.552C389.28 112.421 389.051 111.547 388.592 110.928C388.144 110.309 387.472 110 386.576 110H384.864V118.832H386.576ZM400.89 120L399.946 116.816H396.026L395.082 120H393.69L397.114 108.832H398.89L402.314 120H400.89ZM398.058 110.256H397.914L396.346 115.648H399.626L398.058 110.256ZM409.86 110V120H408.516V110H404.788V108.832H413.588V110H409.86ZM423.277 120L422.333 116.816H418.413L417.469 120H416.077L419.501 108.832H421.277L424.701 120H423.277ZM420.445 110.256H420.301L418.733 115.648H422.013L420.445 110.256Z" fill="white"/>
<g clip-path="url(#clip0_3392_17929)">
<path d="M370.75 81.25V53.125H389.5" stroke="url(#paint15_linear_3392_17929)" stroke-width="2" stroke-linecap="round" stroke-linejoin="round"/>
<path d="M439.5 81.25H364.5" stroke="url(#paint16_linear_3392_17929)" stroke-width="2" stroke-linecap="round" stroke-linejoin="round"/>
<path d="M389.5 81.25V34.375H411.375" stroke="url(#paint17_linear_3392_17929)" stroke-width="2" stroke-linecap="round" stroke-linejoin="round"/>
<path d="M411.375 81.25V15.625H433.25V81.25" stroke="url(#paint18_linear_3392_17929)" stroke-width="2" stroke-linecap="round" stroke-linejoin="round"/>
</g>
<path d="M211.35 75.489H225.535" stroke="white" stroke-width="0.902732"/>
<path d="M262.584 30.7678L248.398 30.7678" stroke="white" stroke-width="0.902732"/>
<path d="M206.836 66.3633H216.186" stroke="white" stroke-width="0.902732"/>
<path d="M267.098 40.8936L257.748 40.8936" stroke="white" stroke-width="0.902732"/>
<path d="M203.934 56.2705H209.414" stroke="white" stroke-width="0.902732"/>
<path d="M270 50.9863L264.519 50.9863" stroke="white" stroke-width="0.902732"/>
<rect x="64.7" y="43.2574" width="11.6" height="6.6" rx="3.3" stroke="url(#paint19_linear_3392_17929)" stroke-width="1.4"/>
<rect x="80.7" y="58.7" width="11.6" height="6.6" rx="3.3" stroke="url(#paint20_linear_3392_17929)" stroke-width="1.4"/>
<rect x="96.7" y="45.2574" width="11.6" height="6.6" rx="3.3" stroke="url(#paint21_linear_3392_17929)" stroke-width="1.4"/>
<path opacity="0.3" d="M339.5 51.5L332.5 47.4585V55.5415L339.5 51.5ZM284 52.2H285.009V50.8H284V52.2ZM288.036 52.2H290.055V50.8H288.036V52.2ZM293.082 52.2H295.1V50.8H293.082V52.2ZM298.127 52.2H300.145V50.8H298.127V52.2ZM303.173 52.2H305.191V50.8H303.173V52.2ZM308.218 52.2H310.236V50.8H308.218V52.2ZM313.264 52.2H315.282V50.8H313.264V52.2ZM318.309 52.2H320.327V50.8H318.309V52.2ZM323.355 52.2H325.373V50.8H323.355V52.2ZM328.4 52.2H330.418V50.8H328.4V52.2ZM333.445 52.2H335.464V50.8H333.445V52.2Z" fill="url(#paint22_linear_3392_17929)"/>
<path opacity="0.3" d="M190.5 51.5L183.5 47.4585V55.5415L190.5 51.5ZM135 52.2H136.009V50.8H135V52.2ZM139.036 52.2H141.055V50.8H139.036V52.2ZM144.082 52.2H146.1V50.8H144.082V52.2ZM149.127 52.2H151.145V50.8H149.127V52.2ZM154.173 52.2H156.191V50.8H154.173V52.2ZM159.218 52.2H161.236V50.8H159.218V52.2ZM164.264 52.2H166.282V50.8H164.264V52.2ZM169.309 52.2H171.327V50.8H169.309V52.2ZM174.355 52.2H176.373V50.8H174.355V52.2ZM179.4 52.2H181.418V50.8H179.4V52.2ZM184.445 52.2H186.464V50.8H184.445V52.2Z" fill="url(#paint23_linear_3392_17929)"/>
<defs>
<linearGradient id="paint0_linear_3392_17929" x1="24.9883" y1="35.5083" x2="24.9883" y2="91.0806" gradientUnits="userSpaceOnUse">
<stop stop-color="white"/>
<stop offset="0.583333" stop-color="#8F8F8F"/>
</linearGradient>
<linearGradient id="paint1_linear_3392_17929" x1="55.0052" y1="20" x2="55.0052" y2="75.5723" gradientUnits="userSpaceOnUse">
<stop stop-color="white"/>
<stop offset="0.583333" stop-color="#8F8F8F"/>
</linearGradient>
<linearGradient id="paint2_linear_3392_17929" x1="20.3152" y1="28.5131" x2="20.7798" y2="29.3982" gradientUnits="userSpaceOnUse">
<stop stop-color="white"/>
<stop offset="0.583333" stop-color="#8F8F8F"/>
</linearGradient>
<linearGradient id="paint3_linear_3392_17929" x1="20.5223" y1="71.195" x2="20.9868" y2="72.0801" gradientUnits="userSpaceOnUse">
<stop stop-color="white"/>
<stop offset="0.583333" stop-color="#8F8F8F"/>
</linearGradient>
<linearGradient id="paint4_linear_3392_17929" x1="59.9051" y1="82.1955" x2="60.3697" y2="83.0805" gradientUnits="userSpaceOnUse">
<stop stop-color="white"/>
<stop offset="0.583333" stop-color="#8F8F8F"/>
</linearGradient>
<linearGradient id="paint5_linear_3392_17929" x1="59.9051" y1="36.5006" x2="60.3697" y2="37.3857" gradientUnits="userSpaceOnUse">
<stop stop-color="white"/>
<stop offset="0.583333" stop-color="#8F8F8F"/>
</linearGradient>
<linearGradient id="paint6_linear_3392_17929" x1="20.3152" y1="28.5131" x2="20.7798" y2="29.3982" gradientUnits="userSpaceOnUse">
<stop stop-color="white"/>
<stop offset="0.583333" stop-color="#8F8F8F"/>
</linearGradient>
<linearGradient id="paint7_linear_3392_17929" x1="20.5223" y1="71.195" x2="20.9868" y2="72.0801" gradientUnits="userSpaceOnUse">
<stop stop-color="white"/>
<stop offset="0.583333" stop-color="#8F8F8F"/>
</linearGradient>
<linearGradient id="paint8_linear_3392_17929" x1="59.9051" y1="82.1955" x2="60.3697" y2="83.0805" gradientUnits="userSpaceOnUse">
<stop stop-color="white"/>
<stop offset="0.583333" stop-color="#8F8F8F"/>
</linearGradient>
<linearGradient id="paint9_linear_3392_17929" x1="59.9051" y1="36.5006" x2="60.3697" y2="37.3857" gradientUnits="userSpaceOnUse">
<stop stop-color="white"/>
<stop offset="0.583333" stop-color="#8F8F8F"/>
</linearGradient>
<linearGradient id="paint10_linear_3392_17929" x1="20.3152" y1="28.5133" x2="20.7798" y2="29.3984" gradientUnits="userSpaceOnUse">
<stop stop-color="white"/>
<stop offset="0.583333" stop-color="#8F8F8F"/>
</linearGradient>
<linearGradient id="paint11_linear_3392_17929" x1="20.5223" y1="71.1955" x2="20.9868" y2="72.0805" gradientUnits="userSpaceOnUse">
<stop stop-color="white"/>
<stop offset="0.583333" stop-color="#8F8F8F"/>
</linearGradient>
<linearGradient id="paint12_linear_3392_17929" x1="59.9051" y1="82.196" x2="60.3697" y2="83.081" gradientUnits="userSpaceOnUse">
<stop stop-color="white"/>
<stop offset="0.583333" stop-color="#8F8F8F"/>
</linearGradient>
<linearGradient id="paint13_linear_3392_17929" x1="59.9051" y1="36.5014" x2="60.3697" y2="37.3865" gradientUnits="userSpaceOnUse">
<stop stop-color="white"/>
<stop offset="0.583333" stop-color="#8F8F8F"/>
</linearGradient>
<linearGradient id="paint14_linear_3392_17929" x1="235.504" y1="51.6855" x2="239.596" y2="59.0513" gradientUnits="userSpaceOnUse">
<stop stop-color="white"/>
<stop offset="1" stop-color="white"/>
</linearGradient>
<linearGradient id="paint15_linear_3392_17929" x1="380.125" y1="53.125" x2="380.125" y2="81.25" gradientUnits="userSpaceOnUse">
<stop stop-color="white"/>
<stop offset="0.583333" stop-color="#8F8F8F"/>
</linearGradient>
<linearGradient id="paint16_linear_3392_17929" x1="402" y1="81.25" x2="402" y2="82.25" gradientUnits="userSpaceOnUse">
<stop stop-color="white"/>
<stop offset="0.583333" stop-color="#8F8F8F"/>
</linearGradient>
<linearGradient id="paint17_linear_3392_17929" x1="400.438" y1="34.375" x2="400.438" y2="81.25" gradientUnits="userSpaceOnUse">
<stop stop-color="white"/>
<stop offset="0.583333" stop-color="#8F8F8F"/>
</linearGradient>
<linearGradient id="paint18_linear_3392_17929" x1="422.312" y1="15.625" x2="422.312" y2="81.25" gradientUnits="userSpaceOnUse">
<stop stop-color="white"/>
<stop offset="0.583333" stop-color="#8F8F8F"/>
</linearGradient>
<linearGradient id="paint19_linear_3392_17929" x1="70.5" y1="42.5574" x2="70.5" y2="50.5574" gradientUnits="userSpaceOnUse">
<stop stop-color="white"/>
<stop offset="0.583333" stop-color="#8F8F8F"/>
</linearGradient>
<linearGradient id="paint20_linear_3392_17929" x1="86.5" y1="58" x2="86.5" y2="66" gradientUnits="userSpaceOnUse">
<stop stop-color="white"/>
<stop offset="0.583333" stop-color="#8F8F8F"/>
</linearGradient>
<linearGradient id="paint21_linear_3392_17929" x1="102.5" y1="44.5574" x2="102.5" y2="52.5574" gradientUnits="userSpaceOnUse">
<stop stop-color="white"/>
<stop offset="0.583333" stop-color="#8F8F8F"/>
</linearGradient>
<linearGradient id="paint22_linear_3392_17929" x1="286.434" y1="52.4035" x2="334.372" y2="33.3153" gradientUnits="userSpaceOnUse">
<stop stop-color="white"/>
<stop offset="0.515625" stop-color="#8F8F8F"/>
<stop offset="1" stop-color="white"/>
</linearGradient>
<linearGradient id="paint23_linear_3392_17929" x1="137.434" y1="52.4035" x2="185.372" y2="33.3153" gradientUnits="userSpaceOnUse">
<stop stop-color="white"/>
<stop offset="0.515625" stop-color="#8F8F8F"/>
<stop offset="1" stop-color="white"/>
</linearGradient>
<clipPath id="clip0_3392_17929">
<rect width="100" height="100" fill="white" transform="translate(352)"/>
</clipPath>
</defs>
</svg>
