<svg width="420" height="128" viewBox="0 0 420 128" fill="none" xmlns="http://www.w3.org/2000/svg">
<path d="M62.5 107C62.5 107.823 61.8328 108.745 60.2672 109.685C58.7329 110.607 56.4794 111.454 53.6508 112.172C48.0011 113.607 40.1694 114.5 31.5 114.5C22.8306 114.5 14.9989 113.607 9.34921 112.172C6.52059 111.454 4.26712 110.607 2.73282 109.685C1.16723 108.745 0.5 107.823 0.5 107C0.5 106.177 1.16723 105.255 2.73282 104.315C4.26712 103.393 6.52059 102.546 9.34921 101.828C14.9989 100.393 22.8306 99.5 31.5 99.5C40.1694 99.5 48.0011 100.393 53.6508 101.828C56.4794 102.546 58.7329 103.393 60.2672 104.315C61.8328 105.255 62.5 106.177 62.5 107Z" stroke="url(#paint0_linear_3456_3809)"/>
<mask id="path-2-inside-1_3456_3809" fill="white">
<path d="M0 99H63V107H0V99Z"/>
</mask>
<path d="M0 99H63V107H0V99Z" fill="#171717"/>
<path d="M62 99V107H64V99H62ZM1 107V99H-1V107H1Z" fill="#353535" mask="url(#path-2-inside-1_3456_3809)"/>
<path d="M62.5 99C62.5 99.8225 61.8328 100.745 60.2672 101.685C58.7329 102.607 56.4794 103.454 53.6508 104.172C48.0011 105.607 40.1694 106.5 31.5 106.5C22.8306 106.5 14.9989 105.607 9.34921 104.172C6.52059 103.454 4.26712 102.607 2.73282 101.685C1.16723 100.745 0.5 99.8225 0.5 99C0.5 98.1775 1.16723 97.2548 2.73282 96.3147C4.26712 95.3934 6.52059 94.5461 9.34921 93.8278C14.9989 92.3929 22.8306 91.5 31.5 91.5C40.1694 91.5 48.0011 92.3929 53.6508 93.8278C56.4794 94.5461 58.7329 95.3934 60.2672 96.3147C61.8328 97.2548 62.5 98.1775 62.5 99Z" fill="#171717" stroke="url(#paint1_linear_3456_3809)"/>
<path d="M32.5141 99.3043C32.5747 98.9048 32.909 98.6036 33.3127 98.5849L46 98L33.3134 97.4248C32.9094 97.4065 32.5747 97.1051 32.5142 96.7052L32.3447 95.5846C32.1992 94.6228 30.8122 94.6245 30.6691 95.5866L30.503 96.7032C30.4434 97.1041 30.1082 97.4065 29.7034 97.4249L17 98L29.7041 98.5849C30.1086 98.6035 30.4434 98.9058 30.5031 99.3064L30.6691 100.421C30.8124 101.383 32.199 101.385 32.3447 100.423L32.5141 99.3043Z" fill="white" fill-opacity="0.4"/>
<path d="M62.5 107C62.5 107.823 61.8328 108.745 60.2672 109.685C58.7329 110.607 56.4794 111.454 53.6508 112.172C48.0011 113.607 40.1694 114.5 31.5 114.5C22.8306 114.5 14.9989 113.607 9.34921 112.172C6.52059 111.454 4.26712 110.607 2.73282 109.685C1.16723 108.745 0.5 107.823 0.5 107C0.5 106.177 1.16723 105.255 2.73282 104.315C4.26712 103.393 6.52059 102.546 9.34921 101.828C14.9989 100.393 22.8306 99.5 31.5 99.5C40.1694 99.5 48.0011 100.393 53.6508 101.828C56.4794 102.546 58.7329 103.393 60.2672 104.315C61.8328 105.255 62.5 106.177 62.5 107Z" stroke="url(#paint2_linear_3456_3809)"/>
<mask id="path-7-inside-2_3456_3809" fill="white">
<path d="M0 99H63V107H0V99Z"/>
</mask>
<path d="M0 99H63V107H0V99Z" fill="#171717"/>
<path d="M62 99V107H64V99H62ZM1 107V99H-1V107H1Z" fill="#353535" mask="url(#path-7-inside-2_3456_3809)"/>
<path d="M62.5 99C62.5 99.8225 61.8328 100.745 60.2672 101.685C58.7329 102.607 56.4794 103.454 53.6508 104.172C48.0011 105.607 40.1694 106.5 31.5 106.5C22.8306 106.5 14.9989 105.607 9.34921 104.172C6.52059 103.454 4.26712 102.607 2.73282 101.685C1.16723 100.745 0.5 99.8225 0.5 99C0.5 98.1775 1.16723 97.2548 2.73282 96.3147C4.26712 95.3934 6.52059 94.5461 9.34921 93.8278C14.9989 92.3929 22.8306 91.5 31.5 91.5C40.1694 91.5 48.0011 92.3929 53.6508 93.8278C56.4794 94.5461 58.7329 95.3934 60.2672 96.3147C61.8328 97.2548 62.5 98.1775 62.5 99Z" fill="#171717" stroke="url(#paint3_linear_3456_3809)"/>
<path d="M32.5141 99.3043C32.5747 98.9048 32.909 98.6036 33.3127 98.5849L46 98L33.3134 97.4248C32.9094 97.4065 32.5747 97.1051 32.5142 96.7052L32.3447 95.5846C32.1992 94.6228 30.8122 94.6245 30.6691 95.5866L30.503 96.7032C30.4434 97.1041 30.1082 97.4065 29.7034 97.4249L17 98L29.7041 98.5849C30.1086 98.6035 30.4434 98.9058 30.5031 99.3064L30.6691 100.421C30.8124 101.383 32.199 101.385 32.3447 100.423L32.5141 99.3043Z" fill="white" fill-opacity="0.4"/>
<path d="M62.5 98C62.5 98.8225 61.8328 99.7452 60.2672 100.685C58.7329 101.607 56.4794 102.454 53.6508 103.172C48.0011 104.607 40.1694 105.5 31.5 105.5C22.8306 105.5 14.9989 104.607 9.34921 103.172C6.52059 102.454 4.26712 101.607 2.73282 100.685C1.16723 99.7452 0.5 98.8225 0.5 98C0.5 97.1775 1.16723 96.2548 2.73282 95.3147C4.26712 94.3934 6.52059 93.5461 9.34921 92.8278C14.9989 91.3929 22.8306 90.5 31.5 90.5C40.1694 90.5 48.0011 91.3929 53.6508 92.8278C56.4794 93.5461 58.7329 94.3934 60.2672 95.3147C61.8328 96.2548 62.5 97.1775 62.5 98Z" stroke="url(#paint4_linear_3456_3809)"/>
<mask id="path-12-inside-3_3456_3809" fill="white">
<path d="M0 90H63V98H0V90Z"/>
</mask>
<path d="M0 90H63V98H0V90Z" fill="#171717"/>
<path d="M62 90V98H64V90H62ZM1 98V90H-1V98H1Z" fill="#353535" mask="url(#path-12-inside-3_3456_3809)"/>
<path d="M62.5 90C62.5 90.8225 61.8328 91.7452 60.2672 92.6853C58.7329 93.6066 56.4794 94.4539 53.6508 95.1722C48.0011 96.6071 40.1694 97.5 31.5 97.5C22.8306 97.5 14.9989 96.6071 9.34921 95.1722C6.52059 94.4539 4.26712 93.6066 2.73282 92.6853C1.16723 91.7452 0.5 90.8225 0.5 90C0.5 89.1775 1.16723 88.2548 2.73282 87.3147C4.26712 86.3934 6.52059 85.5461 9.34921 84.8278C14.9989 83.3929 22.8306 82.5 31.5 82.5C40.1694 82.5 48.0011 83.3929 53.6508 84.8278C56.4794 85.5461 58.7329 86.3934 60.2672 87.3147C61.8328 88.2548 62.5 89.1775 62.5 90Z" fill="#171717" stroke="url(#paint5_linear_3456_3809)"/>
<path d="M32.5141 90.3043C32.5747 89.9048 32.909 89.6036 33.3127 89.5849L46 89L33.3134 88.4248C32.9094 88.4065 32.5747 88.1051 32.5142 87.7052L32.3447 86.5846C32.1992 85.6228 30.8122 85.6245 30.6691 86.5866L30.503 87.7032C30.4434 88.1041 30.1082 88.4065 29.7034 88.4249L17 89L29.7041 89.5849C30.1086 89.6035 30.4434 89.9058 30.5031 90.3064L30.6691 91.4213C30.8124 92.3832 32.199 92.385 32.3447 91.4234L32.5141 90.3043Z" fill="white" fill-opacity="0.4"/>
<path d="M62.5 89C62.5 89.8225 61.8328 90.7452 60.2672 91.6853C58.7329 92.6066 56.4794 93.4539 53.6508 94.1722C48.0011 95.6071 40.1694 96.5 31.5 96.5C22.8306 96.5 14.9989 95.6071 9.34921 94.1722C6.52059 93.4539 4.26712 92.6066 2.73282 91.6853C1.16723 90.7452 0.5 89.8225 0.5 89C0.5 88.1775 1.16723 87.2548 2.73282 86.3147C4.26712 85.3934 6.52059 84.5461 9.34921 83.8278C14.9989 82.3929 22.8306 81.5 31.5 81.5C40.1694 81.5 48.0011 82.3929 53.6508 83.8278C56.4794 84.5461 58.7329 85.3934 60.2672 86.3147C61.8328 87.2548 62.5 88.1775 62.5 89Z" stroke="url(#paint6_linear_3456_3809)"/>
<mask id="path-17-inside-4_3456_3809" fill="white">
<path d="M0 81H63V89H0V81Z"/>
</mask>
<path d="M0 81H63V89H0V81Z" fill="#171717"/>
<path d="M62 81V89H64V81H62ZM1 89V81H-1V89H1Z" fill="#353535" mask="url(#path-17-inside-4_3456_3809)"/>
<path d="M62.5 81C62.5 81.8225 61.8328 82.7452 60.2672 83.6853C58.7329 84.6066 56.4794 85.4539 53.6508 86.1722C48.0011 87.6071 40.1694 88.5 31.5 88.5C22.8306 88.5 14.9989 87.6071 9.34921 86.1722C6.52059 85.4539 4.26712 84.6066 2.73282 83.6853C1.16723 82.7452 0.5 81.8225 0.5 81C0.5 80.1775 1.16723 79.2548 2.73282 78.3147C4.26712 77.3934 6.52059 76.5461 9.34921 75.8278C14.9989 74.3929 22.8306 73.5 31.5 73.5C40.1694 73.5 48.0011 74.3929 53.6508 75.8278C56.4794 76.5461 58.7329 77.3934 60.2672 78.3147C61.8328 79.2548 62.5 80.1775 62.5 81Z" fill="#171717" stroke="url(#paint7_linear_3456_3809)"/>
<path d="M32.5141 81.3043C32.5747 80.9048 32.909 80.6036 33.3127 80.5849L46 80L33.3134 79.4248C32.9094 79.4065 32.5747 79.1051 32.5142 78.7052L32.3447 77.5846C32.1992 76.6228 30.8122 76.6245 30.6691 77.5866L30.503 78.7032C30.4434 79.1041 30.1082 79.4065 29.7034 79.4249L17 80L29.7041 80.5849C30.1086 80.6035 30.4434 80.9058 30.5031 81.3064L30.6691 82.4213C30.8124 83.3832 32.199 83.385 32.3447 82.4234L32.5141 81.3043Z" fill="white" fill-opacity="0.4"/>
<path d="M62.5 81C62.5 81.8225 61.8328 82.7452 60.2672 83.6853C58.7329 84.6066 56.4794 85.4539 53.6508 86.1722C48.0011 87.6071 40.1694 88.5 31.5 88.5C22.8306 88.5 14.9989 87.6071 9.34921 86.1722C6.52059 85.4539 4.26712 84.6066 2.73282 83.6853C1.16723 82.7452 0.5 81.8225 0.5 81C0.5 80.1775 1.16723 79.2548 2.73282 78.3147C4.26712 77.3934 6.52059 76.5461 9.34921 75.8278C14.9989 74.3929 22.8306 73.5 31.5 73.5C40.1694 73.5 48.0011 74.3929 53.6508 75.8278C56.4794 76.5461 58.7329 77.3934 60.2672 78.3147C61.8328 79.2548 62.5 80.1775 62.5 81Z" stroke="url(#paint8_linear_3456_3809)"/>
<mask id="path-22-inside-5_3456_3809" fill="white">
<path d="M0 73H63V81H0V73Z"/>
</mask>
<path d="M0 73H63V81H0V73Z" fill="#171717"/>
<path d="M62 73V81H64V73H62ZM1 81V73H-1V81H1Z" fill="#353535" mask="url(#path-22-inside-5_3456_3809)"/>
<path d="M62.5 73C62.5 73.8225 61.8328 74.7452 60.2672 75.6853C58.7329 76.6066 56.4794 77.4539 53.6508 78.1722C48.0011 79.6071 40.1694 80.5 31.5 80.5C22.8306 80.5 14.9989 79.6071 9.34921 78.1722C6.52059 77.4539 4.26712 76.6066 2.73282 75.6853C1.16723 74.7452 0.5 73.8225 0.5 73C0.5 72.1775 1.16723 71.2548 2.73282 70.3147C4.26712 69.3934 6.52059 68.5461 9.34921 67.8278C14.9989 66.3929 22.8306 65.5 31.5 65.5C40.1694 65.5 48.0011 66.3929 53.6508 67.8278C56.4794 68.5461 58.7329 69.3934 60.2672 70.3147C61.8328 71.2548 62.5 72.1775 62.5 73Z" fill="#171717" stroke="url(#paint9_linear_3456_3809)"/>
<path d="M32.5141 73.3043C32.5747 72.9048 32.909 72.6036 33.3127 72.5849L46 72L33.3134 71.4248C32.9094 71.4065 32.5747 71.1051 32.5142 70.7052L32.3447 69.5846C32.1992 68.6228 30.8122 68.6245 30.6691 69.5866L30.503 70.7032C30.4434 71.1041 30.1082 71.4065 29.7034 71.4249L17 72L29.7041 72.5849C30.1086 72.6035 30.4434 72.9058 30.5031 73.3064L30.6691 74.4213C30.8124 75.3832 32.199 75.385 32.3447 74.4234L32.5141 73.3043Z" fill="white" fill-opacity="0.4"/>
<path d="M62.5 73C62.5 73.8225 61.8328 74.7452 60.2672 75.6853C58.7329 76.6066 56.4794 77.4539 53.6508 78.1722C48.0011 79.6071 40.1694 80.5 31.5 80.5C22.8306 80.5 14.9989 79.6071 9.34921 78.1722C6.52059 77.4539 4.26712 76.6066 2.73282 75.6853C1.16723 74.7452 0.5 73.8225 0.5 73C0.5 72.1775 1.16723 71.2548 2.73282 70.3147C4.26712 69.3934 6.52059 68.5461 9.34921 67.8278C14.9989 66.3929 22.8306 65.5 31.5 65.5C40.1694 65.5 48.0011 66.3929 53.6508 67.8278C56.4794 68.5461 58.7329 69.3934 60.2672 70.3147C61.8328 71.2548 62.5 72.1775 62.5 73Z" stroke="url(#paint10_linear_3456_3809)"/>
<mask id="path-27-inside-6_3456_3809" fill="white">
<path d="M0 65H63V73H0V65Z"/>
</mask>
<path d="M0 65H63V73H0V65Z" fill="#171717"/>
<path d="M62 65V73H64V65H62ZM1 73V65H-1V73H1Z" fill="#353535" mask="url(#path-27-inside-6_3456_3809)"/>
<path d="M62.5 65C62.5 65.8225 61.8328 66.7452 60.2672 67.6853C58.7329 68.6066 56.4794 69.4539 53.6508 70.1722C48.0011 71.6071 40.1694 72.5 31.5 72.5C22.8306 72.5 14.9989 71.6071 9.34921 70.1722C6.52059 69.4539 4.26712 68.6066 2.73282 67.6853C1.16723 66.7452 0.5 65.8225 0.5 65C0.5 64.1775 1.16723 63.2548 2.73282 62.3147C4.26712 61.3934 6.52059 60.5461 9.34921 59.8278C14.9989 58.3929 22.8306 57.5 31.5 57.5C40.1694 57.5 48.0011 58.3929 53.6508 59.8278C56.4794 60.5461 58.7329 61.3934 60.2672 62.3147C61.8328 63.2548 62.5 64.1775 62.5 65Z" fill="#171717" stroke="url(#paint11_linear_3456_3809)"/>
<path d="M32.5141 65.3043C32.5747 64.9048 32.909 64.6036 33.3127 64.5849L46 64L33.3134 63.4248C32.9094 63.4065 32.5747 63.1051 32.5142 62.7052L32.3447 61.5846C32.1992 60.6228 30.8122 60.6245 30.6691 61.5866L30.503 62.7032C30.4434 63.1041 30.1082 63.4065 29.7034 63.4249L17 64L29.7041 64.5849C30.1086 64.6035 30.4434 64.9058 30.5031 65.3064L30.6691 66.4213C30.8124 67.3832 32.199 67.385 32.3447 66.4234L32.5141 65.3043Z" fill="white" fill-opacity="0.4"/>
<path d="M86.5 116C86.5 116.823 85.8328 117.745 84.2672 118.685C82.7329 119.607 80.4794 120.454 77.6508 121.172C72.0011 122.607 64.1694 123.5 55.5 123.5C46.8306 123.5 38.9989 122.607 33.3492 121.172C30.5206 120.454 28.2671 119.607 26.7328 118.685C25.1672 117.745 24.5 116.823 24.5 116C24.5 115.177 25.1672 114.255 26.7328 113.315C28.2671 112.393 30.5206 111.546 33.3492 110.828C38.9989 109.393 46.8306 108.5 55.5 108.5C64.1694 108.5 72.0011 109.393 77.6508 110.828C80.4794 111.546 82.7329 112.393 84.2672 113.315C85.8328 114.255 86.5 115.177 86.5 116Z" stroke="url(#paint12_linear_3456_3809)"/>
<mask id="path-32-inside-7_3456_3809" fill="white">
<path d="M24 108H87V116H24V108Z"/>
</mask>
<path d="M24 108H87V116H24V108Z" fill="#171717"/>
<path d="M86 108V116H88V108H86ZM25 116V108H23V116H25Z" fill="#353535" mask="url(#path-32-inside-7_3456_3809)"/>
<path d="M86.5 108C86.5 108.823 85.8328 109.745 84.2672 110.685C82.7329 111.607 80.4794 112.454 77.6508 113.172C72.0011 114.607 64.1694 115.5 55.5 115.5C46.8306 115.5 38.9989 114.607 33.3492 113.172C30.5206 112.454 28.2671 111.607 26.7328 110.685C25.1672 109.745 24.5 108.823 24.5 108C24.5 107.177 25.1672 106.255 26.7328 105.315C28.2671 104.393 30.5206 103.546 33.3492 102.828C38.9989 101.393 46.8306 100.5 55.5 100.5C64.1694 100.5 72.0011 101.393 77.6508 102.828C80.4794 103.546 82.7329 104.393 84.2672 105.315C85.8328 106.255 86.5 107.177 86.5 108Z" fill="#171717" stroke="url(#paint13_linear_3456_3809)"/>
<path d="M56.5141 108.304C56.5747 107.905 56.909 107.604 57.3127 107.585L70 107L57.3134 106.425C56.9094 106.407 56.5747 106.105 56.5142 105.705L56.3447 104.585C56.1992 103.623 54.8122 103.624 54.6691 104.587L54.503 105.703C54.4434 106.104 54.1082 106.407 53.7034 106.425L41 107L53.7041 107.585C54.1086 107.604 54.4434 107.906 54.5031 108.306L54.6691 109.421C54.8124 110.383 56.199 110.385 56.3447 109.423L56.5141 108.304Z" fill="white" fill-opacity="0.4"/>
<path d="M86.5 108C86.5 108.823 85.8328 109.745 84.2672 110.685C82.7329 111.607 80.4794 112.454 77.6508 113.172C72.0011 114.607 64.1694 115.5 55.5 115.5C46.8306 115.5 38.9989 114.607 33.3492 113.172C30.5206 112.454 28.2671 111.607 26.7328 110.685C25.1672 109.745 24.5 108.823 24.5 108C24.5 107.177 25.1672 106.255 26.7328 105.315C28.2671 104.393 30.5206 103.546 33.3492 102.828C38.9989 101.393 46.8306 100.5 55.5 100.5C64.1694 100.5 72.0011 101.393 77.6508 102.828C80.4794 103.546 82.7329 104.393 84.2672 105.315C85.8328 106.255 86.5 107.177 86.5 108Z" stroke="url(#paint14_linear_3456_3809)"/>
<mask id="path-37-inside-8_3456_3809" fill="white">
<path d="M24 100H87V108H24V100Z"/>
</mask>
<path d="M24 100H87V108H24V100Z" fill="#171717"/>
<path d="M86 100V108H88V100H86ZM25 108V100H23V108H25Z" fill="#353535" mask="url(#path-37-inside-8_3456_3809)"/>
<path d="M86.5 100C86.5 100.823 85.8328 101.745 84.2672 102.685C82.7329 103.607 80.4794 104.454 77.6508 105.172C72.0011 106.607 64.1694 107.5 55.5 107.5C46.8306 107.5 38.9989 106.607 33.3492 105.172C30.5206 104.454 28.2671 103.607 26.7328 102.685C25.1672 101.745 24.5 100.823 24.5 100C24.5 99.1775 25.1672 98.2548 26.7328 97.3147C28.2671 96.3934 30.5206 95.5461 33.3492 94.8278C38.9989 93.3929 46.8306 92.5 55.5 92.5C64.1694 92.5 72.0011 93.3929 77.6508 94.8278C80.4794 95.5461 82.7329 96.3934 84.2672 97.3147C85.8328 98.2548 86.5 99.1775 86.5 100Z" fill="#171717" stroke="url(#paint15_linear_3456_3809)"/>
<path d="M56.5141 100.304C56.5747 99.9048 56.909 99.6036 57.3127 99.5849L70 99L57.3134 98.4248C56.9094 98.4065 56.5747 98.1051 56.5142 97.7052L56.3447 96.5846C56.1992 95.6228 54.8122 95.6245 54.6691 96.5866L54.503 97.7032C54.4434 98.1041 54.1082 98.4065 53.7034 98.4249L41 99L53.7041 99.5849C54.1086 99.6035 54.4434 99.9058 54.5031 100.306L54.6691 101.421C54.8124 102.383 56.199 102.385 56.3447 101.423L56.5141 100.304Z" fill="white" fill-opacity="0.4"/>
<path d="M275.027 89L270.027 86.1132V91.8868L275.027 89ZM111 89.5H111.994V88.5H111V89.5ZM114.976 89.5H116.965V88.5H114.976V89.5ZM119.947 89.5H121.935V88.5H119.947V89.5ZM124.917 89.5H126.906V88.5H124.917V89.5ZM129.888 89.5H131.876V88.5H129.888V89.5ZM134.859 89.5H136.847V88.5H134.859V89.5ZM139.829 89.5H141.817V88.5H139.829V89.5ZM144.8 89.5H146.788V88.5H144.8V89.5ZM149.77 89.5H151.758V88.5H149.77V89.5ZM154.741 89.5H156.729V88.5H154.741V89.5ZM159.711 89.5H161.699V88.5H159.711V89.5ZM164.682 89.5H166.67V88.5H164.682V89.5ZM169.652 89.5H171.64V88.5H169.652V89.5ZM174.623 89.5H176.611V88.5H174.623V89.5ZM179.593 89.5H181.581V88.5H179.593V89.5ZM184.564 89.5H186.552V88.5H184.564V89.5ZM189.534 89.5H191.523V88.5H189.534V89.5ZM194.505 89.5H196.493V88.5H194.505V89.5ZM199.475 89.5H201.464V88.5H199.475V89.5ZM204.446 89.5H206.434V88.5H204.446V89.5ZM209.416 89.5H211.405V88.5H209.416V89.5ZM214.387 89.5H216.375V88.5H214.387V89.5ZM219.358 89.5H221.346V88.5H219.358V89.5ZM224.328 89.5H226.316V88.5H224.328V89.5ZM229.299 89.5H231.287V88.5H229.299V89.5ZM234.269 89.5H236.257V88.5H234.269V89.5ZM239.24 89.5H241.228V88.5H239.24V89.5ZM244.21 89.5H246.198V88.5H244.21V89.5ZM249.181 89.5H251.169V88.5H249.181V89.5ZM254.151 89.5H256.139V88.5H254.151V89.5ZM259.122 89.5H261.11V88.5H259.122V89.5ZM264.092 89.5H266.08V88.5H264.092V89.5ZM269.063 89.5H271.051V88.5H269.063V89.5ZM275.027 89L265.027 83.2265V94.7735L275.027 89ZM111 90H111.994V88H111V90ZM114.976 90H116.965V88H114.976V90ZM119.947 90H121.935V88H119.947V90ZM124.917 90H126.906V88H124.917V90ZM129.888 90H131.876V88H129.888V90ZM134.859 90H136.847V88H134.859V90ZM139.829 90H141.817V88H139.829V90ZM144.8 90H146.788V88H144.8V90ZM149.77 90H151.758V88H149.77V90ZM154.741 90H156.729V88H154.741V90ZM159.711 90H161.699V88H159.711V90ZM164.682 90H166.67V88H164.682V90ZM169.652 90H171.64V88H169.652V90ZM174.623 90H176.611V88H174.623V90ZM179.593 90H181.581V88H179.593V90ZM184.564 90H186.552V88H184.564V90ZM189.534 90H191.523V88H189.534V90ZM194.505 90H196.493V88H194.505V90ZM199.475 90H201.464V88H199.475V90ZM204.446 90H206.434V88H204.446V90ZM209.416 90H211.405V88H209.416V90ZM214.387 90H216.375V88H214.387V90ZM219.358 90H221.346V88H219.358V90ZM224.328 90H226.316V88H224.328V90ZM229.299 90H231.287V88H229.299V90ZM234.269 90H236.257V88H234.269V90ZM239.24 90H241.228V88H239.24V90ZM244.21 90H246.198V88H244.21V90ZM249.181 90H251.169V88H249.181V90ZM254.151 90H256.139V88H254.151V90ZM259.122 90H261.11V88H259.122V90ZM264.092 90H266.08V88H264.092V90ZM269.063 90H271.051V88H269.063V90Z" fill="white" fill-opacity="0.3"/>
<path d="M62.5 98C62.5 98.8225 61.8328 99.7452 60.2672 100.685C58.7329 101.607 56.4794 102.454 53.6508 103.172C48.0011 104.607 40.1694 105.5 31.5 105.5C22.8306 105.5 14.9989 104.607 9.34921 103.172C6.52059 102.454 4.26712 101.607 2.73282 100.685C1.16723 99.7452 0.5 98.8225 0.5 98C0.5 97.1775 1.16723 96.2548 2.73282 95.3147C4.26712 94.3934 6.52059 93.5461 9.34921 92.8278C14.9989 91.3929 22.8306 90.5 31.5 90.5C40.1694 90.5 48.0011 91.3929 53.6508 92.8278C56.4794 93.5461 58.7329 94.3934 60.2672 95.3147C61.8328 96.2548 62.5 97.1775 62.5 98Z" stroke="url(#paint16_linear_3456_3809)"/>
<mask id="path-43-inside-9_3456_3809" fill="white">
<path d="M0 90H63V98H0V90Z"/>
</mask>
<path d="M0 90H63V98H0V90Z" fill="#171717"/>
<path d="M62 90V98H64V90H62ZM1 98V90H-1V98H1Z" fill="#353535" mask="url(#path-43-inside-9_3456_3809)"/>
<path d="M62.5 90C62.5 90.8225 61.8328 91.7452 60.2672 92.6853C58.7329 93.6066 56.4794 94.4539 53.6508 95.1722C48.0011 96.6071 40.1694 97.5 31.5 97.5C22.8306 97.5 14.9989 96.6071 9.34921 95.1722C6.52059 94.4539 4.26712 93.6066 2.73282 92.6853C1.16723 91.7452 0.5 90.8225 0.5 90C0.5 89.1775 1.16723 88.2548 2.73282 87.3147C4.26712 86.3934 6.52059 85.5461 9.34921 84.8278C14.9989 83.3929 22.8306 82.5 31.5 82.5C40.1694 82.5 48.0011 83.3929 53.6508 84.8278C56.4794 85.5461 58.7329 86.3934 60.2672 87.3147C61.8328 88.2548 62.5 89.1775 62.5 90Z" fill="#171717" stroke="url(#paint17_linear_3456_3809)"/>
<path d="M32.5141 90.3043C32.5747 89.9048 32.909 89.6036 33.3127 89.5849L46 89L33.3134 88.4248C32.9094 88.4065 32.5747 88.1051 32.5142 87.7052L32.3447 86.5846C32.1992 85.6228 30.8122 85.6245 30.6691 86.5866L30.503 87.7032C30.4434 88.1041 30.1082 88.4065 29.7034 88.4249L17 89L29.7041 89.5849C30.1086 89.6035 30.4434 89.9058 30.5031 90.3064L30.6691 91.4213C30.8124 92.3832 32.199 92.385 32.3447 91.4234L32.5141 90.3043Z" fill="white" fill-opacity="0.4"/>
<path d="M62.5 89C62.5 89.8225 61.8328 90.7452 60.2672 91.6853C58.7329 92.6066 56.4794 93.4539 53.6508 94.1722C48.0011 95.6071 40.1694 96.5 31.5 96.5C22.8306 96.5 14.9989 95.6071 9.34921 94.1722C6.52059 93.4539 4.26712 92.6066 2.73282 91.6853C1.16723 90.7452 0.5 89.8225 0.5 89C0.5 88.1775 1.16723 87.2548 2.73282 86.3147C4.26712 85.3934 6.52059 84.5461 9.34921 83.8278C14.9989 82.3929 22.8306 81.5 31.5 81.5C40.1694 81.5 48.0011 82.3929 53.6508 83.8278C56.4794 84.5461 58.7329 85.3934 60.2672 86.3147C61.8328 87.2548 62.5 88.1775 62.5 89Z" stroke="url(#paint18_linear_3456_3809)"/>
<mask id="path-48-inside-10_3456_3809" fill="white">
<path d="M0 81H63V89H0V81Z"/>
</mask>
<path d="M0 81H63V89H0V81Z" fill="#171717"/>
<path d="M62 81V89H64V81H62ZM1 89V81H-1V89H1Z" fill="#353535" mask="url(#path-48-inside-10_3456_3809)"/>
<path d="M62.5 81C62.5 81.8225 61.8328 82.7452 60.2672 83.6853C58.7329 84.6066 56.4794 85.4539 53.6508 86.1722C48.0011 87.6071 40.1694 88.5 31.5 88.5C22.8306 88.5 14.9989 87.6071 9.34921 86.1722C6.52059 85.4539 4.26712 84.6066 2.73282 83.6853C1.16723 82.7452 0.5 81.8225 0.5 81C0.5 80.1775 1.16723 79.2548 2.73282 78.3147C4.26712 77.3934 6.52059 76.5461 9.34921 75.8278C14.9989 74.3929 22.8306 73.5 31.5 73.5C40.1694 73.5 48.0011 74.3929 53.6508 75.8278C56.4794 76.5461 58.7329 77.3934 60.2672 78.3147C61.8328 79.2548 62.5 80.1775 62.5 81Z" fill="#171717" stroke="url(#paint19_linear_3456_3809)"/>
<path d="M32.5141 81.3043C32.5747 80.9048 32.909 80.6036 33.3127 80.5849L46 80L33.3134 79.4248C32.9094 79.4065 32.5747 79.1051 32.5142 78.7052L32.3447 77.5846C32.1992 76.6228 30.8122 76.6245 30.6691 77.5866L30.503 78.7032C30.4434 79.1041 30.1082 79.4065 29.7034 79.4249L17 80L29.7041 80.5849C30.1086 80.6035 30.4434 80.9058 30.5031 81.3064L30.6691 82.4213C30.8124 83.3832 32.199 83.385 32.3447 82.4234L32.5141 81.3043Z" fill="white" fill-opacity="0.4"/>
<path d="M62.5 73C62.5 73.8225 61.8328 74.7452 60.2672 75.6853C58.7329 76.6066 56.4794 77.4539 53.6508 78.1722C48.0011 79.6071 40.1694 80.5 31.5 80.5C22.8306 80.5 14.9989 79.6071 9.34921 78.1722C6.52059 77.4539 4.26712 76.6066 2.73282 75.6853C1.16723 74.7452 0.5 73.8225 0.5 73C0.5 72.1775 1.16723 71.2548 2.73282 70.3147C4.26712 69.3934 6.52059 68.5461 9.34921 67.8278C14.9989 66.3929 22.8306 65.5 31.5 65.5C40.1694 65.5 48.0011 66.3929 53.6508 67.8278C56.4794 68.5461 58.7329 69.3934 60.2672 70.3147C61.8328 71.2548 62.5 72.1775 62.5 73Z" stroke="url(#paint20_linear_3456_3809)"/>
<mask id="path-53-inside-11_3456_3809" fill="white">
<path d="M0 65H63V73H0V65Z"/>
</mask>
<path d="M0 65H63V73H0V65Z" fill="#171717"/>
<path d="M62 65V73H64V65H62ZM1 73V65H-1V73H1Z" fill="#353535" mask="url(#path-53-inside-11_3456_3809)"/>
<path d="M62.5 65C62.5 65.8225 61.8328 66.7452 60.2672 67.6853C58.7329 68.6066 56.4794 69.4539 53.6508 70.1722C48.0011 71.6071 40.1694 72.5 31.5 72.5C22.8306 72.5 14.9989 71.6071 9.34921 70.1722C6.52059 69.4539 4.26712 68.6066 2.73282 67.6853C1.16723 66.7452 0.5 65.8225 0.5 65C0.5 64.1775 1.16723 63.2548 2.73282 62.3147C4.26712 61.3934 6.52059 60.5461 9.34921 59.8278C14.9989 58.3929 22.8306 57.5 31.5 57.5C40.1694 57.5 48.0011 58.3929 53.6508 59.8278C56.4794 60.5461 58.7329 61.3934 60.2672 62.3147C61.8328 63.2548 62.5 64.1775 62.5 65Z" fill="#171717" stroke="url(#paint21_linear_3456_3809)"/>
<path d="M32.5141 65.3043C32.5747 64.9048 32.909 64.6036 33.3127 64.5849L46 64L33.3134 63.4248C32.9094 63.4065 32.5747 63.1051 32.5142 62.7052L32.3447 61.5846C32.1992 60.6228 30.8122 60.6245 30.6691 61.5866L30.503 62.7032C30.4434 63.1041 30.1082 63.4065 29.7034 63.4249L17 64L29.7041 64.5849C30.1086 64.6035 30.4434 64.9058 30.5031 65.3064L30.6691 66.4213C30.8124 67.3832 32.199 67.385 32.3447 66.4234L32.5141 65.3043Z" fill="white" fill-opacity="0.4"/>
<path d="M86.5 116C86.5 116.823 85.8328 117.745 84.2672 118.685C82.7329 119.607 80.4794 120.454 77.6508 121.172C72.0011 122.607 64.1694 123.5 55.5 123.5C46.8306 123.5 38.9989 122.607 33.3492 121.172C30.5206 120.454 28.2671 119.607 26.7328 118.685C25.1672 117.745 24.5 116.823 24.5 116C24.5 115.177 25.1672 114.255 26.7328 113.315C28.2671 112.393 30.5206 111.546 33.3492 110.828C38.9989 109.393 46.8306 108.5 55.5 108.5C64.1694 108.5 72.0011 109.393 77.6508 110.828C80.4794 111.546 82.7329 112.393 84.2672 113.315C85.8328 114.255 86.5 115.177 86.5 116Z" stroke="url(#paint22_linear_3456_3809)"/>
<mask id="path-58-inside-12_3456_3809" fill="white">
<path d="M24 108H87V116H24V108Z"/>
</mask>
<path d="M24 108H87V116H24V108Z" fill="#171717"/>
<path d="M86 108V116H88V108H86ZM25 116V108H23V116H25Z" fill="#353535" mask="url(#path-58-inside-12_3456_3809)"/>
<path d="M86.5 108C86.5 108.823 85.8328 109.745 84.2672 110.685C82.7329 111.607 80.4794 112.454 77.6508 113.172C72.0011 114.607 64.1694 115.5 55.5 115.5C46.8306 115.5 38.9989 114.607 33.3492 113.172C30.5206 112.454 28.2671 111.607 26.7328 110.685C25.1672 109.745 24.5 108.823 24.5 108C24.5 107.177 25.1672 106.255 26.7328 105.315C28.2671 104.393 30.5206 103.546 33.3492 102.828C38.9989 101.393 46.8306 100.5 55.5 100.5C64.1694 100.5 72.0011 101.393 77.6508 102.828C80.4794 103.546 82.7329 104.393 84.2672 105.315C85.8328 106.255 86.5 107.177 86.5 108Z" fill="#171717" stroke="url(#paint23_linear_3456_3809)"/>
<path d="M56.5141 108.304C56.5747 107.905 56.909 107.604 57.3127 107.585L70 107L57.3134 106.425C56.9094 106.407 56.5747 106.105 56.5142 105.705L56.3447 104.585C56.1992 103.623 54.8122 103.624 54.6691 104.587L54.503 105.703C54.4434 106.104 54.1082 106.407 53.7034 106.425L41 107L53.7041 107.585C54.1086 107.604 54.4434 107.906 54.5031 108.306L54.6691 109.421C54.8124 110.383 56.199 110.385 56.3447 109.423L56.5141 108.304Z" fill="white" fill-opacity="0.4"/>
<path d="M364.5 111C364.5 111.823 363.833 112.745 362.267 113.685C360.733 114.607 358.479 115.454 355.651 116.172C350.001 117.607 342.169 118.5 333.5 118.5C324.831 118.5 316.999 117.607 311.349 116.172C308.521 115.454 306.267 114.607 304.733 113.685C303.167 112.745 302.5 111.823 302.5 111C302.5 110.177 303.167 109.255 304.733 108.315C306.267 107.393 308.521 106.546 311.349 105.828C316.999 104.393 324.831 103.5 333.5 103.5C342.169 103.5 350.001 104.393 355.651 105.828C358.479 106.546 360.733 107.393 362.267 108.315C363.833 109.255 364.5 110.177 364.5 111Z" stroke="url(#paint24_linear_3456_3809)"/>
<mask id="path-63-inside-13_3456_3809" fill="white">
<path d="M302 103H365V111H302V103Z"/>
</mask>
<path d="M302 103H365V111H302V103Z" fill="#171717"/>
<path d="M364 103V111H366V103H364ZM303 111V103H301V111H303Z" fill="white" mask="url(#path-63-inside-13_3456_3809)"/>
<path d="M364.5 103C364.5 103.823 363.833 104.745 362.267 105.685C360.733 106.607 358.479 107.454 355.651 108.172C350.001 109.607 342.169 110.5 333.5 110.5C324.831 110.5 316.999 109.607 311.349 108.172C308.521 107.454 306.267 106.607 304.733 105.685C303.167 104.745 302.5 103.823 302.5 103C302.5 102.177 303.167 101.255 304.733 100.315C306.267 99.3934 308.521 98.5461 311.349 97.8278C316.999 96.3929 324.831 95.5 333.5 95.5C342.169 95.5 350.001 96.3929 355.651 97.8278C358.479 98.5461 360.733 99.3934 362.267 100.315C363.833 101.255 364.5 102.177 364.5 103Z" fill="#171717" stroke="url(#paint25_linear_3456_3809)"/>
<path d="M334.514 103.304C334.575 102.905 334.909 102.604 335.313 102.585L348 102L335.313 101.425C334.909 101.407 334.575 101.105 334.514 100.705L334.345 99.5846C334.199 98.6228 332.812 98.6245 332.669 99.5866L332.503 100.703C332.443 101.104 332.108 101.407 331.703 101.425L319 102L331.704 102.585C332.109 102.604 332.443 102.906 332.503 103.306L332.669 104.421C332.812 105.383 334.199 105.385 334.345 104.423L334.514 103.304Z" fill="white" fill-opacity="0.4"/>
<path d="M364.5 102C364.5 102.823 363.833 103.745 362.267 104.685C360.733 105.607 358.479 106.454 355.651 107.172C350.001 108.607 342.169 109.5 333.5 109.5C324.831 109.5 316.999 108.607 311.349 107.172C308.521 106.454 306.267 105.607 304.733 104.685C303.167 103.745 302.5 102.823 302.5 102C302.5 101.177 303.167 100.255 304.733 99.3147C306.267 98.3934 308.521 97.5461 311.349 96.8278C316.999 95.3929 324.831 94.5 333.5 94.5C342.169 94.5 350.001 95.3929 355.651 96.8278C358.479 97.5461 360.733 98.3934 362.267 99.3147C363.833 100.255 364.5 101.177 364.5 102Z" stroke="url(#paint26_linear_3456_3809)"/>
<mask id="path-68-inside-14_3456_3809" fill="white">
<path d="M302 94H365V102H302V94Z"/>
</mask>
<path d="M302 94H365V102H302V94Z" fill="#171717"/>
<path d="M364 94V102H366V94H364ZM303 102V94H301V102H303Z" fill="white" mask="url(#path-68-inside-14_3456_3809)"/>
<path d="M364.5 94C364.5 94.8225 363.833 95.7452 362.267 96.6853C360.733 97.6066 358.479 98.4539 355.651 99.1722C350.001 100.607 342.169 101.5 333.5 101.5C324.831 101.5 316.999 100.607 311.349 99.1722C308.521 98.4539 306.267 97.6066 304.733 96.6853C303.167 95.7452 302.5 94.8225 302.5 94C302.5 93.1775 303.167 92.2548 304.733 91.3147C306.267 90.3934 308.521 89.5461 311.349 88.8278C316.999 87.3929 324.831 86.5 333.5 86.5C342.169 86.5 350.001 87.3929 355.651 88.8278C358.479 89.5461 360.733 90.3934 362.267 91.3147C363.833 92.2548 364.5 93.1775 364.5 94Z" fill="#171717" stroke="url(#paint27_linear_3456_3809)"/>
<path d="M334.514 94.3043C334.575 93.9048 334.909 93.6036 335.313 93.5849L348 93L335.313 92.4248C334.909 92.4065 334.575 92.1051 334.514 91.7052L334.345 90.5846C334.199 89.6228 332.812 89.6245 332.669 90.5866L332.503 91.7032C332.443 92.1041 332.108 92.4065 331.703 92.4249L319 93L331.704 93.5849C332.109 93.6035 332.443 93.9058 332.503 94.3064L332.669 95.4213C332.812 96.3832 334.199 96.385 334.345 95.4234L334.514 94.3043Z" fill="white" fill-opacity="0.4"/>
<path d="M364.5 93C364.5 93.8225 363.833 94.7452 362.267 95.6853C360.733 96.6066 358.479 97.4539 355.651 98.1722C350.001 99.6071 342.169 100.5 333.5 100.5C324.831 100.5 316.999 99.6071 311.349 98.1722C308.521 97.4539 306.267 96.6066 304.733 95.6853C303.167 94.7452 302.5 93.8225 302.5 93C302.5 92.1775 303.167 91.2548 304.733 90.3147C306.267 89.3934 308.521 88.5461 311.349 87.8278C316.999 86.3929 324.831 85.5 333.5 85.5C342.169 85.5 350.001 86.3929 355.651 87.8278C358.479 88.5461 360.733 89.3934 362.267 90.3147C363.833 91.2548 364.5 92.1775 364.5 93Z" stroke="url(#paint28_linear_3456_3809)"/>
<mask id="path-73-inside-15_3456_3809" fill="white">
<path d="M302 85H365V93H302V85Z"/>
</mask>
<path d="M302 85H365V93H302V85Z" fill="#171717"/>
<path d="M364 85V93H366V85H364ZM303 93V85H301V93H303Z" fill="white" mask="url(#path-73-inside-15_3456_3809)"/>
<path d="M364.5 85C364.5 85.8225 363.833 86.7452 362.267 87.6853C360.733 88.6066 358.479 89.4539 355.651 90.1722C350.001 91.6071 342.169 92.5 333.5 92.5C324.831 92.5 316.999 91.6071 311.349 90.1722C308.521 89.4539 306.267 88.6066 304.733 87.6853C303.167 86.7452 302.5 85.8225 302.5 85C302.5 84.1775 303.167 83.2548 304.733 82.3147C306.267 81.3934 308.521 80.5461 311.349 79.8278C316.999 78.3929 324.831 77.5 333.5 77.5C342.169 77.5 350.001 78.3929 355.651 79.8278C358.479 80.5461 360.733 81.3934 362.267 82.3147C363.833 83.2548 364.5 84.1775 364.5 85Z" fill="#171717" stroke="url(#paint29_linear_3456_3809)"/>
<path d="M334.514 85.3043C334.575 84.9048 334.909 84.6036 335.313 84.5849L348 84L335.313 83.4248C334.909 83.4065 334.575 83.1051 334.514 82.7052L334.345 81.5846C334.199 80.6228 332.812 80.6245 332.669 81.5866L332.503 82.7032C332.443 83.1041 332.108 83.4065 331.703 83.4249L319 84L331.704 84.5849C332.109 84.6035 332.443 84.9058 332.503 85.3064L332.669 86.4213C332.812 87.3832 334.199 87.385 334.345 86.4234L334.514 85.3043Z" fill="white" fill-opacity="0.4"/>
<path d="M364.5 85C364.5 85.8225 363.833 86.7452 362.267 87.6853C360.733 88.6066 358.479 89.4539 355.651 90.1722C350.001 91.6071 342.169 92.5 333.5 92.5C324.831 92.5 316.999 91.6071 311.349 90.1722C308.521 89.4539 306.267 88.6066 304.733 87.6853C303.167 86.7452 302.5 85.8225 302.5 85C302.5 84.1775 303.167 83.2548 304.733 82.3147C306.267 81.3934 308.521 80.5461 311.349 79.8278C316.999 78.3929 324.831 77.5 333.5 77.5C342.169 77.5 350.001 78.3929 355.651 79.8278C358.479 80.5461 360.733 81.3934 362.267 82.3147C363.833 83.2548 364.5 84.1775 364.5 85Z" stroke="url(#paint30_linear_3456_3809)"/>
<mask id="path-78-inside-16_3456_3809" fill="white">
<path d="M302 77H365V85H302V77Z"/>
</mask>
<path d="M302 77H365V85H302V77Z" fill="#171717"/>
<path d="M364 77V85H366V77H364ZM303 85V77H301V85H303Z" fill="white" mask="url(#path-78-inside-16_3456_3809)"/>
<path d="M364.5 77C364.5 77.8225 363.833 78.7452 362.267 79.6853C360.733 80.6066 358.479 81.4539 355.651 82.1722C350.001 83.6071 342.169 84.5 333.5 84.5C324.831 84.5 316.999 83.6071 311.349 82.1722C308.521 81.4539 306.267 80.6066 304.733 79.6853C303.167 78.7452 302.5 77.8225 302.5 77C302.5 76.1775 303.167 75.2548 304.733 74.3147C306.267 73.3934 308.521 72.5461 311.349 71.8278C316.999 70.3929 324.831 69.5 333.5 69.5C342.169 69.5 350.001 70.3929 355.651 71.8278C358.479 72.5461 360.733 73.3934 362.267 74.3147C363.833 75.2548 364.5 76.1775 364.5 77Z" fill="#171717" stroke="url(#paint31_linear_3456_3809)"/>
<path d="M334.514 77.3043C334.575 76.9048 334.909 76.6036 335.313 76.5849L348 76L335.313 75.4248C334.909 75.4065 334.575 75.1051 334.514 74.7052L334.345 73.5846C334.199 72.6228 332.812 72.6245 332.669 73.5866L332.503 74.7032C332.443 75.1041 332.108 75.4065 331.703 75.4249L319 76L331.704 76.5849C332.109 76.6035 332.443 76.9058 332.503 77.3064L332.669 78.4213C332.812 79.3832 334.199 79.385 334.345 78.4234L334.514 77.3043Z" fill="white" fill-opacity="0.4"/>
<path d="M388.5 120C388.5 120.823 387.833 121.745 386.267 122.685C384.733 123.607 382.479 124.454 379.651 125.172C374.001 126.607 366.169 127.5 357.5 127.5C348.831 127.5 340.999 126.607 335.349 125.172C332.521 124.454 330.267 123.607 328.733 122.685C327.167 121.745 326.5 120.823 326.5 120C326.5 119.177 327.167 118.255 328.733 117.315C330.267 116.393 332.521 115.546 335.349 114.828C340.999 113.393 348.831 112.5 357.5 112.5C366.169 112.5 374.001 113.393 379.651 114.828C382.479 115.546 384.733 116.393 386.267 117.315C387.833 118.255 388.5 119.177 388.5 120Z" stroke="url(#paint32_linear_3456_3809)"/>
<mask id="path-83-inside-17_3456_3809" fill="white">
<path d="M326 112H389V120H326V112Z"/>
</mask>
<path d="M326 112H389V120H326V112Z" fill="#171717"/>
<path d="M388 112V120H390V112H388ZM327 120V112H325V120H327Z" fill="white" mask="url(#path-83-inside-17_3456_3809)"/>
<path d="M388.5 112C388.5 112.823 387.833 113.745 386.267 114.685C384.733 115.607 382.479 116.454 379.651 117.172C374.001 118.607 366.169 119.5 357.5 119.5C348.831 119.5 340.999 118.607 335.349 117.172C332.521 116.454 330.267 115.607 328.733 114.685C327.167 113.745 326.5 112.823 326.5 112C326.5 111.177 327.167 110.255 328.733 109.315C330.267 108.393 332.521 107.546 335.349 106.828C340.999 105.393 348.831 104.5 357.5 104.5C366.169 104.5 374.001 105.393 379.651 106.828C382.479 107.546 384.733 108.393 386.267 109.315C387.833 110.255 388.5 111.177 388.5 112Z" fill="#171717" stroke="url(#paint33_linear_3456_3809)"/>
<path d="M358.514 112.304C358.575 111.905 358.909 111.604 359.313 111.585L372 111L359.313 110.425C358.909 110.407 358.575 110.105 358.514 109.705L358.345 108.585C358.199 107.623 356.812 107.624 356.669 108.587L356.503 109.703C356.443 110.104 356.108 110.407 355.703 110.425L343 111L355.704 111.585C356.109 111.604 356.443 111.906 356.503 112.306L356.669 113.421C356.812 114.383 358.199 114.385 358.345 113.423L358.514 112.304Z" fill="white" fill-opacity="0.4"/>
<path d="M388.5 111C388.5 111.823 387.833 112.745 386.267 113.685C384.733 114.607 382.479 115.454 379.651 116.172C374.001 117.607 366.169 118.5 357.5 118.5C348.831 118.5 340.999 117.607 335.349 116.172C332.521 115.454 330.267 114.607 328.733 113.685C327.167 112.745 326.5 111.823 326.5 111C326.5 110.177 327.167 109.255 328.733 108.315C330.267 107.393 332.521 106.546 335.349 105.828C340.999 104.393 348.831 103.5 357.5 103.5C366.169 103.5 374.001 104.393 379.651 105.828C382.479 106.546 384.733 107.393 386.267 108.315C387.833 109.255 388.5 110.177 388.5 111Z" stroke="url(#paint34_linear_3456_3809)"/>
<mask id="path-88-inside-18_3456_3809" fill="white">
<path d="M326 103H389V111H326V103Z"/>
</mask>
<path d="M326 103H389V111H326V103Z" fill="#171717"/>
<path d="M388 103V111H390V103H388ZM327 111V103H325V111H327Z" fill="white" mask="url(#path-88-inside-18_3456_3809)"/>
<path d="M388.5 103C388.5 103.823 387.833 104.745 386.267 105.685C384.733 106.607 382.479 107.454 379.651 108.172C374.001 109.607 366.169 110.5 357.5 110.5C348.831 110.5 340.999 109.607 335.349 108.172C332.521 107.454 330.267 106.607 328.733 105.685C327.167 104.745 326.5 103.823 326.5 103C326.5 102.177 327.167 101.255 328.733 100.315C330.267 99.3934 332.521 98.5461 335.349 97.8278C340.999 96.3929 348.831 95.5 357.5 95.5C366.169 95.5 374.001 96.3929 379.651 97.8278C382.479 98.5461 384.733 99.3934 386.267 100.315C387.833 101.255 388.5 102.177 388.5 103Z" fill="#171717" stroke="url(#paint35_linear_3456_3809)"/>
<path d="M358.514 103.304C358.575 102.905 358.909 102.604 359.313 102.585L372 102L359.313 101.425C358.909 101.407 358.575 101.105 358.514 100.705L358.345 99.5846C358.199 98.6228 356.812 98.6245 356.669 99.5866L356.503 100.703C356.443 101.104 356.108 101.407 355.703 101.425L343 102L355.704 102.585C356.109 102.604 356.443 102.906 356.503 103.306L356.669 104.421C356.812 105.383 358.199 105.385 358.345 104.423L358.514 103.304Z" fill="white" fill-opacity="0.4"/>
<path d="M388.5 102C388.5 102.823 387.833 103.745 386.267 104.685C384.733 105.607 382.479 106.454 379.651 107.172C374.001 108.607 366.169 109.5 357.5 109.5C348.831 109.5 340.999 108.607 335.349 107.172C332.521 106.454 330.267 105.607 328.733 104.685C327.167 103.745 326.5 102.823 326.5 102C326.5 101.177 327.167 100.255 328.733 99.3147C330.267 98.3934 332.521 97.5461 335.349 96.8278C340.999 95.3929 348.831 94.5 357.5 94.5C366.169 94.5 374.001 95.3929 379.651 96.8278C382.479 97.5461 384.733 98.3934 386.267 99.3147C387.833 100.255 388.5 101.177 388.5 102Z" stroke="url(#paint36_linear_3456_3809)"/>
<mask id="path-93-inside-19_3456_3809" fill="white">
<path d="M326 94H389V102H326V94Z"/>
</mask>
<path d="M326 94H389V102H326V94Z" fill="#171717"/>
<path d="M388 94V102H390V94H388ZM327 102V94H325V102H327Z" fill="white" mask="url(#path-93-inside-19_3456_3809)"/>
<path d="M388.5 94C388.5 94.8225 387.833 95.7452 386.267 96.6853C384.733 97.6066 382.479 98.4539 379.651 99.1722C374.001 100.607 366.169 101.5 357.5 101.5C348.831 101.5 340.999 100.607 335.349 99.1722C332.521 98.4539 330.267 97.6066 328.733 96.6853C327.167 95.7452 326.5 94.8225 326.5 94C326.5 93.1775 327.167 92.2548 328.733 91.3147C330.267 90.3934 332.521 89.5461 335.349 88.8278C340.999 87.3929 348.831 86.5 357.5 86.5C366.169 86.5 374.001 87.3929 379.651 88.8278C382.479 89.5461 384.733 90.3934 386.267 91.3147C387.833 92.2548 388.5 93.1775 388.5 94Z" fill="#171717" stroke="url(#paint37_linear_3456_3809)"/>
<path d="M358.514 94.3043C358.575 93.9048 358.909 93.6036 359.313 93.5849L372 93L359.313 92.4248C358.909 92.4065 358.575 92.1051 358.514 91.7052L358.345 90.5846C358.199 89.6228 356.812 89.6245 356.669 90.5866L356.503 91.7032C356.443 92.1041 356.108 92.4065 355.703 92.4249L343 93L355.704 93.5849C356.109 93.6035 356.443 93.9058 356.503 94.3064L356.669 95.4213C356.812 96.3832 358.199 96.385 358.345 95.4234L358.514 94.3043Z" fill="white" fill-opacity="0.4"/>
<path d="M364.5 74C364.5 74.8225 363.833 75.7452 362.267 76.6853C360.733 77.6066 358.479 78.4539 355.651 79.1722C350.001 80.6071 342.169 81.5 333.5 81.5C324.831 81.5 316.999 80.6071 311.349 79.1722C308.521 78.4539 306.267 77.6066 304.733 76.6853C303.167 75.7452 302.5 74.8225 302.5 74C302.5 73.1775 303.167 72.2548 304.733 71.3147C306.267 70.3934 308.521 69.5461 311.349 68.8278C316.999 67.3929 324.831 66.5 333.5 66.5C342.169 66.5 350.001 67.3929 355.651 68.8278C358.479 69.5461 360.733 70.3934 362.267 71.3147C363.833 72.2548 364.5 73.1775 364.5 74Z" stroke="url(#paint38_linear_3456_3809)"/>
<mask id="path-98-inside-20_3456_3809" fill="white">
<path d="M302 66H365V74H302V66Z"/>
</mask>
<path d="M302 66H365V74H302V66Z" fill="#171717"/>
<path d="M364 66V74H366V66H364ZM303 74V66H301V74H303Z" fill="white" mask="url(#path-98-inside-20_3456_3809)"/>
<path d="M364.5 66C364.5 66.8225 363.833 67.7452 362.267 68.6853C360.733 69.6066 358.479 70.4539 355.651 71.1722C350.001 72.6071 342.169 73.5 333.5 73.5C324.831 73.5 316.999 72.6071 311.349 71.1722C308.521 70.4539 306.267 69.6066 304.733 68.6853C303.167 67.7452 302.5 66.8225 302.5 66C302.5 65.1775 303.167 64.2548 304.733 63.3147C306.267 62.3934 308.521 61.5461 311.349 60.8278C316.999 59.3929 324.831 58.5 333.5 58.5C342.169 58.5 350.001 59.3929 355.651 60.8278C358.479 61.5461 360.733 62.3934 362.267 63.3147C363.833 64.2548 364.5 65.1775 364.5 66Z" fill="#171717" stroke="url(#paint39_linear_3456_3809)"/>
<path d="M334.514 66.3043C334.575 65.9048 334.909 65.6036 335.313 65.5849L348 65L335.313 64.4248C334.909 64.4065 334.575 64.1051 334.514 63.7052L334.345 62.5846C334.199 61.6228 332.812 61.6245 332.669 62.5866L332.503 63.7032C332.443 64.1041 332.108 64.4065 331.703 64.4249L319 65L331.704 65.5849C332.109 65.6035 332.443 65.9058 332.503 66.3064L332.669 67.4213C332.812 68.3832 334.199 68.385 334.345 67.4234L334.514 66.3043Z" fill="white" fill-opacity="0.4"/>
<path d="M364.5 66C364.5 66.8225 363.833 67.7452 362.267 68.6853C360.733 69.6066 358.479 70.4539 355.651 71.1722C350.001 72.6071 342.169 73.5 333.5 73.5C324.831 73.5 316.999 72.6071 311.349 71.1722C308.521 70.4539 306.267 69.6066 304.733 68.6853C303.167 67.7452 302.5 66.8225 302.5 66C302.5 65.1775 303.167 64.2548 304.733 63.3147C306.267 62.3934 308.521 61.5461 311.349 60.8278C316.999 59.3929 324.831 58.5 333.5 58.5C342.169 58.5 350.001 59.3929 355.651 60.8278C358.479 61.5461 360.733 62.3934 362.267 63.3147C363.833 64.2548 364.5 65.1775 364.5 66Z" stroke="url(#paint40_linear_3456_3809)"/>
<mask id="path-103-inside-21_3456_3809" fill="white">
<path d="M302 58H365V66H302V58Z"/>
</mask>
<path d="M302 58H365V66H302V58Z" fill="#171717"/>
<path d="M364 58V66H366V58H364ZM303 66V58H301V66H303Z" fill="white" mask="url(#path-103-inside-21_3456_3809)"/>
<path d="M364.5 58C364.5 58.8225 363.833 59.7452 362.267 60.6853C360.733 61.6066 358.479 62.4539 355.651 63.1722C350.001 64.6071 342.169 65.5 333.5 65.5C324.831 65.5 316.999 64.6071 311.349 63.1722C308.521 62.4539 306.267 61.6066 304.733 60.6853C303.167 59.7452 302.5 58.8225 302.5 58C302.5 57.1775 303.167 56.2548 304.733 55.3147C306.267 54.3934 308.521 53.5461 311.349 52.8278C316.999 51.3929 324.831 50.5 333.5 50.5C342.169 50.5 350.001 51.3929 355.651 52.8278C358.479 53.5461 360.733 54.3934 362.267 55.3147C363.833 56.2548 364.5 57.1775 364.5 58Z" fill="#171717" stroke="url(#paint41_linear_3456_3809)"/>
<path d="M334.514 58.3043C334.575 57.9048 334.909 57.6036 335.313 57.5849L348 57L335.313 56.4248C334.909 56.4065 334.575 56.1051 334.514 55.7052L334.345 54.5846C334.199 53.6228 332.812 53.6245 332.669 54.5866L332.503 55.7032C332.443 56.1041 332.108 56.4065 331.703 56.4249L319 57L331.704 57.5849C332.109 57.6035 332.443 57.9058 332.503 58.3064L332.669 59.4213C332.812 60.3832 334.199 60.385 334.345 59.4234L334.514 58.3043Z" fill="white" fill-opacity="0.4"/>
<path d="M364.5 57C364.5 57.8225 363.833 58.7452 362.267 59.6853C360.733 60.6066 358.479 61.4539 355.651 62.1722C350.001 63.6071 342.169 64.5 333.5 64.5C324.831 64.5 316.999 63.6071 311.349 62.1722C308.521 61.4539 306.267 60.6066 304.733 59.6853C303.167 58.7452 302.5 57.8225 302.5 57C302.5 56.1775 303.167 55.2548 304.733 54.3147C306.267 53.3934 308.521 52.5461 311.349 51.8278C316.999 50.3929 324.831 49.5 333.5 49.5C342.169 49.5 350.001 50.3929 355.651 51.8278C358.479 52.5461 360.733 53.3934 362.267 54.3147C363.833 55.2548 364.5 56.1775 364.5 57Z" stroke="url(#paint42_linear_3456_3809)"/>
<mask id="path-108-inside-22_3456_3809" fill="white">
<path d="M302 49H365V57H302V49Z"/>
</mask>
<path d="M302 49H365V57H302V49Z" fill="#171717"/>
<path d="M364 49V57H366V49H364ZM303 57V49H301V57H303Z" fill="white" mask="url(#path-108-inside-22_3456_3809)"/>
<path d="M364.5 49C364.5 49.8225 363.833 50.7452 362.267 51.6853C360.733 52.6066 358.479 53.4539 355.651 54.1722C350.001 55.6071 342.169 56.5 333.5 56.5C324.831 56.5 316.999 55.6071 311.349 54.1722C308.521 53.4539 306.267 52.6066 304.733 51.6853C303.167 50.7452 302.5 49.8225 302.5 49C302.5 48.1775 303.167 47.2548 304.733 46.3147C306.267 45.3934 308.521 44.5461 311.349 43.8278C316.999 42.3929 324.831 41.5 333.5 41.5C342.169 41.5 350.001 42.3929 355.651 43.8278C358.479 44.5461 360.733 45.3934 362.267 46.3147C363.833 47.2548 364.5 48.1775 364.5 49Z" fill="#171717" stroke="url(#paint43_linear_3456_3809)"/>
<path d="M334.514 49.3043C334.575 48.9048 334.909 48.6036 335.313 48.5849L348 48L335.313 47.4248C334.909 47.4065 334.575 47.1051 334.514 46.7052L334.345 45.5846C334.199 44.6228 332.812 44.6245 332.669 45.5866L332.503 46.7032C332.443 47.1041 332.108 47.4065 331.703 47.4249L319 48L331.704 48.5849C332.109 48.6035 332.443 48.9058 332.503 49.3064L332.669 50.4213C332.812 51.3832 334.199 51.385 334.345 50.4234L334.514 49.3043Z" fill="white" fill-opacity="0.4"/>
<path d="M388.5 93C388.5 93.8225 387.833 94.7452 386.267 95.6853C384.733 96.6066 382.479 97.4539 379.651 98.1722C374.001 99.6071 366.169 100.5 357.5 100.5C348.831 100.5 340.999 99.6071 335.349 98.1722C332.521 97.4539 330.267 96.6066 328.733 95.6853C327.167 94.7452 326.5 93.8225 326.5 93C326.5 92.1775 327.167 91.2548 328.733 90.3147C330.267 89.3934 332.521 88.5461 335.349 87.8278C340.999 86.3929 348.831 85.5 357.5 85.5C366.169 85.5 374.001 86.3929 379.651 87.8278C382.479 88.5461 384.733 89.3934 386.267 90.3147C387.833 91.2548 388.5 92.1775 388.5 93Z" stroke="url(#paint44_linear_3456_3809)"/>
<mask id="path-113-inside-23_3456_3809" fill="white">
<path d="M326 85H389V93H326V85Z"/>
</mask>
<path d="M326 85H389V93H326V85Z" fill="#171717"/>
<path d="M388 85V93H390V85H388ZM327 93V85H325V93H327Z" fill="white" mask="url(#path-113-inside-23_3456_3809)"/>
<path d="M388.5 85C388.5 85.8225 387.833 86.7452 386.267 87.6853C384.733 88.6066 382.479 89.4539 379.651 90.1722C374.001 91.6071 366.169 92.5 357.5 92.5C348.831 92.5 340.999 91.6071 335.349 90.1722C332.521 89.4539 330.267 88.6066 328.733 87.6853C327.167 86.7452 326.5 85.8225 326.5 85C326.5 84.1775 327.167 83.2548 328.733 82.3147C330.267 81.3934 332.521 80.5461 335.349 79.8278C340.999 78.3929 348.831 77.5 357.5 77.5C366.169 77.5 374.001 78.3929 379.651 79.8278C382.479 80.5461 384.733 81.3934 386.267 82.3147C387.833 83.2548 388.5 84.1775 388.5 85Z" fill="#171717" stroke="url(#paint45_linear_3456_3809)"/>
<path d="M358.514 85.3043C358.575 84.9048 358.909 84.6036 359.313 84.5849L372 84L359.313 83.4248C358.909 83.4065 358.575 83.1051 358.514 82.7052L358.345 81.5846C358.199 80.6228 356.812 80.6245 356.669 81.5866L356.503 82.7032C356.443 83.1041 356.108 83.4065 355.703 83.4249L343 84L355.704 84.5849C356.109 84.6035 356.443 84.9058 356.503 85.3064L356.669 86.4213C356.812 87.3832 358.199 87.385 358.345 86.4234L358.514 85.3043Z" fill="white" fill-opacity="0.4"/>
<path d="M388.5 83C388.5 83.8225 387.833 84.7452 386.267 85.6853C384.733 86.6066 382.479 87.4539 379.651 88.1722C374.001 89.6071 366.169 90.5 357.5 90.5C348.831 90.5 340.999 89.6071 335.349 88.1722C332.521 87.4539 330.267 86.6066 328.733 85.6853C327.167 84.7452 326.5 83.8225 326.5 83C326.5 82.1775 327.167 81.2548 328.733 80.3147C330.267 79.3934 332.521 78.5461 335.349 77.8278C340.999 76.3929 348.831 75.5 357.5 75.5C366.169 75.5 374.001 76.3929 379.651 77.8278C382.479 78.5461 384.733 79.3934 386.267 80.3147C387.833 81.2548 388.5 82.1775 388.5 83Z" stroke="url(#paint46_linear_3456_3809)"/>
<mask id="path-118-inside-24_3456_3809" fill="white">
<path d="M326 75H389V83H326V75Z"/>
</mask>
<path d="M326 75H389V83H326V75Z" fill="#171717"/>
<path d="M388 75V83H390V75H388ZM327 83V75H325V83H327Z" fill="white" mask="url(#path-118-inside-24_3456_3809)"/>
<path d="M388.5 75C388.5 75.8225 387.833 76.7452 386.267 77.6853C384.733 78.6066 382.479 79.4539 379.651 80.1722C374.001 81.6071 366.169 82.5 357.5 82.5C348.831 82.5 340.999 81.6071 335.349 80.1722C332.521 79.4539 330.267 78.6066 328.733 77.6853C327.167 76.7452 326.5 75.8225 326.5 75C326.5 74.1775 327.167 73.2548 328.733 72.3147C330.267 71.3934 332.521 70.5461 335.349 69.8278C340.999 68.3929 348.831 67.5 357.5 67.5C366.169 67.5 374.001 68.3929 379.651 69.8278C382.479 70.5461 384.733 71.3934 386.267 72.3147C387.833 73.2548 388.5 74.1775 388.5 75Z" fill="#171717" stroke="url(#paint47_linear_3456_3809)"/>
<path d="M358.514 75.3043C358.575 74.9048 358.909 74.6036 359.313 74.5849L372 74L359.313 73.4248C358.909 73.4065 358.575 73.1051 358.514 72.7052L358.345 71.5846C358.199 70.6228 356.812 70.6245 356.669 71.5866L356.503 72.7032C356.443 73.1041 356.108 73.4065 355.703 73.4249L343 74L355.704 74.5849C356.109 74.6035 356.443 74.9058 356.503 75.3064L356.669 76.4213C356.812 77.3832 358.199 77.385 358.345 76.4234L358.514 75.3043Z" fill="white" fill-opacity="0.4"/>
<circle cx="187" cy="90" r="19.5" fill="#171717" stroke="white"/>
<line x1="185.986" y1="90.1644" x2="182.986" y2="108.164" stroke="white" stroke-width="2"/>
<line x1="196.342" y1="86.9398" x2="185.342" y2="90.94" stroke="white" stroke-width="2"/>
<path d="M401.53 37.5795C401.537 37.4923 401.606 37.4231 401.694 37.4159L417.832 36.0744C418.052 36.0561 418.052 35.7349 417.832 35.717L401.694 34.3979C401.606 34.3907 401.537 34.3215 401.53 34.2342L400.18 18.1476C400.162 17.9284 399.841 17.9286 399.823 18.1478L398.496 34.2339C398.489 34.3214 398.419 34.3907 398.332 34.3979L382.171 35.717C381.951 35.7349 381.951 36.0561 382.171 36.0744L398.332 37.4159C398.419 37.4231 398.489 37.4924 398.496 37.5798L399.823 53.6435C399.841 53.8628 400.162 53.863 400.18 53.6438L401.53 37.5795Z" fill="url(#paint48_linear_3456_3809)"/>
<path d="M251.721 59.0564L253.649 61.5456" stroke="#515151"/>
<path d="M270.701 44.3525L272.63 46.8417" stroke="#515151"/>
<path d="M272.305 46.5959C272.399 46.7166 272.468 47.0229 272.215 47.674C271.975 48.2912 271.498 49.0713 270.8 49.966C269.407 51.7492 267.205 53.8976 264.522 55.9765C261.838 58.0555 259.208 59.6506 257.133 60.5533C256.092 61.0062 255.218 61.2731 254.56 61.3512C253.866 61.4338 253.587 61.29 253.494 61.1693C253.4 61.0486 253.331 60.7423 253.584 60.0912C253.824 59.474 254.301 58.6939 255 57.7992C256.392 56.016 258.594 53.8676 261.277 51.7887C263.961 49.7097 266.591 48.1147 268.666 47.2119C269.707 46.759 270.581 46.4922 271.239 46.414C271.933 46.3315 272.212 46.4752 272.305 46.5959Z" stroke="url(#paint49_linear_3456_3809)"/>
<path d="M270.378 44.1066C270.471 44.2274 270.541 44.5336 270.287 45.1848C270.047 45.8019 269.57 46.582 268.872 47.4767C267.479 49.26 265.278 51.4083 262.594 53.4873C259.91 55.5662 257.28 57.1613 255.205 58.064C254.164 58.5169 253.29 58.7838 252.632 58.862C251.939 58.9445 251.659 58.8008 251.566 58.6801C251.472 58.5593 251.403 58.2531 251.656 57.6019C251.896 56.9848 252.373 56.2047 253.072 55.31C254.464 53.5267 256.666 51.3784 259.35 49.2994C262.033 47.2205 264.664 45.6254 266.738 44.7227C267.779 44.2698 268.654 44.0029 269.311 43.9247C270.005 43.8422 270.284 43.9859 270.378 44.1066Z" fill="#171717" stroke="url(#paint50_linear_3456_3809)"/>
<path d="M261.383 51.2864C261.292 51.1227 261.329 50.9171 261.471 50.7956L265.241 47.587L261.195 50.4379C261.041 50.546 260.833 50.5304 260.697 50.401C260.371 50.0898 259.862 50.4831 260.082 50.8764C260.174 51.0402 260.137 51.2463 259.994 51.3679L256.217 54.5773L260.271 51.7251C260.425 51.6171 260.633 51.6329 260.769 51.7627C261.095 52.0746 261.603 51.6802 261.383 51.2864Z" fill="white" fill-opacity="0.4"/>
<path d="M293.846 5.94873L292.1 10.5339" stroke="#515151"/>
<path d="M328.809 19.2634L327.062 23.8486" stroke="#515151"/>
<path d="M327.387 23.3173C327.246 23.6868 326.758 24.0527 325.668 24.2475C324.614 24.4359 323.159 24.4316 321.389 24.227C317.858 23.8185 313.19 22.626 308.232 20.7377C303.274 18.8494 298.995 16.6351 296.087 14.5912C294.629 13.567 293.54 12.6022 292.878 11.7604C292.194 10.89 292.073 10.2918 292.213 9.92229C292.354 9.5528 292.843 9.18691 293.932 8.9921C294.986 8.8037 296.442 8.80793 298.211 9.0126C301.742 9.42105 306.41 10.6136 311.368 12.5019C316.327 14.3902 320.605 16.6045 323.514 18.6483C324.971 19.6725 326.06 20.6374 326.722 21.4792C327.406 22.3496 327.528 22.9478 327.387 23.3173Z" stroke="url(#paint51_linear_3456_3809)"/>
<path d="M329.133 18.7331C328.992 19.1026 328.504 19.4684 327.414 19.6633C326.36 19.8516 324.905 19.8474 323.135 19.6427C319.604 19.2343 314.936 18.0417 309.978 16.1535C305.02 14.2652 300.741 12.0509 297.833 10.007C296.375 8.98282 295.286 8.01793 294.624 7.17618C293.94 6.30575 293.819 5.70756 293.959 5.33806C294.1 4.96857 294.589 4.60269 295.679 4.40787C296.733 4.21947 298.188 4.2237 299.957 4.42837C303.488 4.83682 308.156 6.02939 313.114 7.91766C318.073 9.80592 322.351 12.0203 325.26 14.0641C326.717 15.0883 327.806 16.0532 328.468 16.8949C329.152 17.7654 329.274 18.3636 329.133 18.7331Z" fill="#171717" stroke="url(#paint52_linear_3456_3809)"/>
<path d="M312.023 12.4958C312.166 12.2414 312.47 12.1237 312.747 12.215L320.074 14.6251L312.999 11.5568C312.73 11.4404 312.582 11.1504 312.644 10.8647C312.793 10.178 311.857 9.82024 311.513 10.433C311.369 10.6883 311.065 10.8063 310.787 10.7146L303.453 8.29537L310.537 11.3732C310.805 11.4898 310.954 11.7799 310.891 12.0657C310.74 12.7519 311.677 13.1075 312.023 12.4958Z" fill="white" fill-opacity="0.4"/>
<defs>
<linearGradient id="paint0_linear_3456_3809" x1="31.5" y1="99" x2="31.5" y2="115" gradientUnits="userSpaceOnUse">
<stop stop-color="#F9F9ED" stop-opacity="0.182796"/>
<stop offset="0.723958" stop-color="#F5F5E4" stop-opacity="0.282082"/>
<stop offset="1" stop-color="white"/>
</linearGradient>
<linearGradient id="paint1_linear_3456_3809" x1="31.5" y1="91" x2="31.5" y2="107" gradientUnits="userSpaceOnUse">
<stop stop-color="white" stop-opacity="0"/>
<stop offset="0.583333" stop-color="#505050"/>
</linearGradient>
<linearGradient id="paint2_linear_3456_3809" x1="31.5" y1="99" x2="31.5" y2="115" gradientUnits="userSpaceOnUse">
<stop stop-color="#F9F9ED" stop-opacity="0.182796"/>
<stop offset="0.723958" stop-color="#F5F5E4" stop-opacity="0.282082"/>
<stop offset="1" stop-color="white"/>
</linearGradient>
<linearGradient id="paint3_linear_3456_3809" x1="31.5" y1="91" x2="31.5" y2="107" gradientUnits="userSpaceOnUse">
<stop stop-color="white" stop-opacity="0"/>
<stop offset="0.583333" stop-color="#505050"/>
</linearGradient>
<linearGradient id="paint4_linear_3456_3809" x1="31.5" y1="90" x2="31.5" y2="106" gradientUnits="userSpaceOnUse">
<stop stop-color="#F9F9ED" stop-opacity="0.182796"/>
<stop offset="0.723958" stop-color="#F5F5E4" stop-opacity="0.282082"/>
<stop offset="1" stop-color="white"/>
</linearGradient>
<linearGradient id="paint5_linear_3456_3809" x1="31.5" y1="82" x2="31.5" y2="98" gradientUnits="userSpaceOnUse">
<stop stop-color="white" stop-opacity="0"/>
<stop offset="0.583333" stop-color="#505050"/>
</linearGradient>
<linearGradient id="paint6_linear_3456_3809" x1="31.5" y1="81" x2="31.5" y2="97" gradientUnits="userSpaceOnUse">
<stop stop-color="#F9F9ED" stop-opacity="0.182796"/>
<stop offset="0.723958" stop-color="#F5F5E4" stop-opacity="0.282082"/>
<stop offset="1" stop-color="white"/>
</linearGradient>
<linearGradient id="paint7_linear_3456_3809" x1="31.5" y1="73" x2="31.5" y2="89" gradientUnits="userSpaceOnUse">
<stop stop-color="white" stop-opacity="0"/>
<stop offset="0.583333" stop-color="#505050"/>
</linearGradient>
<linearGradient id="paint8_linear_3456_3809" x1="31.5" y1="73" x2="31.5" y2="89" gradientUnits="userSpaceOnUse">
<stop stop-color="#F9F9ED" stop-opacity="0.182796"/>
<stop offset="0.723958" stop-color="#F5F5E4" stop-opacity="0.282082"/>
<stop offset="1" stop-color="white"/>
</linearGradient>
<linearGradient id="paint9_linear_3456_3809" x1="31.5" y1="65" x2="31.5" y2="81" gradientUnits="userSpaceOnUse">
<stop stop-color="white" stop-opacity="0"/>
<stop offset="0.583333" stop-color="#505050"/>
</linearGradient>
<linearGradient id="paint10_linear_3456_3809" x1="31.5" y1="65" x2="31.5" y2="81" gradientUnits="userSpaceOnUse">
<stop stop-color="#F9F9ED" stop-opacity="0.182796"/>
<stop offset="0.723958" stop-color="#F5F5E4" stop-opacity="0.282082"/>
<stop offset="1" stop-color="white"/>
</linearGradient>
<linearGradient id="paint11_linear_3456_3809" x1="31.5" y1="57" x2="31.5" y2="73" gradientUnits="userSpaceOnUse">
<stop stop-color="white" stop-opacity="0"/>
<stop offset="0.583333" stop-color="#505050"/>
</linearGradient>
<linearGradient id="paint12_linear_3456_3809" x1="55.5" y1="108" x2="55.5" y2="124" gradientUnits="userSpaceOnUse">
<stop stop-color="#F9F9ED" stop-opacity="0.182796"/>
<stop offset="0.723958" stop-color="#F5F5E4" stop-opacity="0.282082"/>
<stop offset="1" stop-color="white"/>
</linearGradient>
<linearGradient id="paint13_linear_3456_3809" x1="55.5" y1="100" x2="55.5" y2="116" gradientUnits="userSpaceOnUse">
<stop stop-color="white" stop-opacity="0"/>
<stop offset="0.583333" stop-color="#505050"/>
</linearGradient>
<linearGradient id="paint14_linear_3456_3809" x1="55.5" y1="100" x2="55.5" y2="116" gradientUnits="userSpaceOnUse">
<stop stop-color="#F9F9ED" stop-opacity="0.182796"/>
<stop offset="0.723958" stop-color="#F5F5E4" stop-opacity="0.282082"/>
<stop offset="1" stop-color="white"/>
</linearGradient>
<linearGradient id="paint15_linear_3456_3809" x1="55.5" y1="92" x2="55.5" y2="108" gradientUnits="userSpaceOnUse">
<stop stop-color="white" stop-opacity="0"/>
<stop offset="0.583333" stop-color="#505050"/>
</linearGradient>
<linearGradient id="paint16_linear_3456_3809" x1="31.5" y1="90" x2="31.5" y2="106" gradientUnits="userSpaceOnUse">
<stop stop-color="#F9F9ED" stop-opacity="0.182796"/>
<stop offset="0.723958" stop-color="#F5F5E4" stop-opacity="0.282082"/>
<stop offset="1" stop-color="white"/>
</linearGradient>
<linearGradient id="paint17_linear_3456_3809" x1="31.5" y1="82" x2="31.5" y2="98" gradientUnits="userSpaceOnUse">
<stop stop-color="white" stop-opacity="0"/>
<stop offset="0.583333" stop-color="#505050"/>
</linearGradient>
<linearGradient id="paint18_linear_3456_3809" x1="31.5" y1="81" x2="31.5" y2="97" gradientUnits="userSpaceOnUse">
<stop stop-color="#F9F9ED" stop-opacity="0.182796"/>
<stop offset="0.723958" stop-color="#F5F5E4" stop-opacity="0.282082"/>
<stop offset="1" stop-color="white"/>
</linearGradient>
<linearGradient id="paint19_linear_3456_3809" x1="31.5" y1="73" x2="31.5" y2="89" gradientUnits="userSpaceOnUse">
<stop stop-color="white" stop-opacity="0"/>
<stop offset="0.583333" stop-color="#505050"/>
</linearGradient>
<linearGradient id="paint20_linear_3456_3809" x1="31.5" y1="65" x2="31.5" y2="81" gradientUnits="userSpaceOnUse">
<stop stop-color="#F9F9ED" stop-opacity="0.182796"/>
<stop offset="0.723958" stop-color="#F5F5E4" stop-opacity="0.282082"/>
<stop offset="1" stop-color="white"/>
</linearGradient>
<linearGradient id="paint21_linear_3456_3809" x1="31.5" y1="57" x2="31.5" y2="73" gradientUnits="userSpaceOnUse">
<stop stop-color="white" stop-opacity="0"/>
<stop offset="0.583333" stop-color="#505050"/>
</linearGradient>
<linearGradient id="paint22_linear_3456_3809" x1="55.5" y1="108" x2="55.5" y2="124" gradientUnits="userSpaceOnUse">
<stop stop-color="#F9F9ED" stop-opacity="0.182796"/>
<stop offset="0.723958" stop-color="#F5F5E4" stop-opacity="0.282082"/>
<stop offset="1" stop-color="white"/>
</linearGradient>
<linearGradient id="paint23_linear_3456_3809" x1="55.5" y1="100" x2="55.5" y2="116" gradientUnits="userSpaceOnUse">
<stop stop-color="white" stop-opacity="0"/>
<stop offset="0.583333" stop-color="#505050"/>
</linearGradient>
<linearGradient id="paint24_linear_3456_3809" x1="333.5" y1="103" x2="333.5" y2="119" gradientUnits="userSpaceOnUse">
<stop stop-color="#F9F9ED" stop-opacity="0.182796"/>
<stop offset="0.723958" stop-color="#F5F5E4" stop-opacity="0.282082"/>
<stop offset="1" stop-color="#CECECE"/>
</linearGradient>
<linearGradient id="paint25_linear_3456_3809" x1="333.5" y1="95" x2="333.5" y2="111" gradientUnits="userSpaceOnUse">
<stop stop-color="white" stop-opacity="0"/>
<stop offset="0.583333" stop-color="#CBCBCB"/>
</linearGradient>
<linearGradient id="paint26_linear_3456_3809" x1="333.5" y1="94" x2="333.5" y2="110" gradientUnits="userSpaceOnUse">
<stop stop-color="#F9F9ED" stop-opacity="0.182796"/>
<stop offset="0.723958" stop-color="#F5F5E4" stop-opacity="0.282082"/>
<stop offset="1" stop-color="#CECECE"/>
</linearGradient>
<linearGradient id="paint27_linear_3456_3809" x1="333.5" y1="86" x2="333.5" y2="102" gradientUnits="userSpaceOnUse">
<stop stop-color="white" stop-opacity="0"/>
<stop offset="0.583333" stop-color="#CBCBCB"/>
</linearGradient>
<linearGradient id="paint28_linear_3456_3809" x1="333.5" y1="85" x2="333.5" y2="101" gradientUnits="userSpaceOnUse">
<stop stop-color="#F9F9ED" stop-opacity="0.182796"/>
<stop offset="0.723958" stop-color="#F5F5E4" stop-opacity="0.282082"/>
<stop offset="1" stop-color="#CECECE"/>
</linearGradient>
<linearGradient id="paint29_linear_3456_3809" x1="333.5" y1="77" x2="333.5" y2="93" gradientUnits="userSpaceOnUse">
<stop stop-color="white" stop-opacity="0"/>
<stop offset="0.583333" stop-color="#CBCBCB"/>
</linearGradient>
<linearGradient id="paint30_linear_3456_3809" x1="333.5" y1="77" x2="333.5" y2="93" gradientUnits="userSpaceOnUse">
<stop stop-color="#F9F9ED" stop-opacity="0.182796"/>
<stop offset="0.723958" stop-color="#F5F5E4" stop-opacity="0.282082"/>
<stop offset="1" stop-color="#CECECE"/>
</linearGradient>
<linearGradient id="paint31_linear_3456_3809" x1="333.5" y1="69" x2="333.5" y2="85" gradientUnits="userSpaceOnUse">
<stop stop-color="white" stop-opacity="0"/>
<stop offset="0.583333" stop-color="#CBCBCB"/>
</linearGradient>
<linearGradient id="paint32_linear_3456_3809" x1="357.5" y1="112" x2="357.5" y2="128" gradientUnits="userSpaceOnUse">
<stop stop-color="#F9F9ED" stop-opacity="0.182796"/>
<stop offset="0.723958" stop-color="#F5F5E4" stop-opacity="0.282082"/>
<stop offset="1" stop-color="#CECECE"/>
</linearGradient>
<linearGradient id="paint33_linear_3456_3809" x1="357.5" y1="104" x2="357.5" y2="120" gradientUnits="userSpaceOnUse">
<stop stop-color="white" stop-opacity="0"/>
<stop offset="0.583333" stop-color="#CBCBCB"/>
</linearGradient>
<linearGradient id="paint34_linear_3456_3809" x1="357.5" y1="103" x2="357.5" y2="119" gradientUnits="userSpaceOnUse">
<stop stop-color="#F9F9ED" stop-opacity="0.182796"/>
<stop offset="0.723958" stop-color="#F5F5E4" stop-opacity="0.282082"/>
<stop offset="1" stop-color="#CECECE"/>
</linearGradient>
<linearGradient id="paint35_linear_3456_3809" x1="357.5" y1="95" x2="357.5" y2="111" gradientUnits="userSpaceOnUse">
<stop stop-color="white" stop-opacity="0"/>
<stop offset="0.583333" stop-color="#CBCBCB"/>
</linearGradient>
<linearGradient id="paint36_linear_3456_3809" x1="357.5" y1="94" x2="357.5" y2="110" gradientUnits="userSpaceOnUse">
<stop stop-color="#F9F9ED" stop-opacity="0.182796"/>
<stop offset="0.723958" stop-color="#F5F5E4" stop-opacity="0.282082"/>
<stop offset="1" stop-color="#CECECE"/>
</linearGradient>
<linearGradient id="paint37_linear_3456_3809" x1="357.5" y1="86" x2="357.5" y2="102" gradientUnits="userSpaceOnUse">
<stop stop-color="white" stop-opacity="0"/>
<stop offset="0.583333" stop-color="#CBCBCB"/>
</linearGradient>
<linearGradient id="paint38_linear_3456_3809" x1="333.5" y1="66" x2="333.5" y2="82" gradientUnits="userSpaceOnUse">
<stop stop-color="#F9F9ED" stop-opacity="0.182796"/>
<stop offset="0.723958" stop-color="#F5F5E4" stop-opacity="0.282082"/>
<stop offset="1" stop-color="#CECECE"/>
</linearGradient>
<linearGradient id="paint39_linear_3456_3809" x1="333.5" y1="58" x2="333.5" y2="74" gradientUnits="userSpaceOnUse">
<stop stop-color="white" stop-opacity="0"/>
<stop offset="0.583333" stop-color="#CBCBCB"/>
</linearGradient>
<linearGradient id="paint40_linear_3456_3809" x1="333.5" y1="58" x2="333.5" y2="74" gradientUnits="userSpaceOnUse">
<stop stop-color="#F9F9ED" stop-opacity="0.182796"/>
<stop offset="0.723958" stop-color="#F5F5E4" stop-opacity="0.282082"/>
<stop offset="1" stop-color="#CECECE"/>
</linearGradient>
<linearGradient id="paint41_linear_3456_3809" x1="333.5" y1="50" x2="333.5" y2="66" gradientUnits="userSpaceOnUse">
<stop stop-color="white" stop-opacity="0"/>
<stop offset="0.583333" stop-color="#CBCBCB"/>
</linearGradient>
<linearGradient id="paint42_linear_3456_3809" x1="333.5" y1="49" x2="333.5" y2="65" gradientUnits="userSpaceOnUse">
<stop stop-color="#F9F9ED" stop-opacity="0.182796"/>
<stop offset="0.723958" stop-color="#F5F5E4" stop-opacity="0.282082"/>
<stop offset="1" stop-color="#CECECE"/>
</linearGradient>
<linearGradient id="paint43_linear_3456_3809" x1="333.5" y1="41" x2="333.5" y2="57" gradientUnits="userSpaceOnUse">
<stop stop-color="white" stop-opacity="0"/>
<stop offset="0.583333" stop-color="#CBCBCB"/>
</linearGradient>
<linearGradient id="paint44_linear_3456_3809" x1="357.5" y1="85" x2="357.5" y2="101" gradientUnits="userSpaceOnUse">
<stop stop-color="#F9F9ED" stop-opacity="0.182796"/>
<stop offset="0.723958" stop-color="#F5F5E4" stop-opacity="0.282082"/>
<stop offset="1" stop-color="#CECECE"/>
</linearGradient>
<linearGradient id="paint45_linear_3456_3809" x1="357.5" y1="77" x2="357.5" y2="93" gradientUnits="userSpaceOnUse">
<stop stop-color="white" stop-opacity="0"/>
<stop offset="0.583333" stop-color="#CBCBCB"/>
</linearGradient>
<linearGradient id="paint46_linear_3456_3809" x1="357.5" y1="75" x2="357.5" y2="91" gradientUnits="userSpaceOnUse">
<stop stop-color="#F9F9ED" stop-opacity="0.182796"/>
<stop offset="0.723958" stop-color="#F5F5E4" stop-opacity="0.282082"/>
<stop offset="1" stop-color="#CECECE"/>
</linearGradient>
<linearGradient id="paint47_linear_3456_3809" x1="357.5" y1="67" x2="357.5" y2="83" gradientUnits="userSpaceOnUse">
<stop stop-color="white" stop-opacity="0"/>
<stop offset="0.583333" stop-color="#CBCBCB"/>
</linearGradient>
<linearGradient id="paint48_linear_3456_3809" x1="398.626" y1="33.4047" x2="404.225" y2="43.5358" gradientUnits="userSpaceOnUse">
<stop stop-color="white"/>
<stop offset="1" stop-color="white"/>
</linearGradient>
<linearGradient id="paint49_linear_3456_3809" x1="260.971" y1="51.3934" x2="264.828" y2="56.3718" gradientUnits="userSpaceOnUse">
<stop stop-color="#F9F9ED" stop-opacity="0.182796"/>
<stop offset="0.723958" stop-color="#F5F5E4" stop-opacity="0.282082"/>
<stop offset="1" stop-color="white"/>
</linearGradient>
<linearGradient id="paint50_linear_3456_3809" x1="259.043" y1="48.9041" x2="262.9" y2="53.8826" gradientUnits="userSpaceOnUse">
<stop stop-color="white" stop-opacity="0"/>
<stop offset="0.583333" stop-color="#505050"/>
</linearGradient>
<linearGradient id="paint51_linear_3456_3809" x1="311.546" y1="12.0346" x2="308.054" y2="21.205" gradientUnits="userSpaceOnUse">
<stop stop-color="#F9F9ED" stop-opacity="0.182796"/>
<stop offset="0.723958" stop-color="#F5F5E4" stop-opacity="0.282082"/>
<stop offset="1" stop-color="white"/>
</linearGradient>
<linearGradient id="paint52_linear_3456_3809" x1="313.292" y1="7.45039" x2="309.8" y2="16.6207" gradientUnits="userSpaceOnUse">
<stop stop-color="white" stop-opacity="0"/>
<stop offset="0.583333" stop-color="#505050"/>
</linearGradient>
</defs>
</svg>
