<svg width="19" height="19" viewBox="0 0 19 19" fill="none" xmlns="http://www.w3.org/2000/svg">
<g clip-path="url(#clip0_2764_30230)">
<circle cx="9.5" cy="9.5" r="9.5" fill="#ECEFF0"/>
<path d="M3.35599 6.56V12.44C3.35599 12.818 3.55399 13.16 3.88399 13.352L8.97799 16.292C9.30199 16.478 9.70399 16.478 10.028 16.292L15.122 13.352C15.446 13.166 15.65 12.818 15.65 12.44V6.56C15.65 6.182 15.452 5.84 15.122 5.648L10.028 2.708C9.70399 2.522 9.30199 2.522 8.97799 2.708L3.88399 5.648C3.55999 5.834 3.36199 6.182 3.36199 6.56H3.35599Z" fill="#213147"/>
<path d="M10.61 10.64L9.88398 12.632C9.86598 12.686 9.86598 12.746 9.88398 12.806L11.132 16.232L12.578 15.398L10.844 10.64C10.802 10.532 10.652 10.532 10.61 10.64Z" fill="#12AAFF"/>
<path d="M12.068 7.292C12.026 7.184 11.876 7.184 11.834 7.292L11.108 9.284C11.09 9.338 11.09 9.398 11.108 9.458L13.154 15.068L14.6 14.234L12.068 7.298V7.292Z" fill="#12AAFF"/>
<path d="M9.49999 2.93C9.53599 2.93 9.57199 2.942 9.60199 2.96L15.11 6.14C15.176 6.176 15.212 6.248 15.212 6.32V12.68C15.212 12.752 15.17 12.824 15.11 12.86L9.60199 16.04C9.57199 16.058 9.53599 16.07 9.49999 16.07C9.46399 16.07 9.42799 16.058 9.39799 16.04L3.88999 12.86C3.82399 12.824 3.78799 12.752 3.78799 12.68V6.314C3.78799 6.242 3.82999 6.17 3.88999 6.134L9.39799 2.954C9.42799 2.936 9.46399 2.924 9.49999 2.924V2.93ZM9.49999 2C9.30199 2 9.10999 2.048 8.92999 2.15L3.42199 5.33C3.06799 5.534 2.85199 5.906 2.85199 6.314V12.674C2.85199 13.082 3.06799 13.454 3.42199 13.658L8.92999 16.838C9.10399 16.94 9.30199 16.988 9.49999 16.988C9.69799 16.988 9.88999 16.94 10.07 16.838L15.578 13.658C15.932 13.454 16.148 13.082 16.148 12.674V6.314C16.148 5.906 15.932 5.534 15.578 5.33L10.064 2.15C9.88999 2.048 9.69199 2 9.49399 2H9.49999Z" fill="#9DCCED"/>
<path d="M5.85199 15.074L6.36199 13.682L7.38199 14.528L6.42799 15.404L5.85199 15.074Z" fill="#213147"/>
<path d="M9.03201 5.864H7.63401C7.53201 5.864 7.43601 5.93 7.40001 6.026L4.40601 14.234L5.85201 15.068L9.15201 6.026C9.18201 5.942 9.12201 5.858 9.03801 5.858L9.03201 5.864Z" fill="white"/>
<path d="M11.48 5.864H10.082C9.97998 5.864 9.88398 5.93 9.84798 6.026L6.42798 15.398L7.87398 16.232L11.594 6.026C11.624 5.942 11.564 5.858 11.48 5.858V5.864Z" fill="white"/>
</g>
<defs>
<clipPath id="clip0_2764_30230">
<rect width="19" height="19" fill="white"/>
</clipPath>
</defs>
</svg>
