<svg width="19" height="19" viewBox="0 0 19 19" fill="none" xmlns="http://www.w3.org/2000/svg">
<g clip-path="url(#clip0_2729_20959)">
<g clip-path="url(#clip1_2729_20959)">
<path fill-rule="evenodd" clip-rule="evenodd" d="M9.5 0C14.7471 0 19 4.25292 19 9.5C19 14.7471 14.7471 19 9.5 19C4.25292 19 0 14.7471 0 9.5C0 4.25292 4.25292 0 9.5 0Z" fill="#F0B90B"/>
<path d="M5.22143 9.49997L5.22828 12.012L7.36274 13.268V14.7387L3.97912 12.7542V8.76539L5.22143 9.49997ZM5.22143 6.98795V8.45177L3.97836 7.71644V6.25261L5.22143 5.51728L6.47059 6.25261L5.22143 6.98795ZM8.25412 6.25261L9.49719 5.51728L10.7464 6.25261L9.49719 6.98795L8.25412 6.25261Z" fill="white"/>
<path d="M6.11963 11.4913V10.0206L7.3627 10.756V12.2198L6.11963 11.4913ZM8.25408 13.7948L9.49715 14.5301L10.7463 13.7948V15.2586L9.49715 15.9939L8.25408 15.2586V13.7948ZM12.5291 6.25261L13.7722 5.51728L15.0213 6.25261V7.71644L13.7722 8.45177V6.98795L12.5291 6.25261ZM13.7722 12.012L13.779 9.49997L15.0221 8.76463V12.7534L11.6385 14.7379V13.2672L13.7722 12.012Z" fill="white"/>
<path d="M12.8806 11.4913L11.6376 12.2198V10.7559L12.8806 10.0206V11.4913Z" fill="white"/>
<path d="M12.8808 7.50864L12.8876 8.97931L10.7471 10.2353V12.7534L9.504 13.4819L8.26093 12.7534V10.2353L6.12039 8.97931V7.50864L7.36879 6.7733L9.49639 8.0354L11.6369 6.7733L12.8861 7.50864H12.8808ZM6.11963 4.99738L9.49715 3.00603L12.8808 4.99738L11.6377 5.73272L9.49715 4.47062L7.3627 5.73272L6.11963 4.99738Z" fill="white"/>
</g>
</g>
<defs>
<clipPath id="clip0_2729_20959">
<rect width="19" height="19" fill="white"/>
</clipPath>
<clipPath id="clip1_2729_20959">
<rect width="19" height="19" fill="white"/>
</clipPath>
</defs>
</svg>
