<svg width="19" height="19" viewBox="0 0 19 19" fill="none" xmlns="http://www.w3.org/2000/svg">
<g clip-path="url(#clip0_2729_21124)">
<circle cx="9.5" cy="9.5" r="9.5" fill="#50AF95"/>
<path fill-rule="evenodd" clip-rule="evenodd" d="M10.4919 9.83797C10.4365 9.84213 10.1503 9.85925 9.51177 9.85925C9.00394 9.85925 8.64337 9.84398 8.51687 9.83797C6.55432 9.75145 5.08944 9.40909 5.08944 8.99918C5.08944 8.58927 6.55432 8.24736 8.51687 8.15946V9.49699C8.64522 9.50625 9.01271 9.52799 9.52054 9.52799C10.1299 9.52799 10.4351 9.50254 10.4901 9.49746V8.16039C12.4485 8.24783 13.9101 8.59019 13.9101 8.99918C13.9101 9.40816 12.4489 9.75053 10.4901 9.83751L10.4919 9.83797ZM10.4919 8.02205V6.82517H13.225V5H5.78379V6.82517H8.51641V8.02159C6.29532 8.12384 4.625 8.56475 4.625 9.0931C4.625 9.62145 6.29532 10.0619 8.51641 10.1646V14H10.4914V10.1632C12.7074 10.061 14.375 9.62052 14.375 9.09263C14.375 8.56475 12.7088 8.1243 10.4914 8.02159L10.4919 8.02205Z" fill="white"/>
</g>
<defs>
<clipPath id="clip0_2729_21124">
<rect width="19" height="19" fill="white"/>
</clipPath>
</defs>
</svg>
