<svg width="19" height="19" viewBox="0 0 19 19" fill="none" xmlns="http://www.w3.org/2000/svg">
<g clip-path="url(#clip0_2729_21139)">
<g clip-path="url(#clip1_2729_21139)">
<path d="M9.5 19C14.7646 19 19 14.7646 19 9.5C19 4.23538 14.7646 0 9.5 0C4.23538 0 0 4.23538 0 9.5C0 14.7646 4.23538 19 9.5 19Z" fill="#2775CA"/>
<path d="M12.1125 11.0041C12.1125 9.61875 11.2812 9.14375 9.61873 8.94586C8.43123 8.7875 8.19373 8.47086 8.19373 7.91663C8.19373 7.3624 8.5896 7.00625 9.38123 7.00625C10.0937 7.00625 10.4896 7.24375 10.6875 7.8375C10.7271 7.95625 10.8458 8.03538 10.9646 8.03538H11.5979C11.7562 8.03538 11.875 7.91663 11.875 7.75836V7.71875C11.7166 6.84788 11.0041 6.175 10.0937 6.09586V5.14586C10.0937 4.9875 9.97499 4.86875 9.7771 4.82913H9.18335C9.02498 4.82913 8.90623 4.94788 8.86662 5.14586V6.05625C7.67912 6.21461 6.9271 7.00625 6.9271 7.99586C6.9271 9.30211 7.71873 9.81663 9.38123 10.0146C10.4896 10.2125 10.8458 10.45 10.8458 11.0834C10.8458 11.7167 10.2916 12.1521 9.5396 12.1521C8.51037 12.1521 8.15412 11.7166 8.03537 11.1229C7.99585 10.9646 7.8771 10.8854 7.75835 10.8854H7.08537C6.9271 10.8854 6.80835 11.0041 6.80835 11.1625V11.2021C6.96662 12.1916 7.59998 12.9041 8.90623 13.1021V14.0521C8.90623 14.2104 9.02498 14.3291 9.22287 14.3687H9.81662C9.97498 14.3687 10.0937 14.25 10.1334 14.0521V13.1021C11.3208 12.9041 12.1125 12.0729 12.1125 11.0041Z" fill="white"/>
<path d="M7.48126 15.1604C4.39376 14.0521 2.81039 10.6084 3.95837 7.56039C4.55212 5.89789 5.85837 4.63125 7.48126 4.0375C7.63962 3.95837 7.71876 3.83962 7.71876 3.64164V3.0875C7.71876 2.92914 7.63962 2.81039 7.48126 2.77087C7.44164 2.77087 7.36251 2.77087 7.32289 2.81039C3.56251 3.99789 1.50414 7.99587 2.69164 11.7563C3.40414 13.9729 5.10626 15.675 7.32289 16.3875C7.48126 16.4666 7.63962 16.3875 7.67914 16.2291C7.71876 16.1896 7.71876 16.15 7.71876 16.0709V15.5166C7.71876 15.3979 7.60001 15.2396 7.48126 15.1604ZM11.6771 2.81039C11.5188 2.73125 11.3604 2.81039 11.3209 2.96875C11.2813 3.00837 11.2813 3.04789 11.2813 3.12712V3.68125C11.2813 3.83962 11.4 3.99789 11.5188 4.07712C14.6063 5.18539 16.1896 8.62914 15.0416 11.6771C14.4479 13.3396 13.1416 14.6063 11.5188 15.2C11.3604 15.2791 11.2813 15.3979 11.2813 15.5959V16.15C11.2813 16.3084 11.3604 16.4271 11.5188 16.4666C11.5584 16.4666 11.6375 16.4666 11.6771 16.4271C15.4375 15.2396 17.4959 11.2416 16.3084 7.48125C15.5959 5.225 13.8541 3.52289 11.6771 2.81039Z" fill="white"/>
</g>
</g>
<defs>
<clipPath id="clip0_2729_21139">
<rect width="19" height="19" fill="white"/>
</clipPath>
<clipPath id="clip1_2729_21139">
<rect width="19" height="19" fill="white"/>
</clipPath>
</defs>
</svg>
